<?xml version="1.0" encoding="UTF-8" standalone="no"?>
<!-- Created with Inkscape (http://www.inkscape.org/) -->

<svg
   width="240mm"
   height="120mm"
   viewBox="0 0 240 120"
   version="1.1"
   id="svg8"
   inkscape:version="1.1.2 (0a00cf5339, 2022-02-04)"
   sodipodi:docname="1729849876.svg"
   xmlns:inkscape="http://www.inkscape.org/namespaces/inkscape"
   xmlns:sodipodi="http://sodipodi.sourceforge.net/DTD/sodipodi-0.dtd"
   xmlns="http://www.w3.org/2000/svg"
   xmlns:svg="http://www.w3.org/2000/svg"
   xmlns:rdf="http://www.w3.org/1999/02/22-rdf-syntax-ns#"
   xmlns:cc="http://creativecommons.org/ns#"
   xmlns:dc="http://purl.org/dc/elements/1.1/">
  <defs
     id="defs2">
    <inkscape:path-effect
       effect="spiro"
       id="path-effect881"
       is_visible="true"
       lpeversion="1" />
    <inkscape:path-effect
       effect="spiro"
       id="path-effect1116-3"
       is_visible="true"
       lpeversion="1" />
    <inkscape:path-effect
       effect="spiro"
       id="path-effect1116"
       is_visible="true"
       lpeversion="1" />
    <inkscape:path-effect
       effect="spiro"
       id="path-effect1116-36"
       is_visible="true"
       lpeversion="1" />
    <inkscape:path-effect
       effect="spiro"
       id="path-effect1116-3-7"
       is_visible="true"
       lpeversion="1" />
  </defs>
  <sodipodi:namedview
     id="base"
     pagecolor="#ffffff"
     bordercolor="#666666"
     borderopacity="1.0"
     inkscape:pageopacity="0.0"
     inkscape:pageshadow="2"
     inkscape:zoom="0.99437388"
     inkscape:cx="284.09837"
     inkscape:cy="183.02975"
     inkscape:document-units="mm"
     inkscape:current-layer="g840"
     showgrid="false"
     showborder="true"
     width="200mm"
     showguides="true"
     inkscape:guide-bbox="true"
     inkscape:window-width="2160"
     inkscape:window-height="1375"
     inkscape:window-x="0"
     inkscape:window-y="0"
     inkscape:window-maximized="1"
     inkscape:pagecheckerboard="0">
    <inkscape:grid
       type="xygrid"
       id="grid815"
       units="mm"
       spacingx="10"
       spacingy="10"
       empspacing="4"
       dotted="false" />
  </sodipodi:namedview>
  <metadata
     id="metadata5">
    <rdf:RDF>
      <cc:Work
         rdf:about="">
        <dc:format>image/svg+xml</dc:format>
        <dc:type
           rdf:resource="http://purl.org/dc/dcmitype/StillImage" />
      </cc:Work>
    </rdf:RDF>
  </metadata>
  <g
     inkscape:label="Layer 1"
     inkscape:groupmode="layer"
     id="layer1"
     transform="translate(0,-177)">
    <g
       id="g840"
       transform="translate(5.0068153,-3.7941081)">
      <rect
         style="fill:#ccff00;fill-opacity:0;stroke:#000000;stroke-width:0.315599;stroke-linejoin:bevel;paint-order:fill markers stroke"
         id="rect845"
         width="148.33849"
         height="64.765388"
         x="46.596237"
         y="206.58313" />
      <path
         style="fill:none;stroke:#000000;stroke-width:0.373341px;stroke-linecap:butt;stroke-linejoin:miter;stroke-opacity:1"
         d="m 103.6753,206.66253 c 0.47544,-0.85969 0.6941,-2.01396 1.35052,-2.72247 0.0659,-0.0711 0.17064,-0.0519 0.24708,-0.10372 3.31603,-2.24844 -1.54152,0.85249 1.64712,-1.03706 0.92206,-0.54639 2.00275,-1.53399 3.0327,-0.72809 0.53238,0.41657 0.8988,1.41518 1.22513,2.06125 0.18995,0.37606 0.62474,1.16724 0.48777,1.67465 -0.038,0.14092 -0.28986,-0.10245 -0.42579,-0.45052 -0.1319,-0.33781 -0.0788,-0.76267 -0.0788,-1.12212 0,-0.37713 -0.0776,-0.76712 0,-1.13136 0.25531,-1.19836 1.4567,-2.34171 2.30597,-2.80004 0.70607,-0.38105 1.63495,-0.52643 2.38831,-0.41483 0.29364,0.0435 0.54903,0.27656 0.82354,0.41483 0.1352,0.0681 0.5355,0.22842 0.65886,0.41482 0.38691,0.58463 0.59832,1.49724 0.82345,2.17762 0.15127,0.4572 0.40624,0.95534 0.49413,1.44937 0.0746,0.419 0,0.96201 0,1.40166 0,0.0204 0.006,-0.0423 0,-0.0614 -0.10299,-0.32767 -0.0321,0.0488 -0.22032,-0.34343 -0.13012,-0.27111 -0.11078,-0.82132 -0.0824,-1.10486 0.11053,-1.10409 1.58497,-2.38532 2.29596,-2.68376 1.21275,-0.50904 2.25774,-0.33714 3.45894,0.31113 0.0798,0.0431 0.17763,0.0382 0.24707,0.10371 0.27954,0.26399 0.51381,0.5993 0.74119,0.93335 0.22897,0.33638 0.15448,0.389 0.32944,0.82963 0.1364,0.34353 0.36781,0.7312 0.23834,1.16143 -0.004,0.0127 -0.14562,-0.006 -0.15635,0 -0.3632,0.22827 -0.56731,-0.16617 -0.83574,-0.50418 -0.40963,-0.51583 -0.12964,-2.31449 0.1647,-2.87044 0.1292,-0.24406 0.32099,-0.42601 0.49414,-0.62222 0.67333,-0.76312 0.88096,-0.73178 1.72947,-1.03707 0.14214,-0.0511 0.26633,-0.17411 0.41178,-0.20741 0.57976,-0.13269 1.17547,0.0331 1.72948,0.20741 1.16792,0.36767 1.84953,1.33948 2.38831,2.69633 0.27578,0.69456 0.15481,1.05743 0.24708,1.7466 0.0322,0.24027 0.11292,0.43614 0.16059,0.65647 0.0577,0.26701 0,1.02563 0,1.11661"
         id="path1263" />
      <rect
         style="fill:#ccff00;fill-opacity:0;stroke:#000000;stroke-width:0.373341;stroke-linejoin:bevel;paint-order:fill markers stroke"
         id="rect1309"
         width="15.690493"
         height="11.492603"
         x="150.26817"
         y="201.30055" />
      <ellipse
         style="fill:#ccff00;fill-opacity:0;stroke:#000000;stroke-width:0.373341;stroke-linejoin:bevel;paint-order:fill markers stroke"
         id="path1515"
         cx="123.06262"
         cy="270.77267"
         rx="7.895227"
         ry="9.4542313" />
      <path
         style="fill:none;stroke:#000000;stroke-width:0.373341px;stroke-linecap:butt;stroke-linejoin:miter;stroke-opacity:1"
         d="m 120.63988,273.72157 c 0.39807,-0.34601 0.31783,-1.0037 0.5541,-1.45 0.18838,-0.35581 0.5085,-0.53664 0.7412,-0.82965 0.0971,-0.12224 0.15027,-0.29228 0.24707,-0.41481 0.23288,-0.29478 0.55496,-0.4762 0.81708,-0.72377 0.13477,-0.1273 0.12021,-0.2691 0.31046,-0.39094 0.14246,-0.0912 0.96976,-0.0143 1.13557,0.0967 0.18761,0.12478 0.85704,0.96504 0.86891,1.09415 0.0737,0.80202 0,1.69871 0,2.5051 0,0.0972 -0.0484,0.69614 0,0.76638 0.0682,0.099 0.21663,-0.0242 0.30211,-0.099 0.11958,-0.1045 0.19072,-0.28166 0.30881,-0.38887 0.24036,-0.34066 0.62412,-0.37383 0.90591,-0.62222 0.87155,-0.76826 1.71732,-1.64399 2.47066,-2.59263 0.12449,-0.15676 0.44363,-0.41231 0.48524,-0.61103 0.0568,-0.27132 0.0656,-0.57499 -0.15584,-0.57499"
         id="path1630" />
      <path
         style="fill:none;stroke:#000000;stroke-width:0.373341px;stroke-linecap:butt;stroke-linejoin:miter;stroke-opacity:1"
         d="m 121.44202,223.17518 v 31.18059"
         id="path1114"
         inkscape:path-effect="#path-effect1116-36"
         inkscape:original-d="m 121.44202,223.17518 c 3.4e-4,10.39394 3.4e-4,20.78748 0,31.18059" />
      <path
         style="fill:none;stroke:#000000;stroke-width:0.373341px;stroke-linecap:butt;stroke-linejoin:miter;stroke-opacity:1"
         d="m 126.92654,223.26277 v 31.18059"
         id="path1114-6"
         inkscape:path-effect="#path-effect1116-3-7"
         inkscape:original-d="m 126.92654,223.26277 c 3.2e-4,10.39395 3.2e-4,20.78748 0,31.18059" />
    </g>
    <path
       style="fill:none;stroke:#000000;stroke-width:0.264583px;stroke-linecap:butt;stroke-linejoin:miter;stroke-opacity:1"
       d="M 52.137502,234.62564 H 199.09594"
       id="path879"
       inkscape:path-effect="#path-effect881"
       inkscape:original-d="m 52.137502,234.62564 c 48.986408,2.6e-4 97.972558,2.6e-4 146.958438,0" />
  </g>
</svg>
