<?xml version="1.0" encoding="UTF-8" standalone="no"?>
<!-- Created with Inkscape (http://www.inkscape.org/) -->

<svg
   width="240mm"
   height="120mm"
   viewBox="0 0 240 120"
   version="1.1"
   id="svg8"
   inkscape:version="1.1.2 (0a00cf5339, 2022-02-04)"
   sodipodi:docname="1729325603-.svg"
   xmlns:inkscape="http://www.inkscape.org/namespaces/inkscape"
   xmlns:sodipodi="http://sodipodi.sourceforge.net/DTD/sodipodi-0.dtd"
   xmlns="http://www.w3.org/2000/svg"
   xmlns:svg="http://www.w3.org/2000/svg"
   xmlns:rdf="http://www.w3.org/1999/02/22-rdf-syntax-ns#"
   xmlns:cc="http://creativecommons.org/ns#"
   xmlns:dc="http://purl.org/dc/elements/1.1/">
  <defs
     id="defs2">
    <inkscape:path-effect
       effect="spiro"
       id="path-effect2087"
       is_visible="true"
       lpeversion="1" />
    <inkscape:path-effect
       effect="spiro"
       id="path-effect1809"
       is_visible="true"
       lpeversion="1" />
    <inkscape:path-effect
       effect="spiro"
       id="path-effect1145"
       is_visible="true"
       lpeversion="1" />
    <inkscape:path-effect
       effect="spiro"
       id="path-effect1809-3"
       is_visible="true"
       lpeversion="1" />
  </defs>
  <sodipodi:namedview
     id="base"
     pagecolor="#ffffff"
     bordercolor="#666666"
     borderopacity="1.0"
     inkscape:pageopacity="0.0"
     inkscape:pageshadow="2"
     inkscape:zoom="1.406257"
     inkscape:cx="643.19679"
     inkscape:cy="216.88781"
     inkscape:document-units="mm"
     inkscape:current-layer="layer1"
     showgrid="false"
     showborder="true"
     width="200mm"
     showguides="true"
     inkscape:guide-bbox="true"
     inkscape:window-width="2160"
     inkscape:window-height="1375"
     inkscape:window-x="0"
     inkscape:window-y="0"
     inkscape:window-maximized="1"
     inkscape:pagecheckerboard="0">
    <inkscape:grid
       type="xygrid"
       id="grid815"
       units="mm"
       spacingx="10"
       spacingy="10"
       empspacing="4"
       dotted="false" />
  </sodipodi:namedview>
  <metadata
     id="metadata5">
    <rdf:RDF>
      <cc:Work
         rdf:about="">
        <dc:format>image/svg+xml</dc:format>
        <dc:type
           rdf:resource="http://purl.org/dc/dcmitype/StillImage" />
      </cc:Work>
    </rdf:RDF>
  </metadata>
  <g
     inkscape:label="Layer 1"
     inkscape:groupmode="layer"
     id="layer1"
     transform="translate(0,-177)">
    <rect
       style="fill:#ccff00;fill-opacity:0;stroke:#000000;stroke-width:0.421;paint-order:fill markers stroke"
       id="rect1458"
       width="103.02074"
       height="60.239223"
       x="72.183167"
       y="206.4201" />
    <path
       style="fill:none;stroke:#000000;stroke-width:0.264583px;stroke-linecap:butt;stroke-linejoin:miter;stroke-opacity:1"
       d="m 119.13886,196.37836 v 22.08748"
       id="path1807"
       inkscape:path-effect="#path-effect1809"
       inkscape:original-d="m 119.13886,196.37836 c 2.7e-4,7.36276 2.7e-4,14.72525 0,22.08748" />
    <path
       style="fill:none;stroke:#000000;stroke-width:0.264583px;stroke-linecap:butt;stroke-linejoin:miter;stroke-opacity:1"
       d="m 122.19117,196.57766 v 22.08748"
       id="path1807-6"
       inkscape:path-effect="#path-effect1809-3"
       inkscape:original-d="m 122.19117,196.57766 c 2.7e-4,7.36276 2.7e-4,14.72525 0,22.08748" />
    <path
       style="fill:none;stroke:#000000;stroke-width:0.264583px;stroke-linecap:butt;stroke-linejoin:miter;stroke-opacity:1"
       d="m 151.68642,206.29232 v 60.37192"
       id="path2085"
       inkscape:path-effect="#path-effect2087"
       inkscape:original-d="m 151.68642,206.29232 c 2.7e-4,20.12424 2.7e-4,40.24821 0,60.37192" />
    <rect
       style="fill:#ccff00;fill-opacity:0;stroke:#000000;stroke-width:0.421;paint-order:fill markers stroke"
       id="rect2191"
       width="7.1082067"
       height="15.382522"
       x="148.24026"
       y="227.29213" />
    <path
       style="fill:none;stroke:#000000;stroke-width:0.264583px;stroke-linecap:butt;stroke-linejoin:miter;stroke-opacity:1"
       d="m 72.469622,204.16033 c -0.0851,-0.0283 -0.262028,-0.1208 -0.38585,-0.0961 -0.256942,0.0512 -0.552871,0.21529 -0.771697,0.33644 -0.831657,0.46041 -1.590075,1.13068 -1.977485,2.0186 -0.1327,0.30413 -0.259977,0.76833 -0.289394,1.10542 -0.07937,0.90948 0.216329,2.20043 1.157555,2.59535 0.784691,0.32923 1.702752,-0.23353 2.315111,-0.67287 0.95733,-0.68686 1.79918,-1.61249 1.88101,-2.83565 0.0161,-0.24021 0.0364,-0.60282 -0.19292,-0.769 -0.8478,-0.61441 -2.479839,-0.36505 -3.424422,-0.0961"
       id="path2306" />
    <path
       style="fill:none;stroke:#000000;stroke-width:0.264583px;stroke-linecap:butt;stroke-linejoin:miter;stroke-opacity:1"
       d="m 73.000172,263.43857 c -0.0965,-0.0961 -0.18675,-0.19888 -0.28939,-0.28837 -0.31116,-0.27131 -0.859769,-0.21106 -1.205781,-0.0961 -1.050451,0.34892 -1.883159,1.15454 -2.411571,2.11473 -0.67622,1.22878 -1.022086,3.18233 -0.192926,4.4217 0.234677,0.35078 0.590954,0.63087 0.964631,0.81705 1.320678,0.65802 2.998487,0.43855 4.196117,-0.38449 1.49359,-1.02643 2.6389,-2.96198 2.4598,-4.8062 -0.15324,-1.57798 -1.34103,-2.44606 -2.89387,-2.35503 -0.70473,0.0413 -0.90913,0.17973 -1.54341,0.43255"
       id="path2308" />
    <path
       style="fill:none;stroke:#000000;stroke-width:0.264583px;stroke-linecap:butt;stroke-linejoin:miter;stroke-opacity:1"
       d="m 41.332836,233.44739 c -0.367305,-0.14856 -0.860298,-0.17418 -1.109318,-0.52868 -0.669473,-0.95304 -0.272701,-2.1494 0.241154,-3.07597 0.706456,-1.27386 1.677088,-2.43401 2.797419,-3.36434 0.262913,-0.21832 1.117113,-0.89428 1.543404,-0.81705 0.253661,0.046 0.374592,0.56071 0.385847,0.67287 0.04639,0.46228 0.06207,0.93336 0,1.39379 -0.0836,0.62014 -0.253693,1.22718 -0.434081,1.82636 -0.206054,0.68443 -0.487619,1.34386 -0.723471,2.0186 -0.262551,0.75113 -0.514466,1.50594 -0.771699,2.25891 -0.969741,2.83861 -2.042581,5.79455 -1.977486,8.8434 0.02522,1.18163 0.243107,2.55051 1.688095,2.64341 1.074176,0.0691 2.14522,-0.72838 2.845652,-1.44186 0.407257,-0.41485 0.74808,-0.89026 1.109321,-1.34574 0.426656,-0.53795 0.874017,-1.06224 1.254016,-1.6341 0.409472,-0.61622 0.757595,-1.27157 1.109319,-1.92248 0.941001,-1.74143 1.640046,-3.55712 2.266873,-5.431 0.625348,-1.86946 1.155317,-3.78573 1.543405,-5.71937 0.10864,-0.54131 0.249393,-1.16755 0.192926,-1.73023 -0.0072,-0.0713 -0.02477,-0.19225 -0.09646,-0.19225 -0.03592,0 -0.07342,0.0205 -0.09646,0.0481 -0.139962,0.16736 -0.272593,0.34222 -0.385853,0.52868 -0.907669,1.49437 -1.557491,3.0907 -2.073947,4.75814 -0.594204,1.91845 -1.08721,3.91781 -1.350478,5.91162 -0.3004,2.27504 -0.20733,4.6404 0.337619,6.87286 0.11263,0.46139 0.329784,1.08199 0.482317,1.53798"
       id="path2310" />
    <path
       style="fill:none;stroke:#000000;stroke-width:0.264583px;stroke-linecap:butt;stroke-linejoin:miter;stroke-opacity:1"
       d="m 52.667202,243.20396 c 0.09647,0 0.195382,0.0216 0.289391,0 0.259133,-0.0596 0.573876,-0.2934 0.7717,-0.43255 0.875569,-0.61588 1.691785,-1.64376 2.073949,-2.64341 0.123698,-0.32357 0.356264,-0.94266 0.04823,-1.24961 -0.229257,-0.22846 -0.687338,-0.0547 -0.916395,0.0481 -1.260983,0.56545 -2.004216,2.07586 -2.508028,3.26821 -0.314608,0.74457 -0.394727,0.94074 -0.530545,1.73023 -0.06548,0.38066 -0.13398,0.98257 -0.09646,1.3938 0.0254,0.27841 0.09741,0.80413 0.337619,1.0093 0.147553,0.12603 0.349922,0.12788 0.530542,0.0961 0.165267,-0.0291 0.332124,-0.0693 0.482317,-0.14418 0.745228,-0.37131 1.5616,-1.30488 1.639864,-2.16279 0.0073,-0.0798 0.0195,-0.16262 0,-0.24031 -0.103026,-0.41065 -0.920941,-0.3932 -1.205783,-0.33644 -0.321913,0.0642 -0.614008,0.21591 -0.916398,0.33644"
       id="path2312" />
    <path
       style="fill:none;stroke:#000000;stroke-width:0.264583px;stroke-linecap:butt;stroke-linejoin:miter;stroke-opacity:1"
       d="m 56.091628,242.53109 c 0.931383,0.76392 1.905481,1.4938 2.652723,2.45116 0.254598,0.32619 0.463285,0.68521 0.723471,1.00931"
       id="path2314" />
    <path
       style="fill:none;stroke:#000000;stroke-width:0.264583px;stroke-linecap:butt;stroke-linejoin:miter;stroke-opacity:1"
       d="m 59.130203,242.1466 c -0.128616,0.0481 -0.272833,0.0662 -0.385852,0.14418 -0.103143,0.0712 -0.158475,0.19422 -0.241155,0.28838 -0.284877,0.32443 -0.578776,0.64082 -0.868164,0.96123 -0.655439,0.72571 -1.436992,1.37398 -1.881023,2.25892"
       id="path2316" />
    <path
       style="fill:none;stroke:#000000;stroke-width:0.264583px;stroke-linecap:butt;stroke-linejoin:miter;stroke-opacity:1"
       d="m 135.11273,192.27311 c 0.11929,-0.37117 0.43409,-0.64663 0.43409,-1.05737 0,-0.54788 -0.67579,-0.89148 -1.10932,-1.0093 -2.21034,-0.6007 -5.00915,0.45101 -6.22184,2.4031 -0.65509,1.05449 -1.0611,2.3565 -1.0611,3.60465 0,1.08003 0.36331,2.41111 0.86817,3.36433 0.14162,0.26739 0.2804,0.54364 0.48231,0.76899 0.37708,0.42085 1.28718,0.95458 1.78456,1.10543 0.62941,0.19088 1.67853,0.17751 2.31511,0.0481 0.4134,-0.0841 0.80385,-0.25633 1.20578,-0.38449"
       id="path2318" />
    <path
       style="fill:none;stroke:#000000;stroke-width:0.264583px;stroke-linecap:butt;stroke-linejoin:miter;stroke-opacity:1"
       d="m 135.59505,241.5366 c -0.12172,0 -0.18292,-0.3448 -0.19292,-0.3845 -0.17109,-0.68191 -0.27232,-1.36699 -0.33762,-2.06666 -0.17033,-1.82471 -0.0265,-0.50864 -0.19293,-2.49922 -0.2087,-2.49564 -0.44454,-4.99463 -0.53054,-7.49766 -0.11254,-0.17623 -0.27505,-0.32917 -0.33762,-0.52869 -0.0442,-0.14096 0.41016,-0.6911 0.48231,-0.76899 0.93639,-1.01087 2.41317,-1.44162 3.76205,-1.24961 0.51591,0.0734 1.08545,0.27499 1.39871,0.72093 1.35026,1.92217 -0.33533,4.37172 -1.8328,5.62325 -0.75025,0.62703 -1.55278,1.18802 -2.50803,1.44186 -0.0931,0.0248 -0.57877,0.10846 -0.57877,-0.14418 0,-0.27198 0.69058,-0.50175 0.7717,-0.52869 0.90851,-0.30177 1.94389,-0.18826 2.74919,0.33643 1.22661,0.7992 1.86988,2.22931 2.55626,3.46046 0.29053,0.52113 0.62825,1.01593 0.91639,1.53799 0.24875,0.45067 0.4657,0.92399 0.67524,1.39379"
       id="path2320" />
    <path
       style="fill:none;stroke:#000000;stroke-width:0.264583px;stroke-linecap:butt;stroke-linejoin:miter;stroke-opacity:1"
       d="m 176.49342,202.87168 c -0.19058,0.0425 -0.38702,-0.0212 -0.57878,0 -1.03118,0.11417 -1.82411,1.08423 -2.36334,1.87441 -0.53028,0.77708 -1.02813,1.86466 -0.77169,2.83566 0.38204,1.44664 2.30219,1.94441 3.56911,1.48992 0.37878,-0.13588 0.80499,-0.41509 1.10932,-0.67287 0.84098,-0.71232 1.41362,-1.96269 1.25402,-3.07597 -0.0331,-0.23096 -0.11164,-0.45415 -0.19293,-0.67286 -0.39436,-1.06105 -1.18309,-2.05437 -2.36333,-2.25891 -0.39105,-0.0678 -0.56283,0.008 -0.9164,0.0961"
       id="path2322" />
    <path
       style="fill:none;stroke:#000000;stroke-width:0.264583px;stroke-linecap:butt;stroke-linejoin:miter;stroke-opacity:1"
       d="m 176.10757,263.87119 c -0.41402,-0.263 -0.88054,-0.24031 -1.35048,-0.24031 -0.87912,0 -1.51561,0.32202 -2.07395,1.00929 -0.15172,0.18676 -0.31439,0.36802 -0.43408,0.57675 -0.52744,0.91979 -0.76042,2.02615 -0.57878,3.07597 0.27056,1.56369 1.81382,2.84678 3.42443,2.69146 0.43291,-0.0417 1.08087,-0.32023 1.44694,-0.52868 1.13933,-0.64876 2.10755,-1.80355 2.4598,-3.07596 0.0605,-0.21837 0.0704,-0.44779 0.0965,-0.67287 0.0222,-0.19164 0.0567,-0.38401 0.0482,-0.57674 -0.0361,-0.82816 -0.46531,-1.70247 -1.30224,-1.97054 -0.7358,-0.23568 -0.93325,-0.13164 -1.6881,-0.0481"
       id="path2324" />
    <path
       style="fill:none;stroke:#000000;stroke-width:0.264583px;stroke-linecap:butt;stroke-linejoin:miter;stroke-opacity:1"
       d="m 177.78332,232.45896 c 0,-0.14418 -0.0331,-0.29223 0,-0.43256 0.033,-0.13955 0.13088,-0.25522 0.19293,-0.38449 0.11482,-0.23923 0.21861,-0.48376 0.33762,-0.72093 0.60485,-1.20545 1.40967,-2.28949 2.21864,-3.36434 0.73424,-0.97555 1.45356,-1.98121 2.4598,-2.69147 0.29563,-0.20867 0.83753,-0.64186 1.25401,-0.52868 0.58222,0.15823 0.61322,1.20784 0.62702,1.58605 0.0199,0.54457 0.0178,1.09318 -0.0482,1.6341 -0.0792,0.6488 -0.23029,1.28766 -0.38585,1.92248 -0.31299,1.27726 -0.87327,3.02564 -1.30225,4.27752 -0.21528,0.62824 -0.4695,1.24297 -0.67524,1.87441 -0.4688,1.43885 -0.89266,2.95927 -1.06109,4.46976 -0.0504,0.45212 -0.21056,2.34828 0.43409,2.59535 0.13838,0.053 0.28654,0.11012 0.43408,0.0961 0.85377,-0.081 1.66723,-1.02633 2.17041,-1.58604 1.21715,-1.35391 2.30984,-2.85241 3.37619,-4.32558 1.22684,-1.69486 2.40674,-3.42901 3.3762,-5.28681 0.83855,-1.60695 1.32775,-3.36111 1.83279,-5.09457 0.13216,-0.45361 0.20231,-0.72199 0.33762,-1.15348 0.0303,-0.0967 0.0643,-0.19225 0.0965,-0.28838 0.021,-0.0626 0.1143,-0.19225 0.0482,-0.19225 -0.0227,0 -0.036,0.0289 -0.0482,0.0481 -0.10065,0.15761 -0.20362,0.31444 -0.28938,0.48061 -0.20389,0.39506 -0.37941,0.80421 -0.57878,1.20156 -0.62526,1.24612 -1.11034,2.07743 -1.6881,3.36433 -0.81474,1.8148 -1.39327,3.67367 -1.78456,5.62325 -0.39649,1.97551 -0.54113,4.04892 -0.28939,6.0558 0.0934,0.74477 0.23704,1.16756 0.43409,1.87442"
       id="path2326" />
    <path
       style="fill:none;stroke:#000000;stroke-width:0.264583px;stroke-linecap:butt;stroke-linejoin:miter;stroke-opacity:1"
       d="m 191.45493,243.2729 c -0.0965,0.016 -0.1916,0.0481 -0.28939,0.0481 -0.0227,0 0.0258,-0.0443 0.0482,-0.0481 0.0793,-0.0132 0.17626,0.0474 0.24116,0 0.1926,-0.14074 0.30473,-0.36941 0.48232,-0.52868 0.32519,-0.29165 0.72503,-0.48993 1.06109,-0.76899 0.76551,-0.63569 1.45222,-1.38836 2.07394,-2.16279 0.5393,-0.67176 1.07394,-1.38413 1.35048,-2.21085 0.0872,-0.26061 0.25976,-1.05325 -0.19292,-1.15349 -0.6378,-0.14123 -1.54081,0.7317 -1.92925,1.10543 -1.9042,1.83208 -3.57252,4.82264 -3.27974,7.54572 0.04,0.37169 0.15081,1.3674 0.57878,1.53799 0.45209,0.1802 1.08331,-0.15391 1.44694,-0.3845 0.82459,-0.52289 1.73632,-1.77941 1.73632,-2.78759 0,-0.90217 -0.79187,-1.05091 -1.54339,-1.0093 -0.12942,0.007 -0.26211,0.01 -0.38586,0.0481 -0.1372,0.0427 -0.25723,0.12817 -0.38585,0.19225"
       id="path2334" />
    <path
       style="fill:none;stroke:#000000;stroke-width:0.264583px;stroke-linecap:butt;stroke-linejoin:miter;stroke-opacity:1"
       d="m 197.58031,242.02329 c -0.0965,-0.016 -0.19258,-0.0618 -0.28938,-0.0481 -0.0254,0.004 -0.13006,0.32977 -0.1447,0.38449 -0.13396,0.50057 -0.23586,1.00709 -0.43408,1.48992 -0.0681,0.16582 -0.16739,0.31726 -0.24116,0.48062 -0.136,0.30117 -0.25301,0.61061 -0.38585,0.91318 -0.0464,0.10569 -0.35685,0.73067 -0.28939,0.86511 0.007,0.0144 0.0322,0 0.0482,0 0.21842,0 0.40166,-0.11194 0.57878,-0.24031 0.54861,-0.39758 1.31996,-1.26432 1.39871,-1.97054 0.0147,-0.13195 -0.15273,-0.88514 -0.38585,-0.76899 -0.08,0.0399 -0.1403,0.13109 -0.0482,0.19225 0.19556,0.12991 0.511,0.10858 0.72347,0.0961 0.82249,-0.0482 1.53466,-0.46852 2.17041,-0.96124 0.17859,-0.13842 0.35921,-0.2568 0.43408,-0.48062 0.0109,-0.0327 0.0211,-0.13065 -0.0482,-0.0961 -0.0919,0.0458 -0.13895,0.15291 -0.19292,0.24031 -0.17516,0.28364 -0.33356,0.6167 -0.48232,0.91318 -0.23935,0.47701 -0.317,0.64894 -0.57877,1.10542 -0.36315,0.63327 -0.81838,1.24188 -0.96464,1.97054"
       id="path2336" />
    <path
       style="fill:none;stroke:#000000;stroke-width:0.264583px;stroke-linecap:butt;stroke-linejoin:miter;stroke-opacity:1"
       d="m 202.49991,242.31166 c 0.0322,0.12817 0.0546,0.25919 0.0965,0.3845 0.023,0.0688 0.333,0.75863 0.33762,0.76899 0.47249,1.05936 1.0912,2.03655 1.6881,3.0279"
       id="path2338" />
    <path
       style="fill:none;stroke:#000000;stroke-width:0.264583px;stroke-linecap:butt;stroke-linejoin:miter;stroke-opacity:1"
       d="m 206.06903,242.16748 c -0.11254,-0.032 -0.22101,-0.10581 -0.33762,-0.0961 -0.0933,0.008 -0.16077,0.0961 -0.24116,0.14419 -0.16077,0.0961 -0.32629,0.18472 -0.48231,0.28837 -0.82668,0.54918 -1.53938,1.2533 -2.26687,1.92248 -1.88481,1.73371 0.58823,-0.55651 -1.20578,1.15348 -0.64151,0.61146 -1.30142,1.20071 -1.92926,1.82636"
       id="path2340" />
  </g>
</svg>
