<?xml version="1.0" encoding="UTF-8" standalone="no"?>
<!-- Created with Inkscape (http://www.inkscape.org/) -->

<svg
   width="240mm"
   height="120mm"
   viewBox="0 0 240 120"
   version="1.1"
   id="svg8"
   inkscape:version="1.1.2 (0a00cf5339, 2022-02-04)"
   sodipodi:docname="1729089075-16-10-anmech-1.svg"
   xmlns:inkscape="http://www.inkscape.org/namespaces/inkscape"
   xmlns:sodipodi="http://sodipodi.sourceforge.net/DTD/sodipodi-0.dtd"
   xmlns="http://www.w3.org/2000/svg"
   xmlns:svg="http://www.w3.org/2000/svg"
   xmlns:rdf="http://www.w3.org/1999/02/22-rdf-syntax-ns#"
   xmlns:cc="http://creativecommons.org/ns#"
   xmlns:dc="http://purl.org/dc/elements/1.1/">
  <defs
     id="defs2">
    <inkscape:path-effect
       effect="spiro"
       id="path-effect1825"
       is_visible="true"
       lpeversion="1" />
    <inkscape:path-effect
       effect="spiro"
       id="path-effect1653"
       is_visible="true"
       lpeversion="1" />
    <inkscape:path-effect
       effect="spiro"
       id="path-effect1272"
       is_visible="true"
       lpeversion="1" />
    <inkscape:path-effect
       effect="spiro"
       id="path-effect1155"
       is_visible="true"
       lpeversion="1" />
    <inkscape:path-effect
       effect="spiro"
       id="path-effect940"
       is_visible="true"
       lpeversion="1" />
  </defs>
  <sodipodi:namedview
     id="base"
     pagecolor="#ffffff"
     bordercolor="#666666"
     borderopacity="1.0"
     inkscape:pageopacity="0.0"
     inkscape:pageshadow="2"
     inkscape:zoom="5.6250281"
     inkscape:cx="478.66428"
     inkscape:cy="305.24292"
     inkscape:document-units="mm"
     inkscape:current-layer="layer1"
     showgrid="false"
     showborder="true"
     width="200mm"
     showguides="true"
     inkscape:guide-bbox="true"
     inkscape:window-width="2160"
     inkscape:window-height="1375"
     inkscape:window-x="0"
     inkscape:window-y="0"
     inkscape:window-maximized="1"
     inkscape:pagecheckerboard="0">
    <inkscape:grid
       type="xygrid"
       id="grid815"
       units="mm"
       spacingx="10"
       spacingy="10"
       empspacing="4"
       dotted="false" />
  </sodipodi:namedview>
  <metadata
     id="metadata5">
    <rdf:RDF>
      <cc:Work
         rdf:about="">
        <dc:format>image/svg+xml</dc:format>
        <dc:type
           rdf:resource="http://purl.org/dc/dcmitype/StillImage" />
      </cc:Work>
    </rdf:RDF>
  </metadata>
  <g
     inkscape:label="Layer 1"
     inkscape:groupmode="layer"
     id="layer1"
     transform="translate(0,-177)">
    <path
       style="fill:none;stroke:#000000;stroke-width:0.264583px;stroke-linecap:butt;stroke-linejoin:miter;stroke-opacity:1"
       d="M 119.80549,187.37608 V 288.21005"
       id="path1153"
       inkscape:path-effect="#path-effect1155"
       inkscape:original-d="m 119.80549,187.37608 c 2.7e-4,33.61159 2.7e-4,67.22291 0,100.83397" />
    <path
       style="fill:none;stroke:#000000;stroke-width:0.264583px;stroke-linecap:butt;stroke-linejoin:miter;stroke-opacity:1"
       d="M 62.217267,237.64887 H 195.33578"
       id="path1270"
       inkscape:path-effect="#path-effect1272"
       inkscape:original-d="m 62.217267,237.64887 c 44.373103,2.7e-4 88.745943,2.7e-4 133.118513,0" />
    <ellipse
       style="fill:#ccff00;fill-opacity:0;stroke:#000000;stroke-width:0.421;paint-order:fill markers stroke"
       id="path1376"
       cx="119.75752"
       cy="237.50053"
       rx="32.073845"
       ry="32.153446" />
    <path
       style="fill:none;stroke:#000000;stroke-width:0.264583px;stroke-linecap:butt;stroke-linejoin:miter;stroke-opacity:1"
       d="m 120.28781,237.55275 20.45009,24.70384"
       id="path1651"
       inkscape:path-effect="#path-effect1653"
       inkscape:original-d="m 120.28781,237.55275 c 6.81696,8.23488 13.63366,16.46949 20.45009,24.70384" />
    <path
       style="fill:none;stroke:#000000;stroke-width:0.264583px;stroke-linecap:butt;stroke-linejoin:miter;stroke-opacity:1"
       d="m 132.97504,254.95299 c -0.0603,-0.21051 -0.0966,-0.3192 -0.13642,-0.54376 -0.0557,-0.31433 -0.0524,-0.63681 -0.10231,-0.95157 -0.0601,-0.37921 -0.17404,-0.75227 -0.27284,-1.1215 -0.027,-0.10091 -0.0455,-0.20392 -0.0682,-0.30587 0.18345,0.16619 0.3571,0.35745 0.57978,0.47579 0.30791,0.16364 0.97591,0.47579 1.33008,0.47579 0.0804,0 0.15916,-0.0227 0.23874,-0.034"
       id="path1768" />
    <path
       style="fill:none;stroke:#000000;stroke-width:0.264583px;stroke-linecap:butt;stroke-linejoin:miter;stroke-opacity:1"
       d="m 133.65715,247.44232 c 0.0114,0.0793 0.0157,0.15993 0.0341,0.2379 0.0383,0.16222 0.1924,0.60919 0.23873,0.74767 0.11101,0.33186 0.21537,0.65995 0.34105,0.98556 0.0387,0.1003 0.0812,0.20046 0.10231,0.30587 0.004,0.0222 0,0.0453 0,0.068 0,0.0113 0.0113,0.034 0,0.034 -0.0507,0 -0.0476,-0.0896 -0.0682,-0.13594 -0.031,-0.0694 -0.0717,-0.13428 -0.10231,-0.20391 -0.21769,-0.49583 -0.35619,-1.01318 -0.51157,-1.52932 -0.0388,-0.12897 -0.0224,-0.12365 -0.0682,-0.23789 -0.009,-0.0235 -0.0373,-0.0428 -0.0341,-0.068 0.009,-0.0711 0.005,-0.23863 0.0682,-0.20392 0.12935,0.0716 0.15082,0.25496 0.23873,0.37384 0.0717,0.097 0.1619,0.17891 0.23873,0.27188 0.30839,0.37316 0.57433,0.81335 0.95493,1.1215 0.10468,0.0847 0.90175,0.68239 1.05725,0.47579 0.11757,-0.15621 0.0819,-0.67882 0.0682,-0.81564 -0.085,-0.84718 -0.45599,-1.71885 -0.75031,-2.51488 -0.1109,-0.29996 -0.20328,-0.6057 -0.27283,-0.9176 -0.0296,-0.13275 -0.0682,-0.23882 -0.0682,-0.37383"
       id="path1770" />
    <path
       style="fill:none;stroke:#000000;stroke-width:0.264583px;stroke-linecap:butt;stroke-linejoin:miter;stroke-opacity:1"
       d="m 131.64497,246.04894 c 0.10066,-0.1943 -0.12677,-0.15069 -0.17053,-0.23789 -0.01,-0.02 0,-0.0792 0,-0.10196 0,-0.0389 -0.009,-0.10079 0,-0.13594 0.0455,-0.1812 0.67507,-0.61158 0.81851,-0.71368 0.54184,-0.38566 1.14034,-0.71004 1.63703,-1.15549 0.0514,-0.0461 0.47634,-0.47691 0.40926,-0.54376 -0.0337,-0.0335 -0.18492,0.0291 -0.20463,0.034 -0.24921,0.0621 -0.47351,0.15728 -0.7162,0.23789 -0.10658,0.0354 -0.2058,0.0516 -0.30694,0.10196 -0.0635,0.0317 -0.17409,0.0715 -0.13642,0.034 0.0957,-0.0953 0.40799,-0.16141 0.51157,-0.20391 0.43572,-0.17878 0.84868,-0.42917 1.29598,-0.57774 0.0333,-0.0111 0.36441,-0.0554 0.37515,-0.034 0.0917,0.1828 -0.26551,0.77191 -0.37515,0.91759"
       id="path1772" />
    <path
       style="fill:none;stroke:#000000;stroke-width:0.264583px;stroke-linecap:butt;stroke-linejoin:miter;stroke-opacity:1"
       d="m 133.65715,247.44232 c -0.021,0.76303 0.12558,1.43643 0.37515,2.14106 0.0854,0.24109 0.19172,0.47121 0.27283,0.71368"
       id="path1774" />
    <path
       style="fill:none;stroke:#000000;stroke-width:0.264583px;stroke-linecap:butt;stroke-linejoin:miter;stroke-opacity:1"
       d="m 140.7379,262.25659 c -0.13208,-0.0443 -0.26971,-0.0745 -0.39623,-0.13277 -0.0292,-0.0134 0.0455,-0.0453 0.0682,-0.068 0.0219,-0.0218 0.13731,-0.0671 0.17052,-0.034 0.008,0.008 0,0.0226 0,0.034 0,0.0228 0.01,0.082 0,0.10196 -0.0437,0.087 -0.14863,0.1244 -0.23873,0.10196 -0.0738,-0.0184 -0.15828,-0.0782 -0.20463,-0.13594 -0.26059,-0.32459 0.0412,-0.79282 0.37515,-0.9176 0.30558,-0.11419 0.51157,-0.0148 0.51157,0.30586 0,0.14389 -0.0365,0.24028 -0.13642,0.33985 -0.0148,0.0148 -0.0734,0.0628 -0.10231,0.034 -0.007,-0.007 -0.005,-0.12526 0,-0.13594 0.007,-0.0143 0.0197,-0.0268 0.0341,-0.034 0.0102,-0.005 0.0341,0.0114 0.0341,0 0,-0.0227 -0.0455,0 -0.0682,0 -0.0227,0 -0.0682,-0.0227 -0.0682,0 0,0.0136 0.0384,-0.0106 0.10231,0 0.0462,0.008 0.0898,0.0298 0.13642,0.034 0.45097,0.0409 0.89392,-0.031 1.33009,-0.13594 0.81176,-0.19525 0.28414,-0.0667 1.09135,-0.30586 1.0357,-0.30684 2.06077,-0.62982 3.06942,-1.01955 0.86948,-0.33597 1.72347,-0.71415 2.59196,-1.05354 0.26421,-0.10325 1.41327,-0.54266 1.70524,-0.64571 0.69948,-0.23234 0.91423,-0.29975 1.60292,-0.54376 0.55861,-0.19792 0.87757,-0.32548 1.43239,-0.50977 0.70021,-0.23258 1.41502,-0.41337 2.1145,-0.64572 0.23873,-0.0793 0.47601,-0.16309 0.7162,-0.23789 0.17137,-0.0534 0.75351,-0.21031 0.85261,-0.40782 0.0215,-0.0428 -0.0326,-0.17139 0,-0.20391 0.008,-0.008 0.0261,0.008 0.0341,0 0.0132,-0.0132 0,-0.11525 0,-0.13594 0,-0.0226 0.0102,-0.0477 0,-0.068 -0.0924,-0.18407 -0.65266,-0.23789 -0.81852,-0.23789 -0.10231,0 -0.20462,0 -0.30694,0 -0.0455,0 -0.18189,0 -0.13642,0 0.22473,0 0.45492,0.0878 0.68209,0.10195 0.19289,0.012 0.38653,0 0.57979,0 0.36378,0 0.72757,0 1.09135,0 0.0487,0 0.0772,-0.0161 0.10231,0.034 0.0683,0.13607 -0.13377,0.30322 -0.20463,0.37383 -0.53382,0.53194 -1.13557,0.91819 -1.73933,1.3594 -0.59153,0.43226 0.0561,-0.0548 -0.40926,0.30586 -0.0732,0.0567 -0.17292,0.10435 -0.23874,0.16993"
       id="path1776" />
    <path
       style="fill:none;stroke:#000000;stroke-width:0.264583px;stroke-linecap:butt;stroke-linejoin:miter;stroke-opacity:1"
       d="m 163.15772,249.54939 c 0.20093,1.40594 0.13642,2.83182 0.13642,4.24811"
       id="path1778" />
    <path
       style="fill:none;stroke:#000000;stroke-width:0.264583px;stroke-linecap:butt;stroke-linejoin:miter;stroke-opacity:1"
       d="m 160.8386,250.26307 c 0.11368,-0.0566 0.22163,-0.12665 0.34105,-0.16992 0.32611,-0.11817 0.57586,-0.11448 0.92082,-0.16993 0.1827,-0.0294 0.36328,-0.0708 0.54568,-0.10195 0.61195,-0.10454 1.22606,-0.19273 1.84166,-0.27188 0.33992,-0.0437 0.58471,-0.0874 0.92082,-0.10195 0.2158,-0.009 0.43199,0 0.64799,0"
       id="path1780" />
    <path
       style="fill:none;stroke:#000000;stroke-width:0.264583px;stroke-linecap:butt;stroke-linejoin:miter;stroke-opacity:1"
       d="m 161.89585,254.00142 c 0.0682,-0.034 0.1323,-0.0779 0.20462,-0.10196 0.0631,-0.0209 0.44351,-0.0626 0.47747,-0.068 0.95946,-0.15096 -0.33357,0.0203 0.92083,-0.13594 0.90951,-0.11329 1.82096,-0.21067 2.72837,-0.33985"
       id="path1782" />
    <path
       style="fill:none;stroke:#000000;stroke-width:0.264583px;stroke-linecap:butt;stroke-linejoin:miter;stroke-opacity:1"
       d="m 167.3526,252.70999 c -0.0407,0.28414 -0.0536,0.16019 0,0.37383 0.0356,0.1419 0.11609,0.48664 0.34104,0.44181 0.28161,-0.0561 0.45744,-0.26595 0.57979,-0.50978 0.0114,-0.0226 0.0279,-0.0434 0.0341,-0.068 0.0117,-0.0468 0,-0.12005 0,-0.16992 0,-0.0226 0.0226,-0.068 0,-0.068 -0.0467,0 0.0212,0.091 0.0341,0.13594 0.0257,0.0898 0.0455,0.18125 0.0682,0.27188 0.0518,0.20632 0.10304,0.40999 0.17052,0.61173"
       id="path1784" />
    <path
       style="fill:none;stroke:#000000;stroke-width:0.264583px;stroke-linecap:butt;stroke-linejoin:miter;stroke-opacity:1"
       d="m 169.5353,252.26818 c -0.0805,0.36115 -0.0682,0.20141 -0.0682,0.4758 0,0.13593 0,0.27187 0,0.40781 0,0.18397 -0.069,0.33908 -0.23873,0.16993 -0.0277,-0.0276 -0.0849,-0.0673 -0.10232,-0.10196 -0.0565,-0.11263 0.0621,-0.27885 0.17053,-0.30586 0.25935,-0.0646 0.5059,0.0953 0.7503,0.13594 0.0561,0.009 0.11368,0 0.17052,0 0.0341,0 0.0718,0.0152 0.10232,0 0.0287,-0.0143 0.0538,-0.0393 0.0682,-0.068 0.0315,-0.0628 0,-0.36076 0,-0.44181 0,-0.0331 0,-0.0854 0,-0.10195 0,-0.0113 -0.0113,-0.034 0,-0.034 0.061,0 0.0549,0.11036 0.0682,0.16993 0.0605,0.27121 0.10288,0.54601 0.17053,0.81564"
       id="path1786" />
    <path
       style="fill:none;stroke:#000000;stroke-width:0.264583px;stroke-linecap:butt;stroke-linejoin:miter;stroke-opacity:1"
       d="m 160.63397,248.73375 c 0.0227,-0.068 0.0326,-0.14173 0.0682,-0.20391 0.0127,-0.022 0.0479,-0.0188 0.0682,-0.034 0.13844,-0.10347 0.2033,-0.14164 0.37515,-0.20391 0.40468,-0.14664 0.84484,-0.20197 1.26188,-0.30587 0.45193,-0.11258 0.90416,-0.16737 1.36419,-0.23789 0.70594,-0.10822 1.42352,-0.22421 2.11449,-0.40782 0.14755,-0.0392 0.81353,-0.16 0.88672,-0.30586 0.0573,-0.11409 -0.17791,-0.18876 -0.23873,-0.20391 -0.34996,-0.0872 -0.69943,-0.068 -1.05725,-0.068 -0.091,0 -0.18189,0 -0.27284,0 -0.0227,0 -0.0909,0 -0.0682,0 0.19331,0 0.38587,0.0578 0.57978,0.068 0.85621,0 -0.14522,-0.0125 0.64799,0.034 0.0908,0.005 0.18209,-0.006 0.27284,0 0.1788,0.0119 0.3407,0.0594 0.51157,0.10195 0.011,0.003 0.0261,-0.008 0.0341,0 0.0665,0.0663 -0.13494,0.33394 -0.17053,0.37384 -0.17382,0.19487 -0.35267,0.40145 -0.54568,0.57774 -0.19539,0.17849 -0.41026,0.34069 -0.61388,0.50978"
       id="path1788" />
    <path
       style="fill:none;stroke:#000000;stroke-width:0.264583px;stroke-linecap:butt;stroke-linejoin:miter;stroke-opacity:1"
       d="m 140.7379,262.25659 v 13.08736"
       id="path1823"
       inkscape:path-effect="#path-effect1825"
       inkscape:original-d="m 140.7379,262.25659 c 2.6e-4,4.36272 2.6e-4,8.72517 0,13.08736" />
    <path
       style="fill:none;stroke:#000000;stroke-width:0.264583px;stroke-linecap:butt;stroke-linejoin:miter;stroke-opacity:1"
       d="m 139.31852,272.5232 c -0.086,-0.0382 -0.15168,-0.2996 -0.27283,-0.33984 -0.0432,-0.0143 -0.091,0 -0.13642,0 -0.0704,0 -0.0943,-0.0161 -0.13642,0.068 -0.12586,0.25083 0.008,0.60317 0.13642,0.81564 0.16961,0.28169 0.39223,0.50981 0.61388,0.74767 0.14262,0.15304 0.2671,0.32232 0.40926,0.47579 0.16304,0.176 0.35326,0.32948 0.51157,0.50977 0.3063,0.34883 -0.0864,-0.0522 0.20463,0.2379 0.0652,0.065 0.12972,0.15658 0.17052,0.23789 0.003,0.006 -0.002,0.10195 0,0.10195 0.0226,0 -0.007,-0.0465 0,-0.068 0.008,-0.024 0.0227,-0.0453 0.0341,-0.068 0.0892,-0.17777 0.15436,-0.3636 0.23873,-0.54376 0.338,-0.72174 0.639,-1.45905 1.05725,-2.14105 0.11836,-0.19302 0.26948,-0.46663 0.40925,-0.64571 0.0774,-0.0992 0.21136,-0.19569 0.30694,-0.27189"
       id="path1940" />
    <path
       style="fill:none;stroke:#000000;stroke-width:0.264583px;stroke-linecap:butt;stroke-linejoin:miter;stroke-opacity:1"
       d="m 146.3782,272.25132 c -0.0114,-0.068 0.0339,-0.21527 -0.0341,-0.20391 -0.068,0.0114 0.0265,0.13542 0.0341,0.20391 0.0277,0.24872 0.0432,0.49866 0.0682,0.74767 0.0274,0.27305 0.0682,0.54133 0.0682,0.81564 0,0.0443 0.0309,0.20551 -0.0341,0.23789 -0.045,0.0224 -0.0612,-0.0399 -0.0682,-0.068 -0.0346,-0.13798 -0.0644,-0.4791 -0.0682,-0.57775 -0.0245,-0.63423 -0.01,-1.72449 0.61388,-2.10707 0.15073,-0.0924 0.33261,-0.14951 0.51157,-0.10195 0.30084,0.0799 0.57551,0.47711 0.7162,0.71369 0.25068,0.42153 0.4719,0.92176 0.61389,1.39337 0.0877,0.29136 0.0438,0.24265 0.10231,0.47579 0.009,0.0348 0.0254,0.0672 0.0341,0.10196 0.003,0.011 0,0.0453 0,0.034 0,-0.19475 -0.002,0.064 0.0341,-0.37384 0.051,-0.6101 0.10981,-1.25911 0.34105,-1.83518 0.0496,-0.12366 0.1768,-0.32405 0.34104,-0.30587 0.26468,0.0293 0.54832,0.35556 0.6821,0.54376 0.4323,0.60817 0.68656,1.30477 0.92082,2.00511"
       id="path1942" />
    <path
       style="fill:none;stroke:#000000;stroke-width:0.264583px;stroke-linecap:butt;stroke-linejoin:miter;stroke-opacity:1"
       d="m 154.18818,271.33373 c -0.10167,-0.18536 -0.21563,-0.62689 -0.51157,-0.57774 -0.37502,0.0623 -0.64769,0.96034 -0.68209,1.25744 -0.0211,0.18184 0.007,0.6622 0.0341,0.84962 0.0285,0.19861 0.0821,0.61518 0.34105,0.6797 0.23292,0.058 0.47306,-0.15551 0.61388,-0.30586 0.45754,-0.4885 0.67225,-1.13813 0.85262,-1.76722 0.0457,-0.15936 0.0818,-0.31202 0.10231,-0.47579 0.004,-0.0337 0,-0.13594 0,-0.10195 0,0.35376 0.0621,0.70298 0.10232,1.05353 0.13366,1.16549 0.34567,2.32518 0.37515,3.50045 0.0191,0.76332 -0.0138,1.60437 -0.34105,2.31097 -0.2176,0.46981 -0.56199,0.92794 -1.09135,1.05354 -0.28338,0.0672 -0.48188,0.0446 -0.7503,-0.068 -0.70621,-0.29631 -0.79454,-1.19319 -0.57978,-1.83519 0.29427,-0.87974 0.99921,-1.57344 1.63702,-2.20902"
       id="path1944" />
    <path
       style="fill:none;stroke:#000000;stroke-width:0.264583px;stroke-linecap:butt;stroke-linejoin:miter;stroke-opacity:1"
       d="m 152.03958,269.32862 c -0.0574,0.10231 -0.49182,-0.20033 -0.34104,-0.23789 0.0331,-0.008 0.0684,0.003 0.10231,0 0.83803,-0.0835 -0.58139,0.0156 0.61388,-0.034 0.47794,-0.0198 0.95411,-0.0855 1.4324,-0.10195 0.2954,-0.0102 0.59146,0.0134 0.88673,0 0.0579,-0.003 0.57492,-0.0589 0.64799,-0.068 0.15592,-0.0194 0.8376,-0.087 0.95493,-0.20391 0.0664,-0.0662 -0.14758,-0.22482 -0.17053,-0.23789 -0.28699,-0.16341 -0.55853,-0.28534 -0.88672,-0.33985 -0.0682,-0.0113 -0.13572,-0.0283 -0.20463,-0.034 -0.15619,-0.013 -0.32033,0 -0.47746,0 -0.0455,0 -0.18189,0 -0.13642,0 0.26838,0 0.55252,-0.0279 0.81851,0 0.31754,0.0333 0.65953,0.15413 0.95493,0.27188 0.2023,0.0806 0.45423,0.18705 0.47747,0.4418 0.0353,0.38733 -0.36287,0.74937 -0.57978,1.01955"
       id="path1946" />
    <path
       style="fill:none;stroke:#000000;stroke-width:0.264583px;stroke-linecap:butt;stroke-linejoin:miter;stroke-opacity:1"
       d="m 190.09279,236.26775 c 0.88315,0.39908 1.84847,0.52853 2.79659,0.6797 0.56336,0.0898 1.11286,0.22859 1.67113,0.33985 0.14663,0.0292 0.29624,0.0413 0.44336,0.068 0.0204,0.004 0.54567,0.11021 0.54567,0.068 0,-0.009 -0.0814,0.0314 -0.13642,0.068 -0.51297,0.34078 0.33796,-0.18273 -0.34104,0.2039 -0.0931,0.053 -0.17796,0.12017 -0.27284,0.16993 -0.27516,0.14431 -0.63818,0.27142 -0.92083,0.37384 -0.98462,0.35678 -0.17595,0.0624 -1.29597,0.40782 -0.84108,0.25941 -1.68543,0.52436 -2.48965,0.8836 -0.39378,0.1759 -0.84935,0.33659 -1.15956,0.64572"
       id="path2061" />
    <path
       style="fill:none;stroke:#000000;stroke-width:0.264583px;stroke-linecap:butt;stroke-linejoin:miter;stroke-opacity:1"
       d="m 195.27671,241.39947 c 0.31748,0.43469 0.59234,0.89846 0.92082,1.32541 0.14261,0.18536 0.30193,0.35752 0.44337,0.54376 0.32671,0.43021 0.74095,1.03961 1.02313,1.49534 0.51511,0.8319 0.4168,0.75968 0.92083,1.56331 0.13036,0.20783 0.27433,0.40683 0.40926,0.61173 0.26507,0.4025 0.50884,0.8469 0.85262,1.18947"
       id="path2063" />
    <path
       style="fill:none;stroke:#000000;stroke-width:0.264583px;stroke-linecap:butt;stroke-linejoin:miter;stroke-opacity:1"
       d="m 199.50569,241.39947 c -0.0909,0 -0.18715,-0.0305 -0.27284,0 -0.17915,0.0638 -1.04785,1.00524 -1.09135,1.05354 -0.41066,0.45599 -0.94092,1.09595 -1.33008,1.5633 -0.90226,1.08352 -1.75897,2.21302 -2.52375,3.39849"
       id="path2065" />
    <path
       style="fill:none;stroke:#000000;stroke-width:0.264583px;stroke-linecap:butt;stroke-linejoin:miter;stroke-opacity:1"
       d="m 119.86617,185.60991 c -0.0568,0.13594 -0.14037,0.26359 -0.17053,0.40781 -0.0278,0.13307 0.005,0.27196 0,0.40782 -0.007,0.20412 -0.018,0.40814 -0.0341,0.61173 -0.0582,0.73413 -0.13554,1.49166 -0.30694,2.20902 -0.1049,0.43905 -0.28345,0.90429 -0.44336,1.32542 -0.13487,0.35519 -0.30975,0.81008 -0.47747,1.15548 -0.22189,0.45696 -0.46827,0.89774 -0.68209,1.3594"
       id="path2180" />
    <path
       style="fill:none;stroke:#000000;stroke-width:0.264583px;stroke-linecap:butt;stroke-linejoin:miter;stroke-opacity:1"
       d="m 119.86617,185.60991 c 0.25563,1.42704 0.75904,2.78086 1.22777,4.14616 0.22152,0.64525 0.41711,1.30551 0.7503,1.90315"
       id="path2182" />
    <path
       style="fill:none;stroke:#000000;stroke-width:0.264583px;stroke-linecap:butt;stroke-linejoin:miter;stroke-opacity:1"
       d="m 126.24375,184.35247 c -0.0227,0.12461 -0.0682,0.24716 -0.0682,0.37383 0,0.27686 0.15493,0.99234 0.20463,1.22346 0.11731,0.54551 0.17441,0.85162 0.37515,1.35939 0.18497,0.46789 0.50871,1.06801 1.05725,1.18948 0.41359,0.0916 0.78225,-0.26419 0.98903,-0.57775 0.54366,-0.82439 0.80698,-1.76743 1.02315,-2.71879 0.1487,-0.65446 0.23873,-1.26918 0.23873,-1.93714 0,-0.22075 0.02,-0.28687 -0.0341,-0.47579 -1e-4,-3.7e-4 -0.0422,-0.10196 -0.0682,-0.10196 -0.0161,0 -0.029,0.0188 -0.0341,0.034 -0.0296,0.0886 -0.0575,0.17906 -0.0682,0.27188 -0.10057,0.86849 -0.007,1.78973 0.10232,2.65082 0.11983,0.94201 0.29266,1.82052 0.47746,2.75278 0.0877,0.44246 0.19349,0.88138 0.27284,1.32541 0.0685,0.38326 0.11694,0.76986 0.17052,1.15549 0.0794,0.57167 0.19696,1.31039 0.17053,1.90316 -0.026,0.58177 -0.24735,1.55528 -0.75031,1.93714 -0.13358,0.10142 -0.28583,0.18033 -0.44336,0.23789 -0.75571,0.27612 -1.75703,0.21001 -2.1827,-0.57774 -0.32262,-0.59705 -0.27683,-1.31735 -0.0341,-1.93714 0.29406,-0.75087 1.01244,-1.57995 1.60292,-2.10707 0.30159,-0.26922 0.63663,-0.49844 0.95494,-0.74767"
       id="path2184" />
    <path
       style="fill:none;stroke:#000000;stroke-width:0.264583px;stroke-linecap:butt;stroke-linejoin:miter;stroke-opacity:1"
       d="m 111.578,241.02126 c -0.0568,0.0793 -0.13418,0.14735 -0.17053,0.23789 -0.0852,0.21222 -0.23364,1.25843 -0.23873,1.29143 -0.1026,0.66454 -0.20432,1.29676 -0.23873,1.97113 -0.0213,0.41716 0.004,1.28852 0.0341,1.73323 0.0435,0.63633 0.1593,1.54544 0.6821,2.00511 0.22783,0.20032 0.60044,0.3131 0.88672,0.33985 0.44166,0.0413 0.76475,-0.0752 1.15956,-0.27188 0.87097,-0.43396 1.52626,-1.26187 1.90986,-2.14105 0.6768,-1.55116 0.64854,-3.89602 -0.23873,-5.36962 -0.16166,-0.26848 -0.32725,-0.4627 -0.57978,-0.64571 -0.26268,-0.19037 -0.59644,-0.37924 -0.92083,-0.44181 -0.80889,-0.156 -1.69965,0.17535 -2.35322,0.64572 -0.0979,0.0705 -0.1819,0.15859 -0.27284,0.23789"
       id="path2299" />
    <path
       style="fill:none;stroke:#000000;stroke-width:0.264583px;stroke-linecap:butt;stroke-linejoin:miter;stroke-opacity:1"
       d="m 140.7379,262.25659 c 0.0421,-0.30127 -0.4559,-0.33323 -0.51904,-0.58492 -0.0198,-0.0788 0,-0.19102 0,-0.27188 0,-0.0463 -0.0183,-0.10981 0.0341,-0.13594 0.0476,-0.0237 0.0555,0.0427 0.0682,0.068 0.13279,0.26466 0.20396,0.5158 0.17053,0.81564 -0.005,0.0464 -0.0156,0.093 -0.0341,0.13594 -0.0261,0.0607 -0.0656,0.11497 -0.10231,0.16992 -0.0726,0.1086 -0.15834,-0.0752 -0.17053,-0.13594 -0.0182,-0.0905 -0.007,-0.22339 0.0341,-0.30586 0.0183,-0.0366 0.0312,-0.11942 0.0682,-0.10196 0.17148,0.081 0.30055,0.23135 0.45083,0.34703"
       id="path2414" />
    <path
       style="fill:none;stroke:#000000;stroke-width:0.264583px;stroke-linecap:butt;stroke-linejoin:miter;stroke-opacity:1"
       d="m 133.05687,258.27318 c -0.22211,-0.12131 -0.24692,-0.15566 -0.37515,0.068 -0.0631,0.10995 -0.1189,0.2241 -0.17053,0.33986 -0.21921,0.49148 -0.33549,0.83303 -0.51157,1.35939 -0.19667,0.58794 -0.40604,1.1721 -0.57978,1.76722 -0.0916,0.31392 -0.15494,0.63547 -0.23873,0.95158 -0.0754,0.28435 -0.16158,0.56574 -0.23873,0.84962 -0.12903,0.47473 -0.23203,0.9567 -0.37516,1.42736 -0.10596,0.34847 -0.24467,0.72554 -0.40925,1.05354 -0.0348,0.0693 -0.0735,0.16465 -0.13642,0.10195"
       id="path2416" />
    <path
       style="fill:none;stroke:#000000;stroke-width:0.264583px;stroke-linecap:butt;stroke-linejoin:miter;stroke-opacity:1"
       d="m 133.05687,258.27318 c 0.18189,-0.18125 0.36972,-0.35674 0.54567,-0.54376 0.008,-0.008 -0.0227,0 -0.0341,0 -0.023,0 -0.0821,-0.0101 -0.10231,0 -0.086,0.0428 -0.10232,0.25787 -0.10232,0.30586 0,0.49623 0.12859,1.15934 0.23873,1.63128 0.0587,0.25163 0.14038,0.49739 0.20463,0.74767 0.12164,0.47381 0.22201,0.95289 0.34105,1.42736 0.0542,0.21593 0.1203,0.42884 0.17052,0.64572 0.0521,0.22512 0.0861,0.45415 0.13642,0.67969 0.0407,0.18239 0.0984,0.3608 0.13642,0.54376 0.0813,0.39153 0.12084,0.79342 0.17052,1.18948 0.0171,0.13606 0.0682,0.27124 0.0682,0.40781"
       id="path2418" />
    <path
       style="fill:none;stroke:#000000;stroke-width:0.264583px;stroke-linecap:butt;stroke-linejoin:miter;stroke-opacity:1"
       d="m 131.0788,262.99708 c 0.76012,-0.24345 1.5633,-0.29512 2.35322,-0.37383"
       id="path2420" />
    <path
       style="fill:none;stroke:#000000;stroke-width:0.264583px;stroke-linecap:butt;stroke-linejoin:miter;stroke-opacity:1"
       d="m 133.43202,262.62325 c 0.96191,0.007 0.33512,0.11483 0.17052,0.068 -0.0589,-0.0168 -0.11368,-0.0453 -0.17052,-0.068 z"
       id="path2422" />
  </g>
</svg>
