<?xml version="1.0" encoding="UTF-8" standalone="no"?>
<!-- Created with Inkscape (http://www.inkscape.org/) -->

<svg
   width="240mm"
   height="120mm"
   viewBox="0 0 240 120"
   version="1.1"
   id="svg8"
   inkscape:version="1.1.2 (0a00cf5339, 2022-02-04)"
   sodipodi:docname="1729664753.svg"
   xmlns:inkscape="http://www.inkscape.org/namespaces/inkscape"
   xmlns:sodipodi="http://sodipodi.sourceforge.net/DTD/sodipodi-0.dtd"
   xmlns="http://www.w3.org/2000/svg"
   xmlns:svg="http://www.w3.org/2000/svg"
   xmlns:rdf="http://www.w3.org/1999/02/22-rdf-syntax-ns#"
   xmlns:cc="http://creativecommons.org/ns#"
   xmlns:dc="http://purl.org/dc/elements/1.1/">
  <defs
     id="defs2" />
  <sodipodi:namedview
     id="base"
     pagecolor="#ffffff"
     bordercolor="#666666"
     borderopacity="1.0"
     inkscape:pageopacity="0.0"
     inkscape:pageshadow="2"
     inkscape:zoom="1.9887478"
     inkscape:cx="449.78052"
     inkscape:cy="183.02975"
     inkscape:document-units="mm"
     inkscape:current-layer="layer1"
     showgrid="false"
     showborder="true"
     width="200mm"
     showguides="true"
     inkscape:guide-bbox="true"
     inkscape:window-width="2160"
     inkscape:window-height="1375"
     inkscape:window-x="0"
     inkscape:window-y="0"
     inkscape:window-maximized="1"
     inkscape:pagecheckerboard="0">
    <inkscape:grid
       type="xygrid"
       id="grid815"
       units="mm"
       spacingx="10"
       spacingy="10"
       empspacing="4"
       dotted="false" />
  </sodipodi:namedview>
  <metadata
     id="metadata5">
    <rdf:RDF>
      <cc:Work
         rdf:about="">
        <dc:format>image/svg+xml</dc:format>
        <dc:type
           rdf:resource="http://purl.org/dc/dcmitype/StillImage" />
      </cc:Work>
    </rdf:RDF>
  </metadata>
  <g
     inkscape:label="Layer 1"
     inkscape:groupmode="layer"
     id="layer1"
     transform="translate(0,-177)">
    <ellipse
       style="fill:#ccff00;fill-opacity:0;stroke:#000000;stroke-width:0.264583;stroke-linejoin:bevel;paint-order:fill markers stroke"
       id="path845"
       cx="114.26551"
       cy="236.6508"
       rx="39.139629"
       ry="38.852715" />
    <ellipse
       style="fill:#ccff00;fill-opacity:0;stroke:#000000;stroke-width:0.264583;stroke-linejoin:bevel;paint-order:fill markers stroke"
       id="path949"
       cx="114.21155"
       cy="236.4213"
       rx="35.89529"
       ry="34.586414" />
    <path
       style="fill:none;stroke:#000000;stroke-width:0.264583px;stroke-linecap:butt;stroke-linejoin:miter;stroke-opacity:1"
       d="m 74.09427,222.0156 c 0.802651,1.00219 1.728084,1.65475 2.797903,2.39897 2.177185,1.51456 4.08595,2.11731 6.672244,2.11731 0.699301,0 1.492279,0.11231 2.16131,-0.13098 0.199935,-0.0727 0.354343,-0.43866 0.190481,-0.60767 -0.31328,-0.32314 -0.664993,-0.61492 -1.047911,-0.85143 -1.098868,-0.67871 -2.418059,-0.81201 -3.667681,-0.98241 -2.874275,-0.39195 -4.074358,0.66124 -6.42593,2.09831 -0.770715,0.47099 -1.94763,0.98772 -2.226805,1.96483 -0.08397,0.29388 0.02032,0.61195 0,0.91691 -0.01027,0.15403 -0.07455,0.30436 -0.06549,0.45847 0.08858,1.50589 1.586073,2.56763 2.947241,2.88175 0.538573,0.12429 1.093324,0.16432 1.637358,0.26197 0.307663,0.0552 0.606615,0.15887 0.916924,0.19648 1.170395,0.14187 2.382192,0.0655 3.561252,0.0655 0.07407,0 0.25804,0.0648 0.2222,0 -0.179041,-0.32382 -0.640699,-0.39049 -0.998376,-0.48524 -1.007409,-0.26688 -2.268395,-0.47523 -3.340209,-0.52395 -0.365141,-0.0166 -1.774399,-0.0812 -2.088666,0.0655 -1.104024,0.51521 -1.748686,1.56195 -1.964827,2.75076 -0.07049,0.3877 0,0.85001 0,1.24439 0,0.43663 -0.05647,0.87693 0,1.30988 0.04198,0.32183 0.232021,0.60673 0.327469,0.91693 0.382763,1.24396 0.815018,1.77642 2.095342,2.16051 0.238421,0.0715 0.472844,0.17088 0.720441,0.19649 0.39088,0.0404 0.785932,0 1.178897,0 0.722344,0 1.5232,0.12639 2.226807,-0.0655 0.553416,-0.15093 1.026909,-0.34764 1.566923,-0.45845 0.61985,-0.1272 -0.150982,-0.11012 -0.19558,-0.11684 -0.482716,-0.0727 -0.954397,-0.22143 -1.440876,-0.26198 -0.730075,-0.0608 -2.909966,0.21222 -3.661187,0.58783 -0.511808,0.2559 -0.556287,0.75195 -0.720434,1.24439 -0.36131,1.08394 -0.458462,1.75568 -0.458462,2.88175 0,0.4245 -0.02334,0.90553 0.130995,1.30586 0.29001,0.75224 1.362379,1.89383 2.226805,2.03032 0.258773,0.0409 0.523954,0 0.785931,0 1.203352,0 1.770457,-0.0664 2.881744,-0.52396 0.385665,-0.1588 0.799438,-0.29583 1.178904,-0.45846 0.13911,-0.0596 0.752044,-0.51555 0.625446,-0.75319 -0.08356,-0.15685 -0.07116,-0.097 -0.16324,-0.10921 -0.476179,-0.0632 -0.947235,-0.19648 -1.427583,-0.19648 -0.969338,0 -1.238303,0.18126 -2.030323,0.45846 -1.497571,0.52415 -2.816349,0.96516 -3.666522,2.42259 -0.174487,0.29912 -0.32223,1.9554 -0.196484,2.35779 0.0061,0.0195 0.393954,0.9973 0.458464,1.11341 0.50827,0.91489 1.177245,1.90189 2.292303,2.09582 0.301886,0.0525 0.611475,0.0411 0.916916,0.0655 0.964348,0.0771 1.576953,0.004 2.488787,-0.32747 0.747453,-0.27179 1.281118,-0.55333 1.899338,-1.0479 0.312393,-0.24992 0.604028,-0.57286 0.924129,-0.76063"
       id="path1064" />
    <path
       style="fill:none;stroke:#000000;stroke-width:0.264583px;stroke-linecap:butt;stroke-linejoin:miter;stroke-opacity:1"
       d="m 150.69496,219.91615 c -1.03103,0.38439 -1.96512,1.00209 -2.7109,1.8189 -1.10373,1.20885 -1.04792,1.63276 -1.04792,3.06846 0,0.24606 -0.144,0.62509 0,0.84159 0.23962,0.36027 0.65676,0.44142 1.04254,0.51858 0.52481,0.10496 1.04041,0.2642 1.57186,0.32747 0.39021,0.0465 0.78594,0 1.1789,0 0.85265,0 1.4094,0.0105 2.2268,-0.26198 0.15078,-0.0503 0.31089,-0.072 0.45846,-0.13098 0.16186,-0.0647 0.71563,-0.44193 0.77091,-0.63992 0.02,-0.0717 -0.14896,0 -0.22343,0 -0.30564,0 -0.61365,0.0379 -0.91693,0 -1.77378,-0.22172 0.30506,-0.18778 -1.1789,-0.26197 -0.94682,-0.0473 -0.60931,-0.0548 -1.44086,0.26197 -0.20549,0.0783 -0.86589,0.28167 -1.1134,0.45846 -0.63203,0.45146 -1.00962,1.03231 -1.37539,1.70286 -0.061,0.11176 -0.15079,0.20866 -0.19649,0.32747 -0.15774,0.41012 -0.29369,0.93697 -0.32731,1.37463 -0.0283,0.36896 0.0284,0.74445 0,1.1134 -0.0135,0.17549 -0.0655,0.34795 -0.0655,0.52396 0,0.50427 0.39051,1.15842 0.78593,1.44087 0.79087,0.56492 1.47331,0.52396 2.42329,0.52396 1.04843,0 1.65123,-0.003 2.68526,-0.26198 0.57981,-0.14496 1.15447,-0.28023 1.70285,-0.52395 0.75609,-0.33604 -0.002,-0.0646 0.52396,-0.32748 0.28611,-0.14305 0.14531,0.0481 0.39297,-0.26197 0.0438,-0.0549 0.0264,-0.14559 0,-0.21065 -0.35331,-0.87011 -1.5743,-0.55061 -2.2908,-0.58644 -0.12577,-0.006 -1.07727,-0.11447 -1.30989,-0.0655 -0.52326,0.11016 -0.81868,0.30565 -1.2444,0.58946 -1.23191,0.82127 -1.95872,1.69066 -2.61976,3.01274 -0.16366,0.32732 -0.20567,0.7028 -0.32747,1.0479 -0.27825,0.78837 -0.20063,0.13585 -0.26199,1.1789 -0.0212,0.36126 -0.0765,1.65449 0,1.89933 0.15053,0.4817 0.48251,0.91236 0.85143,1.2444 1.28055,1.15248 2.70594,1.30989 4.32262,1.30989 0.81094,0 0.70408,0.0352 1.37539,-0.0655 0.55669,-0.0835 1.08535,-0.23548 1.63736,-0.32748 0.15227,-0.0254 0.3106,-0.0211 0.45846,-0.0655 0.0389,-0.0117 0.30476,-0.19582 0.32747,-0.26198 0.045,-0.13114 -0.67956,-0.86133 -0.96246,-1.07351 -0.39063,-0.29297 -1.01438,-0.66255 -1.50639,-0.72043 -0.2385,-0.0281 -0.48066,0.0133 -0.72043,0 -0.18829,-0.0104 -0.64337,-0.12792 -0.85143,-0.0655 -0.33504,0.10051 -1.1592,0.489 -1.50636,0.72044 -0.67368,0.44913 -1.20489,1.0159 -1.83385,1.50637 -0.10004,0.078 -0.2417,0.10163 -0.32593,0.19648 -0.32367,0.3645 -0.103,0.34162 -0.25891,0.71584 -0.23139,0.55534 -0.67962,1.10147 -0.85143,1.70285 -0.0844,0.29551 -0.0655,0.67795 -0.0655,0.98242 0,0.35461 -0.0152,0.77048 0.0655,1.1134 0.2386,1.01408 1.55039,1.88501 2.35781,2.42329 0.43437,0.28958 0.86319,0.69383 1.37537,0.85142 0.64763,0.19928 1.29185,0.13099 1.96482,0.13099 0.29696,0 0.9666,0.15353 1.15409,-0.17352 0.30586,-0.53354 -0.78008,-1.18287 -1.11341,-1.32322 -0.98908,-0.41646 -2.02889,-0.32747 -3.07824,-0.32747 -0.74322,0 -2.10621,-0.12386 -2.81625,0.0655 -0.616,0.16427 -1.11299,0.51433 -1.63736,0.85143 -0.47669,0.30644 -0.56304,0.37253 -0.91691,0.78433 -0.0596,0.0693 -0.17006,0.10565 -0.19389,0.19389 -0.0205,0.076 0.0128,0.69751 0,0.85143 -0.017,0.20456 -0.11068,0.56003 -0.0655,0.78593 0.0997,0.49867 0.45259,0.89144 0.78593,1.24439 0.67294,0.71253 1.33339,1.54388 2.1613,2.09582 0.33347,0.2223 0.69862,0.39296 1.04792,0.58944 0.74915,0.42141 1.92888,1.2444 2.81972,1.2444"
       id="path1066" />
    <path
       style="fill:none;stroke:#000000;stroke-width:0.264583px;stroke-linecap:butt;stroke-linejoin:miter;stroke-opacity:1"
       d="m 57.920868,235.88608 c -0.53155,2.59569 -1.016817,5.20232 -1.663017,7.77126 -0.01736,0.069 -0.1055,0.24922 -0.116647,0.17891 -0.09355,-0.59003 0.06759,-1.19354 0.135451,-1.78707 0.150725,-1.31822 0.267639,-2.64242 0.589449,-3.92966 0.11053,-0.44213 0.192005,-0.8939 0.392964,-1.30841 0.03547,-0.0732 0.300763,-0.3842 0.368128,-0.4318 0.03914,-0.0276 0.119251,0.0412 0.143767,0 0.08791,-0.14764 0.019,-0.60456 0.149905,-0.49323 0.955662,0.81276 1.319983,2.10202 1.818063,3.19158 0.476094,1.04146 1.014603,2.04552 1.506374,3.07823 0.04365,0.0917 0.814602,1.72719 0.964435,1.57186 0.352139,-0.36503 0.08167,-1.17352 0.106326,-1.46936 0.02951,-0.35416 0.168513,-0.69362 0.196482,-1.04791 0.07395,-0.93672 0,-1.93592 0,-2.88175 0,-0.41479 -0.05145,-0.83279 0,-1.24439 0.02498,-0.19972 0.10038,-0.39051 0.130987,-0.58944 0.05527,-0.35925 0.12936,-0.73685 0.12936,-1.10358 0,-0.17818 -0.0709,-0.60666 0,-0.74434 0.16568,-0.32174 0.06701,-0.30807 0.230791,-0.30807"
       id="path1068" />
    <path
       style="fill:none;stroke:#000000;stroke-width:0.264583px;stroke-linecap:butt;stroke-linejoin:miter;stroke-opacity:1"
       d="m 64.790901,242.03672 c 0,1.13521 0,2.27043 0,3.40566"
       id="path1070" />
    <path
       style="fill:none;stroke:#000000;stroke-width:0.264583px;stroke-linecap:butt;stroke-linejoin:miter;stroke-opacity:1"
       d="m 162.0582,240.35809 c 0,-0.58144 0.35571,-1.11943 0.45577,-1.68646 0.2888,-1.63663 -0.35526,0.92515 0.39297,-1.76835 0.32861,-1.49808 0.47103,-3.04267 0.5868,-4.56853 0.31127,0.24377 0.69178,0.41868 0.93382,0.7313 0.21592,0.27889 0.25868,0.65629 0.39297,0.98242 0.17136,0.41616 0.34667,0.83071 0.52396,1.24439 0.23488,0.54807 0.45376,1.10403 0.72043,1.63736 0.0921,0.18421 0.23536,0.33974 0.32747,0.52395 0.15511,0.31022 0.19301,0.74159 0.39147,1.03311 0.1524,0.22385 0.37233,0.3532 0.47897,0.58193 0.13481,0.28916 0.36176,0.58623 0.51181,0.88444 0.0987,0.19611 0.15137,0.27931 0.3101,0.43803 0.0423,0.0423 0.0655,0.22681 0.0655,0.16702 0,-0.64987 -0.0569,-1.3231 0,-1.96814 0.17226,-1.95223 0.2082,-0.73248 0.26198,-2.29231 0.033,-0.95648 0,-1.92436 0,-2.88174 0,-0.39642 -0.0647,-0.85703 0,-1.25302 -0.001,-0.15967 0.10371,-0.29196 0.12937,-0.44394 0.0524,-0.31018 -0.0523,-0.64686 0,-0.95705 0.0553,-0.32768 0.0655,-0.63031 0.0655,-0.9698"
       id="path1072" />
    <path
       style="fill:none;stroke:#000000;stroke-width:0.264583px;stroke-linecap:butt;stroke-linejoin:miter;stroke-opacity:1"
       d="m 170.20211,238.37414 c 0.59897,-0.13287 0.77879,-0.0394 1.14359,0.32542 0.0655,0.0655 0.16161,0.11067 0.19647,0.19648 0.0265,0.0651 0.13996,1.48071 0.0648,1.59789 -0.28937,0.45097 -0.89937,0.90267 -1.43925,0.90267 -0.0696,0 0.13099,0.0539 0.20044,0.0585 0.23964,0.0156 0.48029,0 0.72043,0 0.21832,0 0.43847,0.0282 0.65496,0 0.28881,-0.0377 0.56307,-0.15529 0.85141,-0.19648 0.62073,-0.0887 1.2627,-0.13099 1.89053,-0.13099"
       id="path1074" />
  </g>
</svg>
