<?xml version="1.0" encoding="UTF-8" standalone="no"?>
<!-- Created with Inkscape (http://www.inkscape.org/) -->

<svg
   width="240mm"
   height="120mm"
   viewBox="0 0 240 120"
   version="1.1"
   id="svg8"
   inkscape:version="1.1.2 (0a00cf5339, 2022-02-04)"
   sodipodi:docname="1729328530-.svg"
   xmlns:inkscape="http://www.inkscape.org/namespaces/inkscape"
   xmlns:sodipodi="http://sodipodi.sourceforge.net/DTD/sodipodi-0.dtd"
   xmlns="http://www.w3.org/2000/svg"
   xmlns:svg="http://www.w3.org/2000/svg"
   xmlns:rdf="http://www.w3.org/1999/02/22-rdf-syntax-ns#"
   xmlns:cc="http://creativecommons.org/ns#"
   xmlns:dc="http://purl.org/dc/elements/1.1/">
  <defs
     id="defs2">
    <inkscape:path-effect
       effect="spiro"
       id="path-effect1887"
       is_visible="true"
       lpeversion="1" />
    <inkscape:path-effect
       effect="spiro"
       id="path-effect1770"
       is_visible="true"
       lpeversion="1" />
    <inkscape:path-effect
       effect="spiro"
       id="path-effect1325"
       is_visible="true"
       lpeversion="1" />
  </defs>
  <sodipodi:namedview
     id="base"
     pagecolor="#ffffff"
     bordercolor="#666666"
     borderopacity="1.0"
     inkscape:pageopacity="0.0"
     inkscape:pageshadow="2"
     inkscape:zoom="11.250056"
     inkscape:cx="486.88646"
     inkscape:cy="321.06506"
     inkscape:document-units="mm"
     inkscape:current-layer="layer1"
     showgrid="false"
     showborder="true"
     width="200mm"
     showguides="true"
     inkscape:guide-bbox="true"
     inkscape:window-width="2160"
     inkscape:window-height="1375"
     inkscape:window-x="0"
     inkscape:window-y="0"
     inkscape:window-maximized="1"
     inkscape:pagecheckerboard="0">
    <inkscape:grid
       type="xygrid"
       id="grid815"
       units="mm"
       spacingx="10"
       spacingy="10"
       empspacing="4"
       dotted="false" />
  </sodipodi:namedview>
  <metadata
     id="metadata5">
    <rdf:RDF>
      <cc:Work
         rdf:about="">
        <dc:format>image/svg+xml</dc:format>
        <dc:type
           rdf:resource="http://purl.org/dc/dcmitype/StillImage" />
      </cc:Work>
    </rdf:RDF>
  </metadata>
  <g
     inkscape:label="Layer 1"
     inkscape:groupmode="layer"
     id="layer1"
     transform="translate(0,-177)">
    <rect
       style="fill:#ccff00;fill-opacity:0;stroke:#000000;stroke-width:0.26458299;stroke-linejoin:bevel;stroke-dasharray:none;paint-order:fill markers stroke;stroke-miterlimit:4"
       id="rect845"
       width="84.694237"
       height="56.136356"
       x="82.283279"
       y="209.97842" />
    <path
       style="fill:none;stroke:#000000;stroke-width:0.264583px;stroke-linecap:butt;stroke-linejoin:miter;stroke-opacity:1"
       d="m 108.2248,209.89047 c -0.0557,-0.10648 -0.45816,0.0721 -0.53054,0 -0.0227,-0.0226 0,-0.0641 0,-0.0961 0,-0.32165 0.18156,-0.59298 0.33761,-0.86512 0.1661,-0.28964 0.19643,-0.38798 0.43408,-0.6248 0.60208,-0.59996 1.94136,-1.09799 2.79742,-1.05737 1.08515,0.0515 1.98984,0.27678 2.65273,1.20155 0.89716,1.25162 0.90181,3.21372 0.0965,4.51782 -0.17005,0.27536 -0.32454,0.58113 -0.67524,0.62481 -0.70304,0.0876 -0.88814,-0.75392 -0.81993,-1.29767 0.0266,-0.21212 0.0869,-0.419 0.14469,-0.62481 0.24708,-0.87933 0.61715,-1.89778 1.15755,-2.6434 0.48867,-0.67424 1.51342,-1.32011 2.31511,-1.53798 0.18872,-0.0513 0.38484,-0.0709 0.57878,-0.0961 0.64124,-0.0834 1.27765,-0.0324 1.83279,0.33643 1.03388,0.68684 1.80401,2.39096 2.07395,3.55659 0.0698,0.30132 0.13027,0.88548 0.14469,1.20155 0.0174,0.38156 0.0329,0.84767 -0.14469,1.20155 -0.036,0.0717 -0.098,0.12705 -0.1447,0.19224 -0.10422,0.1454 -0.0523,0.1362 -0.19292,0.19225 -0.61833,0.24647 -0.78903,-1.182 -0.81994,-1.48992 -0.0517,-0.51525 -0.0759,-0.93147 0,-1.44186 0.18674,-1.25603 1.01607,-2.59694 2.17041,-3.17209 0.68417,-0.34088 1.55142,-0.54993 2.31511,-0.38449 1.63588,0.35437 3.34811,1.9447 3.81027,3.55658 0.0503,0.1754 0.1447,0.71551 0.1447,0.91318 0,0.2768 -0.15715,0.98791 -0.43408,1.15349 -0.24609,0.14713 -0.58007,-0.026 -0.72347,-0.24032 -0.14208,-0.21236 -0.2159,-0.46918 -0.24116,-0.72092 -0.0351,-0.34947 0.004,-0.71959 0.0965,-1.05737 0.3987,-1.45677 1.64323,-2.58863 2.84565,-3.41239 0.64277,-0.44035 1.34402,-0.86571 2.12218,-1.00931 0.50326,-0.0929 0.7573,-0.0509 1.25401,0.0481 0.47952,0.0956 0.73518,0.16471 1.15756,0.43255 1.17319,0.74396 1.88369,2.2831 1.83279,3.65271 -0.0124,0.3339 -0.15268,0.87826 -0.24116,1.20155 -0.0875,0.31961 -0.17348,0.6224 -0.33762,0.91318 -0.23454,0.4155 -0.91062,1.12175 -1.44694,0.72093 -0.0642,-0.048 -0.10152,-0.12465 -0.14469,-0.19225 -0.45828,-0.71763 -0.28855,-1.4528 0,-2.21085 0.73246,-1.92426 2.64856,-3.97695 4.63021,-4.61395 0.81446,-0.2618 1.63473,-0.25222 2.41156,0.0961 0.33454,0.15001 0.68774,0.33147 0.96463,0.57674 0.44465,0.39385 0.77839,0.95254 1.01286,1.48992 0.26104,0.59828 0.37854,1.27002 0.33762,1.92248 -0.007,0.10845 -0.0642,0.44808 -0.0965,0.57674 -0.0533,0.21253 -0.0482,0.0767 -0.0482,0.19225"
       id="path960" />
    <path
       style="fill:none;stroke:#000000;stroke-width:0.264583px;stroke-linecap:butt;stroke-linejoin:miter;stroke-opacity:1"
       d="m 126.69741,191.86724 c -0.0965,0.11215 -0.21309,0.20971 -0.28939,0.33644 -0.0706,0.11731 -0.0949,0.25692 -0.1447,0.38449 -0.24839,0.63649 -0.45853,1.27464 -0.67524,1.92248 -0.0917,0.274 -0.20248,0.5415 -0.28938,0.81705 -0.12768,0.40481 -0.39142,1.43382 -0.48232,1.82636 -0.0702,0.30309 -0.11722,0.61141 -0.19292,0.91317 -0.0691,0.27543 -0.16078,0.54471 -0.24116,0.81706 -0.0643,0.28837 -0.12308,0.57803 -0.19292,0.86511 -0.20255,0.83257 -0.40317,1.70129 -0.72347,2.49922 -0.018,0.045 -0.25935,0.51057 -0.33763,0.43256 -0.0257,-0.0256 0.21138,-0.31269 0.24116,-0.33644 0.46472,-0.37046 0.95489,-0.57512 1.5434,-0.67286 0.92382,-0.15343 1.92169,-0.15346 2.84565,0 0.59429,0.0987 0.25526,0.0735 0.77171,0.19225 0.24287,0.0559 0.52338,0.11669 0.7717,0.14418 0.20528,0.0227 0.37412,-0.003 0.57877,0.0481"
       id="path1075" />
    <rect
       style="fill:#ccff00;fill-opacity:0;stroke:#000000;stroke-width:0.264583;stroke-linejoin:bevel;stroke-miterlimit:4;stroke-dasharray:none;paint-order:fill markers stroke"
       id="rect1099"
       width="6.7612157"
       height="16.960281"
       x="163.71431"
       y="226.5135" />
    <path
       style="fill:none;stroke:#000000;stroke-width:0.264583px;stroke-linecap:butt;stroke-linejoin:miter;stroke-opacity:1"
       d="m 179.39223,241.48928 c -0.0804,-0.11214 -0.17927,-0.21311 -0.24115,-0.33643 -0.0951,-0.18945 -0.12093,-0.71187 -0.1447,-0.91318 -0.10647,-0.90188 -0.001,0.0699 -0.0482,-0.96124 -0.008,-0.17677 -0.0405,-0.35189 -0.0482,-0.52868 -0.0161,-0.36812 0,-0.73695 0,-1.10543 0,-0.55822 -0.0254,-1.12453 0,-1.68216 0.0226,-0.49602 0.0951,-0.99591 0.14469,-1.48992 0.0838,-0.8349 0.17031,-1.6685 0.2894,-2.49923 0.0478,-0.33326 0.11878,-0.6737 0.14469,-1.0093 0.007,-0.0958 -0.008,-0.19258 0,-0.28836 0.0317,-0.37942 0.13483,-0.9031 0.28938,-1.24962 0.16177,-0.36269 0.36743,-0.70621 0.72347,-0.91317 0.30805,-0.17907 0.75603,-0.34049 1.10933,-0.3845 0.12763,-0.0159 0.25723,0 0.38585,0 0.97668,0 2.05054,0.24335 2.79741,0.91318 0.32517,0.29162 0.50926,0.6076 0.67524,1.0093 0.38911,0.94165 0.44427,2.38533 -0.24116,3.22015 -0.75764,0.92277 -2.11072,1.49787 -3.23149,1.82635 -0.4062,0.11905 -0.8328,0.23591 -1.25402,0.28837 -0.033,0.004 -0.62701,-0.003 -0.62701,0 0,0.0192 0.0544,-0.015 0.1447,0 0.13812,0.0229 0.31256,0.0837 0.43408,0.14419 0.5563,0.27718 1.0106,0.72555 1.39871,1.20155 0.6099,0.74802 1.05129,1.62309 1.44694,2.49922 0.32692,0.72393 0.53635,1.52502 1.15755,2.06666 0.0605,0.0528 0.11835,0.11446 0.19292,0.14419 0.64099,0.25549 1.44836,-0.25049 2.02572,-0.48062"
       id="path1138" />
    <path
       style="fill:none;stroke:#000000;stroke-width:0.264583px;stroke-linecap:butt;stroke-linejoin:miter;stroke-opacity:1"
       d="m 83.560422,243.35317 c -0.06821,-0.034 -0.133245,-0.0753 -0.204629,-0.10196 -0.12546,-0.0469 -0.493416,0.018 -0.613884,0.034 -0.450707,0.0599 -0.808656,0.20202 -1.193665,0.4418 -0.247007,0.15384 -0.496715,0.31285 -0.682096,0.54376 -0.02649,0.033 -0.346678,0.51745 -0.37515,0.57775 -0.100986,0.21384 -0.122721,0.37966 -0.136419,0.61173 -0.03804,0.64445 0.325329,0.96797 0.954932,1.05353 0.711255,0.0966 1.37683,-0.32272 1.875758,-0.78165 0.226547,-0.20839 0.545674,-0.61926 0.545674,-0.95158 0,-0.0704 -0.06789,-0.15246 -0.102312,-0.20391 -0.198324,-0.29644 -0.472509,-0.32523 -0.750303,-0.50977"
       id="path1286" />
    <path
       style="fill:none;stroke:#000000;stroke-width:0.264583px;stroke-linecap:butt;stroke-linejoin:miter;stroke-opacity:1"
       d="m 82.605487,228.90957 c -0.382457,-0.0143 -0.777742,0.0953 -1.057243,0.37384 -0.445944,0.44438 -0.62157,1.15693 -0.477467,1.76722 0.171641,0.7269 1.008682,1.17788 1.705237,0.91759 0.850953,-0.31799 1.27199,-1.23405 1.398291,-2.07308 0.04656,-0.3093 0.0558,-0.69786 -0.170521,-0.95158 -0.239599,-0.2686 -0.58647,-0.32941 -0.920827,-0.37383 -0.198588,-0.0264 -0.412316,-0.0591 -0.613883,-0.034 -0.33038,0.0411 0.06426,0.034 -0.170527,0.034"
       id="path1288" />
    <path
       style="fill:none;stroke:#000000;stroke-width:0.264583px;stroke-linecap:butt;stroke-linejoin:miter;stroke-opacity:1"
       d="M 82.179857,244.91695 74.239783,231.16433"
       id="path1323"
       inkscape:path-effect="#path-effect1325"
       inkscape:original-d="M 82.179857,244.91695 C 79.533431,240.333 76.886738,235.7488 74.239783,231.16433" />
    <path
       style="fill:none;stroke:#000000;stroke-width:0.264583px;stroke-linecap:butt;stroke-linejoin:miter;stroke-opacity:1"
       d="m 65.723655,233.90536 c 0.0011,1.13425 0.106225,2.26651 0.170527,3.39849 0.04726,0.83202 0.02257,0.98612 0.06821,1.83519 0.06525,1.21377 0.198313,2.4234 0.272838,3.63639 0.01389,0.22593 0.04753,1.26823 0.06821,1.52932 0.05352,0.67558 0.170524,1.36017 0.170524,2.03909"
       id="path1440" />
    <path
       style="fill:none;stroke:#000000;stroke-width:0.264583px;stroke-linecap:butt;stroke-linejoin:miter;stroke-opacity:1"
       d="m 66.712694,241.07618 c 0,-0.0793 -0.0079,-0.15899 0,-0.2379 0.01791,-0.17841 0.157949,-0.49363 0.204626,-0.67969 0.180938,-0.7212 -0.04921,0.13121 0.136422,-0.64572 0.195353,-0.81761 0.507572,-1.61286 0.920824,-2.34496 0.363728,-0.64435 0.831485,-1.23475 1.261875,-1.83518 0.270322,-0.37712 0.557771,-0.72574 0.886725,-1.05353 0.123777,-0.12335 0.286665,-0.26453 0.30694,-0.20391 0.0108,0.0322 0,0.068 0,0.10195"
       id="path1442" />
    <path
       style="fill:none;stroke:#000000;stroke-width:0.264583px;stroke-linecap:butt;stroke-linejoin:miter;stroke-opacity:1"
       d="m 66.303437,241.9258 -0.443362,-0.034"
       id="path1444" />
    <path
       style="fill:none;stroke:#000000;stroke-width:0.264583px;stroke-linecap:butt;stroke-linejoin:miter;stroke-opacity:1"
       d="m 66.712694,241.07618 c 0.929876,0.93511 -0.732131,-0.15406 -0.579781,-0.30586 0.07541,-0.0752 0.468543,0.23658 0.579781,0.30586 0.08625,0.0537 0.189199,0.0782 0.272836,0.13594 0.06605,0.0456 0.113684,0.11328 0.170524,0.16992 0.06821,0.068 0.141835,0.13091 0.204629,0.20391 0.233968,0.27201 0.407236,0.59189 0.613883,0.88361 0.412131,0.5818 0.848085,1.1404 1.398294,1.5973 0.312007,0.25909 0.730237,0.53282 1.15956,0.47578 0.279575,-0.0371 0.324028,-0.0963 0.579782,-0.23789"
       id="path1479" />
    <path
       style="fill:none;stroke:#000000;stroke-width:0.264583px;stroke-linecap:butt;stroke-linejoin:miter;stroke-opacity:1"
       d="m 85.046917,230.20705 c 0.400179,-0.009 0.793334,0.068 1.193665,0.068"
       id="path1594" />
    <path
       style="fill:none;stroke:#000000;stroke-width:0.264583px;stroke-linecap:butt;stroke-linejoin:miter;stroke-opacity:1"
       d="m 87.570669,230.32599 c 0.03411,-0.0113 0.06707,-0.027 0.102314,-0.034 0.170966,-0.0341 0.355277,-0.0353 0.528622,-0.051 0.200234,-0.0181 0.396388,-0.0513 0.596834,-0.068"
       id="path1596" />
    <path
       style="fill:none;stroke:#000000;stroke-width:0.264583px;stroke-linecap:butt;stroke-linejoin:miter;stroke-opacity:1"
       d="m 90.19673,230.25802 c 0.03979,-0.017 0.07705,-0.0419 0.119366,-0.051 0.03891,-0.008 0.07958,0 0.11937,0 0.05684,0 0.113681,0 0.170521,0 0.215998,0 0.431993,0 0.647989,0"
       id="path1598" />
    <path
       style="fill:none;stroke:#000000;stroke-width:0.264583px;stroke-linecap:butt;stroke-linejoin:miter;stroke-opacity:1"
       d="m 92.58406,230.47893 c 0.05684,-0.034 0.107352,-0.0821 0.170526,-0.10196 0.0488,-0.0153 0.102384,0.003 0.153469,0 0.238647,-0.0125 0.477936,-0.0482 0.716201,-0.068"
       id="path1600" />
    <path
       style="fill:none;stroke:#000000;stroke-width:0.264583px;stroke-linecap:butt;stroke-linejoin:miter;stroke-opacity:1"
       d="m 84.859343,245.1944 c 0.381762,0.0111 0.761857,-0.0273 1.142508,-0.051"
       id="path1602" />
    <path
       style="fill:none;stroke:#000000;stroke-width:0.264583px;stroke-linecap:butt;stroke-linejoin:miter;stroke-opacity:1"
       d="m 88.133395,245.05846 c 0.471784,0 0.943565,0 1.415346,0"
       id="path1604" />
    <path
       style="fill:none;stroke:#000000;stroke-width:0.264583px;stroke-linecap:butt;stroke-linejoin:miter;stroke-opacity:1"
       d="m 91.71439,245.14342 c 0.05116,-0.017 0.101166,-0.0379 0.153472,-0.051 0.118295,-0.0295 0.145007,-0.0103 0.272836,-0.017 0.05705,-0.003 0.113635,-0.0118 0.170526,-0.017 0.248865,-0.0225 0.500809,-0.0561 0.750303,-0.068 0.124912,-0.006 0.250103,0 0.375153,0"
       id="path1606" />
    <path
       style="fill:none;stroke:#000000;stroke-width:0.264583px;stroke-linecap:butt;stroke-linejoin:miter;stroke-opacity:1"
       d="m 94.920233,245.10944 c 0.06821,0 0.136419,0 0.204631,0"
       id="path1608" />
    <path
       style="fill:none;stroke:#000000;stroke-width:0.264583px;stroke-linecap:butt;stroke-linejoin:miter;stroke-opacity:1"
       d="m 94.715604,230.17306 c 0.298368,-0.0459 0.603811,0.006 0.903777,-0.017 0.125042,-0.01 0.252251,-0.0435 0.375153,-0.068 0.05138,-0.0102 0.101475,-0.0275 0.153469,-0.034 0.02257,-0.003 0.0457,0.003 0.06821,0 0.01778,-0.003 0.03343,-0.0141 0.05116,-0.017 0.01865,-0.003 0.219845,-0.009 0.238731,0 0.0072,0.004 0.01138,0.0113 0.01707,0.017 0.0057,0.006 0.0099,0.0134 0.01704,0.017 0.01019,0.005 0.02392,-0.005 0.0341,0 0.0072,0.004 0.01138,0.0113 0.01704,0.017 0.0057,0.006 0.0099,0.0134 0.01707,0.017 0.02349,0.0117 0.01527,-0.0205 0.0341,0.017 0.0026,0.005 -0.004,0.013 0,0.017 0.0046,0.005 0.04412,0 0.05116,0"
       id="path1610" />
    <path
       style="fill:none;stroke:#000000;stroke-width:0.264583px;stroke-linecap:butt;stroke-linejoin:miter;stroke-opacity:1"
       d="m 96.693682,230.13906 c 0.06821,0.0623 0.146791,0.11489 0.204623,0.18693 0.0055,0.007 -0.0016,0.20421 0,0.22091 0.0031,0.0343 0.01439,0.0676 0.01704,0.10195 0.0065,0.0847 0,0.16993 0,0.25489 0,0.32232 -0.01513,0.64777 0.01707,0.96857 0.04385,0.43691 0.08645,0.87428 0.153469,1.30842 0.02799,0.18128 0.055,0.36284 0.08526,0.54376 0.0168,0.10044 0.04267,0.20442 0.05116,0.30586 0.0084,0.10001 0,0.20546 0,0.30587 0,0.14596 0.01042,0.29633 0,0.4418 -0.0074,0.10263 -0.02389,0.20411 -0.0341,0.30586 -0.01291,0.12868 0.01609,0.26256 0,0.39083 -0.01437,0.11447 -0.05116,0.22412 -0.05116,0.33985"
       id="path1612" />
    <path
       style="fill:none;stroke:#000000;stroke-width:0.264583px;stroke-linecap:butt;stroke-linejoin:miter;stroke-opacity:1"
       d="m 91.680288,236.69817 c 0,-0.034 -0.0048,-0.0683 0,-0.10196 0.0066,-0.046 0.166889,-0.0638 0.187574,-0.068 0.161282,-0.0321 0.330158,-0.0605 0.494519,-0.068 0.153313,-0.007 0.306941,0 0.460412,0 0.317963,0 0.637093,-0.008 0.954932,0 0.119465,0.003 0.238628,0.0143 0.3581,0.017 1.6e-5,0 0.818494,0 0.818513,0 0.0013,2e-5 0.885428,0.034 0.886721,0.034 0.306893,0.006 0.613887,0 0.92083,0 0.301257,0 0.602572,0.006 0.903774,0 0.142187,-0.003 0.284123,-0.0141 0.426307,-0.017 0.136393,-0.003 0.27287,0.003 0.409258,0 0.369676,-0.008 0.738783,-0.0415 1.108403,-0.051 0.731469,-0.0187 -0.129651,0.0251 0.630939,-0.017 0.19329,-0.0107 0.38627,-0.0283 0.57978,-0.034 0.0966,-0.003 0.1933,0.003 0.28989,0 0.42136,-0.0127 0.84274,-0.0427 1.26187,0.017"
       id="path1614" />
    <path
       style="fill:none;stroke:#000000;stroke-width:0.264583px;stroke-linecap:butt;stroke-linejoin:miter;stroke-opacity:1"
       d="m 91.748498,239.04313 c 1.381238,0 2.76248,0 4.143719,0 0.499893,0 1.000797,0.008 1.50061,0 0.170593,-0.003 0.340974,-0.0142 0.511567,-0.017 0.341,-0.006 0.682143,0.006 1.023144,0 0.488897,-0.008 0.97763,-0.0249 1.466502,-0.034 0.28984,-0.005 0.57984,0.006 0.86967,0 0.13083,-0.003 0.26138,-0.014 0.39221,-0.017 0.2273,-0.005 0.45482,0.006 0.68209,0 0.0911,-0.003 0.18177,-0.014 0.27283,-0.017 0.26998,-0.009 0.53517,0.0191 0.80147,-0.034"
       id="path1616" />
    <path
       style="fill:none;stroke:#000000;stroke-width:0.264583px;stroke-linecap:butt;stroke-linejoin:miter;stroke-opacity:1"
       d="m 97.239353,239.23004 c 0.0057,0.0623 0.01013,0.12474 0.01707,0.18692 0.0164,0.14707 0.04373,0.29373 0.05115,0.44181 0.0094,0.18673 0.0092,0.37391 0.01707,0.56075 0.0029,0.0681 0.01431,0.13576 0.01704,0.20391 0.02231,0.55589 -0.0268,-0.0996 0.01704,0.42481 0.01794,0.21446 0.04217,0.43074 0.05116,0.64571 0.01156,0.2764 0,0.55597 0,0.83263 0,0.25374 0.01212,0.5112 0,0.76466 -0.0105,0.21991 -0.04081,0.44424 -0.06821,0.66271 -0.01487,0.11856 -0.04196,0.23773 -0.05116,0.35684 -0.01294,0.16764 0,0.34144 0,0.50978 0,0.0334 0.01413,0.17576 0,0.2039 -0.03375,0.0673 -0.108733,0.051 -0.170522,0.051 -0.445553,0 -0.888023,-0.0143 -1.330084,0.051 -0.198564,0.0293 -0.394896,0.0798 -0.596831,0.068 -0.04012,-0.002 -0.09421,0.0143 -0.119367,-0.017 -0.01775,-0.0221 0.0341,-0.0453 0.05116,-0.068"
       id="path1618" />
    <path
       style="fill:none;stroke:#000000;stroke-width:0.264583px;stroke-linecap:butt;stroke-linejoin:miter;stroke-opacity:1"
       d="m 111.38858,234.42118 c 0.0209,0.12499 0.009,0.0685 0.0341,0.16992 0.004,0.0162 0.0574,0.28266 0.10231,0.2379 0.004,-0.004 -0.001,-0.0115 0,-0.017 0.004,-0.0174 0.0135,-0.0334 0.0171,-0.051 0.008,-0.0393 0.0126,-0.0791 0.0171,-0.11895 0.024,-0.21552 0.0242,-0.41491 -0.0171,-0.62872 -0.0651,-0.33733 -0.17123,-0.58448 -0.51157,-0.71368 -0.0606,-0.023 -0.12301,-0.0456 -0.18758,-0.051 -0.29646,-0.0246 -0.60152,0.1746 -0.80146,0.37384 -0.11421,0.11381 -0.21159,0.24381 -0.30694,0.37383 -0.28445,0.38788 -0.45408,0.67466 -0.64799,1.1215 -0.44802,1.03241 -0.64502,2.14119 -0.57978,3.26256 0.0389,0.66794 0.11294,1.42096 0.61388,1.92014 0.74006,0.73746 1.7629,0.1856 2.43849,-0.33984 0.45584,-0.35453 1.0199,-0.86249 1.24482,-1.41038 0.078,-0.18991 0.10232,-0.40824 0.10232,-0.61173"
       id="path1620" />
    <path
       style="fill:none;stroke:#000000;stroke-width:0.264583px;stroke-linecap:butt;stroke-linejoin:miter;stroke-opacity:1"
       d="m 117.50859,258.32246 v 15.22823"
       id="path1768"
       inkscape:path-effect="#path-effect1770"
       inkscape:original-d="m 117.50859,258.32246 c 2.6e-4,5.07634 2.6e-4,10.15242 0,15.22823" />
    <path
       style="fill:none;stroke:#000000;stroke-width:0.264583px;stroke-linecap:butt;stroke-linejoin:miter;stroke-opacity:1"
       d="m 121.66388,247.50815 v 36.46671"
       id="path1885"
       inkscape:path-effect="#path-effect1887"
       inkscape:original-d="m 121.66388,247.50815 c 2.6e-4,12.15584 2.6e-4,24.31141 0,36.46671" />
    <path
       style="fill:none;stroke:#000000;stroke-width:0.264583px;stroke-linecap:butt;stroke-linejoin:miter;stroke-opacity:1"
       d="m 131.15879,252.69248 c -0.10522,-0.0608 -0.23893,-0.18695 -0.37515,-0.20391 -0.49546,-0.0617 -1.21048,0.0561 -1.60292,0.37383 -0.50095,0.40559 -0.84032,1.05801 -1.02314,1.66526 -0.18303,0.60793 -0.17444,1.28786 -0.0341,1.90316 0.0702,0.3078 0.19225,0.79608 0.47747,0.98556 0.19593,0.13016 0.37929,0.18164 0.61389,0.20391 0.69618,0.0661 1.30968,-0.29235 1.73933,-0.81564 0.12612,-0.15359 0.31748,-0.35537 0.27284,-0.57774 -0.0914,-0.45535 -0.89671,0.0341 -1.05725,0.13594 -0.92925,0.58926 -1.55137,1.58124 -1.77344,2.65082 -0.11133,0.5362 -0.10151,1.49155 0.34105,1.90316 0.75443,0.70167 2.19489,0.7279 3.10353,0.33985 0.47682,-0.20364 0.91035,-0.61699 1.22777,-1.01955 0.16585,-0.21034 0.30951,-0.43652 0.47746,-0.64571"
       id="path2051" />
    <path
       style="fill:none;stroke:#000000;stroke-width:0.264583px;stroke-linecap:butt;stroke-linejoin:miter;stroke-opacity:1"
       d="m 133.54613,259.59142 c 0.12505,0.0793 0.29106,0.11601 0.37514,0.23789 0.005,0.007 -0.004,0.53508 0,0.61173 0.0183,0.32809 0.0879,0.67511 0.27284,0.95158 0.26087,0.38992 0.83041,0.38932 1.19367,0.13594 0.10037,-0.07 0.25884,-0.28863 0.30694,-0.37384 0.38559,-0.68309 0.22383,-1.51231 -0.40926,-1.97112 -0.11143,-0.0808 -0.27713,-0.19002 -0.40925,-0.2379 -0.14263,-0.0517 -0.29556,-0.034 -0.44337,-0.034"
       id="path2053" />
    <path
       style="fill:none;stroke:#000000;stroke-width:0.264583px;stroke-linecap:butt;stroke-linejoin:miter;stroke-opacity:1"
       d="m 134.22985,259.9543 c -0.0341,-0.0283 -0.0709,-0.0537 -0.10232,-0.085 -0.008,-0.008 0.005,-0.0407 0,-0.051 -0.004,-0.007 -0.0134,-0.01 -0.017,-0.017 -0.007,-0.0133 -0.003,-0.19063 0,-0.2039 0.0125,-0.0621 0.0345,-0.13314 0.0682,-0.18692 0.0431,-0.0688 0.10053,-0.14237 0.15346,-0.20391 0.0157,-0.0183 0.0434,-0.0282 0.0512,-0.051 0.0268,-0.0785 0.033,-0.16264 0.0495,-0.24396"
       id="path2168" />
  </g>
</svg>
