<?xml version="1.0" encoding="UTF-8" standalone="no"?>
<!-- Created with Inkscape (http://www.inkscape.org/) -->

<svg
   width="240mm"
   height="120mm"
   viewBox="0 0 240 120"
   version="1.1"
   id="svg8"
   inkscape:version="1.1.2 (0a00cf5339, 2022-02-04)"
   sodipodi:docname="1729852722.svg"
   xmlns:inkscape="http://www.inkscape.org/namespaces/inkscape"
   xmlns:sodipodi="http://sodipodi.sourceforge.net/DTD/sodipodi-0.dtd"
   xmlns="http://www.w3.org/2000/svg"
   xmlns:svg="http://www.w3.org/2000/svg"
   xmlns:rdf="http://www.w3.org/1999/02/22-rdf-syntax-ns#"
   xmlns:cc="http://creativecommons.org/ns#"
   xmlns:dc="http://purl.org/dc/elements/1.1/">
  <defs
     id="defs2">
    <marker
       style="overflow:visible;"
       id="marker1945"
       refX="0.0"
       refY="0.0"
       orient="auto"
       inkscape:stockid="Arrow1Lend"
       inkscape:isstock="true">
      <path
         transform="scale(0.8) rotate(180) translate(12.5,0)"
         style="fill-rule:evenodd;fill:context-stroke;stroke:context-stroke;stroke-width:1.0pt;"
         d="M 0.0,0.0 L 5.0,-5.0 L -12.5,0.0 L 5.0,5.0 L 0.0,0.0 z "
         id="path1943" />
    </marker>
    <inkscape:path-effect
       effect="spiro"
       id="path-effect1861"
       is_visible="true"
       lpeversion="1" />
    <inkscape:path-effect
       effect="spiro"
       id="path-effect1744"
       is_visible="true"
       lpeversion="1" />
    <marker
       style="overflow:visible"
       id="Arrow1Lstart"
       refX="0.0"
       refY="0.0"
       orient="auto"
       inkscape:stockid="Arrow1Lstart"
       inkscape:isstock="true">
      <path
         transform="scale(0.8) translate(12.5,0)"
         style="fill-rule:evenodd;fill:context-stroke;stroke:context-stroke;stroke-width:1.0pt"
         d="M 0.0,0.0 L 5.0,-5.0 L -12.5,0.0 L 5.0,5.0 L 0.0,0.0 z "
         id="path1172" />
    </marker>
    <marker
       style="overflow:visible;"
       id="Arrow1Lend"
       refX="0.0"
       refY="0.0"
       orient="auto"
       inkscape:stockid="Arrow1Lend"
       inkscape:isstock="true">
      <path
         transform="scale(0.8) rotate(180) translate(12.5,0)"
         style="fill-rule:evenodd;fill:context-stroke;stroke:context-stroke;stroke-width:1.0pt;"
         d="M 0.0,0.0 L 5.0,-5.0 L -12.5,0.0 L 5.0,5.0 L 0.0,0.0 z "
         id="path1175" />
    </marker>
    <inkscape:path-effect
       effect="spiro"
       id="path-effect975"
       is_visible="true"
       lpeversion="1" />
    <inkscape:path-effect
       effect="spiro"
       id="path-effect858"
       is_visible="true"
       lpeversion="1" />
  </defs>
  <sodipodi:namedview
     id="base"
     pagecolor="#ffffff"
     bordercolor="#666666"
     borderopacity="1.0"
     inkscape:pageopacity="0.0"
     inkscape:pageshadow="2"
     inkscape:zoom="1.9887478"
     inkscape:cx="473.41348"
     inkscape:cy="279.57291"
     inkscape:document-units="mm"
     inkscape:current-layer="layer1"
     showgrid="false"
     showborder="true"
     width="200mm"
     showguides="true"
     inkscape:guide-bbox="true"
     inkscape:window-width="2160"
     inkscape:window-height="1375"
     inkscape:window-x="0"
     inkscape:window-y="0"
     inkscape:window-maximized="1"
     inkscape:pagecheckerboard="0">
    <inkscape:grid
       type="xygrid"
       id="grid815"
       units="mm"
       spacingx="10"
       spacingy="10"
       empspacing="4"
       dotted="false" />
  </sodipodi:namedview>
  <metadata
     id="metadata5">
    <rdf:RDF>
      <cc:Work
         rdf:about="">
        <dc:format>image/svg+xml</dc:format>
        <dc:type
           rdf:resource="http://purl.org/dc/dcmitype/StillImage" />
      </cc:Work>
    </rdf:RDF>
  </metadata>
  <g
     inkscape:label="Layer 1"
     inkscape:groupmode="layer"
     id="layer1"
     transform="translate(0,-177)">
    <path
       style="fill:none;stroke:#000000;stroke-width:0.264583px;stroke-linecap:butt;stroke-linejoin:miter;stroke-opacity:1;marker-start:url(#Arrow1Lstart)"
       d="m 66.395049,198.23214 v 81.94947"
       id="path856"
       inkscape:path-effect="#path-effect858"
       inkscape:original-d="m 66.395049,198.23214 c 2.64e-4,27.31675 2.64e-4,54.63325 0,81.94947" />
    <path
       style="fill:none;stroke:#000000;stroke-width:0.264583px;stroke-linecap:butt;stroke-linejoin:miter;stroke-opacity:1;marker-end:url(#marker1945)"
       d="M 51.506098,271.58615 H 204.93265"
       id="path973"
       inkscape:path-effect="#path-effect975"
       inkscape:original-d="m 51.506098,271.58615 c 51.142452,2.6e-4 102.284632,2.6e-4 153.426552,0" />
    <path
       style="fill:none;stroke:#000000;stroke-width:0.264583px;stroke-linecap:butt;stroke-linejoin:miter;stroke-opacity:1"
       d="m 66.354091,258.10351 c 0,0 10.539926,2.48209 27.048939,-8.45238 16.50902,-10.93446 18.7007,-34.77991 21.26127,-37.51222 2.56057,-2.73231 3.47446,21.2581 10.70873,37.7013 7.23427,16.44319 38.87503,17.01993 68.3673,19.34269 29.49226,2.32276 38.6786,1.46144 38.6786,1.46144"
       id="path1090" />
    <path
       style="fill:none;stroke:#000000;stroke-width:0.26458299;stroke-linecap:butt;stroke-linejoin:miter;stroke-opacity:1;stroke-miterlimit:4;stroke-dasharray:3.17499584,3.17499584;stroke-dashoffset:0"
       d="M 115.44771,211.45789 H 66.321481"
       id="path1742"
       inkscape:path-effect="#path-effect1744"
       inkscape:original-d="m 115.44771,211.45789 c -16.375144,2.7e-4 -32.750552,2.7e-4 -49.126229,0" />
    <path
       style="fill:none;stroke:#000000;stroke-width:0.26458299;stroke-linecap:butt;stroke-linejoin:miter;stroke-opacity:1;stroke-miterlimit:4;stroke-dasharray:3.17499584,3.17499584;stroke-dashoffset:0"
       d="m 115.44771,211.45789 v 60.04698"
       id="path1859"
       inkscape:path-effect="#path-effect1861"
       inkscape:original-d="m 115.44771,211.45789 c 2.6e-4,20.01592 2.6e-4,40.03158 0,60.04698" />
    <path
       style="fill:none;stroke:#000000;stroke-width:0.264583px;stroke-linecap:butt;stroke-linejoin:miter;stroke-opacity:1"
       d="m 113.35521,276.87444 c -0.2505,0.69526 -0.29307,0.75193 -0.46313,1.4605 -0.12493,0.52057 -0.41518,1.83326 -0.0655,2.3578 0.0343,0.0514 0.0724,0.11146 0.13098,0.13099 0.36091,0.1203 2.72598,-0.45831 2.94725,-0.85143 0.0745,-0.13236 0,-0.52616 0,-0.68321 0,-0.0466 -0.0128,0.095 0,0.13979 0.038,0.13254 0.27689,0.42501 0.31222,0.49548 0.39248,0.78289 0.51811,1.57333 1.63185,1.10928 1.56217,-0.65089 2.50212,-1.30159 1.8909,-3.13529 -0.13608,-0.40826 -0.28706,-0.88907 -0.52395,-1.2444 -0.0974,-0.14616 -0.36492,-0.56246 -0.5581,-0.56246 -0.043,0 0.0861,0 0.12912,0"
       id="path2021" />
    <path
       style="fill:none;stroke:#000000;stroke-width:0.264583px;stroke-linecap:butt;stroke-linejoin:miter;stroke-opacity:1"
       d="m 121.93062,280.08194 c -0.43697,1.04932 -0.36207,0.5555 -0.36207,1.45399 0,0.14148 -0.007,0.28124 0.0502,0.41873 0.046,0.11129 0.18173,0.16024 0.25546,0.25546 0.0426,0.055 0.10495,0.34684 0.11509,0.35054 0.26089,0.0952 0.44646,-0.15237 0.65454,-0.24473 0.0823,-0.0365 0.17972,-0.0289 0.26198,-0.0655 0.21408,-0.0951 0.57189,-0.35302 0.70369,-0.5727 0.15497,-0.25827 0.12071,-1.02115 0.0105,-1.28756 -0.0396,-0.0958 -0.23619,-0.40458 -0.31085,-0.48709 -0.0315,-0.0348 -0.43561,-0.0238 -0.49872,-0.0655 -0.0962,-0.0635 -0.1821,-0.19499 -0.32954,-0.108 -0.18758,0.11067 -0.36684,0.23489 -0.55026,0.35234 z"
       id="path2023" />
    <path
       style="fill:none;stroke:#000000;stroke-width:0.264583px;stroke-linecap:butt;stroke-linejoin:miter;stroke-opacity:1"
       d="m 56.700676,255.31044 c -0.421145,-0.36627 -0.627002,-0.65103 -1.116716,-0.82593 -0.499219,-0.17829 -0.575681,-0.13099 -1.109017,-0.13099 -0.386588,0 -0.688264,-0.002 -0.806305,0.42591 -0.119972,0.43535 0.396632,1.32307 0.807972,1.42766 0.118612,0.0302 0.241781,0.0387 0.361582,0.0638 0.06833,0.0143 0.624295,0.0498 0.628965,0.062 0.03343,0.0876 -0.22415,0.24923 -0.337328,0.343 -0.452345,0.37479 -0.891268,0.77356 -1.244391,1.24439 -0.102307,0.1364 -0.244324,0.2441 -0.32747,0.39296 -0.120689,0.21608 0.287393,0.84341 0.311743,0.87902 0.27632,0.40416 0.342985,0.30387 0.766347,0.51485 0.113935,0.0568 0.205542,0.1599 0.327472,0.19649 0.104553,0.0314 0.218316,0 0.327472,0 0.682472,0 1.493161,-0.18077 1.931318,-0.77175 0.108003,-0.14567 0.296945,-0.3692 0.357603,-0.53719 0.05558,-0.15392 0.07109,-0.38606 0.146273,-0.4901"
       id="path2138" />
    <path
       style="fill:none;stroke:#000000;stroke-width:0.264583px;stroke-linecap:butt;stroke-linejoin:miter;stroke-opacity:1"
       d="m 61.00646,256.7061 c -0.003,0.31129 -0.683839,0.58043 -0.847312,0.87226 -0.111477,0.19901 0.06766,1.17241 0.299275,1.26797 0.47375,0.19546 2.222622,0.1379 2.653488,-0.0377 0.218686,-0.0891 0.26969,-0.30287 0.429247,-0.42942 0.04835,-0.0384 0.131614,-0.0178 0.174339,-0.0624 0.0517,-0.0539 0,-0.48993 0,-0.53905 0,-0.3237 -0.184251,-0.75296 -0.425564,-0.98729 -0.08172,-0.0793 -0.715404,0.0731 -0.860216,0 -0.0718,-0.0362 0.01249,-0.0865 -0.0853,-0.12172 -0.150305,-0.0541 -0.176104,0.0324 -0.353592,-0.0619 -0.120166,-0.0639 -0.230351,-0.25112 -0.398195,-0.17764 -0.197953,0.0867 -0.390776,0.18459 -0.586166,0.27689 z"
       id="path2144" />
    <path
       style="fill:none;stroke:#000000;stroke-width:0.264583px;stroke-linecap:butt;stroke-linejoin:miter;stroke-opacity:1"
       d="m 40.485591,202.64859 c -1.312862,1.19017 -1.954498,1.69644 -3.16652,3.32232 -0.314507,0.42191 -1.186246,2.31679 -1.375381,2.94724 -0.115673,0.38558 -0.161388,0.78912 -0.261977,1.1789 -0.216596,0.83931 -0.568058,1.68541 -0.654944,2.55428 -0.18565,1.85651 0.193831,3.28191 2.09582,3.99515 0.836488,0.31368 1.550874,0.29912 2.423287,0.19648 0.196339,-0.0231 0.403947,0.003 0.589449,-0.0655 1.417786,-0.52233 2.17772,-2.10058 2.68527,-3.4057 0.267581,-0.68807 0.550013,-1.41209 0.589446,-2.16131 0.03075,-0.58413 0,-1.18232 0,-1.76835 0,-1.40809 -0.08551,-2.44441 -0.651462,-3.71876 -0.320471,-0.0885 -0.07147,-0.30406 -0.13099,-0.4477 -0.04016,-0.0969 -0.161732,-0.14984 -0.190098,-0.25085 -0.0796,-0.28344 0.0932,-0.0431 -0.06181,-0.28352 -0.122531,-0.19005 -0.566224,-0.41979 -0.718794,-0.60433 -0.05094,-0.0616 -0.08547,-0.33667 -0.16656,-0.43578 -0.0528,-0.0645 -0.20048,-0.1202 -0.268179,-0.18593 -0.08607,-0.0836 -0.08812,-0.24661 -0.171487,-0.33245 -0.180589,-0.18594 -0.376711,-0.35613 -0.565066,-0.5342 z"
       id="path2259" />
    <path
       style="fill:none;stroke:#000000;stroke-width:0.264583px;stroke-linecap:butt;stroke-linejoin:miter;stroke-opacity:1"
       d="m 39.366729,212.82411 c 1.065051,1.15368 1.926879,2.47306 2.904072,3.69456 0.05786,0.0723 0.13099,0.13099 0.196485,0.19648 0.04366,0.10916 0.06868,0.22778 0.13099,0.32747 0.180493,0.28879 0.376396,0.22147 0.376396,0.5989"
       id="path2261" />
    <path
       style="fill:none;stroke:#000000;stroke-width:0.264583px;stroke-linecap:butt;stroke-linejoin:miter;stroke-opacity:1"
       d="m 52.163352,208.87955 c -0.723138,0.41108 -1.501108,0.77621 -2.169575,1.27756 -0.126926,0.0952 -0.445831,0.4617 -0.520451,0.58658 -0.168545,0.28207 -0.701323,1.35855 -0.521134,1.69469 0.195072,0.36391 0.727024,0.63882 1.085924,0.75846 0.425418,0.1418 0.89553,0.12085 1.267571,-0.12718 0.181433,-0.12095 0.243176,-0.26198 0.474316,-0.26198 0.05959,0 -0.119171,0 -0.178758,0 -0.52977,0 0.08584,-0.0412 -0.567854,0.19649 -0.124799,0.0454 -0.272394,0.01 -0.392967,0.0655 -0.520962,0.24045 -0.894652,0.74363 -1.309886,1.1134 -0.09728,0.0866 -0.461849,0.30025 -0.515657,0.39008 -0.185407,0.30951 -0.02069,0.72369 0.13099,0.9967 0.373017,0.67143 0.667126,0.79203 1.309886,1.11341 0.271005,0.1355 0.144894,0.19648 0.523951,0.19648 0.83049,0 1.727137,-0.26303 2.488785,-0.58945 0.160848,-0.0689 0.309626,-0.1645 0.454959,-0.26198 0.142965,-0.0959 0.368914,-0.50539 0.552895,-0.50539"
       id="path2263" />
    <path
       style="fill:none;stroke:#000000;stroke-width:0.264583px;stroke-linecap:butt;stroke-linejoin:miter;stroke-opacity:1"
       d="m 57.179492,212.30068 c 0.0795,0.31581 -0.325347,0.53579 -0.359412,0.83773 -0.02283,0.20231 -0.222335,2.08529 -0.128164,2.2608 0.700952,1.30645 2.795674,0.65013 3.523244,-0.31008 0.06693,-0.0883 0,-0.70673 0,-0.80145 0,-0.16711 0.0689,-0.99783 0,-1.11783 -0.279596,-0.48693 -1.4274,-1.49346 -1.953831,-1.63688 -0.812607,-0.2214 -0.381821,0.4417 -0.523666,0.54123 -0.164365,0.11533 -0.372116,0.15099 -0.558171,0.22648 z"
       id="path2265" />
    <path
       style="fill:none;stroke:#000000;stroke-width:0.264583px;stroke-linecap:butt;stroke-linejoin:miter;stroke-opacity:1"
       d="m 50.142665,184.26585 c -0.40306,2.2409 -0.64021,4.54007 -0.16697,6.78796 0.19527,0.92753 0.6716,3.23729 1.44088,3.92966 0.75714,0.68144 2.11683,0.20736 2.81626,-0.32747 0.53149,-0.40643 0.98832,-1.1395 1.24439,-1.70286 0.28311,-0.62284 0.78526,-2.17892 0.91691,-3.01273 0.01,-0.0605 -0.007,-0.79513 0,-0.91692 0.0437,-0.7428 0.15021,-1.48638 0.19649,-2.22681 0.0527,-0.84252 0,-1.70326 0,-2.5485 0,-0.0422 0,0.0844 0,0.12656 0,0.17175 0,0.34351 0,0.51526 0,0.50212 0,1.00425 0,1.50637 0,0.50213 -0.0345,1.00544 0,1.50637 0.0634,0.91907 0.21079,1.82957 0.26197,2.75076 0.0302,0.54319 -0.0492,1.09598 0,1.63736 0.0318,0.3497 0.092,0.69922 0.131,1.04591 0.0162,0.14413 -0.0293,0.29306 0,0.43511 0.0558,0.27052 0.18186,0.53676 0.2527,0.79444 0.004,0.0161 -0.0187,0.16996 0,0.19707 0.0107,0.0155 0.0376,0 0.0564,0"
       id="path2380-3" />
    <path
       style="fill:none;stroke:#000000;stroke-width:0.264583px;stroke-linecap:butt;stroke-linejoin:miter;stroke-opacity:1"
       d="m 63.323725,192.99338 c -0.63567,-0.49815 -1.25391,-0.85505 -2.08256,-0.80325 -0.3861,0.0241 -0.32455,0.12952 -0.58945,0.26197 -0.70641,0.3532 -0.67848,0.30047 -1.2444,0.91692 -0.0727,0.0792 -0.11776,0.18185 -0.19379,0.2579 -0.0762,0.0763 -0.21037,0.098 -0.25851,0.19447 -0.0772,0.15462 0,0.34559 0,0.51838 0,0.97044 0.62503,1.54503 1.43949,1.95225 0.27105,0.13553 0.17965,0.19737 0.52394,0.32747 0.21772,0.0823 0.94229,0 1.25727,0"
       id="path2382-6" />
    <path
       style="fill:none;stroke:#000000;stroke-width:0.264583px;stroke-linecap:butt;stroke-linejoin:miter;stroke-opacity:1"
       d="m 201.8673,277.15944 c -0.35973,0.92657 -0.8057,1.93626 -0.64351,2.96348 0.0388,0.24587 0.13948,0.47814 0.19649,0.72043 0.1409,0.59884 0.23475,1.16466 0.65494,1.63736 0.24427,0.2748 0.59028,0.67103 0.98097,0.72044 0.86505,0.1094 1.01785,-0.60926 1.29673,-1.23672 0.32784,-0.73765 0.0697,-0.01 0.32747,-0.52395 0.32497,-0.64836 0.32617,-0.85857 0.32617,-1.53105 0,-0.0494 0.0311,0.0961 0.0623,0.13442 0.19191,0.23595 0.0519,-0.0275 0.24511,0.31059 0.18682,0.32694 0.25361,0.69951 0.39297,1.04791 0.24277,0.60693 0.67617,1.38953 1.24439,1.76835 0.0978,0.0652 0.22221,0.0786 0.32747,0.13099 0.28051,0.13955 0.1476,0.18265 0.51616,0.32227 0.16115,0.061 0.34465,0 0.51698,0 0.12886,0 0.2658,0.0449 0.38658,0 0.21986,-0.0818 0.42754,-0.34072 0.57773,-0.50968 0.61612,-0.69313 0.5741,-1.00184 0.85143,-1.83384 0.34281,-1.02844 0.44437,-2.2229 -0.13099,-3.20922 -0.46931,-0.80452 -1.2355,-1.54117 -1.93123,-2.05319"
       id="path2626" />
    <path
       style="fill:none;stroke:#000000;stroke-width:0.264583px;stroke-linecap:butt;stroke-linejoin:miter;stroke-opacity:1"
       d="m 160.89046,261.47461 c 0.002,-0.003 0.79622,-1.03883 0.9613,-1.21812 0.23761,-0.25807 0.43898,-0.59928 0.76886,-0.71859 0.0649,-0.0235 0.13668,0.0259 0.20571,0.0241 0.0563,-0.001 0.57531,-0.0721 0.67272,-0.0463 0.42512,0.11236 1.871,0.81656 2.12867,1.14254 0.41103,0.52012 0.0901,1.40262 0.44829,1.78416 0.12461,0.13274 0.32882,0.0777 0.47404,0.081 0.2932,0.007 0.17119,0.0858 0.5263,-0.0426 0.2496,-0.0903 0.15777,-0.12474 0.3447,-0.27242 0.0999,-0.0789 0.22073,-0.12972 0.31691,-0.2131 0.45382,-0.39341 0.66656,-1.11331 0.91476,-1.64278 0.0608,-0.12965 0.44905,-1.11271 0.56748,-1.05719"
       id="path2741" />
    <path
       style="fill:none;stroke:#000000;stroke-width:0.264583px;stroke-linecap:butt;stroke-linejoin:miter;stroke-opacity:1"
       d="m 174.78235,255.45387 c -0.39637,0.75837 -0.63079,1.5626 -0.76729,2.40831 -0.22637,1.40216 0.10784,4.05571 1.78452,4.52555 0.19076,0.0534 0.85595,0.1191 1.02482,-0.0259 0.29348,-0.25204 0.57637,-0.53371 0.7691,-0.86913 0.49261,-0.85741 0.7718,-2.3602 0.42091,-3.32967 -0.0155,-0.0428 0.0223,0.0898 0.0464,0.12834 0.25364,0.40568 -0.12858,-0.36962 0.0968,0.4032 0.0391,0.1342 0.14473,0.24243 0.1853,0.3762 0.0457,0.15065 0.0469,0.31133 0.0704,0.46701 0.0735,0.20323 0.14701,0.40647 0.22052,0.60971 0.1434,0.3965 0.18344,0.98839 0.47254,1.30652 0.12108,0.13319 0.2855,0.21998 0.4188,0.34099 0.40359,0.3662 0.78659,0.71773 1.36766,0.7858 0.0782,0.009 0.15484,-0.0379 0.2335,-0.0352 0.0899,0.003 0.18042,0.0824 0.265,0.0519 0.1157,-0.0418 0.56182,-0.46435 0.63011,-0.57262 0.34881,-0.55302 0.38892,-1.1137 0.45406,-1.74014 0.11719,-1.12683 0.14077,-2.16344 -0.0537,-3.28017 -0.0417,-0.2396 -0.0325,-0.70838 -0.29193,-0.82999"
       id="path2745" />
    <path
       style="fill:none;stroke:#000000;stroke-width:0.264583px;stroke-linecap:butt;stroke-linejoin:miter;stroke-opacity:1"
       d="m 183.14705,252.48508 c 0.49991,0.73744 0.70254,-0.14704 1.05931,-0.15477 0.0114,-2e-4 0.17178,0.10471 0.19981,0.0937 0.29648,-0.11643 0.57745,-0.1575 0.89877,-0.22604 0.0266,-0.006 0.0697,0.052 0.096,0.045 0.069,-0.0186 0.13644,-0.0722 0.26247,-0.0517 0.10556,0.0171 0.21718,0.10181 0.31314,0.14679"
       id="path2747" />
    <path
       style="fill:none;stroke:#000000;stroke-width:0.264583px;stroke-linecap:butt;stroke-linejoin:miter;stroke-opacity:1"
       d="m 185.97652,252.338 c 0.23128,-0.78537 0.39652,-1.59328 0.69385,-2.3561 0.0912,-0.23388 1.52588,0.0219 1.81985,0.12977 0.46308,0.16992 2.04631,1.04563 1.90388,1.73784 -0.039,0.18953 -0.16428,0.35043 -0.24642,0.52565 -0.34663,0.73945 -0.52517,0.97046 -1.04155,1.60461 -0.0838,0.10298 -0.13202,0.23427 -0.2261,0.328 -0.33454,0.33339 -0.78714,0.5276 -1.21202,0.73384 -0.38723,0.18797 -0.84127,0.28801 -1.22554,0.4925 -0.0489,0.026 -0.2639,0.38272 -0.31742,0.28898 -0.10202,-0.17858 1.29294,-0.094 1.43991,-0.10158 0.20566,-0.0106 0.40751,-0.0689 0.61341,-0.0741 0.59842,-0.0151 0.90461,0.0653 1.43623,0.0223 0.20446,-0.0247 0.40893,-0.0494 0.6134,-0.0741 0.11739,0.007 0.23482,0.0285 0.35211,0.0204 0.43325,-0.0298 0.52617,-0.11501 0.91335,0.0665"
       id="path2749" />
  </g>
</svg>
