<?xml version="1.0" encoding="UTF-8" standalone="no"?>
<!-- Created with Inkscape (http://www.inkscape.org/) -->

<svg
   width="240mm"
   height="120mm"
   viewBox="0 0 240 120"
   version="1.1"
   id="svg8"
   inkscape:version="1.1.2 (0a00cf5339, 2022-02-04)"
   sodipodi:docname="1729326251-.svg"
   xmlns:inkscape="http://www.inkscape.org/namespaces/inkscape"
   xmlns:sodipodi="http://sodipodi.sourceforge.net/DTD/sodipodi-0.dtd"
   xmlns="http://www.w3.org/2000/svg"
   xmlns:svg="http://www.w3.org/2000/svg"
   xmlns:rdf="http://www.w3.org/1999/02/22-rdf-syntax-ns#"
   xmlns:cc="http://creativecommons.org/ns#"
   xmlns:dc="http://purl.org/dc/elements/1.1/">
  <defs
     id="defs2">
    <inkscape:path-effect
       effect="spiro"
       id="path-effect1442"
       is_visible="true"
       lpeversion="1" />
    <inkscape:path-effect
       effect="spiro"
       id="path-effect1046"
       is_visible="true"
       lpeversion="1" />
    <inkscape:path-effect
       effect="spiro"
       id="path-effect1046-3"
       is_visible="true"
       lpeversion="1" />
  </defs>
  <sodipodi:namedview
     id="base"
     pagecolor="#ffffff"
     bordercolor="#666666"
     borderopacity="1.0"
     inkscape:pageopacity="0.0"
     inkscape:pageshadow="2"
     inkscape:zoom="1.9887478"
     inkscape:cx="447.26637"
     inkscape:cy="228.28436"
     inkscape:document-units="mm"
     inkscape:current-layer="layer1"
     showgrid="false"
     showborder="true"
     width="200mm"
     showguides="true"
     inkscape:guide-bbox="true"
     inkscape:window-width="2160"
     inkscape:window-height="1375"
     inkscape:window-x="0"
     inkscape:window-y="0"
     inkscape:window-maximized="1"
     inkscape:pagecheckerboard="0">
    <inkscape:grid
       type="xygrid"
       id="grid815"
       units="mm"
       spacingx="10"
       spacingy="10"
       empspacing="4"
       dotted="false" />
  </sodipodi:namedview>
  <metadata
     id="metadata5">
    <rdf:RDF>
      <cc:Work
         rdf:about="">
        <dc:format>image/svg+xml</dc:format>
        <dc:type
           rdf:resource="http://purl.org/dc/dcmitype/StillImage" />
      </cc:Work>
    </rdf:RDF>
  </metadata>
  <g
     inkscape:label="Layer 1"
     inkscape:groupmode="layer"
     id="layer1"
     transform="translate(0,-177)">
    <rect
       style="fill:#ccff00;fill-opacity:0;stroke:#000000;stroke-width:0.495493;paint-order:fill markers stroke"
       id="rect845"
       width="140.45155"
       height="63.399582"
       x="48.754234"
       y="212.73712" />
    <path
       style="fill:none;stroke:#000000;stroke-width:0.264583px;stroke-linecap:butt;stroke-linejoin:miter;stroke-opacity:1"
       d="m 59.328736,212.97144 c -0.04547,-0.068 -0.09574,-0.13297 -0.136419,-0.20392 -0.08884,-0.15492 0.259813,-1.01714 0.30694,-1.1215 0.619898,-1.3727 2.133751,-2.20902 3.615103,-2.20902 0.306057,0 0.761135,0.0411 1.057243,0.13594 0.692328,0.22175 1.298035,0.76302 1.773447,1.29143 1.003593,1.11546 1.459153,2.31912 1.500608,3.80631 0.01225,0.43984 0.01675,0.69827 -0.06821,1.1215 -0.03462,0.17247 -0.08949,0.34025 -0.136419,0.50977 -0.112466,0.40626 -0.217665,0.79565 -0.443362,1.15549 -0.316601,0.50478 -0.857716,0.85898 -1.466501,0.81564 -0.197403,-0.0141 -0.425603,-0.0673 -0.579781,-0.20391 -0.504751,-0.44709 -0.336302,-1.23887 -0.204629,-1.8012 0.123457,-0.52724 0.273918,-1.05541 0.545677,-1.52932 0.135133,-0.23565 0.519205,-0.71999 0.682095,-0.91759 0.166458,-0.20194 0.664729,-0.77683 0.852618,-0.95158 0.4216,-0.39211 0.749937,-0.59587 1.227767,-0.91759 0.46146,-0.31071 0.826751,-0.56486 1.330084,-0.81564 0.59749,-0.2977 1.401715,-0.60502 2.046285,-0.78166 0.212849,-0.0583 0.432242,-0.0894 0.647988,-0.13594 0.398277,-0.0858 0.854501,-0.20498 1.261875,-0.23789 0.203962,-0.0165 0.409255,0 0.613883,0 0.604354,0 1.179275,0.0103 1.773447,0.13594 1.964669,0.41528 3.324833,1.99792 3.580995,3.97624 0.105812,0.81718 -0.0054,1.65292 -0.204629,2.44691 -0.08249,0.32881 -0.335076,1.32243 -0.682096,1.49534 -0.358907,0.17882 -0.802957,0.005 -0.989036,-0.33985 -0.194942,-0.36077 -0.30694,-0.954 -0.30694,-1.3594 0,-0.42037 0.07648,-0.86941 0.238731,-1.25744 0.350316,-0.8378 1.148511,-1.77334 1.841656,-2.34496 0.162941,-0.13437 0.341045,-0.24922 0.511569,-0.37383 1.23286,-0.90093 2.601936,-1.63377 4.092567,-2.00512 1.788165,-0.44547 3.654555,-0.43288 5.21802,0.64572 0.258709,0.17848 0.566097,0.41781 0.784407,0.64571 0.810639,0.84626 1.188099,1.98289 1.466506,3.09263 0.12664,0.50479 0.155798,0.57513 0.238734,1.08752 0.15349,0.94828 0.199774,1.75342 -0.272838,2.61684 -0.127638,0.23318 -0.320009,0.4324 -0.613884,0.37383 -0.3136,-0.0625 -0.556818,-0.36025 -0.716203,-0.61173 -0.413753,-0.6528 -0.63408,-1.71537 -0.682094,-2.4809 -0.0517,-0.82425 0.07146,-1.68955 0.409261,-2.44691 0.582652,-1.30636 2.221486,-2.49613 3.580992,-2.85474 1.048777,-0.27664 2.249903,-0.14679 3.274052,0.16993 1.011373,0.31277 2.299989,1.13455 3.103528,1.83518 0.169349,0.14767 0.31255,0.3232 0.477465,0.47579 0.249062,0.23046 0.509572,0.4398 0.750302,0.6797"
       id="path1009" />
    <path
       style="fill:none;stroke:#000000;stroke-width:0.264583px;stroke-linecap:butt;stroke-linejoin:miter;stroke-opacity:1"
       d="m 126.8443,196.28668 v 32.01288"
       id="path1044"
       inkscape:original-d="m 126.8443,196.28668 c 2.7e-4,10.67122 2.7e-4,21.34218 0,32.01288"
       inkscape:path-effect="#path-effect1046" />
    <path
       style="fill:none;stroke:#000000;stroke-width:0.264583px;stroke-linecap:butt;stroke-linejoin:miter;stroke-opacity:1"
       d="M 133.03303,196.40122 V 228.4141"
       id="path1044-6"
       inkscape:original-d="m 133.03303,196.40122 c 2.7e-4,10.67122 2.7e-4,21.34218 0,32.01288"
       inkscape:path-effect="#path-effect1046-3" />
    <rect
       style="fill:#ccff00;fill-opacity:0;stroke:#000000;stroke-width:0.421;paint-order:fill markers stroke"
       id="rect1278"
       width="23.151154"
       height="9.3297319"
       x="151.75961"
       y="208.28542" />
    <path
       style="fill:none;stroke:#000000;stroke-width:0.264583px;stroke-linecap:butt;stroke-linejoin:miter;stroke-opacity:1"
       d="m 160.66426,201.9333 c 0.0582,-0.11594 0.16223,-0.30449 0.20463,-0.44181 0.1115,-0.36111 0.15478,-0.74894 0.20463,-1.1215 0.0817,-0.6103 0.14315,-1.22262 0.20462,-1.83518 4e-5,-3.2e-4 0.1364,-1.35907 0.13642,-1.3594 0.0166,-0.2149 0.0161,-0.43093 0.0341,-0.64571 0.0162,-0.19325 0.0521,-0.38451 0.0682,-0.57775 0.018,-0.21479 0.0166,-0.43089 0.0341,-0.64571 0.0673,-0.82755 0.0653,-0.38614 0.13642,-1.18948 0.017,-0.19216 0.0227,-0.38516 0.0341,-0.57774 0.0227,-0.19258 0.0495,-0.38473 0.0682,-0.57774 0.0558,-0.57516 0.0544,-1.16083 0.13641,-1.73323 0.11404,-0.79546 0.53099,-1.59804 1.12546,-2.14106 0.0655,-0.0598 0.13892,-0.1104 0.20463,-0.16992 0.0595,-0.0539 0.10777,-0.1199 0.17052,-0.16992 0.37628,-0.29997 0.90076,-0.38983 1.36419,-0.30587 0.11888,0.0215 0.23456,0.0383 0.34104,0.10196 0.41959,0.25087 0.78578,0.97268 0.98905,1.39338 0.19625,0.40617 0.39449,0.86289 0.37515,1.32541 -0.0639,1.52882 -1.78503,2.50315 -3.03532,2.99067 -0.31578,0.12314 -0.61247,0.2379 -0.95494,0.2379 -0.0177,0 -0.21675,0.0219 -0.23873,0 -0.0343,-0.0342 0.062,-0.0966 0.17053,-0.13594 0.43279,-0.15683 0.94092,-0.23897 1.39829,-0.20391 0.41644,0.0319 0.86214,0.13165 1.22777,0.33985 0.96417,0.54902 1.89563,2.00977 2.25091,3.02466 0.36985,1.05652 0.3873,2.31468 -0.0341,3.3645 -0.143,0.35624 -0.39119,0.70124 -0.64799,0.98557 -9e-5,1e-4 -0.17047,0.16988 -0.20462,0.20391 -0.0114,0.0113 -0.0455,0.0226 -0.0341,0.034 0.0161,0.016 0.0457,-0.003 0.0682,0 0.15916,0.0227 0.31866,0.043 0.47747,0.068 0.11451,0.018 0.22609,0.053 0.34104,0.068 0.36841,0.0479 0.60969,0.034 0.98904,0.034"
       id="path1397" />
    <path
       style="fill:none;stroke:#000000;stroke-width:0.264583px;stroke-linecap:butt;stroke-linejoin:miter;stroke-opacity:1"
       d="m 121.13638,193.70895 c 0,-0.068 -0.006,-0.13623 0,-0.20391 0.005,-0.0575 0.0293,-0.11236 0.0341,-0.16993 0.0395,-0.47275 -0.0262,-0.93566 -0.13642,-1.39338 -0.0905,-0.37592 -0.19881,-0.74338 -0.44336,-1.05353 -0.85294,-1.08175 -2.46706,-0.33067 -3.30816,0.33985 -1.21441,0.96811 -2.26218,2.67434 -2.79659,4.11217 -0.17244,0.46395 -0.29423,0.94596 -0.40926,1.42737 -0.39698,1.66147 -0.57127,3.43422 -0.30694,5.13172 0.20617,1.32397 0.78879,2.52863 2.25092,2.75278 1.05716,0.16207 2.17697,-0.25203 3.10352,-0.71368 1.09607,-0.54611 2.32134,-1.38135 3.13764,-2.31098 0.41552,-0.47322 0.64417,-0.94398 0.92083,-1.49533"
       id="path1399" />
    <path
       style="fill:none;stroke:#000000;stroke-width:0.264583px;stroke-linecap:butt;stroke-linejoin:miter;stroke-opacity:1"
       d="m 79.527035,192.51947 c -0.0341,0.068 -0.07819,0.13179 -0.102311,0.20391 -0.04446,0.13292 -0.06633,0.27237 -0.102315,0.40782 -0.06634,0.24973 -0.134733,0.49891 -0.204631,0.74767 -0.279659,0.99528 -0.555326,1.99081 -0.81851,2.99067 -0.260546,0.98984 -0.533889,1.97345 -0.818517,2.95669 -0.305906,1.05675 -0.6359,2.11478 -0.852617,3.19458 -0.06796,0.3386 -0.120489,0.68421 -0.204627,1.01955 -0.0028,0.0113 -0.08691,0.18528 -0.06821,0.20391 0.02545,0.0254 0.06894,-0.0207 0.10232,-0.034 0.216876,-0.0865 0.433223,-0.17826 0.647986,-0.27188 0.825619,-0.35994 1.700606,-0.61102 2.591961,-0.74767 0.214672,-0.0329 0.432128,-0.0441 0.647991,-0.068 0.1934,-0.0214 0.385548,-0.0562 0.579776,-0.068 0.181563,-0.011 0.363786,0 0.54568,0 0.562102,0 1.05265,-0.0155 1.602919,0.10195 0.144376,0.0308 0.401125,0.0939 0.51157,0.20392 1.8e-5,1e-5 0.0682,0.0679 0.06821,0.068 0.0034,0.007 0,0.12835 0,0.034"
       id="path1401" />
    <path
       style="fill:none;stroke:#000000;stroke-width:0.264583px;stroke-linecap:butt;stroke-linejoin:miter;stroke-opacity:1"
       d="m 48.490919,231.97372 c -0.06821,0 -0.136758,-0.007 -0.204632,0 -0.08773,0.009 -0.233987,0.0689 -0.30694,0.10195 -0.878118,0.39774 -1.502,1.64064 -1.330082,2.58285 0.184412,1.0107 1.533247,1.64442 2.455537,1.25745 0.689674,-0.28937 1.112134,-1.02356 1.330085,-1.69925 0.203284,-0.63022 0.316857,-1.27138 -0.170524,-1.8012 -0.227595,-0.24741 -0.561806,-0.34568 -0.886722,-0.37384 -0.135909,-0.0118 -0.273236,0.0104 -0.409255,0 -0.16029,-0.0123 -0.318312,-0.0453 -0.477467,-0.068 z"
       id="path1403" />
    <path
       style="fill:none;stroke:#000000;stroke-width:0.264583px;stroke-linecap:butt;stroke-linejoin:miter;stroke-opacity:1"
       d="m 49.650479,245.94152 c -0.09094,-0.0453 -0.172403,-0.12054 -0.272838,-0.13594 -0.03828,-0.006 -0.430938,0.19703 -0.443363,0.20391 -0.360479,0.19956 -0.715928,0.43816 -1.023141,0.71368 -0.824259,0.73923 -1.675757,2.18367 -1.4665,3.33053 0.116609,0.6391 0.468169,0.90137 1.057245,1.1215 0.618985,0.2313 1.200256,0.25234 1.841654,0.10196 0.619289,-0.14521 1.233704,-0.4425 1.637027,-0.95158 0.387512,-0.48913 0.580647,-1.18168 0.511569,-1.8012 -0.01675,-0.15024 -0.06289,-0.29587 -0.102314,-0.44181 -0.08398,-0.31081 -0.141171,-0.51134 -0.30694,-0.78165 -0.37066,-0.6044 -1.060482,-0.90734 -1.705237,-1.1215"
       id="path1405" />
    <path
       style="fill:none;stroke:#000000;stroke-width:0.264583px;stroke-linecap:butt;stroke-linejoin:miter;stroke-opacity:1"
       d="m 39.760111,235.1683 8.867227,13.49201"
       id="path1440"
       inkscape:path-effect="#path-effect1442"
       inkscape:original-d="m 39.760111,235.1683 c 2.956007,4.4976 5.911749,8.99494 8.867227,13.49201" />
    <path
       style="fill:none;stroke:#000000;stroke-width:0.264583px;stroke-linecap:butt;stroke-linejoin:miter;stroke-opacity:1"
       d="m 61.045538,232.04168 c -0.04547,0.10196 -0.110477,0.19729 -0.136419,0.30587 -0.0317,0.13268 -0.02434,0.27175 -0.0341,0.40782 -0.07122,0.9936 -0.0055,0.0831 -0.03411,1.22346 -0.01624,0.64766 -0.04395,0.73906 -0.102314,1.39338 -0.183772,2.06017 -0.391983,4.11967 -0.511569,6.18526 -0.02331,0.40266 -0.0431,1.25658 -0.06821,1.66526 -0.04677,0.76114 -0.14283,1.51747 -0.204628,2.27699 -0.01656,0.20355 -0.01609,0.40829 -0.0341,0.61172 -0.03711,0.41909 -0.110049,0.83702 -0.13642,1.25745 -0.01619,0.25825 0,0.52247 0,0.78165"
       id="path1557" />
    <path
       style="fill:none;stroke:#000000;stroke-width:0.264583px;stroke-linecap:butt;stroke-linejoin:miter;stroke-opacity:1"
       d="m 60.602176,240.46995 c 0.05969,-0.33705 -0.182364,0.0562 -0.238731,0 -0.01892,-0.0189 0.01879,-0.0702 0.0341,-0.068 0.07116,0.0101 0.157758,0.12246 0.204629,0.068 0.06649,-0.0773 -0.03798,-0.21125 0,-0.30587 0.03587,-0.0894 0.143287,-0.12968 0.204628,-0.20391 0.0741,-0.0897 0.538713,-0.74582 0.579782,-0.81564 0.102822,-0.17478 0.175466,-0.36587 0.272836,-0.54375 0.131373,-0.24001 0.578471,-0.96869 0.7162,-1.18948 0.220843,-0.35402 0.601263,-0.96044 0.852617,-1.29142 0.481217,-0.63366 1.048748,-1.20032 1.637025,-1.73323 0.464124,-0.42045 0.944864,-0.83017 1.432401,-1.22346 0.100751,-0.0813 0.20851,-0.15382 0.306941,-0.2379 0.06101,-0.0521 0.110455,-0.11671 0.170524,-0.16992 0.103484,-0.0917 0.28308,-0.19371 0.238733,-0.23789 -0.03392,-0.0338 -0.115543,0.0201 -0.136419,0.034 -0.148701,0.0988 -0.363723,0.36226 -0.409257,0.54376 -0.03147,0.1254 0,0.33715 0,0.47579"
       id="path1559" />
    <path
       style="fill:none;stroke:#000000;stroke-width:0.264583px;stroke-linecap:butt;stroke-linejoin:miter;stroke-opacity:1"
       d="m 60.602176,240.46995 c 0.05684,0.0226 0.147867,0.12481 0.170524,0.068 0.02265,-0.0568 -0.188164,-0.009 -0.170524,-0.068 0.02888,-0.0959 0.339468,-0.40242 0.511572,-0.37384 0.373578,0.062 0.703799,0.6954 0.818512,0.98557 0.08699,0.22004 0.139417,0.45225 0.204629,0.6797 0.384632,1.34148 0.541451,2.75679 1.193665,4.01022 0.300196,0.57691 0.631375,1.08503 1.330081,1.18947 0.691857,0.10342 1.305039,-0.39118 1.841656,-0.74767"
       id="path1561" />
    <path
       style="fill:none;stroke:#000000;stroke-width:0.264583px;stroke-linecap:butt;stroke-linejoin:miter;stroke-opacity:1"
       d="m 123.73594,238.03889 c -0.0965,0 -0.19389,0.0136 -0.28939,0 -0.21812,-0.031 -0.0149,-0.6376 0,-0.67287 0.32575,-0.77093 0.87645,-1.46941 1.39871,-2.11472 0.83493,-1.03169 1.83191,-1.94587 2.89387,-2.73954 0.10264,-0.0767 0.53061,-0.48056 0.72348,-0.28837 0.36689,0.36561 -0.0114,2.29419 -0.0482,2.49922 -0.33199,1.84708 -0.38883,1.71629 -0.9164,3.50852 -0.53688,1.82386 -1.02949,3.66123 -1.39871,5.52713 -0.20752,1.04872 -0.37018,1.96654 -0.43408,3.0279 -0.0487,0.8084 -0.0961,2.73969 0.81993,3.17209 0.18384,0.0868 0.37597,0.17831 0.57878,0.19225 1.08899,0.0748 2.09027,-0.72289 2.84565,-1.3938 2.00781,-1.78329 3.40004,-4.08538 4.6302,-6.4403 0.53885,-1.03151 1.10913,-2.18631 1.54341,-3.26821 0.39333,-0.97987 0.66952,-1.92091 0.96462,-2.93178 0.29415,-1.00757 0.57885,-2.01887 0.86817,-3.0279 0.0825,-0.28777 0.18743,-0.57061 0.24116,-0.86512 0.0147,-0.0804 0.0335,-0.24031 -0.0482,-0.24031 -0.0359,0 -0.0724,0.0214 -0.0965,0.0481 -0.1226,0.13573 -0.23801,0.27915 -0.33762,0.43255 -0.55182,0.84982 -1.21423,2.05993 -1.63987,2.93178 -1.23206,2.52367 -2.18219,5.24245 -2.60449,8.02634 -0.10138,0.66829 -0.1484,1.34414 -0.19293,2.01861 -0.11758,1.78097 -0.0882,3.69578 0.57877,5.38293 0.19366,0.48987 0.37039,0.66678 0.67525,1.05737"
       id="path1698" />
    <path
       style="fill:none;stroke:#000000;stroke-width:0.264583px;stroke-linecap:butt;stroke-linejoin:miter;stroke-opacity:1"
       d="m 138.63942,245.3443 c -0.12994,0.0912 -0.29676,-0.0456 -0.43408,0 -0.10506,0.0349 -0.28437,0.23001 -0.33762,0.28838 -0.44582,0.48867 -0.73208,1.06423 -0.96463,1.68216 -0.25466,0.67671 -0.47001,1.439 -0.53054,2.16279 -0.0538,0.64358 0.0667,1.47286 0.72347,1.77829 0.34986,0.1627 0.5766,0.20158 0.96463,0.0961 1.05814,-0.28758 2.06191,-1.56535 2.41157,-2.54729 0.21983,-0.61737 0.20445,-1.26319 0,-1.87441 -0.23061,-0.68937 -0.7094,-1.29487 -1.44695,-1.44186"
       id="path1700" />
  </g>
</svg>
