<?xml version="1.0" encoding="UTF-8" standalone="no"?>
<!-- Created with Inkscape (http://www.inkscape.org/) -->

<svg
   width="240mm"
   height="120mm"
   viewBox="0 0 240 120"
   version="1.1"
   id="svg8"
   inkscape:version="1.1.2 (0a00cf5339, 2022-02-04)"
   sodipodi:docname="1729328284-.svg"
   xmlns:inkscape="http://www.inkscape.org/namespaces/inkscape"
   xmlns:sodipodi="http://sodipodi.sourceforge.net/DTD/sodipodi-0.dtd"
   xmlns="http://www.w3.org/2000/svg"
   xmlns:svg="http://www.w3.org/2000/svg"
   xmlns:rdf="http://www.w3.org/1999/02/22-rdf-syntax-ns#"
   xmlns:cc="http://creativecommons.org/ns#"
   xmlns:dc="http://purl.org/dc/elements/1.1/">
  <defs
     id="defs2">
    <marker
       style="overflow:visible"
       id="Arrow1Lstart"
       refX="0.0"
       refY="0.0"
       orient="auto"
       inkscape:stockid="Arrow1Lstart"
       inkscape:isstock="true">
      <path
         transform="scale(0.8) translate(12.5,0)"
         style="fill-rule:evenodd;fill:context-stroke;stroke:context-stroke;stroke-width:1.0pt"
         d="M 0.0,0.0 L 5.0,-5.0 L -12.5,0.0 L 5.0,5.0 L 0.0,0.0 z "
         id="path1162" />
    </marker>
    <marker
       style="overflow:visible;"
       id="Arrow1Lend"
       refX="0.0"
       refY="0.0"
       orient="auto"
       inkscape:stockid="Arrow1Lend"
       inkscape:isstock="true">
      <path
         transform="scale(0.8) rotate(180) translate(12.5,0)"
         style="fill-rule:evenodd;fill:context-stroke;stroke:context-stroke;stroke-width:1.0pt;"
         d="M 0.0,0.0 L 5.0,-5.0 L -12.5,0.0 L 5.0,5.0 L 0.0,0.0 z "
         id="path1165" />
    </marker>
    <inkscape:path-effect
       effect="spiro"
       id="path-effect975"
       is_visible="true"
       lpeversion="1" />
    <inkscape:path-effect
       effect="spiro"
       id="path-effect858"
       is_visible="true"
       lpeversion="1" />
  </defs>
  <sodipodi:namedview
     id="base"
     pagecolor="#ffffff"
     bordercolor="#666666"
     borderopacity="1.0"
     inkscape:pageopacity="0.0"
     inkscape:pageshadow="2"
     inkscape:zoom="2.8125141"
     inkscape:cx="475.90873"
     inkscape:cy="190.57683"
     inkscape:document-units="mm"
     inkscape:current-layer="layer1"
     showgrid="false"
     showborder="true"
     width="200mm"
     showguides="true"
     inkscape:guide-bbox="true"
     inkscape:window-width="2160"
     inkscape:window-height="1375"
     inkscape:window-x="0"
     inkscape:window-y="0"
     inkscape:window-maximized="1"
     inkscape:pagecheckerboard="0">
    <inkscape:grid
       type="xygrid"
       id="grid815"
       units="mm"
       spacingx="10"
       spacingy="10"
       empspacing="4"
       dotted="false" />
  </sodipodi:namedview>
  <metadata
     id="metadata5">
    <rdf:RDF>
      <cc:Work
         rdf:about="">
        <dc:format>image/svg+xml</dc:format>
        <dc:type
           rdf:resource="http://purl.org/dc/dcmitype/StillImage" />
      </cc:Work>
    </rdf:RDF>
  </metadata>
  <g
     inkscape:label="Layer 1"
     inkscape:groupmode="layer"
     id="layer1"
     transform="translate(0,-177)">
    <path
       style="fill:none;stroke:#000000;stroke-width:0.264583px;stroke-linecap:butt;stroke-linejoin:miter;stroke-opacity:1;marker-start:url(#Arrow1Lstart)"
       d="M 124.43816,185.9635 V 293.39397"
       id="path856"
       inkscape:path-effect="#path-effect858"
       inkscape:original-d="m 124.43816,185.9635 c 2.6e-4,35.81042 2.6e-4,71.62058 0,107.43047" />
    <path
       style="fill:none;stroke:#000000;stroke-width:0.264583px;stroke-linecap:butt;stroke-linejoin:miter;stroke-opacity:1;marker-end:url(#Arrow1Lend)"
       d="M 23.495271,238.7866 H 218.61482"
       id="path973"
       inkscape:path-effect="#path-effect975"
       inkscape:original-d="m 23.495271,238.7866 c 65.040115,2.7e-4 130.079959,2.7e-4 195.119549,0" />
    <path
       style="fill:none;stroke:#000000;stroke-width:0.264583px;stroke-linecap:butt;stroke-linejoin:miter;stroke-opacity:1"
       d="m 200.92897,251.3119 c -0.0643,-0.0961 -0.18138,-0.1733 -0.19293,-0.28837 -0.008,-0.0798 0.0965,-0.12817 0.1447,-0.19225 0.36361,-0.48311 0.72793,-0.96568 1.15755,-1.39379 0.46084,-0.45923 0.95406,-0.87428 1.44694,-1.29768 0.57051,-0.49009 1.14166,-0.98096 1.73633,-1.44185 0.21524,-0.16682 0.55692,-0.48063 0.86816,-0.48063 0.10136,0 0.0916,0.18713 0.0965,0.28838 0.0122,0.25603 0.0244,0.51382 0,0.76899 -0.11518,1.20506 -0.27611,1.46277 -0.53055,2.69147 -0.10897,0.52624 -0.17158,1.0617 -0.28939,1.58604 -0.12354,0.54989 -0.28737,1.08994 -0.43408,1.63411 -0.38973,1.44557 -0.82662,2.87724 -1.20578,4.32558 -0.098,0.37446 -0.69165,2.29879 -0.0965,2.59534 0.91412,0.45545 2.53094,-1.04059 3.08681,-1.53798 1.10927,-0.99259 1.64131,-1.56026 2.55626,-2.7876 0.42805,-0.57419 0.80559,-1.18435 1.20579,-1.77829 0.92913,-1.37895 1.84714,-2.7679 2.55626,-4.27751 0.34948,-0.744 0.69661,-1.59111 0.86816,-2.4031 0.0249,-0.11782 0.13302,-0.58838 0,-0.72093 -0.18255,-0.18191 -0.66151,0.28306 -0.91639,0.57674 -0.73715,0.84934 -1.51333,1.9741 -2.07395,2.93178 -0.49712,0.84922 -1.43498,2.74478 -1.83279,3.65271 -0.62781,1.43281 -1.1149,2.92997 -1.39871,4.46976 -0.11,0.5968 -0.20451,1.30657 -0.1447,1.92248 0.0207,0.21278 0.0965,0.41654 0.1447,0.6248"
       id="path1471" />
    <path
       style="fill:none;stroke:#000000;stroke-width:0.264583px;stroke-linecap:butt;stroke-linejoin:miter;stroke-opacity:1"
       d="m 141.94845,183.67041 c -0.036,0.25762 -0.23588,-0.0987 -0.33762,-0.0481 -0.65556,0.32663 -0.62425,2.02519 -0.38585,2.59535 0.3224,0.77105 1.587,0.98415 2.21864,0.48061 0.29409,-0.23444 0.46732,-0.7589 0.53054,-1.10542 0.0884,-0.48433 0.0559,-0.67609 -0.0482,-1.15349 -0.36402,-1.66864 -1.81684,-2.49968 -3.47265,-2.45115 -0.58298,0.0171 -0.91756,0.0985 -1.44695,0.28837 -0.57953,0.2079 -1.15746,0.48054 -1.63986,0.86511"
       id="path1473" />
    <path
       style="fill:none;stroke:#000000;stroke-width:0.264583px;stroke-linecap:butt;stroke-linejoin:miter;stroke-opacity:1"
       d="m 146.24104,182.99755 c -0.0917,-0.41153 -0.0451,-0.80669 0.0965,-1.20155 0.0495,-0.13819 0.55094,-1.22235 0.7717,-1.05736 0.33846,0.25295 0.28324,1.33451 0.28939,1.58604 0.0337,1.37545 -0.0153,0.72321 -0.0482,2.06666 -0.0141,0.57657 0,1.15349 0,1.73023 0,0.47443 -0.0224,0.70774 0.0482,1.15349 0.0328,0.20713 0.0706,0.63223 0.33762,0.72093 0.83232,0.27646 2.0422,-1.23413 2.4598,-1.77829 1.09691,-1.42938 1.86418,-3.08819 2.21864,-4.85426 0.0513,-0.25547 0.16159,-0.76838 -0.0965,-0.96124 -0.26271,-0.19633 -0.65815,0.10567 -0.81993,0.28837 -1.01304,1.14409 -1.23777,2.65453 -1.15755,4.13333 0.0624,1.15087 0.45573,2.15887 1.06108,3.12403"
       id="path1475" />
    <path
       style="fill:none;stroke:#000000;stroke-width:0.264583px;stroke-linecap:butt;stroke-linejoin:miter;stroke-opacity:1"
       d="m 141.61083,190.30296 c 0.64783,-0.22217 -0.46496,-0.16147 -0.33762,-0.28837 0.0518,-0.0516 0.47693,-0.0449 0.53055,-0.0481 0.16129,-0.009 0.32087,-0.0416 0.48231,-0.0481 0.53012,-0.0211 1.06109,0 1.59164,0 1.47802,0 2.95963,-0.0301 4.43728,0 0.40216,0.008 0.80362,0.0397 1.20578,0.0481 1.02829,0.0213 2.0587,-0.0285 3.08681,0 0.25763,0.007 0.51411,0.0395 0.7717,0.0481 0.54482,0.0181 1.09452,0 1.63987,0"
       id="path1477" />
    <path
       style="fill:none;stroke:#000000;stroke-width:0.264583px;stroke-linecap:butt;stroke-linejoin:miter;stroke-opacity:1"
       d="m 145.4211,194.96497 c -0.0515,-0.0171 -0.27265,-0.12432 -0.38585,-0.0961 -0.13565,0.0338 -0.22481,0.19185 -0.28938,0.28837 -0.40103,0.59942 -0.616,1.39092 -0.53055,2.11472 0.088,0.74547 0.76563,1.39741 1.5434,1.34574 0.11676,-0.008 0.22739,-0.0569 0.33763,-0.0961 0.31467,-0.11199 0.36899,-0.12899 0.57877,-0.38449 0.43657,-0.53171 0.50157,-1.12482 0.33762,-1.77829 -0.32116,-1.28014 -1.29348,-2.08797 -2.41157,-2.69147 -0.8717,-0.47052 -1.61936,-0.66892 -2.60449,-0.52868 -0.20009,0.0285 -0.3972,0.0537 -0.57878,0.14418"
       id="path1479" />
    <path
       style="fill:none;stroke:#000000;stroke-width:0.264583px;stroke-linecap:butt;stroke-linejoin:miter;stroke-opacity:1"
       d="m 150.87125,191.55257 c -0.0965,0.0641 -0.22706,0.0947 -0.28939,0.19225 -0.061,0.0955 -0.035,0.22392 -0.0482,0.33643 -0.0754,0.63912 -0.0482,1.27992 -0.0482,1.92248 0,0.95754 0.0726,2.19987 0.33762,3.12403 0.073,0.2548 0.35487,0.8995 0.48231,1.15349 0.074,0.14754 0.14331,0.29959 0.24116,0.43255 0.18835,0.25595 0.49398,0.44496 0.7717,0.57675 1.15506,0.54809 2.07447,0.20553 2.99034,-0.57675"
       id="path1481" />
    <path
       style="fill:none;stroke:#000000;stroke-width:0.264583px;stroke-linecap:butt;stroke-linejoin:miter;stroke-opacity:1"
       d="m 148.74907,195.39753 c 0.19292,-0.0641 0.37973,-0.15093 0.57877,-0.19225 0.18955,-0.0393 0.38581,-0.0327 0.57878,-0.0481 0.43389,-0.0346 0.86928,-0.0515 1.30225,-0.0961 0.71077,-0.0733 1.40853,-0.18952 2.12218,-0.24032"
       id="path1483" />
    <path
       sodipodi:type="spiral"
       style="fill:none;fill-rule:evenodd;stroke:#000000"
       id="path1682"
       sodipodi:cx="334.81625"
       sodipodi:cy="90.890663"
       sodipodi:expansion="1"
       sodipodi:revolution="15.817374"
       sodipodi:radius="152.63202"
       sodipodi:argument="-99.377647"
       sodipodi:t0="0"
       d="m 334.81625,90.890663 c 0.58851,1.326794 -1.49814,1.447882 -2.20522,0.978129 -1.91612,-1.273002 -1.21836,-4.086886 0.24897,-5.388566 2.6247,-2.328401 6.66089,-1.163862 8.57191,1.47605 2.8045,3.874177 1.12174,9.274882 -2.70314,11.755262 -5.09796,3.305952 -11.90372,1.085732 -14.93861,-3.930229 -3.8191,-6.312079 -1.05306,-14.539804 5.15732,-18.121958 7.5216,-4.338468 17.18,-1.022354 21.3053,6.384409 4.86154,8.728613 0.99289,19.82276 -7.61149,24.48865 -9.9341,5.38696 -22.46724,0.96424 -27.672,-8.838585 -5.91399,-11.13859 -0.93617,-25.112911 10.06567,-30.855349 12.3424,-6.442148 27.75947,-0.908508 34.0387,11.292767 6.97114,13.545728 0.88116,30.406677 -12.51986,37.222047 -14.74869,7.50075 -33.05439,0.85406 -40.40539,-13.74695 -8.03086,-15.951384 -0.82714,-35.702511 14.97404,-43.588739 17.15386,-8.561343 38.35095,-0.800366 46.77208,16.201126 9.09214,18.356175 0.77372,40.999643 -17.42821,49.955433 -19.55835,9.62318 -43.64856,0.74716 -53.13878,-18.6553 -10.15443,-20.760413 -0.72069,-46.297652 19.88239,-56.322133 21.96238,-10.685851 48.94689,-0.694286 59.50548,21.109484 11.21742,23.164273 0.66794,51.596259 -22.33657,62.688829 -24.3661,11.74911 -54.24574,0.64164 -65.87218,-23.56367 -12.28091,-25.567867 -0.61539,-56.89531 24.79075,-69.055518 26.7696,-12.812799 59.54498,-0.589176 72.23887,26.017842 13.34477,27.971276 0.563,62.194706 -27.24493,75.422216 -29.17292,13.87681 -64.84449,0.53684 -78.60556,-28.47202 -14.40892,-30.374533 -0.51071,-67.494344 29.69911,-81.788913 31.57612,-14.94107 70.14424,-0.484598 84.97226,30.926201 15.47327,32.777678 0.45851,72.794192 -32.15329,88.155612 -33.97922,16.00552 -75.44418,0.43244 -91.33896,-33.38038 -16.53781,-35.180737 -0.40638,-78.094198 34.60747,-94.522308 36.38223,-17.0701377 80.74425,-0.380344 97.70565,35.83456 17.6025,37.583717 0.35432,83.394328 -37.06165,100.888998 -38.78518,18.13488 -86.04444,0.3283 -104.07234,-38.28874 -18.66729,-39.98664 -0.3023,-88.694573 39.51583,-107.255692 41.18808,-19.1997231 91.34473,-0.276303 110.43904,40.742918 19.73218,42.389519 0.25031,93.994914 -41.97001,113.622394 -43.59094,20.26465 -96.64511,0.22434 -116.80574,-43.1971 C 232.42601,82.289083 253.02479,27.786117 297.64735,7.0923528 343.64111,-14.237309 399.5929,6.9199467 420.81978,52.743629 442.68197,99.938787 420.96623,157.33943 373.94142,179.09941 325.54487,201.49414 266.69536,179.21991 244.40229,130.99396 221.475,81.396024 244.30773,21.097626 293.73483,-1.728522 c 50.79931,-23.459854 112.54662,-0.068614 135.90583,50.559635 23.99243,52.000677 0.0427,115.196907 -51.78673,139.089177 -53.20204,24.52502 -117.84721,0.0167 -142.27252,-53.01382 -25.05762,-54.403405 0.009,-120.497527 54.24091,-145.455867 55.60476,-25.590234 123.14785,0.0351 148.63921,55.467994 26.12286,56.806113 -0.061,125.798183 -56.69508,151.822563 -58.00746,26.65548 -128.44853,-0.0869 -155.00591,-57.92217 -27.18812,-59.208808 0.11284,-131.0988764 59.14926,-158.189262 60.41015,-27.720757 133.74923,0.138756 161.37261,60.376352 28.2534,61.61148 -0.16467,136.39959 -61.60344,164.55596 -62.81282,28.78606 -139.04996,-0.19057 -167.73931,-62.83054 -29.31872,-64.014143 0.21647,-141.7003299 64.05762,-170.922646 65.21548,-29.851391 144.35072,0.242365 174.106,65.28471 30.38407,66.416796 -0.26826,147.001096 -66.5118,177.289346 -67.61812,30.91674 -149.65149,-0.29416 -180.47269,-67.73889 -31.44943,-68.819442 0.32005,-152.3018838 68.96598,-183.656041 70.02076,-31.982113 154.95228,0.345938 186.83939,70.193069 32.5148,71.222072 -0.37183,157.602692 -71.42016,190.022732 -72.42339,33.04751 -160.2531,-0.39771 -193.20609,-72.64724 -33.5802,-73.624704 0.4236,-162.903511 73.87434,-196.389436 74.82601,-34.112906 165.55392,0.449481 199.57278,75.101428 8.91959,19.573401 13.60996,41.005552 13.70063,62.514406"
       transform="matrix(0.26458333,0,0,0.26458333,35.671313,214.4227)" />
    <path
       style="fill:none;stroke:#000000;stroke-width:0.264583px;stroke-linecap:butt;stroke-linejoin:miter;stroke-opacity:1"
       d="m 164.64131,238.70693 c -0.054,0.0265 -0.10538,0.0589 -0.16189,0.0793 -0.008,0.003 -0.0158,-0.009 -0.0241,-0.012 -0.0532,-0.0212 -0.10016,-0.0295 -0.10852,-0.0961 -0.0356,-0.28402 0.6185,-0.69145 0.74758,-0.34845 0.0821,0.21819 -0.0493,0.48665 -0.19292,0.64883 -0.0902,0.10185 -0.2338,0.1858 -0.36174,0.2283 -0.0936,0.0311 -0.18482,0.0383 -0.26527,-0.024 -0.1589,-0.12315 -0.12133,-0.34292 -0.0241,-0.49263 0.0646,-0.0995 0.18607,-0.1858 0.28939,-0.24031 0.0445,-0.0235 0.16299,-0.0745 0.21704,-0.036 0.0762,0.0542 0.0625,0.17789 0.0482,0.25233 -0.0167,0.0877 -0.0463,0.17741 -0.0965,0.25232 -0.0741,0.11072 -0.26071,0.28506 -0.39791,0.31241 -0.0299,0.006 -0.0936,0.004 -0.10852,-0.0361 -0.0819,-0.21772 0.2389,-0.52003 0.40997,-0.60077 0.0763,-0.036 0.21102,-0.0733 0.26527,0.024 0.0289,0.0519 0.0309,0.11075 0.0241,0.16822 -0.0223,0.18863 -0.17449,0.34951 -0.36173,0.38449 -0.0324,0.006 -0.10391,0.009 -0.13264,-0.024 -0.0177,-0.0202 -0.0241,-0.0481 -0.0362,-0.0721"
       id="path1900" />
    <path
       style="fill:none;stroke:#000000;stroke-width:0.504477px;stroke-linecap:butt;stroke-linejoin:miter;stroke-opacity:1"
       d="m 166.00123,245.6653 c -0.10876,-0.10994 -0.28101,-0.0299 -0.38839,-0.13834 -0.0639,-0.0645 -0.0546,-0.26067 -0.0457,-0.32275 0.062,-0.43749 0.34086,-0.81422 0.57117,-1.17573 0.21021,-0.32991 0.43179,-0.65277 0.66258,-0.96825 0.37755,-0.51613 0.78763,-0.99808 1.21089,-1.47542 0.49412,-0.55723 -0.0726,0.0815 0.25132,-0.29969 0.0133,-0.0173 0.0265,-0.0558 0.0457,-0.0461 0.0205,0.01 0.004,0.0464 0,0.0691 -0.0193,0.12356 -0.0404,0.24706 -0.0686,0.36886 -0.13662,0.58904 -0.25004,0.95649 -0.4341,1.54459 -0.0964,0.30821 -0.21146,0.61065 -0.29701,0.92214 -0.0898,0.3269 -0.15632,0.65994 -0.22848,0.99129 -0.22482,1.03348 -0.4232,2.11765 -0.31986,3.18139 0.0451,0.46408 0.18114,1.09637 0.61687,1.36017 0.26802,0.16232 0.5051,0.22444 0.8225,0.18438 0.87871,-0.1109 1.66011,-1.0731 2.14764,-1.72901 0.44312,-0.59616 0.84486,-1.2062 1.18806,-1.86734 0.18361,-0.35361 0.68041,-1.49515 0.84535,-1.89039 0.20424,-0.48943 0.44323,-1.07506 0.59402,-1.5907 0.0989,-0.33797 0.19501,-0.8159 0.25133,-1.17571 0.0237,-0.15138 0.12316,-0.65949 -0.0229,-0.80688 -0.0559,-0.0564 -0.13718,0 -0.18285,0.046 -0.11103,0.11205 -0.21114,0.23617 -0.29701,0.36886 -0.37714,0.58274 -0.57397,1.02464 -0.82249,1.68291 -0.31727,0.84033 -0.40602,1.21778 -0.61688,2.09787 -0.0807,0.33701 -0.16333,0.67389 -0.22847,1.01435 -0.21773,1.13728 -0.33639,2.32226 -0.25133,3.48106 0.0133,0.17767 0.0457,0.3535 0.0686,0.53024"
       id="path1902" />
    <path
       style="fill:none;stroke:#000000;stroke-width:0.504477px;stroke-linecap:butt;stroke-linejoin:miter;stroke-opacity:1"
       d="m 174.02062,247.6479 c -0.0737,0.0295 -0.15329,-0.0134 -0.22847,0 -0.3142,0.053 -0.43791,0.48463 -0.50264,0.73772 -0.13169,0.51473 -0.10743,1.43624 0.29701,1.84428 0.10365,0.10476 0.22478,0.15292 0.36555,0.18438 0.0673,0.0154 0.13718,0.0311 0.20562,0.023 0.25014,-0.0297 0.42851,-0.29209 0.54834,-0.48411 0.13832,-0.22155 0.31338,-0.55915 0.3884,-0.80689 0.0642,-0.21203 0.0923,-0.53812 0.0686,-0.76076 -0.0349,-0.32913 -0.21735,-0.73707 -0.50266,-0.92214 -0.16219,-0.10514 -0.20232,-0.0965 -0.38839,-0.13834"
       id="path1904" />
  </g>
</svg>
