<?xml version="1.0" encoding="UTF-8" standalone="no"?>
<!-- Created with Inkscape (http://www.inkscape.org/) -->

<svg
   width="240mm"
   height="120mm"
   viewBox="0 0 240 120"
   version="1.1"
   id="svg8"
   inkscape:version="1.1.2 (0a00cf5339, 2022-02-04)"
   sodipodi:docname="1729090347-16-10-anmech-9-16.svg"
   xmlns:inkscape="http://www.inkscape.org/namespaces/inkscape"
   xmlns:sodipodi="http://sodipodi.sourceforge.net/DTD/sodipodi-0.dtd"
   xmlns="http://www.w3.org/2000/svg"
   xmlns:svg="http://www.w3.org/2000/svg"
   xmlns:rdf="http://www.w3.org/1999/02/22-rdf-syntax-ns#"
   xmlns:cc="http://creativecommons.org/ns#"
   xmlns:dc="http://purl.org/dc/elements/1.1/">
  <defs
     id="defs2">
    <inkscape:path-effect
       effect="spiro"
       id="path-effect1631"
       is_visible="true"
       lpeversion="1" />
    <inkscape:path-effect
       effect="spiro"
       id="path-effect1389"
       is_visible="true"
       lpeversion="1" />
    <inkscape:path-effect
       effect="spiro"
       id="path-effect1031"
       is_visible="true"
       lpeversion="1" />
    <inkscape:path-effect
       effect="spiro"
       id="path-effect914"
       is_visible="true"
       lpeversion="1" />
    <inkscape:path-effect
       effect="spiro"
       id="path-effect858"
       is_visible="true"
       lpeversion="1" />
  </defs>
  <sodipodi:namedview
     id="base"
     pagecolor="#ffffff"
     bordercolor="#666666"
     borderopacity="1.0"
     inkscape:pageopacity="0.0"
     inkscape:pageshadow="2"
     inkscape:zoom="1.9887478"
     inkscape:cx="433.68999"
     inkscape:cy="261.9739"
     inkscape:document-units="mm"
     inkscape:current-layer="layer1"
     showgrid="false"
     showborder="true"
     width="200mm"
     showguides="true"
     inkscape:guide-bbox="true"
     inkscape:window-width="2160"
     inkscape:window-height="1375"
     inkscape:window-x="0"
     inkscape:window-y="0"
     inkscape:window-maximized="1"
     inkscape:pagecheckerboard="0">
    <inkscape:grid
       type="xygrid"
       id="grid815"
       units="mm"
       spacingx="10"
       spacingy="10"
       empspacing="4"
       dotted="false" />
  </sodipodi:namedview>
  <metadata
     id="metadata5">
    <rdf:RDF>
      <cc:Work
         rdf:about="">
        <dc:format>image/svg+xml</dc:format>
        <dc:type
           rdf:resource="http://purl.org/dc/dcmitype/StillImage" />
      </cc:Work>
    </rdf:RDF>
  </metadata>
  <g
     inkscape:label="Layer 1"
     inkscape:groupmode="layer"
     id="layer1"
     transform="translate(0,-177)">
    <path
       style="fill:none;stroke:#000000;stroke-width:0.345256px;stroke-linecap:butt;stroke-linejoin:miter;stroke-opacity:1"
       d="M 73.190405,175.55237 V 307.48503"
       id="path856"
       inkscape:path-effect="#path-effect858"
       inkscape:original-d="m 73.190405,175.55237 c 3.4e-4,43.9779 3.4e-4,87.95545 0,131.93266" />
    <path
       style="fill:none;stroke:#000000;stroke-width:0.345256px;stroke-linecap:butt;stroke-linejoin:miter;stroke-opacity:1"
       d="M -29.758527,189.56787 H 178.00292"
       id="path912"
       inkscape:path-effect="#path-effect914"
       inkscape:original-d="m -29.758527,189.56787 c 69.254162,3.5e-4 138.507977,3.5e-4 207.761447,0" />
    <path
       style="fill:none;stroke:#000000;stroke-width:0.345256px;stroke-linecap:butt;stroke-linejoin:miter;stroke-opacity:1"
       d="M 73.248965,189.68554 162.894,280.07925"
       id="path1029"
       inkscape:path-effect="#path-effect1031"
       inkscape:original-d="M 73.248965,189.68554 C 103.13098,219.81713 162.894,280.07925 162.894,280.07925" />
    <ellipse
       style="fill:#ccff00;fill-opacity:0;stroke:#000000;stroke-width:0.837587;paint-order:fill markers stroke"
       id="path1135"
       cx="150.98193"
       cy="241.20877"
       rx="19.017082"
       ry="18.90658" />
    <path
       style="fill:none;stroke:#000000;stroke-width:0.345256px;stroke-linecap:butt;stroke-linejoin:miter;stroke-opacity:1"
       d="m 73.029075,200.56918 c 0.31786,-0.003 -0.0356,0.27562 0.0444,0.35585 0.31548,0.31631 1.31009,-0.14957 1.64162,-0.26689 0.67535,-0.23896 1.35421,-0.47866 1.99659,-0.80068 0.13617,-0.0683 0.26313,-0.15415 0.39931,-0.2224 0.13029,-0.0653 0.27056,-0.10956 0.39932,-0.17793 0.35816,-0.1901 0.67296,-0.4582 1.02047,-0.66724 0.2865,-0.17234 0.56118,-0.35399 0.843,-0.53379 0.19268,-0.1229 0.23216,-0.1233 0.39931,-0.26688 0.1167,-0.10026 0.26212,-0.23176 0.35495,-0.35586 0.0546,-0.073 0.0669,-0.15603 0.1331,-0.22242"
       id="path1330" />
    <path
       style="fill:none;stroke:#000000;stroke-width:0.345256px;stroke-linecap:butt;stroke-linejoin:miter;stroke-opacity:1"
       d="m 76.800405,203.68293 c -0.0887,-0.0296 -0.17271,-0.089 -0.26621,-0.089 -0.12984,0 -0.34587,0.59178 -0.35495,0.62274 -0.26791,0.9132 -0.0602,2.27111 0.93174,2.66893 1.7091,0.6854 3.29296,-0.9414 3.94879,-2.35755 0.1997,-0.43124 0.34005,-0.86038 0.22183,-1.33447 -0.0476,-0.19115 -0.14971,-0.35461 -0.35495,-0.40033 -0.66915,-0.1491 -1.54819,1.13175 -1.8191,1.55687 -0.34543,0.54206 -0.68499,1.25955 -0.88737,1.86825 -0.25339,0.76211 -0.30807,1.21504 -0.39932,2.0017 -0.11942,1.0302 -0.19562,2.22613 0.22185,3.20271"
       id="path1332" />
    <path
       style="fill:none;stroke:#000000;stroke-width:0.345256px;stroke-linecap:butt;stroke-linejoin:miter;stroke-opacity:1"
       d="m 65.663925,196.5213 c 0.51985,0.0487 1.03066,0.19162 1.5529,0.22242 0.57697,0.034 1.34108,0.0266 1.90784,-0.0445 0.55589,-0.0696 1.1094,-0.22881 1.64163,-0.40033 1.0224,-0.32947 2.34135,-0.93392 3.2389,-1.51239 0.18657,-0.12029 0.35579,-0.26576 0.53242,-0.40034 0.81264,-0.61919 1.58514,-1.27783 2.30715,-2.00169 0.74965,-0.75157 1.51793,-1.52036 2.17405,-2.35757 0.66955,-0.85433 1.23784,-1.79765 1.8191,-2.71341 0.59399,-0.93579 0.0407,-0.0546 0.57679,-0.93412 0.30757,-0.50457 0.75693,-1.13067 0.843,-1.7348 0.0323,-0.22647 0,-0.48156 0,-0.71172 0,-0.11858 0,-0.23723 0,-0.35585 0,-0.0297 0.0294,-0.089 0,-0.089 -0.0147,0 0.005,0.0304 0,0.0445 -0.0104,0.0314 -0.032,0.0581 -0.0444,0.089 -0.0671,0.16822 -0.0209,0.13137 -0.1331,0.31138 -0.13535,0.21712 -0.32058,0.38938 -0.48806,0.57826 -0.22323,0.25179 -0.40465,0.53825 -0.66553,0.75621 -0.0247,0.0206 -0.29717,0.23583 -0.35493,0.17793 -0.0209,-0.0209 -0.0164,-0.0643 0,-0.089 0.058,-0.0873 0.14789,-0.14828 0.22183,-0.22241 0.20705,-0.20758 0.41411,-0.41517 0.62115,-0.62276 0.25983,-0.26048 0.49396,-0.53969 0.75427,-0.80068 0.0913,-0.0916 0.32345,-0.36015 0.44368,-0.40033 0.0421,-0.0141 0.0934,-0.0199 0.13312,0 0.30218,0.15149 0.3193,1.00416 0.35495,1.28998 0.0552,0.4429 0.14051,0.89001 0.17746,1.33447 0.0144,0.17439 0,0.35833 0,0.53378"
       id="path1334" />
    <path
       style="fill:none;stroke:#000000;stroke-width:0.345256px;stroke-linecap:butt;stroke-linejoin:miter;stroke-opacity:1"
       d="m 88.513665,182.37599 c -0.0887,-0.0445 -0.16806,-0.11937 -0.26622,-0.13346 -0.0225,-0.003 -0.0535,0.12814 -0.0887,0.22242 -0.13587,0.36324 -0.1822,0.5812 -0.22184,0.9786 -0.0328,0.32939 -0.0747,0.59976 -0.0444,0.93413 0.079,0.87102 0.41678,1.90519 1.28669,2.26859 0.0864,0.0361 0.17302,0.0812 0.26621,0.089 0.0896,0.008 0.17892,-0.0226 0.26621,-0.0445 0.81852,-0.20515 1.26983,-1.4617 1.50853,-2.17962 0.0424,-0.12762 0.11461,-0.38513 0.1331,-0.53379 0.008,-0.0651 0.0388,-0.26689 -0.0444,-0.26689 -0.0148,0 -0.034,-0.0105 -0.0444,0 -0.0568,0.0571 -0.0862,0.28326 -0.0887,0.31138 -0.0117,0.13411 -0.003,0.40523 0.0444,0.53379 0.0444,0.12251 0.23023,0.35419 0.31058,0.44482 0.72654,0.81945 2.38256,0.84094 2.48462,-0.48931 0.0371,-0.48327 -0.22984,-0.90168 -0.48805,-1.28998 -0.18966,-0.28523 -0.46908,-0.51478 -0.70989,-0.75619"
       id="path1338" />
    <path
       style="fill:none;stroke:#000000;stroke-width:0.345256px;stroke-linecap:butt;stroke-linejoin:miter;stroke-opacity:1"
       d="m 136.46564,254.94361 c 0.27759,-0.0377 -0.0463,-0.21861 0,-0.31139 0.0281,-0.0563 0.0887,-0.089 0.1331,-0.13344 0.18413,-0.18459 0.36452,-0.29152 0.62117,-0.35585 0.28447,-0.0713 0.99094,-0.11885 0.843,0.40034 -0.0859,0.30114 -0.53383,0.46274 -0.79864,0.4893 -0.15942,0.016 -0.25181,0.005 -0.39931,-0.0445 -0.0314,-0.0105 -0.0623,-0.0246 -0.0887,-0.0445 -0.0334,-0.0251 -0.047,-0.089 -0.0887,-0.089 -0.0796,0 -0.2087,0.16796 -0.22184,0.089 -0.0217,-0.1309 0.12658,-0.23342 0.17748,-0.35586 0.0234,-0.0564 0.0196,-0.12212 0.0444,-0.17793 0.22879,-0.51612 0.85031,-0.6845 1.33105,-0.84516"
       id="path1340" />
    <path
       style="fill:none;stroke:#000000;stroke-width:0.345256px;stroke-linecap:butt;stroke-linejoin:miter;stroke-opacity:1"
       d="m 123.37696,262.95034 c 0.27924,-0.27998 0.1473,-0.11505 0.39932,-0.57826 0.43359,-0.79696 0.74324,-1.64251 1.06483,-2.49099 2.4e-4,-6.2e-4 0.88713,-2.40135 0.88738,-2.40204 0.32733,-0.85028 0.70847,-1.6794 1.02048,-2.53548 0.97807,-2.68373 -0.1369,0.11845 0.62115,-1.82377 0.0366,-0.0937 0.14119,-0.40035 0.22185,-0.40035 0.0935,0 0.17747,0.0594 0.2662,0.089 0.0739,0.23723 0.16886,0.46886 0.22185,0.71171 0.051,0.23355 0.0559,0.47492 0.0887,0.71172 0.0411,0.29702 0.0908,0.59279 0.13311,0.88964 0.06,0.42081 0.22469,1.64661 0.2662,2.04619 0.10447,1.0059 0.14407,2.02063 0.26622,3.02478 0.0345,0.28312 0.0929,0.56281 0.1331,0.84515 0.0388,0.27184 0.12163,1.04334 0.17747,1.33447 0.076,0.39604 0.14521,0.57017 0.26621,0.93412"
       id="path1342" />
    <path
       style="fill:none;stroke:#000000;stroke-width:0.345256px;stroke-linecap:butt;stroke-linejoin:miter;stroke-opacity:1"
       d="m 124.88549,259.43631 c 0.71392,-0.39098 1.53631,-0.45256 2.30715,-0.66724 0.39957,-0.11126 0.78621,-0.24258 1.19795,-0.31137 0.23524,-0.0393 0.47382,-0.0551 0.7099,-0.089"
       id="path1344" />
    <path
       style="fill:none;stroke:#000000;stroke-width:0.345256px;stroke-linecap:butt;stroke-linejoin:miter;stroke-opacity:1"
       d="m 73.248965,189.68554 c 0.17887,0.12565 0.36105,0.24664 0.53659,0.37695 0.0267,0.0198 -0.058,-0.0322 -0.0887,-0.0445 -0.0869,-0.0348 -0.19702,-0.0256 -0.2662,-0.089 -0.0747,-0.0683 -0.0889,-0.20366 -0.18165,-0.24352 -0.13492,-0.058 -0.29656,0.009 -0.43951,-0.0234 -0.0565,-0.0131 -0.14223,-0.34544 -0.13311,-0.40033 0.10629,-0.63898 1.46278,-0.78051 1.77475,-0.31138 0.0622,0.0934 0.14448,0.28618 0.1331,0.40034 -0.0366,0.36699 -0.60939,0.67062 -0.88738,0.80067 -0.53606,0.25082 -1.11169,0.411 -1.46415,-0.17793 -0.0682,-0.114 -0.057,-0.19718 0,-0.31137 0.2374,-0.47601 1.21143,-0.37773 1.64163,-0.31137 0.12164,0.0187 0.31764,0.0469 0.44369,0.089 0.0506,0.0169 0.18559,0.0798 0.13311,0.089 -0.39817,0.0692 -0.80142,0.10458 -1.20213,0.15682"
       id="path1346" />
    <path
       style="fill:none;stroke:#000000;stroke-width:0.345256px;stroke-linecap:butt;stroke-linejoin:miter;stroke-opacity:1"
       d="m 67.085925,180.45436 c -0.10355,-0.0297 -0.20347,-0.0783 -0.31057,-0.089 -0.20458,-0.0206 -0.46602,0.27919 -0.5768,0.40034 -0.56763,0.62082 -0.97258,1.36619 -1.19794,2.17963 -0.1381,0.4984 -0.25304,1.21942 -0.26621,1.7348 -0.0207,0.80646 0.0926,1.81133 0.57678,2.491 0.42139,0.59145 1.29333,0.54343 1.8191,0.13345 0.54749,-0.42692 0.94242,-1.10356 1.28669,-1.69033 0.5002,-0.8525 1.01396,-1.82235 0.97611,-2.84685 -0.0389,-1.05283 -0.6834,-2.24849 -1.73037,-2.57997 -0.5641,-0.17859 -1.17051,-0.0958 -1.73036,0.0445"
       id="path1348" />
    <path
       style="fill:none;stroke:#000000;stroke-width:0.345256px;stroke-linecap:butt;stroke-linejoin:miter;stroke-opacity:1"
       d="m 151.3799,241.72073 c 0.0338,-0.11715 -0.37578,-0.30869 -0.44367,-0.44483 -0.14755,-0.29583 0.60589,-0.69787 0.75426,-0.40033 0.0536,0.10746 -0.05,0.18907 -0.13311,0.2224 -0.34436,0.1381 -0.94344,0.25516 -1.24231,-0.0445"
       id="path1350" />
    <path
       style="fill:none;stroke:#000000;stroke-width:0.345256px;stroke-linecap:butt;stroke-linejoin:miter;stroke-opacity:1"
       d="m 147.03181,232.20154 c 0.0133,-0.6729 0.076,-1.70382 -0.79863,-1.86824 -0.64726,-0.12173 -1.36082,0.35667 -1.8191,0.75619 -0.87165,0.7599 -1.45039,1.76852 -1.73037,2.89134 -0.18547,0.7438 -0.29661,1.70784 0.22183,2.35755 0.52218,0.65441 1.54962,0.61701 2.26279,0.40035 0.54237,-0.16478 0.97525,-0.45564 1.4198,-0.80068 0.35246,-0.27358 0.95712,-0.84974 1.28668,-1.15654"
       id="path1352" />
    <path
       style="fill:none;stroke:#000000;stroke-width:0.345256px;stroke-linecap:butt;stroke-linejoin:miter;stroke-opacity:1"
       d="m 138.01856,253.56462 35.67165,-33.32151"
       id="path1387"
       inkscape:path-effect="#path-effect1389"
       inkscape:original-d="M 138.01856,253.56462 C 149.90946,242.45781 161.8,231.35064 173.69021,220.24311" />
    <path
       style="fill:none;stroke:#000000;stroke-width:0.345256px;stroke-linecap:butt;stroke-linejoin:miter;stroke-opacity:1"
       d="m 168.52184,222.12222 c 0.19822,-0.099 0.41594,-0.14328 0.62116,-0.22241 0.45917,-0.17706 0.16872,-0.10091 0.66553,-0.26689 0.57259,-0.19136 1.16073,-0.33223 1.73036,-0.53379 0.43537,-0.15405 0.84552,-0.35322 1.28667,-0.48931 0.23427,-0.0722 0.44224,-0.17094 0.66553,-0.26688 0.10095,-0.0433 0.13617,-0.0317 0.22185,-0.089 0.0212,-0.0141 0.0929,-0.0848 0.13311,-0.0445 0.0331,0.0331 -0.0271,0.0899 -0.0444,0.13345 -0.0873,0.21891 -0.14382,0.44561 -0.22184,0.66723 -0.36943,1.0494 -0.84683,2.05772 -1.19795,3.11375"
       id="path1504" />
    <path
       style="fill:none;stroke:#000000;stroke-width:0.345256px;stroke-linecap:butt;stroke-linejoin:miter;stroke-opacity:1"
       d="m 182.32041,216.33954 c -0.22589,0.48803 -0.32501,1.01653 -0.53242,1.5124 -0.3579,0.85566 -0.79716,1.67956 -1.24231,2.491 -0.30294,0.55219 -0.64753,1.19574 -0.97611,1.7348 -0.15617,0.2562 -0.33068,0.50074 -0.48805,0.75619 -0.50875,0.82581 -0.35225,0.642 -0.843,1.42344 -0.25414,0.40465 -0.52483,0.80887 -0.79863,1.20101 -0.0216,0.031 -0.25779,0.40878 -0.31059,0.35586 -0.0314,-0.0314 0.0883,-0.28824 0.13312,-0.40034"
       id="path1510" />
    <path
       style="fill:none;stroke:#000000;stroke-width:0.345256px;stroke-linecap:butt;stroke-linejoin:miter;stroke-opacity:1"
       d="m 182.32041,216.33954 c -0.0545,1.303 0.0306,2.58785 0.26622,3.86995 0.26075,1.41914 0.57563,2.83757 0.75425,4.27028 0.10408,0.83504 0.005,0.22777 0.0444,0.97861 0.007,0.13409 0.036,0.26633 0.0444,0.40035 0.0117,0.19238 0,0.3855 0,0.57826 0,0.13345 0,0.26689 0,0.40033 0,0.0593 0,0.11859 0,0.17793 0,0.0148 -0.0147,0.0445 0,0.0445 0.001,0 -10e-4,-0.25639 0,-0.26689 0.0198,-0.11898 0.0976,-0.34994 0.13311,-0.44482 0.22773,-0.60884 0.52209,-1.19219 0.79862,-1.77929 0.13278,-0.28188 0.25745,-0.56781 0.39932,-0.84516 0.61697,-1.20617 1.34433,-2.33912 2.08532,-3.4696 0.16446,-0.2509 0.31634,-0.51027 0.48805,-0.7562 0.63751,-0.91306 1.42922,-1.71406 2.17405,-2.53549 0.1706,-0.18813 0.30808,-0.39783 0.48805,-0.57826"
       id="path1512" />
    <path
       style="fill:none;stroke:#000000;stroke-width:0.345256px;stroke-linecap:butt;stroke-linejoin:miter;stroke-opacity:1"
       d="m 181.43304,212.82545 c 0.41339,0.016 0.82906,-0.0188 1.24232,0 0.71116,0.0325 1.41798,0.1515 2.12968,0.17793 0.20692,0.008 0.41425,-0.008 0.62115,0 0.1927,0.007 0.38412,0.0368 0.57681,0.0445 0.35466,0.0143 0.70988,0 1.06483,0 0.36973,0 0.73983,0.0161 1.10922,0 0.78788,-0.0344 0.18737,-0.0497 0.93173,-0.089 0.13292,-0.007 0.26646,0.008 0.39932,0 0.10433,-0.007 0.20626,-0.037 0.31057,-0.0445 0.19179,-0.0137 0.38454,0 0.57679,0 0.13311,0 0.26801,0.022 0.39931,0 0.0327,-0.005 0.0567,-0.0364 0.0887,-0.0445 0.005,-0.001 0.16412,0.0134 0.17746,0 0.0104,-0.0105 0,-0.0296 0,-0.0445 0,-0.18862 -0.20674,-0.23708 -0.35494,-0.31137 -0.53456,-0.26796 -1.12583,-0.37404 -1.68601,-0.57827 -0.17534,-0.0639 -0.3597,-0.10864 -0.53242,-0.17793 -0.0722,-0.0289 -0.24444,-0.11165 -0.17747,-0.0445 0.1373,0.13764 0.5858,0.28195 0.75426,0.35585 0.41131,0.18041 0.82409,0.37073 1.24232,0.53379 0.34144,0.13313 0.69081,0.23509 1.02047,0.40033 0.0794,0.0398 0.70047,0.4287 0.66553,0.53379 -0.11423,0.34357 -0.8719,0.55427 -1.15358,0.66724 -0.20914,0.0839 -0.40904,0.19094 -0.62116,0.26688 -0.31875,0.11414 -0.64886,0.18488 -0.9761,0.2669"
       id="path1514" />
    <path
       style="fill:none;stroke:#000000;stroke-width:0.345256px;stroke-linecap:butt;stroke-linejoin:miter;stroke-opacity:1"
       d="m 151.3799,241.72073 v 39.13845"
       id="path1629"
       inkscape:path-effect="#path-effect1631"
       inkscape:original-d="m 151.3799,241.72073 c 3.4e-4,13.04649 3.4e-4,26.09263 0,39.13845" />
    <path
       style="fill:none;stroke:#000000;stroke-width:0.345256px;stroke-linecap:butt;stroke-linejoin:miter;stroke-opacity:1"
       d="m 148.76717,274.40599 c 0,0.14827 -0.0376,0.30146 0,0.44481 0.0388,0.14773 0.15374,0.26379 0.22184,0.40035 0.1404,0.28151 0.43264,0.9444 0.5768,1.2455 0.50331,1.05125 0.95702,2.13138 1.50853,3.15823 0.0825,0.15358 0.44289,0.88924 0.62115,0.97861 0.11877,0.0596 0.23345,-0.29017 0.26621,-0.35586 0.27802,-0.55748 0.51441,-1.13625 0.79862,-1.69032 0.61792,-1.20455 1.36645,-2.34195 2.04096,-3.51409 0.31308,-0.54408 0.58173,-1.15161 0.97611,-1.64584 0.10459,-0.13104 0.23663,-0.23723 0.35495,-0.35586"
       id="path1746" />
    <path
       style="fill:none;stroke:#000000;stroke-width:0.345256px;stroke-linecap:butt;stroke-linejoin:miter;stroke-opacity:1"
       d="m 138.87302,285.21514 c 0,0.16311 -0.0211,0.32759 0,0.48931 0.0237,0.18188 0.092,0.35507 0.13311,0.53379 0.16343,0.71004 0.1098,0.55825 0.2662,1.28998 0.1288,0.60259 0.14148,0.52119 0.22185,1.11205 0.0412,0.30294 0.083,0.66904 0.0444,0.97861 -0.009,0.0737 -0.0808,0.23032 -0.1331,0.17792 -0.15658,-0.15698 -0.27988,-0.64061 -0.31057,-0.80068 -0.21237,-1.10715 -0.13635,-2.37369 0.39931,-3.38063 0.25197,-0.47365 0.57576,-1.02019 1.19794,-0.97861 1.18883,0.0794 1.80074,1.99843 2.08531,2.93583 0.17159,0.5652 0.11188,0.3638 0.17748,0.88963 0.0527,0.42299 0.0444,0.17659 0.0444,0.48931 0,0.0593 0,0.23723 0,0.17793 0,-1.20302 -0.0804,-2.5311 0.44368,-3.64755 0.14927,-0.31799 0.40468,-0.72581 0.79863,-0.75619 0.65355,-0.0504 1.03152,0.80494 1.28669,1.24551 0.13633,0.23537 0.28369,0.46537 0.39931,0.7117 0.42035,0.89556 0.68131,1.87422 0.843,2.84686"
       id="path1748" />
    <path
       style="fill:none;stroke:#000000;stroke-width:0.345256px;stroke-linecap:butt;stroke-linejoin:miter;stroke-opacity:1"
       d="m 153.02655,284.59239 c -0.11708,-0.21404 -0.19819,-0.2995 -0.39933,-0.40033 -0.34586,-0.17339 -0.70072,-0.15399 -1.06483,-0.0445 -1.48368,0.44625 -2.26279,2.34506 -2.26279,3.78099 0,0.44263 0.0615,0.97499 0.35494,1.33445 0.29705,0.36399 0.79555,0.34195 1.19795,0.22242 0.22904,-0.0681 0.45659,-0.15052 0.66553,-0.26689 0.19385,-0.10799 0.36253,-0.25726 0.53242,-0.40035 0.93151,-0.78448 1.73996,-1.76642 2.30715,-2.84685 0.13286,-0.25309 0.40317,-0.67562 0.22185,-0.97861 -0.13292,-0.22209 -0.48804,-0.15124 -0.66553,-0.0445 -0.57714,0.34715 -0.8519,1.24788 -0.93174,1.86824 -0.0969,0.7536 -0.0307,1.52952 0.1331,2.26859 0.23639,1.06644 0.63146,2.09528 0.88738,3.15823 0.19169,0.7962 0.34428,1.67648 -0.22185,2.35756 -0.24261,0.29188 -0.50617,0.44907 -0.88736,0.4893 -0.74911,0.0791 -1.37168,-0.32799 -1.77474,-0.93413 -0.19562,-0.29418 -0.26727,-0.36439 -0.31058,-0.71172 -0.0553,-0.44343 0.13966,-0.8539 0.39932,-1.20101 0.65805,-0.87965 1.61627,-1.43651 2.529,-2.00169 0.47482,-0.29402 0.94653,-0.5931 1.41979,-0.88965"
       id="path1750" />
    <path
       style="fill:none;stroke:#000000;stroke-width:0.345256px;stroke-linecap:butt;stroke-linejoin:miter;stroke-opacity:1"
       d="m 147.96855,282.5907 c 0.3397,0.0201 0.68065,-0.0155 1.02046,0 1.06777,0.0487 2.1226,0.17182 3.19453,0.13345 0.44439,-0.016 0.88891,-0.0415 1.33106,-0.089 0.17888,-0.0192 0.35388,-0.0666 0.53241,-0.089 0.17672,-0.0221 0.35597,-0.0204 0.53243,-0.0445 0.14942,-0.0204 0.2947,-0.0654 0.44367,-0.089 0.56725,-0.0898 1.12829,-0.17159 1.68602,-0.31137 0.36937,-0.0925 -0.0536,0.003 0.22183,-0.089 0,0 0.0887,2e-5 0.0887,0 0,-0.0105 -0.16907,0.0157 -0.31058,0 -0.17881,-0.0199 -0.35432,-0.0635 -0.53242,-0.089 -0.52864,-0.0758 -1.07866,-0.13691 -1.59726,-0.26689 -0.0454,-0.0118 -0.087,-0.0368 -0.1331,-0.0445 -0.0251,-0.004 -0.31059,0.0398 -0.31059,-0.0445 0,-0.0688 1.36838,0.12264 1.41979,0.13344 0.59224,0.12369 1.16788,0.31691 1.73036,0.53379 0.27269,0.1051 0.67012,0.19633 0.75427,0.53379 0.0873,0.35 -0.67922,0.69908 -0.88737,0.84516 -0.20771,0.14577 -0.41796,0.29203 -0.62115,0.44481"
       id="path1752" />
    <path
       style="fill:none;stroke:#000000;stroke-width:0.345256px;stroke-linecap:butt;stroke-linejoin:miter;stroke-opacity:1"
       d="m 160.11327,214.6531 c -0.0289,-0.15565 -0.31359,0.13037 -0.39931,0.0445 -0.0532,-0.0534 0.0147,-0.15294 0.0444,-0.2224 0.1963,-0.45921 0.54024,-0.77321 0.93173,-1.06757 0.13398,-0.10079 0.46044,-0.36279 0.66554,-0.31139 0.30096,0.0754 0.29843,0.58155 0.31057,0.80068 0.0375,0.67622 -0.0572,1.33866 -0.17747,2.0017 -0.0324,0.17814 -0.0657,0.36467 -0.1331,0.53379 -0.0176,0.0442 -0.14711,0.25284 -0.13312,0.26689 0.004,0.004 0.12867,0.004 0.13312,0 0.0281,-0.0281 -0.0185,-0.14097 0,-0.17793 0.0606,-0.12173 0.13749,-0.21559 0.17747,-0.35586 0.0554,-0.19455 0.13135,-0.35232 0.22184,-0.53379 0.17054,-0.34197 0.29089,-0.69364 0.48805,-1.02308 0.13826,-0.23103 0.26163,-0.46646 0.44369,-0.66723 0.39225,-0.43258 0.88018,-0.75043 1.33105,-1.11206 0.0224,-0.0179 0.2126,-0.32064 0.26621,-0.26689 0.0104,0.0105 -0.005,0.0304 0,0.0445 0.15671,0.47134 0.0852,0.97692 0.0444,1.46791 -0.0545,0.65601 -0.14283,1.30367 -0.22183,1.95721 -0.0645,0.53316 -0.10759,1.06889 -0.17748,1.60135 -0.2243,1.70898 -0.6934,3.35898 -1.10921,5.02649 -0.1072,0.42995 -0.20351,0.86063 -0.31058,1.28998 -0.0464,0.186 -0.0565,0.40034 -0.0444,0.40034 0.20278,0 1.18278,-0.7826 1.33105,-0.88964 1.15763,-0.83564 -0.0301,0.0525 1.24233,-0.84516 0.3628,-0.25597 0.70988,-0.53378 1.06483,-0.80068 0.17748,-0.13345 0.36449,-0.25493 0.53243,-0.40034 0.15825,-0.13702 0.29578,-0.29654 0.44367,-0.44481"
       id="path1900" />
    <path
       style="fill:none;stroke:#000000;stroke-width:0.345256px;stroke-linecap:butt;stroke-linejoin:miter;stroke-opacity:1"
       d="m 164.77196,281.75634 c 0.47966,0.42037 1.04833,0.70862 1.59727,1.0231"
       id="path1902" />
    <path
       style="fill:none;stroke:#000000;stroke-width:0.345256px;stroke-linecap:butt;stroke-linejoin:miter;stroke-opacity:1"
       d="m 169.60813,285.58181 c 0.0304,0.45737 0.31001,0.8001 0.62115,1.11205"
       id="path1904" />
    <path
       style="fill:none;stroke:#000000;stroke-width:0.345256px;stroke-linecap:butt;stroke-linejoin:miter;stroke-opacity:1"
       d="m 173.82312,289.89658 c 0.25618,0.31983 0.55449,0.60038 0.843,0.88963"
       id="path1906" />
    <path
       style="fill:none;stroke:#000000;stroke-width:0.345256px;stroke-linecap:butt;stroke-linejoin:miter;stroke-opacity:1"
       d="m 172.31459,292.47654 c -0.10733,-0.0742 -0.6308,-0.34617 -0.39931,-0.57826 0.22876,-0.22935 0.70371,-0.13716 0.97611,-0.089 0.70165,0.12408 1.34061,0.44866 1.99657,0.71172 0.25991,0.12015 0.53342,0.20501 0.79863,0.31137 0.27612,0.11073 0.549,0.25243 0.843,0.31137 0.009,0.003 0.20753,0.0144 0.22184,0 0.0209,-0.021 0,-0.0593 0,-0.089 0,-0.42804 -0.17304,-0.77153 -0.35495,-1.15652 -0.33547,-0.71006 -0.79451,-1.40594 -0.9761,-2.17963 -0.11578,-0.49339 -0.0349,-1.04082 0.1331,-1.51239 0.0835,-0.23457 0.24408,-0.44492 0.35495,-0.66723"
       id="path1908" />
    <path
       style="fill:none;stroke:#000000;stroke-width:0.345256px;stroke-linecap:butt;stroke-linejoin:miter;stroke-opacity:1"
       d="m 179.32479,284.78113 c 1.36874,0.49422 2.87197,0.53528 4.30374,0.35586 0.1206,-0.0152 1.12508,-0.19065 0.97612,-0.48931 -0.0708,-0.14191 -0.80132,0.18885 -0.88738,0.22241 -0.3691,0.14392 -0.53788,0.20569 -0.88736,0.40035 -6.9e-4,3.4e-4 -0.70921,0.44443 -0.7099,0.44481 -0.35235,0.19871 -0.72749,0.35281 -1.06484,0.57828 -0.25986,0.17367 0.41854,0.30464 0.44369,0.31137 0.5264,0.14073 1.07047,0.16048 1.59726,0.31138 0.1369,0.0393 0.4538,0.10916 0.53241,0.26688 0.24461,0.49046 -0.21389,1.03944 -0.44368,1.42343 -0.18232,0.30465 -0.43094,0.61733 -0.57679,0.93413 -0.0392,0.0851 -0.0567,0.17877 -0.0887,0.26688 -0.0272,0.075 -0.0714,0.14445 -0.0887,0.22242 -0.10538,0.47522 0.37894,0.6502 0.66554,0.88965 0.14772,0.12342 0.29333,0.30402 0.35493,0.48929 0.0589,0.17707 0.0444,0.26254 0.0444,0.44483 0,0.81284 -0.4732,1.12674 -0.79864,1.77929"
       id="path1910" />
  </g>
</svg>
