<?xml version="1.0" encoding="UTF-8" standalone="no"?>
<!-- Created with Inkscape (http://www.inkscape.org/) -->

<svg
   width="240mm"
   height="120mm"
   viewBox="0 0 240 120"
   version="1.1"
   id="svg8"
   inkscape:version="1.1.2 (0a00cf5339, 2022-02-04)"
   sodipodi:docname="1729325422-.svg"
   xmlns:inkscape="http://www.inkscape.org/namespaces/inkscape"
   xmlns:sodipodi="http://sodipodi.sourceforge.net/DTD/sodipodi-0.dtd"
   xmlns="http://www.w3.org/2000/svg"
   xmlns:svg="http://www.w3.org/2000/svg"
   xmlns:rdf="http://www.w3.org/1999/02/22-rdf-syntax-ns#"
   xmlns:cc="http://creativecommons.org/ns#"
   xmlns:dc="http://purl.org/dc/elements/1.1/">
  <defs
     id="defs2">
    <inkscape:path-effect
       effect="spiro"
       id="path-effect1536"
       is_visible="true"
       lpeversion="1" />
    <inkscape:path-effect
       effect="spiro"
       id="path-effect1419"
       is_visible="true"
       lpeversion="1" />
    <inkscape:path-effect
       effect="spiro"
       id="path-effect1079"
       is_visible="true"
       lpeversion="1" />
    <inkscape:path-effect
       effect="spiro"
       id="path-effect962"
       is_visible="true"
       lpeversion="1" />
  </defs>
  <sodipodi:namedview
     id="base"
     pagecolor="#ffffff"
     bordercolor="#666666"
     borderopacity="1.0"
     inkscape:pageopacity="0.0"
     inkscape:pageshadow="2"
     inkscape:zoom="5.6250281"
     inkscape:cx="433.68672"
     inkscape:cy="129.42158"
     inkscape:document-units="mm"
     inkscape:current-layer="g849"
     showgrid="false"
     showborder="true"
     width="200mm"
     showguides="true"
     inkscape:guide-bbox="true"
     inkscape:window-width="2160"
     inkscape:window-height="1375"
     inkscape:window-x="0"
     inkscape:window-y="0"
     inkscape:window-maximized="1"
     inkscape:pagecheckerboard="0">
    <inkscape:grid
       type="xygrid"
       id="grid815"
       units="mm"
       spacingx="10"
       spacingy="10"
       empspacing="4"
       dotted="false" />
  </sodipodi:namedview>
  <metadata
     id="metadata5">
    <rdf:RDF>
      <cc:Work
         rdf:about="">
        <dc:format>image/svg+xml</dc:format>
        <dc:type
           rdf:resource="http://purl.org/dc/dcmitype/StillImage" />
      </cc:Work>
    </rdf:RDF>
  </metadata>
  <g
     inkscape:label="Layer 1"
     inkscape:groupmode="layer"
     id="layer1"
     transform="translate(0,-177)">
    <g
       id="g849"
       transform="translate(-3.9144701,-0.69082259)">
      <rect
         style="fill:#ccff00;fill-opacity:0;stroke:#000000;stroke-width:0.365913;paint-order:fill markers stroke"
         id="rect845"
         width="79.845825"
         height="58.107357"
         x="79.674477"
         y="205.41028" />
      <path
         style="fill:none;stroke:#000000;stroke-width:0.264583px;stroke-linecap:butt;stroke-linejoin:miter;stroke-opacity:1"
         d="m 117.67685,253.74473 v 19.41703"
         id="path960"
         inkscape:path-effect="#path-effect962"
         inkscape:original-d="m 117.67685,253.74473 c 2.7e-4,6.4726 2.7e-4,12.94495 0,19.41703" />
      <path
         style="fill:none;stroke:#000000;stroke-width:0.264583px;stroke-linecap:butt;stroke-linejoin:miter;stroke-opacity:1"
         d="m 120.86012,258.55092 v 9.42015"
         id="path1077"
         inkscape:path-effect="#path-effect1079"
         inkscape:original-d="m 120.86012,258.55092 c 2.6e-4,3.14032 2.6e-4,6.28037 0,9.42015" />
      <rect
         style="fill:#ccff00;fill-opacity:0;stroke:#000000;stroke-width:0.421;paint-order:fill markers stroke"
         id="rect1263"
         width="10.32151"
         height="16.917807"
         x="154.91145"
         y="225.77267" />
      <path
         style="fill:none;stroke:#000000;stroke-width:0.264583px;stroke-linecap:butt;stroke-linejoin:miter;stroke-opacity:1"
         d="m 171.50303,232.21298 c -0.22508,0.19225 -0.47683,0.35707 -0.67524,0.57674 -0.10475,0.116 -0.7717,1.48338 -0.7717,1.63411"
         id="path1298" />
      <path
         style="fill:none;stroke:#000000;stroke-width:0.264583px;stroke-linecap:butt;stroke-linejoin:miter;stroke-opacity:1"
         d="m 170.44194,228.2719 c 0.27037,-0.58259 -0.53273,-0.38887 -0.67523,-0.67287 -0.0287,-0.0573 0,-0.25633 0,-0.19224 0,0.66591 0.13755,1.35638 0.19293,2.0186 0.10445,1.24903 0.18492,2.49976 0.28939,3.74883 5e-5,5.3e-4 0.19288,2.30638 0.19291,2.30697 0.0683,1.49779 -0.13432,0.42589 0.19294,1.73023"
         id="path1300" />
      <path
         style="fill:none;stroke:#000000;stroke-width:0.264583px;stroke-linecap:butt;stroke-linejoin:miter;stroke-opacity:1"
         d="m 170.44194,228.2719 c 0.0322,-0.35245 0.0381,-0.7083 0.0965,-1.05737 0.007,-0.0448 0.0712,-0.0584 0.0965,-0.0961 0.22909,-0.34242 0.71122,-0.81419 1.15755,-0.48062 0.1818,0.13587 0.32154,0.32041 0.48231,0.48062 0.90488,0.9017 1.62036,1.86401 2.02571,3.07597 0.15389,0.46013 -1.86863,1.3636 -2.21863,1.53798 -0.18981,0.0946 -0.2777,0.0961 -0.48232,0.0961 -0.0643,0 -0.19292,-0.0643 -0.19292,0 0,0.0385 0.10866,-0.03 0.28939,0 0.13075,0.0217 0.25643,0.0675 0.38585,0.0961 1.06274,0.23535 -0.0962,-0.01 0.96462,0.0961 0.77371,0.0771 1.54441,0.28894 2.21865,0.67287 1.05464,0.60053 1.14486,1.92622 1.44694,2.97984 0.10102,0.35237 0.15794,0.85066 0.38585,1.15348 3e-5,4e-5 0.3858,0.38446 0.38584,0.3845"
         id="path1302" />
      <path
         style="fill:none;stroke:#000000;stroke-width:0.264583px;stroke-linecap:butt;stroke-linejoin:miter;stroke-opacity:1"
         d="m 125.74886,274.87063 c -0.0321,-0.0961 -0.0685,-0.19094 -0.0965,-0.28837 -0.0234,-0.0818 0,-0.20487 0,-0.28837 0,-0.30511 -0.0416,-0.73618 -0.33762,-0.91318 -0.34139,-0.20411 -0.785,-0.0453 -1.10932,0.0961 -1.14332,0.49845 -2.1749,1.67199 -2.07395,2.97985 0.0348,0.45049 0.17599,0.63665 0.62701,0.72092 0.7713,0.14412 1.55978,-0.12316 2.07395,-0.72092 0.0871,-0.10131 0.3108,-0.50067 0.14469,-0.62481 -0.20519,-0.15336 -0.6836,-0.01 -0.86816,0.0481 -0.89832,0.28269 -1.59402,1.02643 -2.12218,1.77829 -0.36089,0.51374 -0.78577,1.52697 -0.53054,2.16279 0.18396,0.45829 0.85778,0.52868 1.25401,0.52868 0.51867,0 0.86268,-0.0534 1.35048,-0.24031 0.32644,-0.12511 0.86044,-0.4521 1.15755,-0.62481 0.74081,-0.43062 0.38717,-0.22187 1.06109,-0.6248"
         id="path1868" />
      <path
         style="fill:none;stroke:#000000;stroke-width:0.264583px;stroke-linecap:butt;stroke-linejoin:miter;stroke-opacity:1"
         d="m 128.40159,277.65822 c -0.46696,0.46532 -0.25051,0.14918 -0.43408,0.62481 -0.044,0.11389 -0.10817,0.21995 -0.1447,0.33643 -0.0884,0.28183 -0.21605,0.80516 -0.24116,1.10543 -0.009,0.10429 -0.0694,0.52163 0.0965,0.57674 0.18788,0.0624 0.49021,-0.25554 0.57877,-0.33643 0.16728,-0.1528 0.44705,-0.44581 0.57878,-0.62481 0.1927,-0.26185 0.42203,-0.63083 0.48231,-0.96124 0.075,-0.41105 -0.0645,-0.87051 -0.48231,-1.0093"
         id="path1870" />
      <path
         style="fill:none;stroke:#000000;stroke-width:0.264583px;stroke-linecap:butt;stroke-linejoin:miter;stroke-opacity:1"
         d="m 99.69712,205.71558 c 0.125582,-0.0886 0.0092,-0.20636 0.0341,-0.30586 0.08605,-0.34299 0.39293,-0.9326 0.61388,-1.18947 0.21659,-0.2518 0.29505,-0.27718 0.57978,-0.47579 0.98779,-0.68903 1.94241,-1.10483 3.17174,-0.84963 0.13765,0.0286 0.27827,0.0509 0.40926,0.10196 0.61534,0.23994 1.03117,0.78399 1.36418,1.32541 0.10905,0.17729 0.22269,0.35344 0.30694,0.54376 0.0871,0.19661 0.14377,0.40551 0.20463,0.61173 0.24424,0.82749 0.35969,1.64584 0.0682,2.4809 -0.11993,0.3436 -0.32089,0.69361 -0.57978,0.95158 -0.49352,0.49178 -1.41557,0.8595 -1.90985,0.16992 -0.068,-0.0949 -0.11818,-0.20153 -0.17053,-0.30586 -0.13062,-0.26034 -0.22258,-0.45966 -0.27283,-0.74767 -0.20256,-1.16052 0.45797,-2.32901 1.15956,-3.19458 1e-5,-2e-5 0.75028,-0.88359 0.75029,-0.88361 0.6788,-0.70347 1.60146,-1.26388 2.59196,-1.3594 1.37773,-0.13286 2.59995,0.94307 3.41048,1.93714 0.63643,0.78056 1.21935,1.69965 1.46651,2.68481 0.13151,0.52426 0.2631,1.19916 -0.17053,1.63128 -0.18672,0.18606 -0.48884,0.10384 -0.64799,-0.068 -0.59608,-0.64349 -0.70288,-1.68078 -0.57978,-2.51489 0.0845,-0.5723 0.3189,-1.15577 0.64799,-1.63128 0.10994,-0.15886 0.24688,-0.29732 0.37515,-0.4418 0.93062,-1.04832 2.08193,-1.81832 3.51279,-1.93714 0.42955,-0.0357 0.7108,-0.001 1.12545,0.10195 1.23876,0.30861 1.90451,0.99849 2.62607,2.00512 0.10447,0.14574 0.21962,0.28518 0.30693,0.4418 0.20866,0.37427 0.39112,0.89177 0.40925,1.32542 0.01,0.23094 -0.0497,0.56567 -0.13642,0.78165 -0.17256,0.42989 -0.66209,0.99936 -1.09134,1.18947 -0.18393,0.0815 -0.41249,0.1234 -0.61389,0.13594 -0.21673,0.0135 -0.28767,0.018 -0.47746,-0.068 -0.53507,-0.24236 -0.48127,-0.91001 -0.37516,-1.39338 0.3412,-1.55426 1.76823,-3.0771 3.06943,-3.90827 0.55651,-0.35549 1.16722,-0.67528 1.84165,-0.71368 0.60309,-0.0343 1.24564,0.11764 1.77344,0.40782 1.19237,0.65554 2.0988,2.21711 2.31913,3.53443 0.10363,0.6196 0.0118,1.2659 -0.37515,1.76721 -0.0542,0.0701 -0.10236,0.14731 -0.17053,0.20391 -0.0705,0.0585 -0.1557,0.0973 -0.23873,0.13594 -0.62927,0.29263 -1.20153,0.0559 -1.56882,-0.50977 -0.2266,-0.34898 -0.32227,-0.811 -0.30694,-1.22346 0.0272,-0.73142 0.3984,-1.44962 0.85261,-2.00511 0.18698,-0.22866 0.74794,-0.79548 0.95494,-0.95158 0.99133,-0.74756 2.33379,-1.2171 3.58099,-1.1215 1.65347,0.12674 2.79276,1.19677 3.6151,2.54887 0.28332,0.46583 0.35145,0.56725 0.47747,1.08752 0.0725,0.29933 0.0977,0.57915 0.0341,0.88361 -0.0271,0.12984 -0.084,0.25197 -0.13642,0.37383 -0.29698,0.69053 -0.91136,1.18861 -1.67112,1.25744 -1.05031,0.0952 -1.16472,-0.80024 -0.88673,-1.63127 0.57919,-1.73146 2.10742,-2.88844 3.64921,-3.73835 0.78707,-0.43387 1.94677,-0.92918 2.86479,-0.6797 0.2814,0.0765 0.37654,0.15804 0.61389,0.30587"
         id="path1259" />
      <path
         style="fill:none;stroke:#000000;stroke-width:0.264583px;stroke-linecap:butt;stroke-linejoin:miter;stroke-opacity:1"
         d="m 138.09901,202.79282 c 0.0227,0.20393 0.0442,0.40801 0.0682,0.61179 0.005,0.0391 -0.0227,-0.18127 0,-0.20391 0.0332,-0.0331 0.14865,0.0122 0.17053,0.034 0.16116,0.16059 0.3087,0.32527 0.44336,0.50978 0.20614,0.28245 0.40798,0.56749 0.61389,0.84962 0.18035,0.24711 0.40883,0.47492 0.54567,0.74767"
         id="path1261" />
      <path
         style="fill:none;stroke:#000000;stroke-width:0.264583px;stroke-linecap:butt;stroke-linejoin:miter;stroke-opacity:1"
         d="m 118.21598,188.5532 c -0.0796,0.14726 -0.18042,0.28489 -0.23874,0.4418 -0.0565,0.15206 -0.0675,0.31734 -0.10231,0.47579 -0.0448,0.20406 -0.0844,0.4094 -0.13642,0.61173 -0.12334,0.47934 -0.26243,0.95468 -0.40925,1.42736 -0.11615,0.37393 -0.37141,1.10344 -0.51157,1.46136 -0.20824,0.53174 -0.3075,0.71711 -0.54568,1.22345 -0.1987,0.4224 -0.41358,0.83608 -0.61388,1.25745 -0.11046,0.23237 -0.21621,0.47258 -0.30695,0.71368 -0.0389,0.10341 -0.0736,0.16992 -0.0682,0.16992 0.0161,0 0.0207,-0.0251 0.0341,-0.034 0.0635,-0.0422 0.13495,-0.0711 0.20463,-0.10196 0.23185,-0.10268 0.47165,-0.20419 0.71619,-0.27188 0.50921,-0.14094 1.00904,-0.16992 1.53472,-0.16992 0.56464,0 1.09331,0.0414 1.63702,0.20391 0.36109,0.10795 0.81533,0.23471 1.09135,0.50977"
         id="path1380" />
    </g>
  </g>
</svg>
