<?xml version="1.0" encoding="UTF-8" standalone="no"?>
<!-- Created with Inkscape (http://www.inkscape.org/) -->

<svg
   width="240mm"
   height="120mm"
   viewBox="0 0 240 120"
   version="1.1"
   id="svg8"
   inkscape:version="1.1.2 (0a00cf5339, 2022-02-04)"
   sodipodi:docname="1729667997.svg"
   xmlns:inkscape="http://www.inkscape.org/namespaces/inkscape"
   xmlns:sodipodi="http://sodipodi.sourceforge.net/DTD/sodipodi-0.dtd"
   xmlns="http://www.w3.org/2000/svg"
   xmlns:svg="http://www.w3.org/2000/svg"
   xmlns:rdf="http://www.w3.org/1999/02/22-rdf-syntax-ns#"
   xmlns:cc="http://creativecommons.org/ns#"
   xmlns:dc="http://purl.org/dc/elements/1.1/">
  <defs
     id="defs2">
    <marker
       style="overflow:visible;"
       id="Arrow1Lend"
       refX="0.0"
       refY="0.0"
       orient="auto"
       inkscape:stockid="Arrow1Lend"
       inkscape:isstock="true">
      <path
         transform="scale(0.8) rotate(180) translate(12.5,0)"
         style="fill-rule:evenodd;fill:context-stroke;stroke:context-stroke;stroke-width:1.0pt;"
         d="M 0.0,0.0 L 5.0,-5.0 L -12.5,0.0 L 5.0,5.0 L 0.0,0.0 z "
         id="path946" />
    </marker>
    <inkscape:path-effect
       effect="spiro"
       id="path-effect861"
       is_visible="true"
       lpeversion="1" />
  </defs>
  <sodipodi:namedview
     id="base"
     pagecolor="#ffffff"
     bordercolor="#666666"
     borderopacity="1.0"
     inkscape:pageopacity="0.0"
     inkscape:pageshadow="2"
     inkscape:zoom="0.9943739"
     inkscape:cx="549.59206"
     inkscape:cy="198.11461"
     inkscape:document-units="mm"
     inkscape:current-layer="layer1"
     showgrid="false"
     showborder="true"
     width="200mm"
     showguides="true"
     inkscape:guide-bbox="true"
     inkscape:window-width="2160"
     inkscape:window-height="1375"
     inkscape:window-x="0"
     inkscape:window-y="0"
     inkscape:window-maximized="1"
     inkscape:pagecheckerboard="0">
    <inkscape:grid
       type="xygrid"
       id="grid815"
       units="mm"
       spacingx="10"
       spacingy="10"
       empspacing="4"
       dotted="false" />
  </sodipodi:namedview>
  <metadata
     id="metadata5">
    <rdf:RDF>
      <cc:Work
         rdf:about="">
        <dc:format>image/svg+xml</dc:format>
        <dc:type
           rdf:resource="http://purl.org/dc/dcmitype/StillImage" />
      </cc:Work>
    </rdf:RDF>
  </metadata>
  <g
     inkscape:label="Layer 1"
     inkscape:groupmode="layer"
     id="layer1"
     transform="translate(0,-177)">
    <rect
       style="fill:#ccff00;fill-opacity:0;stroke:#000000;stroke-width:0.264583;stroke-linejoin:bevel;paint-order:fill markers stroke"
       id="rect845"
       width="105.57539"
       height="29.568998"
       x="73.939514"
       y="220.99263" />
    <path
       style="fill:none;stroke:#000000;stroke-width:0.264583px;stroke-linecap:butt;stroke-linejoin:miter;stroke-opacity:1"
       d="m 42.938374,275.10205 c -0.05611,-0.20893 -0.147664,-0.41145 -0.168331,-0.62679 -0.06144,-0.64017 -0.01286,-1.28635 0,-1.92933 0.222324,-11.11687 -0.100867,0.96607 0.637868,-10.90419 0.159023,-2.55525 0.130993,-5.17765 0.130993,-7.74386 0,-2.67532 0,-5.35064 0,-8.02597 0,-2.25635 0.08197,-4.50732 0.130987,-6.76212 0.0336,-1.5454 -0.03316,-3.09298 0,-4.63838 0.0076,-0.35399 0.05628,-0.70624 0.0655,-1.0602 0.02122,-0.81557 -0.02791,-1.63216 0,-2.44753 0.04954,-1.44745 0.238368,-2.89628 0.393954,-4.33425 0.05205,-0.48103 0.06619,-0.96613 0.131572,-1.44552 0.179035,-1.31265 0.509643,-2.59348 0.788942,-3.88522 0.382847,-1.77065 0.745633,-3.51318 1.309883,-5.23955 0.560359,-1.71447 1.282528,-3.36813 2.008132,-5.01722 0.32674,-0.74259 0.619591,-1.50116 0.982414,-2.22681 0.317146,-0.63429 1.113613,-1.68443 1.506363,-2.2268 0.500121,-0.69065 1.02013,-1.50432 1.637358,-2.09582 2.745028,-2.63064 7.754826,-3.49353 11.430283,-3.3968 2.478326,0.0652 4.745797,0.3795 6.811415,1.83384 0.21581,0.15195 0.426151,0.32061 0.59168,0.52619 0.559339,0.69465 1.093205,1.41244 1.574096,2.16355 0.221165,0.34544 0.343992,0.74481 0.523949,1.1134 1.379243,2.82498 0.768093,1.1964 2.063443,5.40188 0.21165,0.68718 1.29134,4.78144 1.3669,5.10486 0.1364,0.58375 0.20341,1.18185 0.32747,1.76835 0.21635,1.02273 0.48,2.03511 0.69357,3.05843 0.65627,3.14449 1.19745,6.29224 1.56062,9.48658 0.99638,8.76379 0.45713,3.4392 0.7903,9.26958 0.13698,2.39715 0.33079,4.70683 0.13098,7.1285 -0.0198,0.24032 -0.34541,1.78895 -0.58944,2.35779 -0.96223,2.24291 -1.47385,3.55825 -2.98968,5.32674 -0.11097,0.12946 -0.20331,0.27611 -0.32747,0.39297 -1.64192,1.54533 -4.023323,2.11825 -6.221963,2.03032 -0.306173,-0.0122 -0.615029,-0.013 -0.916916,-0.0655 -2.733776,-0.47543 -5.03696,-5.02613 -6.090973,-7.26987 -0.409339,-0.87139 -0.815917,-1.74623 -1.154356,-2.64753 -0.411358,-1.09549 -0.758118,-2.5558 -1.014701,-3.65324 -0.07772,-0.33241 -0.166158,-0.66467 -0.200289,-1.00433 -0.03296,-0.32795 -0.0073,-0.65928 0,-0.9888 0.02434,-1.10224 0.03124,-2.50577 0.204472,-3.6495 0.273326,-1.80458 0.366549,-2.03696 0.735344,-3.60751 0.156366,-0.66591 0.315473,-1.3312 0.465224,-1.99863 0.05126,-0.22844 0.06779,-0.46531 0.137742,-0.68874 0.290778,-0.9288 0.635194,-1.83999 0.942975,-2.7633 0.826305,-2.47883 1.631305,-4.99285 2.788492,-7.34549 0.378158,-0.76882 0.79838,-1.51625 1.2032,-2.27137 1.48063,-2.76187 0.273029,-0.42202 1.850414,-3.48212 0.443781,-0.86092 0.817039,-1.75669 1.375389,-2.55427 1.018479,-1.45487 2.856516,-3.43296 4.343046,-4.34141 1.13087,-0.6911 3.51481,-1.52223 4.81846,-1.71777 1.03831,-0.15575 2.36427,-0.22642 3.47631,-0.19649 0.46052,0.0124 0.9294,-0.028 1.3805,0.0655 2.04128,0.42304 4.17838,1.41205 5.50152,3.07823 1.42274,1.7916 2.26687,3.93978 3.02938,6.07539 0.96499,2.70271 1.72746,5.39369 2.25298,8.20638 0.12299,0.6583 0.25868,1.31683 0.31607,1.98405 0.39146,4.55158 0.23408,9.13019 0.0593,13.68639 -0.10484,2.73292 -0.29021,5.45692 -0.93856,8.12193 -0.41259,1.69595 -0.12085,0.28083 -0.45846,1.83385 -0.0473,0.21755 -0.0606,0.44372 -0.13099,0.65493 -0.0834,0.25026 -0.22174,0.47877 -0.32747,0.72045 -0.0617,0.14093 -0.16612,0.4525 -0.26197,0.58944 -0.85905,1.22728 -1.6804,1.54765 -3.05413,1.89107 -0.1894,0.0474 -0.3906,-0.008 -0.58568,0 -0.41506,0.016 -0.82902,0.0655 -1.24439,0.0655 -0.91317,0 -1.86815,-0.45438 -2.61978,-0.91691 -0.26849,-0.16523 -0.55443,-0.29065 -0.72043,-0.58945 -0.351,-0.6318 -0.67949,-1.28219 -0.91692,-1.96483 -0.26326,-0.75687 -0.14465,-4.51177 -0.13099,-4.94557 0.0165,-0.52551 0.096,-1.04725 0.13099,-1.57186 0.0305,-0.45796 0.0225,-0.91842 0.0655,-1.37538 0.35005,-3.72199 1.30622,-7.30119 2.25725,-10.91089 1.64603,-6.24756 3.67352,-12.41181 7.02048,-17.98388 0.43284,-0.72059 1.82005,-2.33264 2.02685,-2.58773 1.43471,-1.76975 2.49988,-3.03068 4.193215,-4.59368 0.47683,-0.44012 1.56754,-1.40285 2.1613,-1.57186 2.73628,-0.77882 3.53576,-0.70218 6.23553,-0.70218 0.91692,0 1.84012,-0.10713 2.75076,0 0.1999,0.0235 0.39211,0.0914 0.58945,0.131 0.27034,0.0542 -0.0557,-0.0669 0.23622,0.40582 0.455,0.73667 0.96743,1.43635 1.44087,2.16131 1.10375,1.69011 1.95346,3.52965 2.83473,5.3405 0.54645,1.12284 1.13463,2.22588 1.64949,3.36355 1.00914,2.22984 1.89762,4.49798 2.62997,6.83482 0.35217,1.12375 0.76953,2.22912 1.05654,3.37125 1.35218,5.38091 0.35782,1.29433 0.9622,4.58987 0.12189,0.66466 0.30265,1.31821 0.40927,1.98549 0.0535,0.33476 0.0361,0.67731 0.0701,1.01462 0.0335,0.33275 0.0883,0.66302 0.1325,0.99453 0.066,0.52748 0.14629,1.05338 0.198,1.58246 0.0362,0.37001 0.0302,0.7433 0.0655,1.1134 0.24246,2.54591 0.70294,5.10227 0.52396,7.67199 -0.16739,2.40335 -0.0735,0.79186 -0.32955,1.97526 -0.14275,0.65983 -0.23732,1.33008 -0.39749,1.9859 -0.0819,0.33533 -0.21832,0.65494 -0.32747,0.98241 -0.34683,1.04049 -0.71367,2.06351 -1.11564,3.08439 -0.64216,1.63087 -1.47727,2.87651 -2.55706,4.26481 -0.47946,0.61644 -1.12176,1.46231 -1.83385,1.83384 -1.1149,0.58169 -3.06219,0.49416 -4.22167,0.26293 -0.82211,-0.16395 -1.5015,-0.51397 -2.22682,-0.91692 -0.19648,-0.10916 -0.41878,-0.1812 -0.58944,-0.32748 -2.45515,-2.10442 -2.61305,-6.32582 -2.61305,-9.25185 0,-2.36938 0.0766,-4.60956 0.46958,-6.95617 0.13568,-0.81021 0.35658,-1.60397 0.5169,-2.40966 0.12118,-0.60901 0.19817,-1.2265 0.32748,-1.83384 0.4498,-2.11262 1.02596,-4.44151 1.56462,-6.55165 0.19255,-0.75431 0.36493,-1.51458 0.59191,-2.25925 0.66859,-2.19351 2.08706,-5.61038 2.80284,-7.37596 0.20571,-0.50742 0.44247,-1.00175 0.65495,-1.50638 0.13739,-0.32627 0.23604,-0.66949 0.39453,-0.98606 0.28325,-0.56576 0.6178,-1.10436 0.9281,-1.65575 0.65856,-1.17026 1.29188,-2.33271 2.05007,-3.44083 0.82295,-1.20278 1.65875,-2.5522 2.68526,-3.60218 0.56685,-0.57982 1.16747,-1.12721 1.78542,-1.65223 0.45617,-0.38757 2.38276,-1.53645 2.56427,-1.6445 0.34438,-0.20499 0.70216,-0.38678 1.04792,-0.58944 0.28968,-0.16981 0.55566,-0.38174 0.85804,-0.52775 0.33747,-0.16295 0.70671,-0.25073 1.05264,-0.39486 0.18025,-0.0751 0.33452,-0.21462 0.52396,-0.26197 0.73038,-0.1826 2.51639,-0.10772 3.20922,0.0655 3.70345,0.92586 5.44097,4.63633 6.68085,7.86007 0.50764,1.31986 0.8913,2.63366 1.24584,4.00091 0.46054,1.77602 1.01555,3.53869 1.11827,5.38758 0.0363,0.65393 -0.0247,1.31035 0,1.96483 0.019,0.50366 0.0937,1.00373 0.13098,1.50637 0.12085,1.63145 0.2829,3.22255 0.45846,4.84658 0.12263,1.13434 0.14712,2.27733 0.19649,3.41722 0.10995,2.53821 -0.0794,5.08983 0,7.62934 0.0327,1.04715 0.13098,2.09669 0.13098,3.14373 0,0.16254 0.0634,0.65041 0,0.84096 -0.0393,0.11793 -0.27693,0.0636 -0.32826,0.17683 -0.0631,0.13917 0,0.30564 0,0.45846 0,0.3493 0,0.6986 0,1.0479 0,0.96374 -0.027,1.91906 -0.0655,2.88175 -0.045,1.12439 0.1888,2.23086 0.32747,3.34021 0.13384,1.07072 0.0283,1.21663 0.13099,2.61977 0.0622,0.85068 0.26168,1.69911 0.32747,2.55429 0.047,0.61103 0.10987,1.22136 0.131,1.83384 0.0287,0.83207 -0.0922,1.72425 0,2.55427 0.0416,0.37457 0.15327,0.73902 0.19647,1.11341 0.0225,0.19519 -0.0178,0.39377 0,0.58945 0.026,0.28596 0.10377,0.56556 0.13099,0.85142 0.0414,0.43466 0,0.87326 0,1.30989 0,0.72044 0,1.44088 0,2.16132 0,0.91545 0,1.83091 0,2.74637 0,0.34708 -0.0496,0.69773 0,1.04124 0.007,0.0483 0.0609,0.0824 0.0655,0.131 0.0627,0.66785 0,1.38588 0,2.06124"
       id="path882" />
    <path
       style="fill:none;stroke:#000000;stroke-width:0.264583px;stroke-linecap:butt;stroke-linejoin:miter;stroke-opacity:1"
       d="m 162.307,241.11568 c 0.80401,-2.90663 1.15217,-5.91532 1.43034,-8.90931 0.0702,-0.75545 0,-1.5174 0,-2.27611 0,-1.39985 0.0181,0.14304 -0.0655,-1.44088 -0.0159,-0.30114 0,-0.60314 0,-0.90471 0,-0.0671 -0.0354,-0.2583 0,-0.20129 0.11485,0.18515 0.16552,0.57402 0.2253,0.7414 0.16571,0.46399 0.27702,0.58494 0.52394,1.04791 0.23642,0.44328 0.81107,1.86333 1.49654,1.37275 0.0633,-0.0453 0.32509,-0.22576 0.39297,-0.32747 0.65653,-0.98378 0.52277,-1.2796 0.52277,-2.49524 0,-0.009 -0.001,-1.02536 0,-1.02571 0.0745,-0.0226 0.22107,0.50919 0.34614,0.90005 0.43103,1.34695 0.93103,2.70321 1.50637,3.99515 0.0472,0.10591 0.0963,0.21172 0.12943,0.32283 0.0404,0.13565 -0.068,0.35772 0,0.47785 0.0157,0.0278 0.0572,0.0286 0.0858,0.0429"
       id="path997" />
    <path
       style="fill:none;stroke:#000000;stroke-width:0.264583px;stroke-linecap:butt;stroke-linejoin:miter;stroke-opacity:1;marker-end:url(#Arrow1Lend)"
       d="m 174.10308,236.21693 h 23.98914"
       id="path859"
       inkscape:path-effect="#path-effect861"
       inkscape:original-d="m 174.10308,236.21693 c 7.99664,2.6e-4 15.99302,2.6e-4 23.98914,0" />
    <path
       style="fill:none;stroke:#000000;stroke-width:0.264583px;stroke-linecap:butt;stroke-linejoin:miter;stroke-opacity:1"
       d="m 194.41424,232.67824 c 0,-0.2684 0.052,-0.60194 0,-0.86036 -0.0464,-0.2305 -0.21357,-0.42485 -0.26197,-0.65494 -0.0636,-0.30212 -0.0788,-0.61262 -0.131,-0.91692 -0.26978,-1.57376 -0.72228,-3.09734 -0.99918,-4.67126 1.88197,-0.23145 3.77464,-0.1773 5.66462,-0.1773"
       id="path1244" />
    <path
       style="fill:none;stroke:#000000;stroke-width:0.264583px;stroke-linecap:butt;stroke-linejoin:miter;stroke-opacity:1"
       d="m 193.62625,228.29187 c 0.70766,0 1.41533,0 2.123,0 0.0981,0 0.26139,0.0341 0.34901,0 0.16895,-0.0657 0.18934,-0.23584 0.39148,-0.23584"
       id="path1246" />
  </g>
</svg>
