<?xml version="1.0" encoding="UTF-8" standalone="no"?>
<!-- Created with Inkscape (http://www.inkscape.org/) -->

<svg
   width="240mm"
   height="120mm"
   viewBox="0 0 240 120"
   version="1.1"
   id="svg8"
   inkscape:version="1.1.2 (0a00cf5339, 2022-02-04)"
   sodipodi:docname="1729327830-.svg"
   xmlns:inkscape="http://www.inkscape.org/namespaces/inkscape"
   xmlns:sodipodi="http://sodipodi.sourceforge.net/DTD/sodipodi-0.dtd"
   xmlns="http://www.w3.org/2000/svg"
   xmlns:svg="http://www.w3.org/2000/svg"
   xmlns:rdf="http://www.w3.org/1999/02/22-rdf-syntax-ns#"
   xmlns:cc="http://creativecommons.org/ns#"
   xmlns:dc="http://purl.org/dc/elements/1.1/">
  <defs
     id="defs2">
    <inkscape:path-effect
       effect="spiro"
       id="path-effect1630"
       is_visible="true"
       lpeversion="1" />
    <marker
       style="overflow:visible"
       id="Arrow1Lstart"
       refX="0.0"
       refY="0.0"
       orient="auto"
       inkscape:stockid="Arrow1Lstart"
       inkscape:isstock="true">
      <path
         transform="scale(0.8) translate(12.5,0)"
         style="fill-rule:evenodd;fill:context-stroke;stroke:context-stroke;stroke-width:1.0pt"
         d="M 0.0,0.0 L 5.0,-5.0 L -12.5,0.0 L 5.0,5.0 L 0.0,0.0 z "
         id="path1291" />
    </marker>
    <marker
       style="overflow:visible;"
       id="marker1579"
       refX="0.0"
       refY="0.0"
       orient="auto"
       inkscape:stockid="Arrow1Lend"
       inkscape:isstock="true">
      <path
         transform="scale(0.8) rotate(180) translate(12.5,0)"
         style="fill-rule:evenodd;fill:context-stroke;stroke:context-stroke;stroke-width:1.0pt;"
         d="M 0.0,0.0 L 5.0,-5.0 L -12.5,0.0 L 5.0,5.0 L 0.0,0.0 z "
         id="path1577" />
    </marker>
    <marker
       style="overflow:visible;"
       id="Arrow1Lend"
       refX="0.0"
       refY="0.0"
       orient="auto"
       inkscape:stockid="Arrow1Lend"
       inkscape:isstock="true">
      <path
         transform="scale(0.8) rotate(180) translate(12.5,0)"
         style="fill-rule:evenodd;fill:context-stroke;stroke:context-stroke;stroke-width:1.0pt;"
         d="M 0.0,0.0 L 5.0,-5.0 L -12.5,0.0 L 5.0,5.0 L 0.0,0.0 z "
         id="path1294" />
    </marker>
    <inkscape:path-effect
       effect="spiro"
       id="path-effect1209"
       is_visible="true"
       lpeversion="1" />
    <inkscape:path-effect
       effect="spiro"
       id="path-effect1092"
       is_visible="true"
       lpeversion="1" />
    <inkscape:path-effect
       effect="spiro"
       id="path-effect975"
       is_visible="true"
       lpeversion="1" />
    <inkscape:path-effect
       effect="spiro"
       id="path-effect1630-3"
       is_visible="true"
       lpeversion="1" />
  </defs>
  <sodipodi:namedview
     id="base"
     pagecolor="#ffffff"
     bordercolor="#666666"
     borderopacity="1.0"
     inkscape:pageopacity="0.0"
     inkscape:pageshadow="2"
     inkscape:zoom="2.8125141"
     inkscape:cx="372.79814"
     inkscape:cy="163.91029"
     inkscape:document-units="mm"
     inkscape:current-layer="layer1"
     showgrid="false"
     showborder="true"
     width="200mm"
     showguides="true"
     inkscape:guide-bbox="true"
     inkscape:window-width="2160"
     inkscape:window-height="1375"
     inkscape:window-x="0"
     inkscape:window-y="0"
     inkscape:window-maximized="1"
     inkscape:pagecheckerboard="0">
    <inkscape:grid
       type="xygrid"
       id="grid815"
       units="mm"
       spacingx="10"
       spacingy="10"
       empspacing="4"
       dotted="false" />
  </sodipodi:namedview>
  <metadata
     id="metadata5">
    <rdf:RDF>
      <cc:Work
         rdf:about="">
        <dc:format>image/svg+xml</dc:format>
        <dc:type
           rdf:resource="http://purl.org/dc/dcmitype/StillImage" />
      </cc:Work>
    </rdf:RDF>
  </metadata>
  <g
     inkscape:label="Layer 1"
     inkscape:groupmode="layer"
     id="layer1"
     transform="translate(0,-177)">
    <path
       style="fill:none;stroke:#000000;stroke-width:0.264583px;stroke-linecap:butt;stroke-linejoin:bevel;stroke-opacity:1;marker-start:url(#Arrow1Lstart)"
       d="M 35.891721,182.82456 V 285.42533"
       id="path973"
       inkscape:path-effect="#path-effect975"
       inkscape:original-d="m 35.891721,182.82456 c 2.64e-4,34.20052 2.64e-4,68.40078 0,102.60077" />
    <path
       style="fill:none;stroke:#000000;stroke-width:0.264583px;stroke-linecap:butt;stroke-linejoin:miter;stroke-opacity:1;marker-end:url(#marker1579)"
       d="M 21.649766,261.29569 H 225.60057"
       id="path1090"
       inkscape:path-effect="#path-effect1092"
       inkscape:original-d="m 21.649766,261.29569 c 67.983867,2.7e-4 135.967464,2.7e-4 203.950804,0" />
    <path
       style="fill:none;stroke:#000000;stroke-width:0.26458299;stroke-linecap:butt;stroke-linejoin:miter;stroke-opacity:1;stroke-miterlimit:4;stroke-dasharray:3.17499584,3.17499584;stroke-dashoffset:0"
       d="M 36.06669,231.81695 H 232.36731"
       id="path1207"
       inkscape:path-effect="#path-effect1209"
       inkscape:original-d="m 36.06669,231.81695 c 65.43381,2.6e-4 130.86735,2.6e-4 196.30062,0" />
    <path
       style="fill:none;stroke:#000000;stroke-width:0.264583px;stroke-linecap:butt;stroke-linejoin:miter;stroke-opacity:1"
       d="m 36.040607,261.32314 c 22.861711,-8.96788 46.625288,-15.63483 70.815473,-19.86752 35.43227,-6.19978 71.54444,-7.16091 107.50175,-8.13814 8.96006,-0.24351 17.92007,-0.48895 26.88003,-0.73631"
       id="path1628"
       inkscape:path-effect="#path-effect1630"
       inkscape:original-d="m 36.040607,261.32314 c 23.605421,-6.62224 47.210577,-13.24475 70.815473,-19.86752 23.60489,-6.62277 71.6681,-5.42516 107.50175,-8.13814 35.83366,-2.71297 17.92028,-0.49061 26.88003,-0.73631" />
    <path
       style="fill:none;stroke:#000000;stroke-width:0.264583px;stroke-linecap:butt;stroke-linejoin:miter;stroke-opacity:1"
       d="m 36.036905,201.69845 c 22.861712,8.96788 46.62529,15.63483 70.815475,19.86752 35.43227,6.19978 71.54444,7.16091 107.50175,8.13814 8.96006,0.24351 17.92007,0.48895 26.88003,0.73631"
       id="path1628-6"
       inkscape:path-effect="#path-effect1630-3"
       inkscape:original-d="m 36.036905,201.69845 c 23.60542,6.62224 47.21058,13.24475 70.815475,19.86752 23.60489,6.62277 71.6681,5.42516 107.50175,8.13814 35.83366,2.71297 17.92028,0.49061 26.88003,0.73631" />
    <path
       style="fill:none;stroke:#000000;stroke-width:0.264583px;stroke-linecap:butt;stroke-linejoin:miter;stroke-opacity:1"
       d="m 36.040607,261.32314 c 0.202655,-0.60812 0.929619,-0.59045 1.271823,-1.04512 0.294984,-0.39193 0.483828,-0.87313 0.723472,-1.29767 0.351628,-0.62292 0.760174,-1.23238 1.157552,-1.82635 0.445201,-0.66546 0.893492,-1.3293 1.302247,-2.01861 0.307229,-0.5181 0.560933,-1.06794 0.868161,-1.58604 5.3e-4,-7.9e-4 0.674839,-1.05667 0.675244,-1.05736 0.337243,-0.57611 0.607118,-1.1876 0.916392,-1.77829 0.329917,-0.63012 0.284562,-0.46052 0.578779,-1.15349 0.447188,-1.05328 0.819906,-2.1435 1.20578,-3.22015 0.235683,-0.65759 0.509018,-1.3057 0.723471,-1.97054 0.286385,-0.88785 0.530712,-1.79093 0.771702,-2.69147 0.06031,-0.2254 0.137994,-0.4461 0.192924,-0.67287 0.0577,-0.23821 0.087,-0.48272 0.144698,-0.72093 0.05493,-0.22677 0.139726,-0.44568 0.192921,-0.67286 0.05947,-0.25396 0.08705,-0.51462 0.144698,-0.76899 0.387919,-1.71189 0.962562,-3.38269 1.350478,-5.09457 0.05764,-0.25438 0.08877,-0.51423 0.144693,-0.76899 0.113329,-0.51626 0.272523,-1.02173 0.385852,-1.53799 0.167701,-0.76393 0.271235,-1.54197 0.434081,-2.30697 0.658053,-2.78688 -0.252772,1.1394 0.337619,-1.63411 0.279905,-1.31492 0.696481,-2.60118 1.06109,-3.89301 0.3379,-1.19721 0.605769,-2.41266 0.964626,-3.60465 0.220287,-0.73171 0.478756,-1.45732 0.7717,-2.16279 0.391699,-0.94328 0.176641,-0.41364 0.627009,-1.34573 0.19971,-0.41333 0.393356,-0.82968 0.578779,-1.24961 0.440026,-0.99655 0.83788,-2.02141 1.446937,-2.93178 0.416047,-0.62188 0.06012,-0.0639 0.482315,-0.6248 0.255622,-0.33964 0.491244,-0.64185 0.771699,-0.96124 0.143738,-0.1637 0.263964,-0.33936 0.434084,-0.48062 0.152781,-0.12687 0.354734,-0.20078 0.530545,-0.28838 0.336238,-0.16753 0.682911,-0.28837 1.061087,-0.28837 0.44739,0 1.120902,0.2557 1.398712,0.62481 0.410552,0.54547 0.551392,1.23137 0.723472,1.87442 0.08826,0.3298 0.133008,0.41077 0.192923,0.76898 0.181639,1.086 0.09646,2.21969 0.09646,3.31628 0,0.86254 -0.03603,1.73375 0,2.59534 0.0081,0.19276 0.03983,0.38401 0.04823,0.57675 0.02442,0.55967 -0.02246,1.12241 0,1.68217 0.0077,0.19276 0.04017,0.38399 0.04823,0.57674 0.008,0.19208 -0.008,0.38466 0,0.57674 0.03214,0.76877 0.131345,1.53991 0.192924,2.30697 0.06799,0.84682 0.09523,1.70354 0.192926,2.54729 0.07015,0.60578 0.168315,1.22147 0.241157,1.82635 0.02498,0.20739 0.02326,0.41742 0.04823,0.62481 0.02331,0.19352 0.0722,0.38334 0.09646,0.57674 0.145605,1.16077 0.191878,2.34254 0.289385,3.50852 0.12796,1.53012 -0.04773,-0.38053 0.144698,1.15349 0.07374,0.58784 0.09728,1.18771 0.144693,1.77829 0.04996,0.62231 0.120615,1.25063 0.144692,1.87442 0.01606,0.41622 0,0.83307 0,1.24961 0,1.05736 0,2.11473 0,3.17209 0,0.39606 -0.02646,0.80629 0,1.20155 0.0076,0.11304 0.04067,0.22339 0.04823,0.33643 0.01834,0.2397 -0.01603,0.48115 0,0.72093 0.02365,0.35352 0.07117,0.70455 0.09646,1.05736 0.008,0.11186 -0.0086,0.22462 0,0.33643 0.0075,0.0972 0.04011,0.19126 0.04823,0.28838 0.01603,0.19158 -0.01603,0.38516 0,0.57674 0.024,0.28693 0.09718,0.58102 0.144695,0.86512 0.04191,0.25056 0.07122,0.52494 0.144693,0.76899 0.07478,0.24839 0.09795,0.21171 0.192926,0.43256 0.02003,0.0465 0.02209,0.10076 0.04823,0.14418 1.1e-5,1e-5 0.192916,0.19224 0.192926,0.19225 0.387618,0.38624 0.79873,0.70709 1.350481,0.81705 0.104617,0.0208 0.230542,0 0.337617,0 0.232706,0 0.453088,-0.0131 0.675237,-0.0961 0.467712,-0.17478 1.066901,-0.58926 1.398712,-0.96124 0.361067,-0.40478 0.658448,-0.85175 0.964629,-1.29767 0.221641,-0.3228 0.457504,-0.63579 0.675235,-0.96124 0.934048,-1.39615 1.665539,-2.92623 2.315107,-4.46976 0.667215,-1.58547 1.362712,-3.16282 1.881023,-4.8062 1.75e-4,-5.3e-4 0.482142,-1.72967 0.482312,-1.73023 0.507227,-1.70014 1.099769,-3.37538 1.543399,-5.09456 0.139843,-0.54193 0.253553,-1.09029 0.385852,-1.63411 0.316035,-1.29905 0.639289,-2.59622 0.964632,-3.89302 0.23332,-0.93 0.467336,-1.87769 0.771704,-2.78759 0.07082,-0.21171 0.167897,-0.41393 0.241152,-0.62481 0.07152,-0.2059 0.126281,-0.41727 0.192926,-0.6248 0.06198,-0.19301 0.128617,-0.3845 0.192924,-0.57675 0.456322,-1.36414 0.89699,-2.74892 1.543402,-4.0372 0.153141,-0.3052 0.291711,-0.62827 0.482319,-0.91318 0.129255,-0.19319 0.28688,-0.35266 0.434079,-0.52868 0.09604,-0.11484 0.165637,-0.24395 0.289385,-0.33643 0.297251,-0.22216 0.652941,-0.1553 0.964628,0 0.229328,0.11426 0.531757,0.2654 0.723472,0.43255 0.292198,0.25478 0.586631,0.57068 0.771705,0.91318 0.607261,1.12382 0.786188,2.45618 0.964623,3.70077 0.190936,1.33181 0.0021,-0.27443 0.192926,1.05737 0.12859,0.89698 0.248306,1.80287 0.434086,2.69147 0.08112,0.38802 0.211381,0.76482 0.289385,1.15348 0.04147,0.20662 0.05795,0.41762 0.09646,0.62481 0.122931,0.66148 0.311161,1.30906 0.434086,1.97054 0.301355,1.62163 -0.10844,-0.37203 0.192926,1.24961 0.04192,0.22555 0.104227,0.44705 0.144693,0.67286 0.193812,1.08152 0.326374,2.1805 0.482311,3.26822 0.179444,1.25167 0.378326,2.50041 0.578779,3.74883 0.130752,0.81433 0.217035,1.64366 0.385853,2.45116 0.121843,0.58281 0.342638,1.12043 0.530545,1.68217 0.05308,0.15866 0.08667,0.32369 0.144692,0.48061 0.05475,0.14809 0.135528,0.28549 0.192927,0.43256 0.165367,0.42375 0.282202,0.86886 0.434086,1.29768 0.127492,0.35995 0.283339,0.70687 0.434075,1.05736 0.339876,0.79027 0.876104,1.8884 1.784562,2.11472 0.220858,0.055 0.40604,0.0734 0.627012,0 0.427294,-0.14193 0.690213,-0.42414 1.012857,-0.72092 0.354912,-0.32647 0.713364,-0.6256 1.012854,-1.00931 0.350512,-0.44907 0.623395,-0.95523 0.916397,-1.44185 0.29717,-0.49355 0.591505,-0.98449 0.868164,-1.48992 0.409279,-0.74772 0.86073,-1.47746 1.205781,-2.25892 0.09018,-0.20422 0.15504,-0.41884 0.241159,-0.6248 0.279784,-0.66911 0.217925,-0.40286 0.482312,-1.10543 0.367858,-0.97751 0.609947,-1.99805 0.964631,-2.97984 0.381865,-1.05702 0.885219,-2.06237 1.254017,-3.12402 0.08523,-0.24536 0.300619,-1.00425 0.385852,-1.24961 0.171522,-0.49378 0.290058,-0.72261 0.482309,-1.20155 0.554521,-1.38144 1.116501,-2.68056 1.832791,-3.98914 0.27626,-0.5047 0.49405,-1.03494 0.77171,-1.53799 0.26049,-0.47196 0.56348,-0.90412 0.86816,-1.34573 0.29581,-0.42876 0.5922,-0.87849 0.96463,-1.24961 0.0888,-0.0885 0.19646,-0.15613 0.28938,-0.24031 0.21473,-0.19452 0.41698,-0.43377 0.67524,-0.57674 0.19218,-0.10639 0.27481,-0.0982 0.48232,-0.14419 0.86492,-0.19153 1.58493,0.51436 1.92925,1.24961 0.0771,0.16461 0.23576,0.65674 0.28939,0.81705 0.0965,0.28838 0.21175,0.57112 0.28939,0.86512 0.12487,0.47281 0.17573,0.96617 0.28939,1.44186 0.0425,0.1777 0.10223,0.35097 0.14469,0.52868 0.12484,0.52248 0.19307,1.05819 0.28938,1.58604 0.0974,0.53363 0.22217,1.0568 0.33763,1.58604 0.15264,0.69967 0.2332,1.41507 0.38585,2.11473 0.25477,1.16785 0.049,0.005 0.24116,1.10542 0.2097,1.20161 0.46821,2.38834 0.81992,3.55659 0.1387,0.4607 0.25006,0.94843 0.43409,1.3938 0.2559,0.61928 0.63213,1.19846 0.96462,1.77829 0.42112,0.73439 0.89851,1.87263 1.88103,1.97054 0.21184,0.0211 0.31647,-0.0125 0.53054,-0.0481 0.20582,-0.0342 0.3877,-0.049 0.57878,-0.14419 0.33104,-0.16493 0.63874,-0.43572 0.91639,-0.67286 0.09,-0.0768 0.66122,-0.56277 0.72347,-0.62481 0.51882,-0.51701 0.99244,-1.12297 1.39872,-1.73023 1.16129,-1.7358 2.06298,-3.62357 2.79742,-5.57519 0.14279,-0.37946 0.24305,-0.77403 0.38585,-1.15349 0.69017,-1.83402 1.46993,-3.67281 2.79741,-5.14262 0.2879,-0.31876 0.6662,-0.63819 1.06109,-0.81705 0.25261,-0.11442 0.50004,-0.14419 0.7717,-0.14419 0.88405,0 1.46669,0.52243 1.83279,1.29767 0.68525,1.45103 0.86321,3.60062 0.9164,5.19069 0.023,0.68809 -0.0247,1.37864 0,2.06667 0.008,0.21608 0.0761,1.00576 0.0965,1.24961 0.10908,1.30446 0.2525,2.68721 0.9164,3.84495 0.10245,0.17866 0.25345,0.45989 0.38585,0.62481 0.16399,0.20426 0.5767,0.52785 0.81993,0.6248 0.14242,0.0568 0.38672,0.06 0.53054,0.0481 0.85028,-0.0706 2.06621,-1.11132 2.6045,-1.73023 1.02294,-1.17616 1.82494,-2.57402 2.36333,-4.03721 0.18651,-0.50686 0.27523,-0.9318 0.43409,-1.44186 0.20959,-0.67298 0.4289,-1.34177 0.627,-2.0186 0.22618,-0.77275 0.45807,-1.53772 0.81994,-2.25891 0.19015,-0.37897 0.4208,-0.73556 0.627,-1.10543 0.15807,-0.28352 0.35797,-0.67286 0.72348,-0.67286 0.29021,0 0.29306,0.059 0.38585,0.33643"
       id="path1879" />
    <path
       style="fill:none;stroke:#000000;stroke-width:0.264583px;stroke-linecap:butt;stroke-linejoin:miter;stroke-opacity:1"
       d="m 140.18993,225.91374 c 0.0898,-0.17623 0.18564,-0.34949 0.26933,-0.52869 0.0196,-0.0419 0,-0.14514 0,-0.19225 0,-0.032 0.032,-0.0961 0,-0.0961 -0.016,0 0,0.032 0,0.0481 0,0.0961 0,0.19225 0,0.28837 0,0.15372 -0.0446,0.6284 0.0482,0.72093 0.71507,0.71259 1.20808,1.48876 1.63987,2.4031 0.42178,0.89313 0.77228,1.82866 1.01286,2.78759 0.0795,0.31698 0.10948,0.64527 0.19292,0.96124 0.13907,0.52663 0.40772,1.3288 0.72347,1.77829 0.2479,0.35289 0.57261,0.61597 0.9164,0.86512 0.25588,0.18544 0.20623,0.19888 0.48231,0.33643 0.6399,0.31882 1.37299,0.49792 2.07395,0.28837 0.45798,-0.13691 0.89002,-0.51899 1.20579,-0.86511 0.66784,-0.73205 1.32547,-1.84626 1.73632,-2.73954 0.25942,-0.564 0.44004,-1.15731 0.67524,-1.73022 0.49166,-1.19761 1.16352,-2.46728 2.17042,-3.31628 0.53182,-0.44842 1.14007,-0.8641 1.83279,-0.48062 0.4433,0.24541 0.70319,0.82472 0.91639,1.24961 0.37842,0.7542 0.58854,1.5337 0.7717,2.35504 0.23165,1.03874 0.42434,2.10205 0.72347,3.12403 0.22208,0.75873 0.15271,0.40576 0.43409,1.15348 0.0714,0.18973 0.11593,0.38921 0.19292,0.57675 0.0681,0.16581 0.1642,0.31873 0.24116,0.48061 0.21704,0.4566 0.3318,0.68092 0.67523,1.05737 0.64633,0.70846 1.58709,0.99676 2.50803,0.67287 1.31682,-0.46312 2.27521,-1.60621 3.13505,-2.64341 0.61753,-0.74492 1.23976,-1.49416 1.83278,-2.25891 0.39217,-0.50573 0.75413,-1.04138 1.15756,-1.53798 0.38434,-0.47312 0.82278,-0.91601 1.25401,-1.34574 0.42787,-0.42636 0.83958,-0.94154 1.39871,-1.20155 0.24445,-0.11367 0.46772,-0.16749 0.72347,-0.24031 0.32575,-0.0927 0.58153,-0.13907 0.91639,-0.0481 0.68713,0.18674 1.17359,1.38726 1.39872,1.97054 0.47068,1.21947 0.83357,2.47009 1.39871,3.65271 0.40848,0.85479 0.82285,1.56214 1.68809,2.0186 0.13997,0.0738 0.28157,0.15003 0.43409,0.19225 1.11596,0.30889 2.21541,-0.58271 2.99034,-1.24961 1.58608,-1.36499 2.88584,-3.02295 4.43728,-4.42171 0.57688,-0.5201 1.60224,-1.3747 2.41157,-1.48991 0.84162,-0.11981 1.23159,0.32761 1.59163,1.0093 0.21869,0.41406 0.28492,0.57655 0.48232,1.0093 0.39627,0.86874 0.79611,1.71663 1.35048,2.49922 0.42122,0.59464 0.9669,1.27879 1.73632,1.3938 0.57621,0.0861 1.01034,-0.16903 1.49518,-0.43256"
       id="path1881" />
    <path
       style="fill:none;stroke:#000000;stroke-width:0.264583px;stroke-linecap:butt;stroke-linejoin:miter;stroke-opacity:1"
       d="m 219.66378,267.9989 c -1.36891,1.84094 -2.06942,4.03933 -2.89388,6.15193 -0.81751,2.09478 -1.47683,4.19913 -1.73633,6.4403 -0.11602,1.00196 -0.36722,2.42398 0.38585,3.26822 0.73565,0.8247 2.08806,0.89354 3.08681,0.8651 1.54609,-0.044 2.25716,-0.27823 3.76203,-0.67287 1.5447,-0.40507 3.04376,-0.87078 4.53375,-1.44186"
       id="path1996" />
    <path
       style="fill:none;stroke:#000000;stroke-width:0.264583px;stroke-linecap:butt;stroke-linejoin:miter;stroke-opacity:1"
       d="m 211.75384,275.40044 c 0.35369,-0.16021 0.68529,-0.38293 1.06109,-0.48062 0.37472,-0.0974 0.77142,-0.0676 1.15755,-0.0961 0.48207,-0.0356 0.96456,-0.0651 1.44694,-0.0961 5e-5,-10e-6 3.08677,-0.19226 3.08681,-0.19226 1.02843,-0.032 2.05786,0 3.0868,0"
       id="path1998" />
    <path
       style="fill:none;stroke:#000000;stroke-width:0.264583px;stroke-linecap:butt;stroke-linejoin:miter;stroke-opacity:1"
       d="m 47.863712,182.54476 c -0.192924,0.16021 -0.439333,0.27219 -0.578774,0.48062 -0.129741,0.19393 -0.130273,0.44811 -0.192926,0.67287 -0.399727,1.43396 -0.264369,0.81607 -0.482314,2.49922 -0.05413,0.41806 -0.352145,2.79145 -0.38585,3.17209 -0.217067,2.45146 -0.536175,6.65866 1.929254,8.17053 0.748602,0.45906 1.694244,0.48713 2.508031,0.19225 0.888823,-0.32208 1.594289,-0.84329 2.315104,-1.44186 2.874132,-2.3867 4.182073,-5.41776 5.401908,-8.8434 0.523399,-1.46985 0.946406,-2.9852 1.254016,-4.51782 0.03304,-0.1646 0.284591,-1.10782 0,-1.24961 -0.128619,-0.0641 -0.294666,0.0812 -0.385852,0.19224 -0.645933,0.7867 -0.833319,1.42494 -1.254009,2.4031 -0.261114,0.60713 -0.547711,1.20457 -0.771705,1.82635 -0.551881,1.53198 -0.68281,2.33634 -0.964631,3.94108 -0.224784,1.27999 -0.385842,2.17181 -0.385842,3.46046 0,0.4817 0.06075,0.96149 0.09646,1.44186 0.09507,1.27902 0.191981,2.90925 1.350473,3.74883 0.209729,0.152 0.450164,0.25633 0.675245,0.3845"
       id="path2000" />
    <path
       style="fill:none;stroke:#000000;stroke-width:0.264583px;stroke-linecap:butt;stroke-linejoin:miter;stroke-opacity:1"
       d="m 66.577476,182.73701 c -0.0792,-0.0582 -0.499271,-0.47499 -0.771697,-0.3845 -0.456707,0.15171 -0.696124,0.90672 -0.868172,1.24961 -0.789019,1.5725 -0.50084,0.87893 -1.157549,2.7876 -0.598554,1.73964 -1.074603,3.48466 -1.44694,5.28681 -0.10555,0.51087 -0.235522,1.01911 -0.289385,1.53798 -0.04301,0.41431 0,0.83308 0,1.24961 0,0.99061 -0.168339,1.94697 0.57877,2.69147"
       id="path2002" />
    <path
       style="fill:none;stroke:#000000;stroke-width:0.264583px;stroke-linecap:butt;stroke-linejoin:miter;stroke-opacity:1"
       d="m 71.207685,183.21763 c -0.257234,0.12816 -0.550604,0.20089 -0.771703,0.38449 -0.408696,0.33939 -1.157583,1.96101 -1.350475,2.4031 -0.181766,0.4166 -0.838764,1.99547 -0.964631,2.4031 -0.126143,0.40853 -0.189273,0.83394 -0.289386,1.24961 -0.271139,1.1258 -0.675997,2.78532 -0.289385,3.94108 0.201671,0.60288 0.865735,1.08873 1.446943,1.24961 0.311422,0.0862 0.641889,0.08 0.964623,0.0961 1.708666,0.0851 3.068624,-0.63191 4.147899,-1.92247"
       id="path2004" />
    <path
       style="fill:none;stroke:#000000;stroke-width:0.264583px;stroke-linecap:butt;stroke-linejoin:miter;stroke-opacity:1"
       d="m 63.683591,189.5618 c 0.257236,-0.032 0.512839,-0.0825 0.771705,-0.0961 0.834863,-0.0438 1.672021,0 2.508033,0 1.961406,0 3.922815,0 5.884225,0"
       id="path2006" />
    <path
       style="fill:none;stroke:#000000;stroke-width:0.264583px;stroke-linecap:butt;stroke-linejoin:miter;stroke-opacity:1"
       d="m 72.55816,180.91065 c 4.02522,2.6612 5.555433,7.7004 5.691299,12.30386 0.03025,1.02488 0.07601,2.05347 0,3.07597 -0.07506,1.00974 -0.356023,2.02558 -0.675235,2.97984"
       id="path2008" />
    <path
       style="fill:none;stroke:#000000;stroke-width:0.264583px;stroke-linecap:butt;stroke-linejoin:miter;stroke-opacity:1"
       d="m 36.06669,231.81695 c -0.290007,0.16625 -0.57045,0.35042 -0.870019,0.49875 -0.03858,0.0191 0.02901,-0.29232 0.0341,-0.30587 0.05321,-0.14139 0.139237,-0.2945 0.238736,-0.40782 0.159735,-0.18191 0.550281,-0.51008 0.784408,-0.23789 0.306705,0.35657 0.238921,1.04216 -0.272836,1.15549 -0.127344,0.0282 -0.186362,0.0601 -0.306945,0 -0.350822,-0.1748 -0.542677,-0.88972 -0.170524,-1.1215 0.05312,-0.0331 0.426473,-0.18759 0.477469,-0.068 0.06461,0.15156 0.05707,0.32454 0.08561,0.48681"
       id="path2123" />
    <path
       style="fill:none;stroke:#000000;stroke-width:0.264583px;stroke-linecap:butt;stroke-linejoin:miter;stroke-opacity:1"
       d="m 29.398867,228.91721 c -0.136078,-0.1424 -0.258717,-0.34981 -0.443357,-0.44181 -0.284715,-0.14185 -0.616154,-0.11857 -0.920829,-0.068 -0.167955,0.0279 -0.425373,0.0879 -0.579782,0.16993 -0.593127,0.31522 -1.031778,1.04582 -1.125455,1.69925 -0.01608,0.11213 0,0.22656 0,0.33984 0,0.32125 0.01978,0.8246 0.375153,0.98556 0.334338,0.15144 0.959043,0.0753 1.261874,-0.13593 0.122852,-0.0857 0.232757,-0.24447 0.306941,-0.37384 0.0426,-0.0743 0.126463,-0.20962 0.102317,-0.30586 -0.0961,-0.38302 -0.779627,-0.16535 -0.989037,-0.068 -0.148172,0.0689 -0.330559,0.18481 -0.443362,0.30586 -0.369657,0.3967 -0.626962,0.9278 -0.716199,1.46135 -0.02923,0.17476 -0.05025,0.63865 -0.0341,0.81564 0.04059,0.4449 0.274013,1.11691 0.613884,1.42737 0.171484,0.15664 0.357172,0.23932 0.579781,0.30586 0.556713,0.16643 0.902282,0.0432 1.398292,-0.20391 0.459589,-0.22898 0.232044,-0.10475 0.682093,-0.37383"
       id="path2129" />
    <path
       style="fill:none;stroke:#000000;stroke-width:0.264583px;stroke-linecap:butt;stroke-linejoin:miter;stroke-opacity:1"
       d="m 30.728951,233.19931 c -0.02948,0.2129 -0.167505,-0.0355 -0.238731,0 -0.08041,0.0401 -0.172262,0.33685 -0.204628,0.40781 -0.107662,0.23603 -0.1871,0.45642 -0.238734,0.71369 -0.02719,0.13547 -0.04815,0.30178 -0.0341,0.4418 0.0136,0.13547 0.08002,0.36992 0.272836,0.30587 0.03886,-0.0129 0.06895,-0.0442 0.102314,-0.068 0.321471,-0.22882 0.594858,-0.67257 0.511572,-1.08752 -0.01606,-0.08 -0.0811,-0.14879 -0.136419,-0.20391"
       id="path2131" />
    <path
       style="fill:none;stroke:#000000;stroke-width:0.264583px;stroke-linecap:butt;stroke-linejoin:miter;stroke-opacity:1"
       d="m 36.040607,261.32314 c -0.07668,0.11851 -0.134562,0.25158 -0.230052,0.35553 -0.01714,0.0187 -0.02103,-0.0462 -0.0341,-0.068 -0.02109,-0.035 -0.04987,-0.0654 -0.06821,-0.10196 -0.06238,-0.12431 -0.137517,-0.33545 -0.102311,-0.47579 2e-6,-10e-6 0.0682,-0.13592 0.06821,-0.13594 0.03254,-0.0648 0.02439,-0.0825 0.102317,-0.10195 0.243075,-0.0606 0.307567,0.41682 0.264154,0.52807 -0.129558,0.33198 -0.716013,0.59005 -1.048565,0.45749 -0.05274,-0.021 -0.09325,-0.0651 -0.136419,-0.10196 -0.07428,-0.0634 -0.148058,-0.13714 -0.170524,-0.23789 -0.04231,-0.18971 0.05698,-0.36544 0.204629,-0.47579 0.517025,-0.3864 1.181031,-0.38012 1.739339,-0.10195 0.118547,0.0591 0.152014,0.0476 0.204629,0.16992 0.190463,0.44286 -0.527389,0.59681 -0.818513,0.50978 -0.155826,-0.0466 -0.303355,-0.2144 -0.23873,-0.2379 0.08295,-0.0302 0.176101,0.0122 0.264154,0.0183"
       id="path2133" />
    <path
       style="fill:none;stroke:#000000;stroke-width:0.264583px;stroke-linecap:butt;stroke-linejoin:miter;stroke-opacity:1"
       d="m 25.442724,258.0083 c -0.03411,-0.0906 -0.102316,-0.17504 -0.102316,-0.27187 0,-0.0651 0.488634,-0.71944 0.511571,-0.74767 0.360313,-0.44353 0.78173,-0.86275 1.193665,-1.25744 0.144987,-0.13893 0.291608,-0.27633 0.443363,-0.40782 0.109873,-0.0952 0.226134,-0.18282 0.341045,-0.27188 0.198038,-0.15349 0.639683,-0.59957 0.613886,-0.034 -0.0078,0.17126 -0.03145,0.34232 -0.06821,0.50978 -0.178438,0.81285 -0.573326,1.56567 -0.85262,2.34495 -0.05705,0.15919 -0.341881,0.91345 -0.306943,1.08752 0.0084,0.0418 0.133458,0.0682 0.136419,0.068 0.228129,-0.0207 0.502153,-0.16301 0.682096,-0.27188 0.188645,-0.11413 0.367146,-0.24445 0.545676,-0.37383 1.049044,-0.76027 2.039147,-1.6716 2.762481,-2.75278 0.07186,-0.10742 0.581985,-0.81344 0.409257,-0.98556 -0.05588,-0.0557 -0.143685,-0.0386 -0.204629,0 -0.362717,0.23 -0.856146,0.8343 -1.09135,1.15549 -0.553046,0.75521 -1.007314,1.62316 -1.29598,2.51488 -0.119369,0.36874 -0.292552,1.11621 -0.102314,1.49533"
       id="path2135" />
    <path
       style="fill:none;stroke:#000000;stroke-width:0.264583px;stroke-linecap:butt;stroke-linejoin:miter;stroke-opacity:1"
       d="m 31.649781,258.2462 c -0.06821,0.0226 -0.141746,0.0332 -0.204629,0.068 -0.331716,0.18364 -0.505457,1.01331 -0.136419,1.22346 0.121409,0.0691 0.13548,0.0851 0.272838,0.068 0.360294,-0.0449 0.515813,-0.361 0.579779,-0.67971 0.02778,-0.13839 0.06738,-0.27353 0,-0.40781 -0.07346,-0.14641 -0.200456,-0.23582 -0.341045,-0.30587"
       id="path2137" />
  </g>
</svg>
