<?xml version="1.0" encoding="UTF-8" standalone="no"?>
<!-- Created with Inkscape (http://www.inkscape.org/) -->

<svg
   width="240mm"
   height="120mm"
   viewBox="0 0 240 120"
   version="1.1"
   id="svg8"
   inkscape:version="1.1.2 (0a00cf5339, 2022-02-04)"
   sodipodi:docname="1730536032.svg"
   xmlns:inkscape="http://www.inkscape.org/namespaces/inkscape"
   xmlns:sodipodi="http://sodipodi.sourceforge.net/DTD/sodipodi-0.dtd"
   xmlns:xlink="http://www.w3.org/1999/xlink"
   xmlns="http://www.w3.org/2000/svg"
   xmlns:svg="http://www.w3.org/2000/svg"
   xmlns:rdf="http://www.w3.org/1999/02/22-rdf-syntax-ns#"
   xmlns:cc="http://creativecommons.org/ns#"
   xmlns:dc="http://purl.org/dc/elements/1.1/">
  <defs
     id="defs2">
    <pattern
       inkscape:collect="always"
       xlink:href="#pattern1893"
       id="pattern1899"
       patternTransform="matrix(0.396875,0,0,0.396875,64.448887,185.68403)" />
    <pattern
       inkscape:collect="always"
       xlink:href="#pattern872"
       id="pattern1893"
       patternTransform="translate(3.8867187e-6)" />
    <inkscape:path-effect
       effect="spiro"
       id="path-effect4328"
       is_visible="true"
       lpeversion="1" />
    <inkscape:path-effect
       effect="spiro"
       id="path-effect4211"
       is_visible="true"
       lpeversion="1" />
    <inkscape:path-effect
       effect="spiro"
       id="path-effect3811"
       is_visible="true"
       lpeversion="1" />
    <inkscape:path-effect
       effect="spiro"
       id="path-effect3436"
       is_visible="true"
       lpeversion="1" />
    <inkscape:path-effect
       effect="spiro"
       id="path-effect3319"
       is_visible="true"
       lpeversion="1" />
    <inkscape:path-effect
       effect="spiro"
       id="path-effect2859"
       is_visible="true"
       lpeversion="1" />
    <inkscape:path-effect
       effect="spiro"
       id="path-effect2742"
       is_visible="true"
       lpeversion="1" />
    <inkscape:path-effect
       effect="spiro"
       id="path-effect2477"
       is_visible="true"
       lpeversion="1" />
    <inkscape:path-effect
       effect="spiro"
       id="path-effect2360"
       is_visible="true"
       lpeversion="1" />
    <inkscape:path-effect
       effect="spiro"
       id="path-effect2093"
       is_visible="true"
       lpeversion="1" />
    <inkscape:path-effect
       effect="spiro"
       id="path-effect1713"
       is_visible="true"
       lpeversion="1" />
    <inkscape:path-effect
       effect="spiro"
       id="path-effect1355"
       is_visible="true"
       lpeversion="1" />
    <inkscape:path-effect
       effect="spiro"
       id="path-effect1125"
       is_visible="true"
       lpeversion="1" />
    <inkscape:path-effect
       effect="spiro"
       id="path-effect891"
       is_visible="true"
       lpeversion="1" />
    <inkscape:path-effect
       effect="spiro"
       id="path-effect3436-3"
       is_visible="true"
       lpeversion="1" />
    <pattern
       patternUnits="userSpaceOnUse"
       width="363.13419"
       height="260.76462"
       patternTransform="translate(263.49152,65.815133)"
       id="pattern872">
      <path
         style="fill:none;stroke:#000000;stroke-width:0.999999px;stroke-linecap:butt;stroke-linejoin:miter;stroke-opacity:1"
         d="m 64.806162,1.6357518 c 61.491798,1.134e-4 127.730398,0.1946456 190.291788,0.098268 17.5799,-0.026457 34.11163,-0.047622 67.02633,0.00268"
         id="path889"
         sodipodi:nodetypes="csc" />
      <path
         style="fill:none;stroke:#000000;stroke-width:0.999999px;stroke-linecap:butt;stroke-linejoin:miter;stroke-opacity:1"
         d="m 321.93757,1.2602179 4.5e-4,258.8313421"
         id="path1123"
         sodipodi:nodetypes="cc"
         inkscape:original-d="m 321.93757,1.2602179 c 7.9e-4,86.2777701 7.2e-4,172.5542521 4.5e-4,258.8313421"
         inkscape:path-effect="#path-effect1125" />
      <path
         style="fill:none;stroke:#000000;stroke-width:0.999999px;stroke-linecap:butt;stroke-linejoin:miter;stroke-opacity:1"
         d="m 321.93353,260.16201 c -78.02791,-0.70605 -156.06221,-0.70604 -234.090127,4e-5 -2.860475,0.0259 -5.720942,0.0527 -8.581399,0.0805"
         id="path1353"
         sodipodi:nodetypes="ccc"
         inkscape:original-d="m 321.93353,260.16201 c -78.02979,2.7e-4 -156.05983,2.7e-4 -234.090127,4e-5 -41.465892,-1.5e-4 30.491737,0.0805 -8.581399,0.0805"
         inkscape:path-effect="#path-effect1355" />
      <ellipse
         style="fill:#ccff00;fill-opacity:0;stroke:#000000;stroke-width:0.999999;stroke-linejoin:bevel;stroke-miterlimit:4;stroke-dasharray:none;paint-order:fill markers stroke"
         id="path1459"
         cx="219.61221"
         cy="162.19933"
         rx="31.718765"
         ry="67.574348" />
      <path
         style="fill:none;stroke:#000000;stroke-width:0.999999px;stroke-linecap:butt;stroke-linejoin:miter;stroke-opacity:1"
         d="m 207.52893,122.55006 h 23.15108"
         id="path1711"
         inkscape:path-effect="#path-effect1713"
         inkscape:original-d="m 207.52893,122.55006 c 7.71802,9.8e-4 15.43506,9.8e-4 23.15108,0" />
      <path
         style="fill:none;stroke:#000000;stroke-width:0.999999px;stroke-linecap:butt;stroke-linejoin:miter;stroke-opacity:1"
         d="m 209.35187,214.29828 c 0.0302,-0.1818 0.0404,-0.36775 0.0911,-0.54493 0.0113,-0.0393 0.93214,-0.75602 1.00259,-0.81744 1.26403,-1.10215 2.36617,-1.83379 3.9193,-2.54313 1.16118,-0.53034 2.39032,-1.02134 3.6458,-1.27155 1.74327,-0.34734 3.52589,-0.30274 5.28647,-0.18179 2.06528,0.14211 4.29146,0.45868 6.10677,1.54405 1.33663,0.79914 2.21193,2.03225 3.09895,3.26974"
         id="path1830" />
      <path
         style="fill:none;stroke:#000000;stroke-width:0.999999px;stroke-linecap:butt;stroke-linejoin:miter;stroke-opacity:1"
         inkscape:path-effect="#path-effect2093"
         inkscape:original-d="m 232.50284,213.75323 c 3.7e-4,14.85725 6.4e-4,29.71431 7.1e-4,44.57121 v 2.02194"
         d="m 232.50284,213.75323 c 5.9e-4,14.85707 7.1e-4,29.71414 7.1e-4,44.57121 v 2.02194"
         id="path2091"
         sodipodi:nodetypes="csc" />
      <path
         style="fill:none;stroke:#000000;stroke-width:0.999999px;stroke-linecap:butt;stroke-linejoin:miter;stroke-opacity:1"
         d="M 219.48433,123.25158 V 70.845213"
         id="path2358"
         inkscape:path-effect="#path-effect2360"
         inkscape:original-d="m 219.48433,123.25158 c 0.001,-17.46781 0.001,-34.936597 0,-52.406367" />
      <path
         style="fill:none;stroke:#000000;stroke-width:0.999999px;stroke-linecap:butt;stroke-linejoin:miter;stroke-opacity:1"
         d="M 219.48433,70.845213 H 56.269827"
         id="path2475"
         inkscape:path-effect="#path-effect2477"
         inkscape:original-d="m 219.48433,70.845213 c -54.40384,0.001 -108.80868,0.001 -163.214503,0" />
      <path
         style="fill:none;stroke:#000000;stroke-width:0.999999px;stroke-linecap:butt;stroke-linejoin:miter;stroke-opacity:1"
         d="m 56.269827,70.845213 c -0.526942,-2.27e-4 -1.05597,0.04649 -1.58081,-6.05e-4 -0.410873,-0.03779 -1.377449,-0.615685 -1.731772,-0.817436 -0.212674,-0.120945 -0.425348,-0.242267 -0.638019,-0.363212 -0.243061,-0.120945 -0.492291,-0.230552 -0.729161,-0.363213 -0.249789,-0.139842 -0.478658,-0.31559 -0.729169,-0.454148 -0.865459,-0.479093 -1.809151,-0.82458 -2.643232,-1.362368 -2.660519,-1.715452 -5.03263,-5.51864 -4.921878,-8.719257 0.14245,-4.116737 3.214462,-7.369436 6.289069,-9.718375 2.25546,-1.723124 4.18794,-2.874293 7.018232,-3.360529 1.21099,-0.207874 2.350597,-0.285732 3.554691,0 2.323627,0.551282 4.233346,3.073323 3.190099,5.449512 -0.546282,1.244258 -1.946041,2.05954 -3.09896,2.633952 -1.921822,0.957544 -4.14305,1.364032 -6.289069,1.180725 -0.57823,-0.04951 -2.664053,-0.500977 -3.190103,-0.635754 -4.237138,-1.085745 -7.864388,-3.433134 -8.75,-7.992643 -0.195968,-1.008945 -0.254626,-1.623874 -0.0912,-2.633991 0.434193,-2.682481 1.908201,-5.03622 3.736982,-6.993562 3.497711,-3.743584 8.45091,-6.434797 13.671878,-6.266986 1.961472,0.06312 4.345251,0.432908 5.651051,2.088983 0.378289,0.479773 0.59627,0.94817 0.729162,1.544051 0.188333,0.844497 0.101329,1.709442 -0.364574,2.452308 -0.266381,0.424743 -0.902309,0.977537 -1.276051,1.271547 -1.530089,1.203741 -3.445758,1.995628 -5.377599,2.270664 -1.663461,0.236599 -3.402622,0.09524 -5.013022,-0.363212 -1.508999,-0.429619 -3.15925,-1.220788 -4.46615,-2.088983 -3.391839,-2.253279 -6.563018,-6.787427 -6.927077,-10.899099 -0.175219,-1.978659 0.261203,-3.935169 1.09375,-5.722016 0.559468,-1.200756 1.450288,-2.680101 2.36979,-3.633033 0.418118,-0.433323 0.899188,-0.801827 1.36718,-1.180725 2.256329,-1.826834 4.103989,-2.767105 6.927088,-3.451389 1.676561,-0.406374 1.68511,-0.459099 3.46354,-0.363212 2.18106,0.117543 4.265862,0.799521 5.833342,2.361487 1.216399,1.212094 2.181358,3.037946 1.914059,4.813757 -0.390259,2.592605 -3.296871,4.265537 -5.65104,4.632113 -2.308479,0.359433 -5.13941,-0.297448 -7.200522,-1.362406 -3.135489,-1.620094 -6.594799,-5.514217 -7.38282,-8.991761 -0.511899,-2.259023 -0.159193,-5.330872 1.002611,-7.3568499 0.84675,-1.4766237 2.39571,-2.6756032 3.828121,-3.5422111 1.72529,-1.0438299 3.58679,-1.7203275 5.5599,-2.08898265 0.515501,-0.0963779 1.027079,-0.2263937 1.549478,-0.27250393 2.66795,-0.23470866 5.272981,0.48839058 7.83854,1.08990238"
         id="path2625" />
      <path
         style="fill:none;stroke:#000000;stroke-width:0.999999;stroke-linecap:butt;stroke-linejoin:miter;stroke-miterlimit:4;stroke-dasharray:7.99999, 7.99999;stroke-dashoffset:0;stroke-opacity:1"
         d="m 188.71047,164.97537 h 63.03194"
         id="path2740"
         inkscape:path-effect="#path-effect2742"
         inkscape:original-d="m 188.71047,164.97537 c 21.01164,0.001 42.0223,0.001 63.03194,0" />
      <path
         style="fill:none;stroke:#000000;stroke-width:0.999999px;stroke-linecap:butt;stroke-linejoin:miter;stroke-opacity:1"
         d="M 188.71047,164.97537 H 55.942595"
         id="path2857"
         inkscape:path-effect="#path-effect2859"
         inkscape:original-d="m 188.71047,164.97537 c -44.25494,9.8e-4 -88.51091,9.8e-4 -132.767875,0" />
      <path
         style="fill:none;stroke:#000000;stroke-width:0.999999px;stroke-linecap:butt;stroke-linejoin:miter;stroke-opacity:1"
         d="m 55.942595,164.97537 c -0.152693,0.35792 -0.229077,0.75874 -0.458018,1.07316 -0.0963,0.13228 -0.304706,0.11905 -0.455732,0.18179 -0.213581,0.0888 -0.43381,0.16403 -0.638018,0.27251 -0.505701,0.26872 -0.98589,0.58458 -1.458331,0.90825 -0.437401,0.29972 -1.264029,0.96775 -1.640628,1.27155 -1.346313,1.08605 -2.573613,2.07247 -3.736982,3.36057 -1.639272,1.815 -3.253039,4.2277 -2.734371,6.81192 0.558441,2.78237 3.289452,4.41974 5.65104,5.54037 3.336892,1.58339 6.869541,2.4184 10.481779,3.08806 0.667903,0.12397 1.333032,0.26532 2.005213,0.36321 0.574337,0.0839 1.155069,0.11603 1.731757,0.1818 1.230992,0.14022 2.407083,0.2725 3.645831,0.2725 0.411832,0 1.487471,0.15647 1.64064,-0.45411 0.01474,-0.0586 0.02721,-0.12737 0,-0.18179 -0.03851,-0.0767 -0.117052,-0.12586 -0.182287,-0.1818 -1.40708,-1.20181 -3.503852,-1.52145 -5.286459,-1.63487 -3.852813,-0.24491 -9.262821,0.41155 -12.486981,2.72481 -2.664091,1.91138 -4.699771,5.1405 -5.286459,8.35593 -0.248088,1.35965 -0.386513,2.93609 0.0912,4.26883 0.150916,0.42111 0.400309,0.80175 0.638018,1.18072 1.944412,3.10016 5.641161,4.45312 9.114592,4.90458 2.636787,0.3428 5.251287,0.2434 7.83854,-0.36321 0.786859,-0.18444 2.648587,-0.64112 3.281249,-1.27155 0.358073,-0.35679 -0.192,-0.71524 -0.455731,-0.81743 -1.685261,-0.65311 -3.409762,-0.72291 -5.19532,-0.54497 -4.545891,0.45301 -9.67395,2.73142 -12.760418,6.17616 -1.32257,1.47609 -2.47488,3.28248 -2.1875,5.35873 0.27617,1.99517 1.893827,3.60038 3.372397,4.81375 4.557513,3.74007 9.802382,5.65025 15.677091,5.81284 1.54388,0.0427 3.146521,-0.0227 4.55729,-0.72661 0.259389,-0.12926 0.75171,-0.3848 0.820308,-0.72662 0.244309,-1.21723 -3.751339,-1.11987 -4.192709,-1.0899 -3.604649,0.24492 -7.12083,1.63695 -10.20833,3.45139 -1.605638,0.9436 -3.122578,1.96849 -4.375007,3.36057 -1.694933,1.88383 -3.111213,4.28549 -2.916662,6.90274 0.195856,2.63482 1.826109,4.24615 4.010419,5.54037 1.46877,0.87024 2.257172,1.10237 3.919272,1.54401 4.055229,1.07762 8.36129,0.93513 12.395838,-0.18179 1.41493,-0.39164 4.919682,-1.46608 5.5599,-2.99724 0.817202,-1.95444 -3.130038,-2.57579 -4.01043,-2.72478 -5.740071,-0.9713 -13.063238,0.7609 -18.138017,3.54221 -2.108391,1.15555 -5.602651,3.71426 -5.833342,6.35781 -0.05711,0.65458 0.167849,1.42439 0.455739,1.99816 1.339321,2.66925 4.417452,4.07758 7.018232,5.17708 1.55529,0.65749 3.131501,1.29805 4.73958,1.81648 1.780891,0.57415 1.3754,0.41866 3.28125,0.72662 1.611118,0.26041 3.21501,0.58741 4.830727,0.81743 0.514844,0.0733 1.035281,0.10394 1.549482,0.1818 1.70403,0.25738 3.387409,0.63148 5.104169,0.81743 0.757523,0.082 3.786039,-0.054 4.545588,0.008"
         id="path3202"
         sodipodi:nodetypes="csccssssscccsscccssscssssssssscscsssscsscssssssscsc" />
      <path
         style="fill:none;stroke:#000000;stroke-width:0.999999px;stroke-linecap:butt;stroke-linejoin:miter;stroke-opacity:1"
         d="M 140.21868,164.95862 V 207.5559"
         id="path3317"
         inkscape:path-effect="#path-effect3319"
         inkscape:original-d="m 140.21868,164.95862 c 9.8e-4,14.20011 9.8e-4,28.39919 0,42.59728" />
      <path
         style="fill:none;stroke:#000000;stroke-width:0.999999px;stroke-linecap:butt;stroke-linejoin:miter;stroke-opacity:1"
         d="m 117.24384,207.95763 h 45.02608"
         id="path3434"
         inkscape:path-effect="#path-effect3436"
         inkscape:original-d="m 117.24384,207.95763 c 15.00967,0.001 30.01837,0.001 45.02608,0" />
      <path
         style="fill:none;stroke:#000000;stroke-width:0.999999px;stroke-linecap:butt;stroke-linejoin:miter;stroke-opacity:1"
         d="M 117.29993,216.11551 H 162.326"
         id="path3434-6"
         inkscape:path-effect="#path-effect3436-3"
         inkscape:original-d="m 117.29993,216.11551 c 15.00967,0.001 30.01836,0.001 45.02607,0" />
      <path
         style="fill:none;stroke:#000000;stroke-width:0.999999px;stroke-linecap:butt;stroke-linejoin:miter;stroke-opacity:1"
         d="m 140.1042,216.22822 v 43.90632"
         id="path3809"
         inkscape:path-effect="#path-effect3811"
         inkscape:original-d="m 140.1042,216.22822 c 9.8e-4,14.63645 9.8e-4,29.27187 0,43.90632" />
      <path
         style="fill:none;stroke:#000000;stroke-width:0.999999px;stroke-linecap:butt;stroke-linejoin:miter;stroke-opacity:1"
         d="m 123.5476,189.60455 c -0.15043,-0.10697 -0.27969,-0.25285 -0.45116,-0.32126 -0.51935,-0.20712 -1.9632,-0.0189 -2.4491,0.0643 -1.82763,0.31219 -4.1051,1.27888 -5.4138,2.63316 -0.71576,0.74071 -1.1013,1.37745 -1.54679,2.31205 -0.49297,1.03419 -0.61951,1.44019 -0.70894,2.5689 -0.10855,1.37016 0.1929,2.79546 1.4179,3.59653 2.18301,1.42756 4.59839,1.33202 7.08948,1.09179 1.85113,-0.17839 3.70321,-0.49913 5.54267,-0.77068"
         id="path3926" />
      <path
         style="fill:none;stroke:#000000;stroke-width:0.999999px;stroke-linecap:butt;stroke-linejoin:miter;stroke-opacity:1"
         d="m 7.078788,194.8709 c -0.1074142,0.19276 -0.2614677,0.36586 -0.3222425,0.578 -0.071093,0.24794 -0.027969,0.51549 -0.064516,0.77069 -0.049512,0.34507 -0.1107024,0.68897 -0.1933607,1.02758 -0.4882923,2.00035 -1.2972094,3.93807 -2.0623899,5.84432 -0.3689197,0.91906 -0.7152,1.84728 -1.095651,2.76158 -0.5039584,1.21119 -1.0837304,2.39502 -1.6112504,3.59653 -0.4292674,0.97776 -0.94868032,1.96516 -1.16009954,3.01852 -0.0410079,0.20409 -0.15960945,0.72049 0.0644031,0.89911 0.56082134,0.44708 1.55810264,0.25814 2.19130204,0.19275 1.309697,-0.13492 0.9628081,-0.10053 2.3201877,-0.38532 1.2396208,-0.26003 2.4838904,-0.46371 3.7381002,-0.64225 1.619331,-0.23055 3.59591,-0.42917 5.155982,0.19275 0.32829,0.13077 0.478367,0.25361 0.773397,0.44958"
         id="path3928" />
      <path
         style="fill:none;stroke:#000000;stroke-width:0.999999px;stroke-linecap:butt;stroke-linejoin:miter;stroke-opacity:1"
         d="m 17.519665,210.47718 c -0.38984,-0.35717 -0.982519,-0.7208 -1.095647,-1.28448 -0.245027,-1.22071 1.27285,-2.1956 2.255739,-2.44048 1.007781,-0.25096 2.062401,0.17575 2.062401,1.34869 0,0.66255 -0.41283,1.68514 -0.6445,2.24784 -0.75504,1.83394 -1.7906,3.50687 -3.158041,4.94521 -0.127824,0.13455 -1.24786,1.29037 -1.546802,1.09179 -0.264869,-0.17575 0.344126,-0.85017 0.386702,-0.89911 0.503018,-0.57838 1.181828,-1.13477 1.869049,-1.47716 1.19173,-0.59376 2.332732,-0.35074 3.286941,0.51379 0.53511,0.48477 0.899959,1.10608 1.482339,1.54137"
         id="path3930" />
      <path
         style="fill:none;stroke:#000000;stroke-width:0.999999px;stroke-linecap:butt;stroke-linejoin:miter;stroke-opacity:1"
         d="m 11.139127,24.353131 c -0.06452,0.278174 -0.14298,0.553739 -0.193361,0.834898 -0.279193,1.558072 -0.339439,3.141883 -0.708952,4.688315 -0.3394395,1.420649 -0.8510591,2.806186 -1.3534376,4.174526 -0.7005506,1.908132 -1.4110413,3.81377 -2.1268498,5.715893 -0.3998211,1.062463 -0.9767131,2.099868 -1.2245405,3.2112 -0.039194,0.175748 -0.1526173,0.405619 0.064403,0.513789 0.3275716,0.163275 1.0233184,0.0548 1.3534412,0 0.821178,-0.136441 1.6326879,-0.351118 2.4490885,-0.513789 1.0083102,-0.201071 2.0196702,-0.38332 3.0291522,-0.578041 1.152548,-0.222236 2.364147,-0.513789 3.544739,-0.513789 0.578491,0 0.869609,0.08353 1.417897,0.192756"
         id="path3932" />
      <path
         style="fill:none;stroke:#000000;stroke-width:0.999999px;stroke-linecap:butt;stroke-linejoin:miter;stroke-opacity:1"
         d="m 20.291007,38.674971 c 0.206551,-0.346961 0.484861,-0.628385 0.708949,-0.963364 0.398921,-0.596258 0.705101,-1.238929 0.902302,-1.92669 0.01209,-0.04233 0.119659,-0.578003 0.06452,-0.578003 -0.02154,0 0,0.04271 0,0.06425 0,0.08542 0,0.171213 0,0.257008 0,0.342425 0,0.685077 0,1.027578 0,0.941934 0,1.883905 0,2.825839 0,0.618633 0.103068,1.695534 -0.386698,2.183622 -0.191471,0.190866 -0.73894,0.03402 -0.966751,0 -0.526881,-0.08088 -1.0789,-0.192756 -1.61125,-0.192756 -0.193361,0 -0.386699,0 -0.580048,0 -0.0644,0 -0.257802,0 -0.193361,0 0.362759,0 0.734291,-0.0189 1.095651,0 1.99423,0.180662 -0.498289,-0.02268 1.353449,0.06425 0.495413,0.02268 0.98795,0.0892 1.48235,0.128504 0.75264,0.06009 1.504411,0.117921 2.255743,0.192756"
         id="path3934" />
      <path
         style="fill:none;stroke:#000000;stroke-width:0.999999px;stroke-linecap:butt;stroke-linejoin:miter;stroke-opacity:1"
         d="m 280.25169,121.70579 h 82.8825"
         id="path4209"
         inkscape:path-effect="#path-effect4211"
         inkscape:original-d="m 280.25169,121.70579 c 27.62849,9.8e-4 55.25601,9.8e-4 82.8825,0" />
      <path
         style="fill:none;stroke:#000000;stroke-width:0.999999px;stroke-linecap:butt;stroke-linejoin:miter;stroke-opacity:1"
         d="m 303.58256,132.62375 h 37.63869"
         id="path4326"
         inkscape:path-effect="#path-effect4328"
         inkscape:original-d="m 303.58256,132.62375 c 12.5472,0.001 25.09345,0.001 37.63869,0" />
      <path
         style="fill:none;stroke:#000000;stroke-width:0.999999px;stroke-linecap:butt;stroke-linejoin:miter;stroke-opacity:1"
         d="m 350.44564,85.733528 c -0.0533,-0.535937 0.12586,-1.162356 -0.12888,-1.669795 -0.41103,-0.819175 -1.54723,-1.143345 -2.32018,-1.412901 -0.64577,-0.22526 -1.88768,-0.576756 -2.57801,-0.642255 -2.2164,-0.21052 -5.4316,0.245291 -7.21837,1.669795 -1.11995,0.892838 -1.99771,2.247081 -2.4491,3.596523 -0.36813,1.100069 -0.56375,3.635187 0.5156,4.495635 1.42243,1.133971 3.61459,1.282809 5.28488,0.770683 0.59913,-0.183685 1.1029,-0.328441 1.54681,-0.770683 0.0525,-0.05254 0.37001,-0.27326 0.25776,-0.385323 -0.21883,-0.217701 -0.52055,0.355653 -0.90228,0.770683 -2.52409,2.743824 1.17985,-1.590727 -2.19134,2.440479 -1.92434,2.301128 -3.82843,4.734576 -4.12475,7.835261 -0.0612,0.64086 -0.0537,1.6913 0.25777,2.31205 0.28686,0.57143 1.02716,1.10831 1.54681,1.41294 2.82897,1.65823 5.82255,1.56042 8.89406,0.64222 1.73461,-0.51855 3.86094,-1.53642 5.28491,-2.69737 4e-5,-4e-5 0.82707,-0.82421 0.90229,-0.89915"
         id="path4443" />
      <path
         style="fill:none;stroke:#000000;stroke-width:0.999999px;stroke-linecap:butt;stroke-linejoin:miter;stroke-opacity:1"
         d="m 353.02362,103.20232 c 0.38687,1.42677 0.54281,3.02868 2.06241,3.59652 0.26041,0.0971 0.74797,0.1988 1.03121,0.1285 1.8376,-0.45777 3.21248,-3.70866 2.57797,-5.39474 -0.59346,-1.577012 -2.94463,-1.18576 -4.12478,-0.77069 -0.36208,0.12737 -0.69279,0.33222 -1.03121,0.51379 -0.22072,0.1183 -0.57978,0.14362 -0.64448,0.38532 -0.13342,0.49807 0.0858,1.02758 0.12888,1.54137"
         id="path4445" />
      <path
         style="fill:none;stroke:#000000;stroke-width:0.999999px;stroke-linecap:butt;stroke-linejoin:miter;stroke-opacity:1"
         d="m 148.07499,37.504753 c -0.24718,0.929651 -0.36056,1.891087 -0.58004,2.82584 -0.44315,1.886778 -1.04799,3.735269 -1.61125,5.587464 -1.07996,3.551358 -2.08116,7.129474 -3.22246,10.661103 -0.50472,1.5617 -1.0133,3.116031 -1.48237,4.688277 -0.2177,0.730091 -0.64449,1.790438 -0.64449,2.568945"
         id="path10482" />
      <path
         style="fill:none;stroke:#000000;stroke-width:0.999999px;stroke-linecap:butt;stroke-linejoin:miter;stroke-opacity:1"
         d="m 136.92516,37.504753 c 0.17197,-0.04271 0.33978,-0.107716 0.5156,-0.128504 0.40543,-0.04762 0.81683,0.0189 1.22457,0 1.31066,-0.06236 2.61808,-0.224881 3.93143,-0.257007 3.30905,-0.0805 6.61655,0.148913 9.9253,0.06425 1.81342,-0.04611 3.61357,-0.250205 5.41376,-0.449537"
         id="path10484" />
      <path
         style="fill:none;stroke:#000000;stroke-width:0.999999px;stroke-linecap:butt;stroke-linejoin:miter;stroke-opacity:1"
         d="m 134.41162,62.359267 c 0.17197,-0.02268 0.34356,-0.04271 0.51561,-0.06425 0.0858,0 0.17272,0.01134 0.25776,0 0.24,-0.03024 0.47358,-0.0892 0.70896,-0.128504 0.17953,-0.03024 0.39769,0 0.58005,0 0.65027,0 1.28443,0.01134 1.93349,0.06425 1.43369,0.114142 2.88045,0.219212 4.31815,0.257008 1.13756,0.03024 2.27849,-0.0378 3.41582,0 0.30123,0.01134 0.60099,0.05253 0.90229,0.06425 1.02769,0.03931 2.06487,0 3.09362,0"
         id="path10486" />
      <path
         style="fill:none;stroke:#000000;stroke-width:0.999999px;stroke-linecap:butt;stroke-linejoin:miter;stroke-opacity:1"
         d="m 160.12711,58.441635 c -0.17726,-0.345071 -0.18368,-0.819137 -0.38668,-1.156044 -0.14173,-0.235086 -0.51647,-0.467225 -0.77341,-0.513789 -1.21156,-0.21959 -2.76317,0.94114 -3.41582,1.862476 -0.12737,0.179905 -0.21883,0.383244 -0.32239,0.578041 -0.31219,0.5873 -0.61024,1.303597 -0.19351,1.926689 0.18935,0.283087 0.60839,0.29367 0.90228,0.257008 1.1,-0.136819 1.89071,-0.792264 2.64246,-1.541367 0.40165,-0.400252 0.91302,-0.888378 1.03117,-1.477152 0.008,-0.04195 0,-0.08542 0,-0.128504 0,-0.02268 0.0227,-0.06425 0,-0.06425 -0.0608,0 -0.20183,0.440882 -0.25777,0.706469 -0.16138,0.763351 -0.25133,1.536718 -0.32239,2.31205 -0.0461,0.505777 -0.2298,1.633437 0.19351,2.055156"
         id="path10488" />
      <path
         style="fill:none;stroke:#000000;stroke-width:0.999999px;stroke-linecap:butt;stroke-linejoin:miter;stroke-opacity:1"
         d="m 203.07853,147.15365 c 0,-0.12851 -0.0265,-0.25928 0,-0.38536 0.076,-0.37758 0.76755,-1.22642 0.96673,-1.47716 0.082,-0.10318 1.42685,-1.67671 1.48237,-1.734 0.62287,-0.64286 1.39559,-1.26679 2.06237,-1.86248 0.81884,-0.73157 1.30931,-1.17925 2.25578,-1.73405 0.28044,-0.16441 0.74381,-0.46771 0.83784,-0.25701 0.26192,0.58738 0.0968,1.36948 0,1.92669 -0.23962,1.38055 -0.69509,2.79746 -1.16012,4.11032 -0.26041,0.73489 -0.56799,1.45217 -0.83785,2.18358 -0.72438,1.96343 -1.36947,3.94008 -1.86905,5.97279 -0.23244,0.94564 -0.79616,2.65255 -0.19313,3.59652 0.0654,0.10243 0.14626,0.20939 0.25776,0.25701 1.46872,0.62725 3.62963,-1.17366 4.57595,-2.05516 1.7399,-1.62073 3.12336,-3.54372 4.51147,-5.459 1.34022,-1.84913 2.62405,-3.74638 3.67366,-5.7801 0.43295,-0.83894 0.7355,-1.62074 1.03117,-2.50473 0.034,-0.0979 0.26684,-0.49576 0.19351,-0.64222 -0.034,-0.0692 -0.14929,0.065 -0.19351,0.1285 -0.15949,0.22942 -0.3171,0.46141 -0.45112,0.70647 -0.47225,0.86275 -1.19301,2.42922 -1.54681,3.27542 -0.3069,0.73409 -1.30965,3.39012 -1.54681,4.11031 -0.56315,1.71023 -1.03004,3.49387 -1.35345,5.26632 -0.17915,0.98279 -0.34961,2.07564 -0.25776,3.08273 0.0189,0.21732 0.0858,0.42814 0.12888,0.64222"
         id="path10490" />
      <path
         style="fill:none;stroke:#000000;stroke-width:0.999999px;stroke-linecap:butt;stroke-linejoin:miter;stroke-opacity:1"
         d="m 101.14053,135.9097 c -1.746063,3.19348 -2.798495,6.71275 -3.738093,10.21153 -0.580623,2.16208 -1.19534,4.31501 -1.74014,6.48658 -0.861411,3.43351 0.07529,-0.0903 -0.773401,2.95427 -0.130848,0.46938 -0.5156,1.61007 -0.5156,2.11937"
         id="path10492" />
      <path
         style="fill:none;stroke:#000000;stroke-width:0.999999px;stroke-linecap:butt;stroke-linejoin:miter;stroke-opacity:1"
         d="m 90.184057,136.10238 c 0.306671,-0.0227 -0.198803,-0.31029 -0.128882,-0.44957 0.131414,-0.26192 0.869469,-0.18368 1.031199,-0.19276 0.215546,-0.0113 0.428802,-0.0548 0.644492,-0.0642 1.454177,-0.0631 2.927327,0 4.382589,0 2.017848,0 4.040935,-0.042 6.058285,0 1.84651,0.0382 3.69833,0.16025 5.5427,0.25701 1.07092,0.0563 2.14944,0.10696 3.22248,0.0643 0.42759,-0.0151 1.20675,-0.20145 1.61126,0"
         id="path10494" />
      <path
         style="fill:none;stroke:#000000;stroke-width:0.999999px;stroke-linecap:butt;stroke-linejoin:miter;stroke-opacity:1"
         d="m 86.768214,157.4888 c 0.171855,-0.10696 0.323452,-0.25738 0.515603,-0.32126 0.06112,-0.0189 1.407689,-0.12737 1.41789,-0.1285 0.280554,-0.034 0.5568,-0.0994 0.83785,-0.1285 0.205417,-0.0227 2.05062,-0.12057 2.19129,-0.12851 1.26567,-0.0699 2.5353,-0.16101 3.802549,-0.19275 2.424219,-0.0605 4.857634,0 7.282824,0 1.97951,0 3.95234,-0.32542 5.9294,-0.12851"
         id="path10496" />
    </pattern>
    <pattern
       patternUnits="userSpaceOnUse"
       width="363.13418"
       height="260.76461"
       patternTransform="translate(263.49151,65.815131)"
       id="pattern1890">
      <rect
         style="fill:url(#pattern1893);stroke:none"
         width="363.13419"
         height="260.76462"
         x="0"
         y="-1.4210855e-14"
         id="rect908" />
    </pattern>
  </defs>
  <sodipodi:namedview
     id="base"
     pagecolor="#ffffff"
     bordercolor="#666666"
     borderopacity="1.0"
     inkscape:pageopacity="0.0"
     inkscape:pageshadow="2"
     inkscape:zoom="1.406257"
     inkscape:cx="374.39814"
     inkscape:cy="179.91022"
     inkscape:document-units="mm"
     inkscape:current-layer="layer1"
     showgrid="false"
     showborder="true"
     width="200mm"
     showguides="true"
     inkscape:guide-bbox="true"
     inkscape:window-width="2160"
     inkscape:window-height="1375"
     inkscape:window-x="0"
     inkscape:window-y="0"
     inkscape:window-maximized="1"
     inkscape:pagecheckerboard="0">
    <inkscape:grid
       type="xygrid"
       id="grid815"
       units="mm"
       spacingx="10"
       spacingy="10"
       empspacing="4"
       dotted="false" />
  </sodipodi:namedview>
  <metadata
     id="metadata5">
    <rdf:RDF>
      <cc:Work
         rdf:about="">
        <dc:format>image/svg+xml</dc:format>
        <dc:type
           rdf:resource="http://purl.org/dc/dcmitype/StillImage" />
      </cc:Work>
    </rdf:RDF>
  </metadata>
  <g
     inkscape:label="Layer 1"
     inkscape:groupmode="layer"
     id="layer1"
     transform="translate(0,-177)">
    <rect
       style="fill:none;stroke:none;stroke-width:0.396875"
       width="144.11888"
       height="103.49096"
       x="64.448883"
       y="185.68404"
       id="rect1895" />
    <rect
       style="fill:url(#pattern1899);stroke:none;stroke-width:0.396874"
       width="144.11888"
       height="103.49096"
       x="64.448883"
       y="185.68404"
       id="rect1897" />
    <rect
       style="fill:#ccff00;fill-opacity:0;stroke:#000000;stroke-width:0.264583;stroke-linejoin:bevel;stroke-dasharray:3.175, 3.175;paint-order:fill markers stroke"
       id="rect901"
       width="17.749256"
       height="110.27953"
       x="78.294601"
       y="181.37314" />
    <text
       xml:space="preserve"
       style="font-size:7.7611px;line-height:1.25;font-family:sans-serif;stroke-width:0.264583"
       x="30.943796"
       y="231.02698"
       id="text4033"><tspan
         sodipodi:role="line"
         id="tspan4031"
         style="stroke-width:0.264583"
         x="30.943796"
         y="231.02698">общий</tspan><tspan
         sodipodi:role="line"
         style="stroke-width:0.264583"
         x="30.943796"
         y="240.72835"
         id="tspan12531">сердечник</tspan></text>
    <path
       style="fill:none;stroke:#000000;stroke-width:0.264583px;stroke-linecap:butt;stroke-linejoin:miter;stroke-opacity:1"
       d="m 61.399504,232.92538 c -0.01336,-0.57122 0.318601,-1.07571 0.651121,-1.51395 0.148416,-0.1956 0.299273,-0.38959 0.458201,-0.57675 0.683334,-0.80474 1.46572,-1.52251 2.242759,-2.23488 0.92924,-0.8519 1.906606,-1.658 2.942111,-2.37906 0.338142,-0.23547 0.689335,-0.45166 1.036973,-0.67287 1.114044,-0.70888 2.254298,-1.38192 3.424426,-1.99457 0.238696,-0.12498 0.482314,-0.24031 0.723471,-0.36047 0.604239,-0.30106 1.208934,-0.60608 1.83279,-0.86511 0.169807,-0.0705 0.337674,-0.14421 0.506428,-0.21628 0.0241,-0.008 0.04823,-0.016 0.07235,-0.024 0.008,-0.008 0.01397,-0.019 0.0241,-0.024 0.0072,-0.004 0.0241,0.008 0.0241,0 0,-0.002 -0.111244,0.003 -0.120581,0 -0.170278,-0.0566 -0.240372,-0.0721 -0.434081,-0.0721 -0.579205,0 -1.156515,0.13455 -1.712214,0.28837 -0.540229,0.14954 0.06225,-0.0215 -0.313502,0.0721 -0.02466,0.006 -0.04743,0.019 -0.07235,0.024 -0.02365,0.005 -0.07235,-0.0241 -0.07235,0 0,0.008 0.01609,0 0.0241,0 0.04019,0 0.08069,0.005 0.120579,0 0.18814,-0.0234 0.513982,-0.1051 0.675237,-0.14419 0.821264,-0.19906 1.615237,-0.49251 2.435683,-0.6969 0.09125,-0.0227 0.411218,-0.0949 0.434083,-0.0721 0.0057,0.006 0,0.016 0,0.024 0,0.26447 -0.188891,0.44244 -0.361735,0.62481 -0.184841,0.19503 -0.255908,0.25114 -0.458198,0.43256 -0.76029,0.68185 0.254453,-0.23582 -0.4582,0.43256 -0.06223,0.0584 -0.132485,0.10799 -0.192921,0.16821 -0.05239,0.0522 -0.09462,0.11378 -0.144698,0.16822 -0.103753,0.11279 -0.219794,0.19773 -0.289385,0.33643"
       id="path14980" />
  </g>
</svg>
