<?xml version="1.0" encoding="UTF-8" standalone="no"?>
<!-- Created with Inkscape (http://www.inkscape.org/) -->

<svg
   width="240mm"
   height="120mm"
   viewBox="0 0 240 120"
   version="1.1"
   id="svg8"
   inkscape:version="1.1.2 (0a00cf5339, 2022-02-04)"
   sodipodi:docname="1730537967.svg"
   xmlns:inkscape="http://www.inkscape.org/namespaces/inkscape"
   xmlns:sodipodi="http://sodipodi.sourceforge.net/DTD/sodipodi-0.dtd"
   xmlns="http://www.w3.org/2000/svg"
   xmlns:svg="http://www.w3.org/2000/svg"
   xmlns:rdf="http://www.w3.org/1999/02/22-rdf-syntax-ns#"
   xmlns:cc="http://creativecommons.org/ns#"
   xmlns:dc="http://purl.org/dc/elements/1.1/">
  <defs
     id="defs2">
    <inkscape:path-effect
       effect="spiro"
       id="path-effect1567"
       is_visible="true"
       lpeversion="1" />
    <marker
       style="overflow:visible"
       id="Arrow1Lstart"
       refX="0.0"
       refY="0.0"
       orient="auto"
       inkscape:stockid="Arrow1Lstart"
       inkscape:isstock="true">
      <path
         transform="scale(0.8) translate(12.5,0)"
         style="fill-rule:evenodd;fill:context-stroke;stroke:context-stroke;stroke-width:1.0pt"
         d="M 0.0,0.0 L 5.0,-5.0 L -12.5,0.0 L 5.0,5.0 L 0.0,0.0 z "
         id="path1057" />
    </marker>
    <marker
       style="overflow:visible;"
       id="Arrow1Lend"
       refX="0.0"
       refY="0.0"
       orient="auto"
       inkscape:stockid="Arrow1Lend"
       inkscape:isstock="true">
      <path
         transform="scale(0.8) rotate(180) translate(12.5,0)"
         style="fill-rule:evenodd;fill:context-stroke;stroke:context-stroke;stroke-width:1.0pt;"
         d="M 0.0,0.0 L 5.0,-5.0 L -12.5,0.0 L 5.0,5.0 L 0.0,0.0 z "
         id="path1060" />
    </marker>
    <inkscape:path-effect
       effect="spiro"
       id="path-effect975"
       is_visible="true"
       lpeversion="1" />
    <inkscape:path-effect
       effect="spiro"
       id="path-effect858"
       is_visible="true"
       lpeversion="1" />
    <inkscape:path-effect
       effect="spiro"
       id="path-effect1567-3"
       is_visible="true"
       lpeversion="1" />
    <inkscape:path-effect
       effect="spiro"
       id="path-effect1567-3-7"
       is_visible="true"
       lpeversion="1" />
  </defs>
  <sodipodi:namedview
     id="base"
     pagecolor="#ffffff"
     bordercolor="#666666"
     borderopacity="1.0"
     inkscape:pageopacity="0.0"
     inkscape:pageshadow="2"
     inkscape:zoom="1.9887478"
     inkscape:cx="325.58176"
     inkscape:cy="261.9739"
     inkscape:document-units="mm"
     inkscape:current-layer="layer1"
     showgrid="false"
     showborder="true"
     width="200mm"
     showguides="true"
     inkscape:guide-bbox="true"
     inkscape:window-width="2160"
     inkscape:window-height="1375"
     inkscape:window-x="0"
     inkscape:window-y="0"
     inkscape:window-maximized="1"
     inkscape:pagecheckerboard="0">
    <inkscape:grid
       type="xygrid"
       id="grid815"
       units="mm"
       spacingx="10"
       spacingy="10"
       empspacing="4"
       dotted="false" />
  </sodipodi:namedview>
  <metadata
     id="metadata5">
    <rdf:RDF>
      <cc:Work
         rdf:about="">
        <dc:format>image/svg+xml</dc:format>
        <dc:type
           rdf:resource="http://purl.org/dc/dcmitype/StillImage" />
      </cc:Work>
    </rdf:RDF>
  </metadata>
  <g
     inkscape:label="Layer 1"
     inkscape:groupmode="layer"
     id="layer1"
     transform="translate(0,-177)">
    <path
       style="fill:none;stroke:#000000;stroke-width:0.264583px;stroke-linecap:butt;stroke-linejoin:miter;stroke-opacity:1;marker-start:url(#Arrow1Lstart)"
       d="m 35.521643,192.29644 v 89.96302"
       id="path856"
       inkscape:path-effect="#path-effect858"
       inkscape:original-d="m 35.521643,192.29644 c 2.64e-4,29.98794 2.64e-4,59.97561 0,89.96302" />
    <path
       style="fill:none;stroke:#000000;stroke-width:0.264583px;stroke-linecap:butt;stroke-linejoin:miter;stroke-opacity:1;marker-end:url(#Arrow1Lend)"
       d="M 27.178345,239.27575 H 213.3745"
       id="path973"
       inkscape:path-effect="#path-effect975"
       inkscape:original-d="m 27.178345,239.27575 c 62.065651,2.7e-4 124.131035,2.7e-4 186.196155,0" />
    <path
       style="fill:none;stroke:#000000;stroke-width:0.264583px;stroke-linecap:butt;stroke-linejoin:miter;stroke-opacity:1"
       d="m 13.426801,191.37908 c -0.01608,-0.0961 -0.04823,-0.19091 -0.04823,-0.28837 0,-0.65696 0.703604,-1.71213 1.06109,-2.21085 0.344708,-0.4809 0.561906,-0.73212 0.964627,-1.15349 0.302473,-0.31648 0.861402,-0.92643 1.350478,-0.96124 0.610393,-0.0435 0.780813,1.14528 0.819934,1.3938 0.0749,0.47583 0.0798,0.96045 0.09646,1.44186 0.04558,1.31716 -0.07604,2.63071 -0.192926,3.94107 -0.02861,0.32075 -0.07902,0.63969 -0.09646,0.96124 -0.01961,0.36148 -0.125859,2.16279 0.578774,2.16279 1.340636,0 2.764826,-1.63691 3.520891,-2.54728 1.473641,-1.7744 2.617508,-3.77023 3.66558,-5.8155 0.412486,-0.80495 0.786113,-1.58998 1.06109,-2.45116 0.06614,-0.20714 0.257024,-0.65767 0.192926,-0.91317 -0.0718,-0.28619 -0.485337,0.36598 -0.627008,0.6248 -0.591913,1.08136 -1.019987,2.13881 -1.398708,3.31628 -0.317943,0.98849 -0.805943,2.99457 -1.01286,3.98914 -0.353461,1.69893 -0.589936,3.4237 -0.81993,5.14263"
       id="path1366" />
    <path
       style="fill:none;stroke:#000000;stroke-width:0.264583px;stroke-linecap:butt;stroke-linejoin:miter;stroke-opacity:1"
       d="m 219.70939,239.75311 c 0.0344,0.24945 -0.005,-0.42774 -0.0965,-0.33644 -0.10132,0.10096 -0.4796,1.1464 -0.48232,1.15349 -0.41342,1.07747 -0.80857,2.15484 -1.25401,3.22015 -0.4568,1.09246 -0.95768,2.16952 -1.39871,3.26821 -0.4475,1.11481 -1.23491,3.01473 -0.14469,4.03721 0.42295,0.39667 0.94238,0.60623 1.49517,0.76898 2.2354,0.65815 4.59496,0.10393 6.80062,-0.38449"
       id="path1368" />
    <path
       style="fill:none;stroke:#000000;stroke-width:0.264583px;stroke-linecap:butt;stroke-linejoin:miter;stroke-opacity:1"
       d="m 214.40394,245.5686 c 1.06388,-0.011 2.12403,-0.15235 3.18327,-0.24031 1.12166,-0.0931 2.25253,-0.12226 3.37619,-0.19225"
       id="path1370" />
    <path
       style="fill:none;stroke:#000000;stroke-width:0.264583px;stroke-linecap:butt;stroke-linejoin:miter;stroke-opacity:1"
       d="m 35.605386,239.26193 c 10.028627,0.25357 20.027924,1.64967 29.74249,4.15264 7.81607,2.01382 15.520778,4.77865 22.30483,9.15164 6.827998,4.40132 12.561764,10.32219 19.304704,14.85275 10.61919,7.135 23.27336,10.52698 35.78961,13.17629 13.42976,2.84267 27.01144,4.96651 40.66717,6.36662 17.60155,1.80468 35.32636,2.40628 53.00977,1.79921"
       id="path1565-6"
       inkscape:path-effect="#path-effect1567-3"
       inkscape:original-d="m 35.605386,239.26193 c 9.9139,1.38447 22.3078,1.10183 29.74249,4.15264 7.43468,3.05082 15.8702,4.20046 22.30483,9.15164 6.43464,4.95119 7.37509,10.46038 19.304704,14.85275 11.9296,4.39236 22.23415,11.05382 35.78961,13.17629 13.55546,2.12247 27.11171,4.24468 40.66717,6.36662 13.55546,2.12194 35.34011,1.19974 53.00977,1.79921" />
    <path
       style="fill:none;stroke:#000000;stroke-width:0.264583px;stroke-linecap:butt;stroke-linejoin:miter;stroke-opacity:1"
       d="m 35.605386,239.26193 c 10.028627,-0.25357 20.027924,-1.64967 29.74249,-4.15264 7.81607,-2.01382 15.520778,-4.77865 22.30483,-9.15164 6.827998,-4.40132 12.561764,-10.32219 19.304704,-14.85275 10.61919,-7.135 23.27336,-10.52698 35.78961,-13.17629 13.42976,-2.84267 27.01144,-4.96651 40.66717,-6.36662 17.60155,-1.80468 35.32636,-2.40628 53.00977,-1.79921"
       id="path1565-6-5"
       inkscape:path-effect="#path-effect1567-3-7"
       inkscape:original-d="m 35.605386,239.26193 c 9.9139,-1.38447 22.3078,-1.10183 29.74249,-4.15264 7.43468,-3.05082 15.8702,-4.20046 22.30483,-9.15164 6.43464,-4.95119 7.37509,-10.46038 19.304704,-14.85275 11.9296,-4.39236 22.23415,-11.05382 35.78961,-13.17629 13.55546,-2.12247 27.11171,-4.24468 40.66717,-6.36662 13.55546,-2.12194 35.34011,-1.19974 53.00977,-1.79921" />
    <path
       style="fill:none;stroke:#000000;stroke-width:0.264583px;stroke-linecap:butt;stroke-linejoin:miter;stroke-opacity:1"
       d="m 51.554951,239.93556 c -0.119856,0.44582 -0.09646,0.89296 -0.09646,1.34573 0,0.0641 -0.06408,0.19225 0,0.19225 0.06408,0 -0.02032,-0.13148 0,-0.19225 0.02275,-0.068 0.05948,-0.13082 0.09646,-0.19224 0.220414,-0.36607 0.226359,-0.32169 0.578776,-0.67287 1.504955,-1.49967 2.83169,-3.48114 5.208987,-2.69147 1.286899,0.42747 2.081765,0.90392 2.990342,1.92248 0.256561,0.28761 0.580199,0.73023 0.771702,1.05736 0.775713,1.32512 1.105826,2.81786 2.89388,2.97984 0.422037,0.0382 0.584176,0.0184 0.964629,-0.19225 0.79095,-0.43787 1.142399,-1.26381 1.543402,-2.0186 0.309806,-0.58313 0.668491,-1.14004 0.964625,-1.73023 0.173736,-0.34624 0.308581,-0.71111 0.482315,-1.05736 0.557535,-1.11115 1.274884,-2.11875 1.929254,-3.17209 0.548267,-0.88255 1.008047,-1.80234 1.543405,-2.69147 0.721952,-1.19903 1.675926,-2.96786 3.376194,-2.40309 0.82287,0.27332 1.292622,1.09586 1.639864,1.82635 1.195956,2.51594 1.662956,5.65504 2.315104,8.36277 0.27188,1.12885 0.581284,2.30186 1.06109,3.36434 0.446484,0.9887 1.40172,2.38057 2.411569,2.88372 2.179857,1.0861 4.409828,0.27028 5.884224,-1.53798 0.599356,-0.73508 0.802093,-1.18722 1.254014,-2.0186 0.668586,-1.22999 1.232403,-2.44323 1.736331,-3.74884 0.347244,-0.89967 0.728072,-1.78643 1.061088,-2.69146 0.393893,-1.07049 0.639831,-1.97555 0.964628,-3.07597 0.502441,-1.7023 0.938146,-3.42436 1.543405,-5.09457 0.615807,-1.69933 1.409623,-3.28996 2.218642,-4.90232 1.630452,-3.24945 3.274599,-5.46943 5.980679,-7.88216 1.29562,-1.15515 3.56709,-3.10291 5.49838,-2.40309 1.69641,0.61471 2.22654,3.87327 2.41156,5.28681 0.46562,3.55721 0.30494,7.194 0.19293,10.76588 -0.16402,5.23023 -0.34038,10.44438 0.0965,15.66819 0.32426,3.8775 0.91407,7.78738 2.3151,11.43874 0.91345,2.38064 2.30579,4.67266 4.05143,6.53643 0.72563,0.77473 1.89986,2.00696 3.08681,1.92248 1.44264,-0.10269 2.92681,-2.39372 3.56911,-3.46046 0.61704,-1.02478 1.33079,-2.55918 1.73634,-3.65271 0.29255,-0.78882 0.50002,-1.60685 0.77169,-2.4031 0.27504,-0.80608 0.59798,-1.59539 0.86817,-2.40309 0.3888,-1.16232 1.38995,-4.52076 1.73634,-5.67131 0.89449,-2.97117 1.74171,-5.93279 2.50802,-8.93952 1.03476,-4.06009 0.47131,-1.95892 1.73633,-6.05581 1.2e-4,-2.6e-4 1.92913,-6.34381 1.92926,-6.34418 0.32976,-1.00148 0.72177,-1.98155 1.06109,-2.97983 0.86839,-2.55483 0.96299,-3.11945 1.83278,-5.5752 0.73938,-2.08755 1.50978,-4.18449 2.31511,-6.24805 1.1979,-3.06949 2.59607,-7.14656 5.59484,-8.93952 0.16077,-0.0961 0.30831,-0.21901 0.48231,-0.28837 0.67775,-0.27015 1.77343,-0.10125 2.41157,0.19225 0.4581,0.21069 0.82336,0.60261 1.15755,0.96123 1.75422,1.88252 2.56672,4.30109 3.27973,6.72868 0.88728,3.02089 1.43329,6.37709 1.63986,9.51626 0.0674,1.02361 0.0648,2.05063 0.0965,3.07597 0.009,0.28757 0.18961,6.2089 0.19293,6.4403 0.0165,1.15337 -0.0161,2.30709 0,3.46046 0.0161,1.15382 0.0806,2.30663 0.0965,3.46046 0.0163,1.18541 -0.0161,2.37116 0,3.55658 0.0161,1.18586 0.0804,2.37073 0.0965,3.55659 0.0161,1.18541 -0.0158,2.37116 0,3.55658 0.003,0.24374 0.18467,6.90885 0.19293,7.20929 0.11134,4.04971 0.31426,8.08518 0.77169,12.11161 0.23712,2.08711 0.52105,4.11894 1.0611,6.15193 0.25152,0.94685 0.61488,2.18671 1.06109,3.07597 0.25365,0.50552 1.2187,1.91775 1.54339,2.40309 0.70813,1.05846 1.4015,2.12247 2.12219,3.17209 0.95088,1.38486 2.9956,4.34696 5.01606,4.03721 1.35398,-0.20758 2.41713,-1.3741 3.18327,-2.4031 1.37891,-1.85199 1.34469,-1.96278 2.41157,-4.13333 0.3922,-0.79794 0.81566,-1.58234 1.15755,-2.4031 0.36647,-0.87976 0.63413,-1.79757 0.96463,-2.69147 0.71429,-1.932 1.52938,-3.82636 2.21864,-5.76743 0.65296,-1.83884 1.52805,-4.75328 2.02571,-6.63255 0.9342,-3.5277 1.60261,-7.11338 2.41157,-10.66975 1.06831,-4.69653 2.14261,-9.38654 2.99035,-14.13021 0.6218,-3.47941 1.04877,-6.99247 1.63986,-10.47751 0.54773,-3.22936 1.27549,-6.40512 1.92926,-9.61239 1.08849,-5.33992 1.9326,-10.76302 3.95496,-15.86043 0.21427,-0.5401 1.3405,-2.94132 1.63987,-3.55659 1.14043,-2.34387 2.51055,-4.86539 4.82313,-6.24805 0.76637,-0.45821 1.77863,-0.91618 2.70097,-0.86512 1.70494,0.0944 2.79529,1.69225 3.47265,3.07597 1.25316,2.55995 1.61259,5.16949 1.83279,7.97828 0.26311,3.35604 0.33503,6.7278 0.28939,10.09301 -0.0513,3.78055 -0.19799,7.56274 -0.28939,11.34261 -0.1309,5.41359 -0.19188,10.83327 -0.38585,16.24494 -0.18435,5.14358 -0.22555,2.85615 -0.28938,7.88216 -0.0159,1.24951 0.0165,2.49933 0,3.74884 -0.0157,1.18586 -0.0804,2.37073 -0.0965,3.55658 -0.0735,5.41686 0.0242,10.83959 0.38585,16.24494 0.0358,0.53563 0.32596,4.7622 0.38585,5.38294 0.0775,0.80309 0.20551,1.60065 0.28939,2.40309 0.27545,2.63511 0.52381,5.28168 1.06109,7.88216 0.10694,0.51762 0.26904,1.0225 0.38585,1.53798 0.28854,1.27332 0.23387,1.41698 0.57877,2.59535 0.23252,0.79441 0.49891,1.43417 0.77171,2.21085 0.2906,0.82738 0.56895,1.66746 1.06108,2.40309 0.38187,0.57081 1.18724,0.22552 1.63986,0 1.68872,-0.84139 2.63156,-2.32175 3.66559,-3.84494 1.80816,-2.66353 3.53431,-5.40332 4.82313,-8.36278 0.79382,-1.82283 1.34529,-3.51832 2.02573,-5.38294 0.8411,-2.30489 1.21331,-3.05099 1.83279,-5.47907 0.23461,-0.91955 0.38585,-1.85839 0.57877,-2.78759"
       id="path1971" />
  </g>
</svg>
