<?xml version="1.0" encoding="UTF-8" standalone="no"?>
<!-- Created with Inkscape (http://www.inkscape.org/) -->

<svg
   width="240mm"
   height="120mm"
   viewBox="0 0 240 120"
   version="1.1"
   id="svg8"
   inkscape:version="1.1.2 (0a00cf5339, 2022-02-04)"
   sodipodi:docname="1731664915.svg"
   xmlns:inkscape="http://www.inkscape.org/namespaces/inkscape"
   xmlns:sodipodi="http://sodipodi.sourceforge.net/DTD/sodipodi-0.dtd"
   xmlns="http://www.w3.org/2000/svg"
   xmlns:svg="http://www.w3.org/2000/svg"
   xmlns:rdf="http://www.w3.org/1999/02/22-rdf-syntax-ns#"
   xmlns:cc="http://creativecommons.org/ns#"
   xmlns:dc="http://purl.org/dc/elements/1.1/">
  <defs
     id="defs2">
    <marker
       style="overflow:visible;"
       id="marker1740"
       refX="0.0"
       refY="0.0"
       orient="auto"
       inkscape:stockid="Arrow1Lend"
       inkscape:isstock="true">
      <path
         transform="scale(0.8) rotate(180) translate(12.5,0)"
         style="fill-rule:evenodd;fill:context-stroke;stroke:context-stroke;stroke-width:1.0pt;"
         d="M 0.0,0.0 L 5.0,-5.0 L -12.5,0.0 L 5.0,5.0 L 0.0,0.0 z "
         id="path1738" />
    </marker>
    <marker
       style="overflow:visible;"
       id="Arrow1Lend"
       refX="0.0"
       refY="0.0"
       orient="auto"
       inkscape:stockid="Arrow1Lend"
       inkscape:isstock="true">
      <path
         transform="scale(0.8) rotate(180) translate(12.5,0)"
         style="fill-rule:evenodd;fill:context-stroke;stroke:context-stroke;stroke-width:1.0pt;"
         d="M 0.0,0.0 L 5.0,-5.0 L -12.5,0.0 L 5.0,5.0 L 0.0,0.0 z "
         id="path1473" />
    </marker>
    <inkscape:path-effect
       effect="spiro"
       id="path-effect1388"
       is_visible="true"
       lpeversion="1" />
    <inkscape:path-effect
       effect="spiro"
       id="path-effect1271"
       is_visible="true"
       lpeversion="1" />
    <inkscape:path-effect
       effect="spiro"
       id="path-effect975"
       is_visible="true"
       lpeversion="1" />
  </defs>
  <sodipodi:namedview
     id="base"
     pagecolor="#ffffff"
     bordercolor="#666666"
     borderopacity="1.0"
     inkscape:pageopacity="0.0"
     inkscape:pageshadow="2"
     inkscape:zoom="7.954991"
     inkscape:cx="506.16022"
     inkscape:cy="233.68977"
     inkscape:document-units="mm"
     inkscape:current-layer="layer1"
     showgrid="false"
     showborder="true"
     width="200mm"
     showguides="true"
     inkscape:guide-bbox="true"
     inkscape:window-width="2160"
     inkscape:window-height="1375"
     inkscape:window-x="0"
     inkscape:window-y="0"
     inkscape:window-maximized="1"
     inkscape:pagecheckerboard="0">
    <inkscape:grid
       type="xygrid"
       id="grid815"
       units="mm"
       spacingx="10"
       spacingy="10"
       empspacing="4"
       dotted="false" />
  </sodipodi:namedview>
  <metadata
     id="metadata5">
    <rdf:RDF>
      <cc:Work
         rdf:about="">
        <dc:format>image/svg+xml</dc:format>
        <dc:type
           rdf:resource="http://purl.org/dc/dcmitype/StillImage" />
      </cc:Work>
    </rdf:RDF>
  </metadata>
  <g
     inkscape:label="Layer 1"
     inkscape:groupmode="layer"
     id="layer1"
     transform="translate(0,-177)">
    <path
       style="fill:none;stroke:#000000;stroke-width:0.264583px;stroke-linecap:butt;stroke-linejoin:miter;stroke-opacity:1;marker-end:url(#marker1740)"
       d="M 76.496975,243.1349 V 200.64813"
       id="path973"
       inkscape:path-effect="#path-effect975"
       inkscape:original-d="m 76.496975,243.1349 c 2.65e-4,-14.16199 2.65e-4,-28.32425 0,-42.48677" />
    <path
       style="fill:none;stroke:#000000;stroke-width:0.264583px;stroke-linecap:butt;stroke-linejoin:miter;stroke-opacity:1;marker-end:url(#marker1740)"
       d="M 76.496975,243.1349 H 156.27162"
       id="path1269"
       inkscape:path-effect="#path-effect1271"
       inkscape:original-d="m 76.496975,243.1349 c 26.591815,2.6e-4 53.183365,2.6e-4 79.774645,0" />
    <path
       style="fill:none;stroke:#000000;stroke-width:0.264583px;stroke-linecap:butt;stroke-linejoin:miter;stroke-opacity:1;marker-end:url(#Arrow1Lend)"
       d="M 76.496975,243.1349 59.423082,263.89766"
       id="path1386"
       inkscape:path-effect="#path-effect1388"
       inkscape:original-d="m 76.496975,243.1349 c -5.691034,6.92118 -17.073893,20.76276 -17.073893,20.76276" />
    <path
       style="fill:none;stroke:#000000;stroke-width:0.264583px;stroke-linecap:butt;stroke-linejoin:miter;stroke-opacity:1"
       d="m 82.426989,200.55952 c -0.114176,0.10386 -0.08847,-0.19225 -0.16881,-0.19225 -0.05664,0 0.01918,0.11179 0.0241,0.16822 0.01185,0.1359 0.01791,0.27226 0.02413,0.40853 0.01569,0.34401 0.03983,1.12792 0.04823,1.44186 0.04035,1.50776 0.07134,3.01235 0.168809,4.51782 0.129387,1.99846 -0.02738,-0.45403 0.09646,1.27364 0.02334,0.32565 0.01685,0.64398 0.09646,0.96124"
       id="path1781" />
    <path
       style="fill:none;stroke:#000000;stroke-width:0.264583px;stroke-linecap:butt;stroke-linejoin:miter;stroke-opacity:1"
       d="m 82.426989,200.55952 c -0.176848,-0.016 -0.354589,-0.0241 -0.530545,-0.0481 -0.108924,-0.0148 0.188719,-0.22166 0.361735,-0.3124 0.363863,-0.19084 0.763244,-0.30233 1.157555,-0.40853 0.486648,-0.13106 0.978284,-0.20902 1.471054,-0.3124 0.7063,-0.14817 1.40253,-0.36085 2.122181,-0.43256"
       id="path1783" />
    <path
       style="fill:none;stroke:#000000;stroke-width:0.264583px;stroke-linecap:butt;stroke-linejoin:miter;stroke-opacity:1"
       d="m 82.619915,203.94789 c -0.01252,0.0944 -0.249724,-0.0155 -0.192926,-0.0721 0.155652,-0.15511 1.618477,-0.54561 1.856907,-0.62481 0.75597,-0.2511 2.47955,-0.98995 3.255618,-0.76899"
       id="path1785" />
    <path
       style="fill:none;stroke:#000000;stroke-width:0.264583px;stroke-linecap:butt;stroke-linejoin:miter;stroke-opacity:1"
       d="m 82.716366,209.13858 c 0.008,-0.14419 -0.04064,-0.30349 0.02413,-0.43256 0.0021,-0.004 1.043866,-0.4149 1.085207,-0.43256 1.610585,-0.68782 3.273875,-1.32174 4.991944,-1.68216"
       id="path1787" />
    <path
       style="fill:none;stroke:#000000;stroke-width:0.264583px;stroke-linecap:butt;stroke-linejoin:miter;stroke-opacity:1"
       d="m 80.280694,199.09363 c 0.02413,-0.0561 0.02569,-0.12887 0.07235,-0.16821 0.114115,-0.0962 0.782756,-0.33641 0.916395,-0.3845 0.714838,-0.25723 1.434534,-0.46161 2.170411,-0.64884 0.888381,-0.22602 1.763573,-0.49015 2.628609,-0.79302 0.368324,-0.12896 1.170824,-0.3861 1.422824,-0.72093 0.145158,-0.19286 -0.42244,-0.16983 -0.458198,-0.16821 -0.532746,0.0241 -1.042493,0.1175 -1.567519,0.19224 -0.08479,-0.006 -0.160006,0.0365 -0.241157,0.0481 -0.03183,0.005 -0.09646,-0.0322 -0.09646,0 0,0.0489 0.09646,-0.016 0.144696,-0.024 0.353745,-0.0588 0.333123,-0.049 0.723469,-0.0961 0.49772,-0.0601 0.993634,-0.0961 1.495171,-0.0961 0.490989,0 1.00889,0.006 0.482314,0.60077 -0.105273,0.11889 -0.34003,0.33163 -0.458198,0.43256 -0.303022,0.25882 -0.665511,0.48052 -0.916395,0.79302"
       id="path1789" />
    <path
       style="fill:none;stroke:#000000;stroke-width:0.264583px;stroke-linecap:butt;stroke-linejoin:miter;stroke-opacity:1"
       d="m 72.902621,258.58736 c 0.08525,3.71631 0.265272,7.43245 0.265272,11.15037"
       id="path1791" />
    <path
       style="fill:none;stroke:#000000;stroke-width:0.264583px;stroke-linecap:butt;stroke-linejoin:miter;stroke-opacity:1"
       d="m 73.216123,263.46564 c 0.141023,-0.0641 -0.246176,-0.019 -0.192923,-0.0721 0.08305,-0.0828 0.08811,0.0721 0.192923,0.0721 0.101645,0 0.18876,-0.0818 0.289391,-0.0961 0.127334,-0.0181 0.257233,0 0.38585,0 0.490754,0 0.980982,-0.01 1.471057,0.024 0.651563,0.0453 1.299935,0.15013 1.953368,0.16822 0.489953,0.0136 0.961348,-0.0521 1.44694,-0.0961"
       id="path1793" />
    <path
       style="fill:none;stroke:#000000;stroke-width:0.264583px;stroke-linecap:butt;stroke-linejoin:miter;stroke-opacity:1"
       d="m 79.245044,258.8517 c -0.01609,-0.0481 -0.03215,-0.0961 -0.04823,-0.14419 0,-0.008 -0.0026,-0.0316 0,-0.024 0.09796,0.29283 0.03389,0.93826 0.02413,1.22557 -0.0301,0.88503 -0.140629,1.76234 -0.21704,2.64341 -0.108681,1.25318 -0.197914,2.5148 -0.217041,3.77286 -0.01328,0.87395 0.0241,1.7466 0.0241,2.61938"
       id="path1795" />
    <path
       style="fill:none;stroke:#000000;stroke-width:0.264583px;stroke-linecap:butt;stroke-linejoin:miter;stroke-opacity:1"
       d="m 71.865648,256.73697 c -0.03774,0.0734 -0.194456,-0.17947 -0.120579,-0.21628 0.299397,-0.14917 0.818732,-0.0409 1.133436,-0.0481 0.201072,-0.005 0.401928,-0.016 0.602892,-0.024 0.217041,0 0.434115,0.004 0.651124,0 1.223587,-0.0214 2.447338,-0.13382 3.665583,-0.24031 0.577836,-0.0505 1.160941,-0.0447 1.736328,-0.12016 0.127902,-0.0168 1.839886,-0.2502 1.712211,-0.50465 -0.0523,-0.10423 -0.35873,-0.19016 -0.434081,-0.21628 -0.716237,-0.24825 -1.482817,-0.26961 -2.218642,-0.43256 -0.06965,-0.0154 -0.578776,-0.10763 -0.578776,-0.24031 0,-0.10572 0.208253,-0.0581 0.313505,-0.0481 0.374663,0.0356 0.745336,0.12561 1.109321,0.21628 0.871667,0.21715 1.84749,0.59968 2.67684,0.96124 0.09358,0.0408 0.311211,0.10874 0.337619,0.24031 0.02249,0.1121 -0.118436,0.18588 -0.192927,0.24031 -0.537757,0.39297 -1.117108,0.71272 -1.639866,1.12946"
       id="path1797" />
    <path
       style="fill:none;stroke:#000000;stroke-width:0.264583px;stroke-linecap:butt;stroke-linejoin:miter;stroke-opacity:1"
       d="m 148.22573,226.42537 c 0.40255,2.82674 0.2858,5.69952 0.65113,8.53099 0.11506,0.89182 0.2964,1.78747 0.48231,2.66744 0.0712,0.33686 0.16881,0.66167 0.16881,1.0093"
       id="path1799" />
    <path
       style="fill:none;stroke:#000000;stroke-width:0.264583px;stroke-linecap:butt;stroke-linejoin:miter;stroke-opacity:1"
       d="m 148.87686,235.36489 c 0.82209,-1.08341 1.67592,-2.15158 2.60449,-3.14806 0.23611,-0.25338 0.47345,-0.50636 0.69935,-0.76899 0.018,-0.0209 0.24116,-0.3568 0.24116,-0.21628"
       id="path1801" />
    <path
       style="fill:none;stroke:#000000;stroke-width:0.264583px;stroke-linecap:butt;stroke-linejoin:miter;stroke-opacity:1"
       d="m 149.45563,234.74008 c -0.0134,-0.0801 -0.0616,-0.12731 0,-0.16821 0.25756,-0.1711 0.95062,0.15949 1.15755,0.28837 0.59822,0.37257 1.0959,0.87576 1.59164,1.36976 0.57525,0.57324 1.12811,1.16804 1.66398,1.77829"
       id="path1803" />
    <path
       style="fill:none;stroke:#000000;stroke-width:0.264583px;stroke-linecap:butt;stroke-linejoin:miter;stroke-opacity:1"
       d="m 144.5294,225.41229 c 7.9e-4,-0.002 -0.22582,-0.0721 -0.19293,-0.0721 0.0687,0 0.12503,0.0822 0.19293,0.0721 0.12838,-0.0192 0.23536,-0.11455 0.36174,-0.14418 0.33101,-0.0776 0.67547,-0.0781 1.01285,-0.12016 1.78038,-0.22176 3.54419,-0.59594 5.30545,-0.93721 0.51755,-0.10028 1.02998,-0.19433 1.5434,-0.3124 0.10161,-0.0234 0.21123,-0.0517 0.31351,-0.0721 0.002,-5.3e-4 0.0896,0.007 0.0965,0 0.0455,-0.0453 -0.19369,-0.10841 -0.36174,-0.16822 -0.4197,-0.14937 -0.85963,-0.23285 -1.27813,-0.38449 -0.0953,-0.0345 -0.1955,-0.0587 -0.28938,-0.0961 -0.0334,-0.0133 -0.12191,-0.0734 -0.0965,-0.0481 0.0629,0.0626 0.39448,0.0823 0.4582,0.0961 0.67892,0.14708 1.36678,0.25688 2.04983,0.3845 0.0802,0.015 0.48193,0.0267 0.4582,0.19225 -0.035,0.24384 -0.38864,0.4713 -0.55466,0.60077 -0.35722,0.27859 -0.72725,0.53962 -1.0852,0.81705"
       id="path1805" />
  </g>
</svg>
