<?xml version="1.0" encoding="UTF-8" standalone="no"?>
<!-- Created with Inkscape (http://www.inkscape.org/) -->

<svg
   width="240mm"
   height="120mm"
   viewBox="0 0 240 120"
   version="1.1"
   id="svg8"
   inkscape:version="1.1.2 (0a00cf5339, 2022-02-04)"
   sodipodi:docname="1731753431.svg"
   xmlns:inkscape="http://www.inkscape.org/namespaces/inkscape"
   xmlns:sodipodi="http://sodipodi.sourceforge.net/DTD/sodipodi-0.dtd"
   xmlns="http://www.w3.org/2000/svg"
   xmlns:svg="http://www.w3.org/2000/svg"
   xmlns:rdf="http://www.w3.org/1999/02/22-rdf-syntax-ns#"
   xmlns:cc="http://creativecommons.org/ns#"
   xmlns:dc="http://purl.org/dc/elements/1.1/">
  <defs
     id="defs2">
    <marker
       style="overflow:visible;"
       id="Arrow1Lend"
       refX="0.0"
       refY="0.0"
       orient="auto"
       inkscape:stockid="Arrow1Lend"
       inkscape:isstock="true">
      <path
         transform="scale(0.8) rotate(180) translate(12.5,0)"
         style="fill-rule:evenodd;fill:context-stroke;stroke:context-stroke;stroke-width:1.0pt;"
         d="M 0.0,0.0 L 5.0,-5.0 L -12.5,0.0 L 5.0,5.0 L 0.0,0.0 z "
         id="path1258" />
    </marker>
    <marker
       style="overflow:visible"
       id="Arrow1Lstart"
       refX="0.0"
       refY="0.0"
       orient="auto"
       inkscape:stockid="Arrow1Lstart"
       inkscape:isstock="true">
      <path
         transform="scale(0.8) translate(12.5,0)"
         style="fill-rule:evenodd;fill:context-stroke;stroke:context-stroke;stroke-width:1.0pt"
         d="M 0.0,0.0 L 5.0,-5.0 L -12.5,0.0 L 5.0,5.0 L 0.0,0.0 z "
         id="path1255" />
    </marker>
    <inkscape:path-effect
       effect="spiro"
       id="path-effect1008"
       is_visible="true"
       lpeversion="1" />
    <inkscape:path-effect
       effect="spiro"
       id="path-effect891"
       is_visible="true"
       lpeversion="1" />
  </defs>
  <sodipodi:namedview
     id="base"
     pagecolor="#ffffff"
     bordercolor="#666666"
     borderopacity="1.0"
     inkscape:pageopacity="0.0"
     inkscape:pageshadow="2"
     inkscape:zoom="11.250056"
     inkscape:cx="534.44177"
     inkscape:cy="231.02107"
     inkscape:document-units="mm"
     inkscape:current-layer="layer1"
     showgrid="false"
     showborder="true"
     width="200mm"
     showguides="true"
     inkscape:guide-bbox="true"
     inkscape:window-width="2160"
     inkscape:window-height="1375"
     inkscape:window-x="0"
     inkscape:window-y="0"
     inkscape:window-maximized="1"
     inkscape:pagecheckerboard="0">
    <inkscape:grid
       type="xygrid"
       id="grid815"
       units="mm"
       spacingx="10"
       spacingy="10"
       empspacing="4"
       dotted="false" />
  </sodipodi:namedview>
  <metadata
     id="metadata5">
    <rdf:RDF>
      <cc:Work
         rdf:about="">
        <dc:format>image/svg+xml</dc:format>
        <dc:type
           rdf:resource="http://purl.org/dc/dcmitype/StillImage" />
      </cc:Work>
    </rdf:RDF>
  </metadata>
  <g
     inkscape:label="Layer 1"
     inkscape:groupmode="layer"
     id="layer1"
     transform="translate(0,-177)">
    <path
       style="fill:none;stroke:#000000;stroke-width:0.264583px;stroke-linecap:butt;stroke-linejoin:miter;stroke-opacity:1;marker-start:url(#Arrow1Lstart)"
       d="m 120.68371,192.2657 v 92.66342"
       id="path889"
       inkscape:path-effect="#path-effect891"
       inkscape:original-d="m 120.68371,192.2657 c 2.6e-4,30.88807 2.6e-4,61.77588 0,92.66342" />
    <path
       style="fill:none;stroke:#000000;stroke-width:0.264583px;stroke-linecap:butt;stroke-linejoin:miter;stroke-opacity:1;marker-end:url(#Arrow1Lend)"
       d="M 44.065433,240.67613 H 195.99418"
       id="path1006"
       inkscape:path-effect="#path-effect1008"
       inkscape:original-d="m 44.065433,240.67613 c 50.643181,2.6e-4 101.286097,2.6e-4 151.928747,0" />
    <path
       style="fill:none;stroke:#000000;stroke-width:0.264583px;stroke-linecap:butt;stroke-linejoin:miter;stroke-opacity:1"
       d="m 199.5221,248.30513 c -0.50581,-0.77153 -1.55727,-0.98556 -2.42143,-0.98556 -0.45334,0 -0.75998,0.0316 -1.19367,0.13593 -1.37266,0.33017 -1.83809,1.42364 -0.81851,2.51489 0.95533,1.02249 2.31307,1.63226 3.47868,2.37894 0.21252,0.13614 0.93443,0.49491 0.78441,0.88361 -0.18163,0.47058 -1.02419,0.78826 -1.3983,0.9176 -1.49647,0.51735 -3.11932,0.19934 -4.63824,0.57774"
       id="path1156" />
    <path
       style="fill:none;stroke:#000000;stroke-width:0.264583px;stroke-linecap:butt;stroke-linejoin:miter;stroke-opacity:1"
       d="m 135.41678,189.84489 c -0.93438,-0.167 -2.27908,0.43343 -3.20584,0.67969 -0.28333,0.0753 -1.24505,0.31901 -1.53472,0.40782 -0.16403,0.0503 -1.51362,0.45322 -1.56882,0.64572 -0.0877,0.30596 0.68331,0.61233 0.7503,0.64571 1.30974,0.65257 2.73821,1.01827 4.09257,1.56331 0.74414,0.29946 2.09306,0.75157 2.38733,1.63127 0.51627,1.54337 -3.61465,2.2924 -4.57003,2.37895 -0.45987,0.0417 -1.39184,0.17634 -1.77345,-0.20391"
       id="path1158" />
    <path
       style="fill:none;stroke:#000000;stroke-width:0.264583px;stroke-linecap:butt;stroke-linejoin:miter;stroke-opacity:1"
       d="m 132.27914,187.80579 c -0.0301,-0.31884 -0.26654,-0.46748 -0.57978,-0.37383 -0.50253,0.15023 -1.3963,1.46135 -0.40925,1.46135 0.98085,0 2.17321,-1.40887 1.05724,-1.63128"
       id="path1160" />
    <path
       style="fill:none;stroke:#000000;stroke-width:0.264583px;stroke-linecap:butt;stroke-linejoin:miter;stroke-opacity:1"
       d="m 79.307583,239.32644 c -0.498186,0.8295 -0.323273,-0.2896 -0.477464,-0.13594 -0.167487,0.16691 -0.272839,1.63844 -0.272839,1.90315"
       id="path1564" />
    <path
       style="fill:none;stroke:#000000;stroke-width:0.264583px;stroke-linecap:butt;stroke-linejoin:miter;stroke-opacity:1"
       d="m 163.81906,240.00614 c -0.55316,-1.6646 -0.47746,1.42985 -0.47746,1.83519"
       id="path1566" />
    <path
       style="fill:none;stroke:#000000;stroke-width:0.264583px;stroke-linecap:butt;stroke-linejoin:miter;stroke-opacity:1"
       d="m 95.882475,239.59832 c -0.733126,-0.32044 -2.244066,0.0407 -2.455543,0.88361 -0.188378,0.75083 1.385692,1.07833 1.841659,0.8836 0.39669,-0.16941 0.65014,-0.73906 0.545671,-1.15548 -0.02469,-0.0983 -0.164364,-0.17441 -0.136419,-0.27188 0.03645,-0.12711 0.318127,-0.27199 0.204632,-0.33985 -0.160888,-0.0962 -0.363784,0.0906 -0.545677,0.13594"
       id="path1568" />
    <path
       style="fill:none;stroke:#000000;stroke-width:0.264583px;stroke-linecap:butt;stroke-linejoin:miter;stroke-opacity:1"
       d="m 135.58036,240.5499 c -0.0682,-0.3372 -0.17616,-0.9318 -0.6821,-0.6797 -0.87433,0.43566 -0.96458,2.13293 0.54568,1.63128 1.67267,-0.55561 1.69989,-2.28657 -0.47746,-1.56331"
       id="path1570" />
    <ellipse
       style="fill:#ccff00;fill-opacity:0;stroke:#000000;stroke-width:0.26458299;stroke-linejoin:bevel;stroke-dasharray:none;paint-order:fill markers stroke;stroke-miterlimit:4"
       id="path1594"
       cx="114.94621"
       cy="240.79163"
       rx="20.527992"
       ry="12.583576" />
    <path
       style="fill:none;stroke:#000000;stroke-width:0.264583px;stroke-linecap:butt;stroke-linejoin:miter;stroke-opacity:1"
       d="m 71.566052,236.67392 c 0.642999,-0.12621 1.301734,-0.0617 1.943971,-0.20391"
       id="path1709" />
    <path
       style="fill:none;stroke:#000000;stroke-width:0.264583px;stroke-linecap:butt;stroke-linejoin:miter;stroke-opacity:1"
       d="m 74.584321,235.8073 c 0.0854,-0.11548 -0.08572,-0.0693 -0.102314,-0.11894 -0.06729,-0.20114 0.0547,-0.66362 0.08526,-0.86662 0.03734,-0.24804 0.05116,-0.4974 0.05116,-0.74767 0,-0.0421 0.01545,-0.50977 -0.01707,-0.50977 -0.0417,0 -0.0072,0.67811 0,0.74767 0.07656,0.73745 0.375288,1.43025 0.409258,2.17503 0.03109,0.68158 -0.218972,0.93745 -0.886722,1.07053 -0.119904,0.0239 -0.252881,0.051 -0.37515,0.051 -0.04547,0 -0.09095,0 -0.13642,0 -0.01138,0 -0.04489,-0.004 -0.0341,0 0.236654,0.0786 0.711655,-0.0225 0.954931,-0.051 0.443728,-0.052 0.890622,-0.12282 1.330084,-0.20391 0.290743,-0.0537 0.553681,-0.13594 0.852618,-0.13594"
       id="path1711" />
    <path
       style="fill:none;stroke:#000000;stroke-width:0.264583px;stroke-linecap:butt;stroke-linejoin:miter;stroke-opacity:1"
       d="m 90.545326,234.29498 c -0.01027,-0.14137 0.03403,-0.31447 -0.05116,-0.44181 -0.468093,-0.69968 -2.800824,0.31358 -2.370278,1.25744 0.253447,0.55562 1.429618,0.91219 1.961021,1.15549 0.212822,0.0974 0.59247,0.25673 0.682093,0.50978 0.132768,0.37485 -0.391626,0.64917 -0.630934,0.78165 -0.790204,0.43746 -2.248812,0.82766 -3.154688,0.52677"
       id="path1713" />
    <path
       style="fill:none;stroke:#000000;stroke-width:0.264583px;stroke-linecap:butt;stroke-linejoin:miter;stroke-opacity:1"
       d="m 91.517313,237.03076 c 0.103492,-0.23835 0.234288,-0.46028 0.30694,-0.71368 0.01582,-0.0551 0.01704,-0.0959 0.01704,-0.15293 0,-0.0113 0,-0.0453 0,-0.034 0,0.49385 0.222647,0.98941 0.341051,1.46135 0.03437,0.13702 0.09239,0.29723 0.06821,0.44181 -0.01093,0.0654 -0.141447,0.0811 -0.187577,0.085 -0.335962,0.0279 -0.685982,0 -1.023144,0 -0.102311,0 -0.204626,0 -0.30694,0 -0.02273,0 -0.08856,-0.0101 -0.06821,0 0.120735,0.0602 0.281731,0.0595 0.409258,0.068 0.355939,0.0237 0.248809,0.017 0.630936,0.017 0.193259,0 0.386614,0.006 0.579779,0 0.314756,-0.01 0.623395,-0.0285 0.937879,0"
       id="path1715" />
    <path
       style="fill:none;stroke:#000000;stroke-width:0.264583px;stroke-linecap:butt;stroke-linejoin:miter;stroke-opacity:1"
       d="m 141.52596,234.12505 c -0.2103,-0.14205 -0.4892,-0.14015 -0.73325,-0.18692 -0.63688,-0.12205 -1.37252,-0.3272 -1.99512,-0.017 -0.22695,0.11307 -0.2745,0.40297 -0.10232,0.59473 0.26101,0.29069 0.67753,0.41779 1.02315,0.56075 0.61543,0.25457 1.71154,0.63021 1.99512,1.30842 0.12964,0.31005 -0.0509,0.54629 -0.32399,0.69669 -0.69166,0.3809 -1.49716,0.42482 -2.26797,0.42482 -0.36461,0 -0.7871,0.0326 -1.12545,-0.13594"
       id="path1717" />
    <path
       style="fill:none;stroke:#000000;stroke-width:0.264583px;stroke-linecap:butt;stroke-linejoin:miter;stroke-opacity:1"
       d="m 143.28236,236.91181 c -0.47872,-0.17995 -0.1214,-1.32471 0.37515,-0.9006 0.13575,0.11595 0.16596,0.16559 0.22168,0.35685 0.0655,0.2247 0.0674,0.39679 0.017,0.62872 -0.0455,0.20974 -0.14493,0.3908 -0.27284,0.56075 -0.043,0.0572 -0.29495,0.31753 -0.3581,0.37383 -0.0574,0.0512 -0.42587,0.35989 -0.46041,0.11895 -0.008,-0.0552 0.002,-0.10527 0.0341,-0.15293 0.1554,-0.23229 0.56183,-0.24371 0.80146,-0.20391 0.33461,0.0556 0.69972,0.36241 1.0402,0.30586"
       id="path1719" />
    <path
       style="fill:none;stroke:#000000;stroke-width:0.264583px;stroke-linecap:butt;stroke-linejoin:miter;stroke-opacity:1"
       d="m 157.93033,236.82685 c 0.0341,-0.0226 0.0637,-0.0544 0.10232,-0.068 0.36342,-0.12782 0.79888,-0.12287 1.17661,-0.16992 0.42684,-0.0532 0.85551,-0.1102 1.27893,-0.18692"
       id="path1721" />
    <path
       style="fill:none;stroke:#000000;stroke-width:0.264583px;stroke-linecap:butt;stroke-linejoin:miter;stroke-opacity:1"
       d="m 159.37978,235.46745 c -0.0284,0.0566 -0.0698,0.10846 -0.0853,0.16993 -0.0971,0.38696 0.15133,1.38061 0.27284,1.78421"
       id="path1723" />
    <path
       style="fill:none;stroke:#000000;stroke-width:0.264583px;stroke-linecap:butt;stroke-linejoin:miter;stroke-opacity:1"
       d="m 161.05091,236.24911 c -0.0658,-0.26198 0.11316,-0.48659 0.22168,-0.71369 0.0878,-0.18375 0.1716,-0.3684 0.23873,-0.56075 0.12472,-0.3573 0.212,-0.72549 0.15348,-1.10451 -0.0273,-0.17663 -0.11151,-0.47445 -0.15348,-0.39082 -0.0459,0.0915 0.11793,0.95854 0.13642,1.08751 0.0454,0.31666 0.0996,0.63391 0.13642,0.95158 0.0359,0.31047 0.0294,0.62549 0.0682,0.93459 0.0174,0.13906 0.15291,0.49334 0.0341,0.61173 -0.12457,0.12413 -1.07701,0.38362 -1.29598,0.4418 -0.084,0.0223 -0.17059,0.051 -0.25579,0.068 -0.005,0.001 -0.0853,-7.9e-4 -0.0853,0 0,0.0227 0.0455,0 0.0682,0 0.0398,0 0.0796,0.002 0.11937,0 0.25345,-0.0133 0.50132,-0.0554 0.7503,-0.10195 0.38652,-0.0722 0.75829,-0.19212 1.14251,-0.27188 0.35511,-0.0737 0.71715,-0.0511 1.0743,-0.10196"
       id="path1725" />
  </g>
</svg>
