<?xml version="1.0" encoding="UTF-8" standalone="no"?>
<!-- Created with Inkscape (http://www.inkscape.org/) -->

<svg
   width="240mm"
   height="120mm"
   viewBox="0 0 240 120"
   version="1.1"
   id="svg8"
   inkscape:version="1.1.2 (0a00cf5339, 2022-02-04)"
   sodipodi:docname="1731744425.svg"
   xmlns:inkscape="http://www.inkscape.org/namespaces/inkscape"
   xmlns:sodipodi="http://sodipodi.sourceforge.net/DTD/sodipodi-0.dtd"
   xmlns="http://www.w3.org/2000/svg"
   xmlns:svg="http://www.w3.org/2000/svg"
   xmlns:rdf="http://www.w3.org/1999/02/22-rdf-syntax-ns#"
   xmlns:cc="http://creativecommons.org/ns#"
   xmlns:dc="http://purl.org/dc/elements/1.1/">
  <defs
     id="defs2">
    <marker
       style="overflow:visible"
       id="Arrow1Lstart"
       refX="0"
       refY="0"
       orient="auto"
       inkscape:stockid="Arrow1Lstart"
       inkscape:isstock="true">
      <path
         transform="matrix(0.8,0,0,0.8,10,0)"
         style="fill:context-stroke;fill-rule:evenodd;stroke:context-stroke;stroke-width:1pt"
         d="M 0,0 5,-5 -12.5,0 5,5 Z"
         id="path1169" />
    </marker>
    <marker
       style="overflow:visible"
       id="Arrow1Lend"
       refX="0"
       refY="0"
       orient="auto"
       inkscape:stockid="Arrow1Lend"
       inkscape:isstock="true">
      <path
         transform="matrix(-0.8,0,0,-0.8,-10,0)"
         style="fill:context-stroke;fill-rule:evenodd;stroke:context-stroke;stroke-width:1pt"
         d="M 0,0 5,-5 -12.5,0 5,5 Z"
         id="path1172" />
    </marker>
    <inkscape:path-effect
       effect="spiro"
       id="path-effect1704"
       is_visible="true"
       lpeversion="1" />
    <marker
       style="overflow:visible"
       id="marker890"
       refX="0"
       refY="0"
       orient="auto"
       inkscape:stockid="Arrow1Lstart"
       inkscape:isstock="true">
      <path
         transform="matrix(0.8,0,0,0.8,10,0)"
         style="fill:context-stroke;fill-rule:evenodd;stroke:context-stroke;stroke-width:1pt"
         d="M 0,0 5,-5 -12.5,0 5,5 Z"
         id="path888" />
    </marker>
    <inkscape:path-effect
       effect="spiro"
       id="path-effect1087-3"
       is_visible="true"
       lpeversion="1" />
    <inkscape:path-effect
       effect="spiro"
       id="path-effect858-3-5"
       is_visible="true"
       lpeversion="1" />
    <inkscape:path-effect
       effect="spiro"
       id="path-effect858-6"
       is_visible="true"
       lpeversion="1" />
    <marker
       style="overflow:visible"
       id="marker897"
       refX="0"
       refY="0"
       orient="auto"
       inkscape:stockid="Arrow1Lend"
       inkscape:isstock="true">
      <path
         transform="matrix(-0.8,0,0,-0.8,-10,0)"
         style="fill:context-stroke;fill-rule:evenodd;stroke:context-stroke;stroke-width:1pt"
         d="M 0,0 5,-5 -12.5,0 5,5 Z"
         id="path895" />
    </marker>
    <inkscape:path-effect
       effect="spiro"
       id="path-effect1087"
       is_visible="true"
       lpeversion="1" />
    <inkscape:path-effect
       effect="spiro"
       id="path-effect858-3"
       is_visible="true"
       lpeversion="1" />
    <inkscape:path-effect
       effect="spiro"
       id="path-effect858"
       is_visible="true"
       lpeversion="1" />
  </defs>
  <sodipodi:namedview
     id="base"
     pagecolor="#ffffff"
     bordercolor="#666666"
     borderopacity="1.0"
     inkscape:pageopacity="0.0"
     inkscape:pageshadow="2"
     inkscape:zoom="3.9774955"
     inkscape:cx="475.5505"
     inkscape:cy="202.38866"
     inkscape:document-units="mm"
     inkscape:current-layer="layer1"
     showgrid="false"
     showborder="true"
     width="200mm"
     showguides="true"
     inkscape:guide-bbox="true"
     inkscape:window-width="2160"
     inkscape:window-height="1375"
     inkscape:window-x="0"
     inkscape:window-y="0"
     inkscape:window-maximized="1"
     inkscape:pagecheckerboard="0">
    <inkscape:grid
       type="xygrid"
       id="grid815"
       units="mm"
       spacingx="10"
       spacingy="10"
       empspacing="4"
       dotted="false" />
  </sodipodi:namedview>
  <metadata
     id="metadata5">
    <rdf:RDF>
      <cc:Work
         rdf:about="">
        <dc:format>image/svg+xml</dc:format>
        <dc:type
           rdf:resource="http://purl.org/dc/dcmitype/StillImage" />
      </cc:Work>
    </rdf:RDF>
  </metadata>
  <g
     inkscape:label="Layer 1"
     inkscape:groupmode="layer"
     id="layer1"
     transform="translate(0,-177)">
    <g
       id="g902"
       transform="translate(-4.6474794,14.106929)">
      <path
         style="fill:none;stroke:#000000;stroke-width:0.264583px;stroke-linecap:butt;stroke-linejoin:miter;stroke-opacity:1"
         d="M 65.190761,198.28549 H 184.51511"
         id="path856"
         inkscape:path-effect="#path-effect858"
         inkscape:original-d="m 65.190761,198.28549 c 39.775049,2.7e-4 79.549829,2.7e-4 119.324349,0" />
      <path
         style="fill:none;stroke:#000000;stroke-width:0.264583px;stroke-linecap:butt;stroke-linejoin:miter;stroke-opacity:1"
         d="M 65.638772,209.13976 H 184.96313"
         id="path856-6"
         inkscape:path-effect="#path-effect858-3"
         inkscape:original-d="m 65.638772,209.13976 c 39.775048,2.7e-4 79.549828,2.7e-4 119.324358,0" />
      <path
         style="fill:none;stroke:#000000;stroke-width:0.264583px;stroke-linecap:butt;stroke-linejoin:miter;stroke-opacity:1;marker-end:url(#Arrow1Lend)"
         d="m 59.673963,203.62838 h 27.5401"
         id="path1085"
         inkscape:path-effect="#path-effect1087"
         inkscape:original-d="m 59.673963,203.62838 c 9.180298,2.7e-4 18.360331,2.7e-4 27.5401,0" />
      <path
         style="fill:none;stroke:#000000;stroke-width:0.264583px;stroke-linecap:butt;stroke-linejoin:miter;stroke-opacity:1"
         d="m 93.773523,201.34544 c 0.0059,-0.0351 0.189529,-0.3845 0.16881,-0.3845 -0.06543,0 -0.531471,1.6569 -0.554657,1.75426 -0.296894,1.24681 -0.452906,2.50244 -0.602895,3.77287 -0.03973,0.33649 -0.07966,0.67295 -0.120576,1.0093 -0.03671,0.3018 -0.120581,0.63268 -0.120581,0.93721"
         id="path1470" />
      <path
         style="fill:none;stroke:#000000;stroke-width:0.264583px;stroke-linecap:butt;stroke-linejoin:miter;stroke-opacity:1"
         d="m 89.866784,201.3935 c 0.01609,-0.0481 0.01775,-0.10369 0.04823,-0.14419 0.164952,-0.21915 1.305954,-0.10926 1.543402,-0.0961 0.554363,0.0307 1.10916,0.052 1.663983,0.0721 1.018016,0.0369 2.047328,-0.034 3.06269,0.0481 0.373396,0.0302 0.739502,0.0915 1.109324,0.14418"
         id="path1472" />
      <path
         style="fill:none;stroke:#000000;stroke-width:0.264583px;stroke-linecap:butt;stroke-linejoin:miter;stroke-opacity:1"
         d="m 89.215663,206.96869 c 0.06431,-0.0401 0.119414,-0.10184 0.192926,-0.12016 0.178099,-0.0444 0.500155,0.0767 0.675238,0.0961 0.438814,0.0486 0.88583,0.0481 1.326361,0.0481 1.532851,0 3.074874,-0.0486 4.606094,0.024"
         id="path1474" />
      <path
         style="fill:none;stroke:#000000;stroke-width:0.264583px;stroke-linecap:butt;stroke-linejoin:miter;stroke-opacity:1"
         d="M 66.341741,239.24248 H 185.66609"
         id="path856-2"
         inkscape:path-effect="#path-effect858-6"
         inkscape:original-d="m 66.341741,239.24248 c 39.775049,2.7e-4 79.549829,2.7e-4 119.324349,0" />
      <path
         style="fill:none;stroke:#000000;stroke-width:0.264583px;stroke-linecap:butt;stroke-linejoin:miter;stroke-opacity:1"
         d="M 66.789752,250.09675 H 186.11411"
         id="path856-6-9"
         inkscape:path-effect="#path-effect858-3-5"
         inkscape:original-d="m 66.789752,250.09675 c 39.775048,2.7e-4 79.549828,2.7e-4 119.324358,0" />
      <path
         style="fill:none;stroke:#000000;stroke-width:0.264583px;stroke-linecap:butt;stroke-linejoin:miter;stroke-opacity:1;marker-start:url(#Arrow1Lstart)"
         d="m 60.824943,244.58537 h 27.5401"
         id="path1085-1"
         inkscape:path-effect="#path-effect1087-3"
         inkscape:original-d="m 60.824943,244.58537 c 9.180298,2.7e-4 18.360331,2.7e-4 27.5401,0" />
      <path
         style="fill:none;stroke:#000000;stroke-width:0.264583px;stroke-linecap:butt;stroke-linejoin:miter;stroke-opacity:1"
         d="m 94.924503,242.30243 c 0.0059,-0.0351 0.189529,-0.3845 0.16881,-0.3845 -0.06543,0 -0.531471,1.6569 -0.554657,1.75426 -0.296894,1.24681 -0.452906,2.50244 -0.602895,3.77287 -0.03973,0.33649 -0.07966,0.67295 -0.120576,1.0093 -0.03671,0.3018 -0.120581,0.63268 -0.120581,0.93721"
         id="path1470-2" />
      <path
         style="fill:none;stroke:#000000;stroke-width:0.264583px;stroke-linecap:butt;stroke-linejoin:miter;stroke-opacity:1"
         d="m 91.017764,242.35049 c 0.01609,-0.0481 0.01775,-0.10369 0.04823,-0.14419 0.164952,-0.21915 1.305954,-0.10926 1.543402,-0.0961 0.554363,0.0307 1.10916,0.052 1.663983,0.0721 1.018016,0.0369 2.047328,-0.034 3.06269,0.0481 0.373396,0.0302 0.739502,0.0915 1.109324,0.14418"
         id="path1472-7" />
      <path
         style="fill:none;stroke:#000000;stroke-width:0.264583px;stroke-linecap:butt;stroke-linejoin:miter;stroke-opacity:1"
         d="m 90.366643,247.92568 c 0.06431,-0.0401 0.119414,-0.10184 0.192926,-0.12016 0.178099,-0.0444 0.500155,0.0767 0.675238,0.0961 0.438814,0.0486 0.88583,0.0481 1.326361,0.0481 1.532851,0 3.074874,-0.0486 4.606094,0.024"
         id="path1474-0" />
      <path
         style="fill:none;stroke:#000000;stroke-width:0.264583px;stroke-linecap:butt;stroke-linejoin:miter;stroke-opacity:1;marker-start:url(#Arrow1Lstart);marker-end:url(#Arrow1Lend)"
         d="m 167.23003,204.37343 v 40.17978"
         id="path1702"
         inkscape:path-effect="#path-effect1704"
         inkscape:original-d="m 167.23003,204.37343 c 2.6e-4,13.39353 2.6e-4,26.78679 0,40.17978" />
      <path
         style="fill:none;stroke:#000000;stroke-width:0.264583px;stroke-linecap:butt;stroke-linejoin:miter;stroke-opacity:1"
         d="m 177.98561,222.44472 c -0.0653,-1.52759 -2.24228,-0.70965 -2.99034,-0.24031 -0.72772,0.45659 -1.34856,1.065 -1.83279,1.7783 -0.49156,0.72411 -0.87054,1.57608 -0.96462,2.45116 -0.25021,2.32707 2.11846,1.96492 3.52088,1.15348 1.10649,-0.64022 1.96404,-1.51228 2.55627,-2.64341 0.17092,-0.32645 0.6503,-1.19074 0.38585,-1.58604 -0.24728,-0.36964 -1.05094,1.08586 -1.06109,1.10543 -0.72576,1.39821 -0.86229,3.05132 -0.48232,4.56588"
         id="path1819" />
      <path
         style="fill:none;stroke:#000000;stroke-width:0.264583px;stroke-linecap:butt;stroke-linejoin:miter;stroke-opacity:1"
         d="m 125.5032,182.97826 c -0.0761,-0.65159 -0.21711,-0.8676 -0.53054,0 -0.34332,0.95032 -0.63815,1.92687 -0.96463,2.88372 -0.65582,1.92212 -1.36675,3.83102 -1.97748,5.76743 -0.1921,0.60907 -0.388,1.20583 -0.67524,1.77829 -0.082,0.16348 -0.20806,0.56167 -0.33762,0.43256 -0.0933,-0.093 0.4676,-0.53493 0.53055,-0.57675 0.99346,-0.65998 4.60929,0.45043 5.69129,0.86512 0.1645,0.0631 1.11194,0.478 1.30225,0.28837 0.073,-0.0728 -0.0774,-0.77674 -0.0482,-1.0093 0.0285,-0.22707 0.1206,-0.45662 0.19293,-0.67286"
         id="path1967" />
      <path
         style="fill:none;stroke:#000000;stroke-width:0.264583px;stroke-linecap:butt;stroke-linejoin:miter;stroke-opacity:1"
         d="m 186.50229,183.1754 c -0.12955,-0.20873 0.0355,-0.47559 -0.0965,-0.67286 -0.34599,-0.51714 -1.44078,0.0176 -1.78456,0.2403 -0.77161,0.49979 -1.52928,1.28589 -2.07395,2.01861 -0.44076,0.59293 -1.86636,3.26529 0.0482,2.88371 1.61086,-0.32104 2.97585,-1.93526 3.90674,-3.17209 0.0897,-0.11921 1.05903,-1.5881 0.96463,-1.68216 -0.0827,-0.0824 -0.1366,0.11601 -0.33762,0.57674 -0.62057,1.42229 -1.44694,2.92526 -1.44694,4.51782"
         id="path2116" />
      <path
         style="fill:none;stroke:#000000;stroke-width:0.264583px;stroke-linecap:butt;stroke-linejoin:miter;stroke-opacity:1"
         d="m 196.00387,182.26223 c -0.0965,0 -0.19785,-0.0304 -0.2894,0 -0.21789,0.0724 -0.98668,0.93907 -1.20578,1.10542 -0.84943,0.64491 -1.7264,1.26864 -2.60449,1.87442 -0.11285,0.0778 -1.31105,0.7995 -1.25401,0.91317 0.16447,0.32779 3.22544,1.09684 3.76204,1.24961"
         id="path2118" />
      <path
         style="fill:none;stroke:#000000;stroke-width:0.264583px;stroke-linecap:butt;stroke-linejoin:miter;stroke-opacity:1"
         d="m 198.65659,182.74284 c -0.10393,0.13065 -0.26541,-0.04 -0.38585,0 -0.46093,0.15311 -0.90202,0.65726 -1.25402,0.96124 -0.74935,0.64716 -1.48375,1.31553 -2.26687,1.92248 -0.0594,0.046 -0.7717,0.5209 -0.7717,0.52868 0,0.053 0.69471,0.2315 0.72347,0.24031 0.79765,0.24457 1.52113,0.54594 2.21865,1.0093"
         id="path2120" />
      <path
         style="fill:none;stroke:#000000;stroke-width:0.264583px;stroke-linecap:butt;stroke-linejoin:miter;stroke-opacity:1"
         d="m 204.10673,180.62812 c -0.16207,0.0275 -0.34091,-0.57674 -0.53054,-0.57674 -0.36594,0 0.23795,0.18105 0.53054,0.57674 0.11516,0.15574 0.1377,0.36493 0.24116,0.52868 0.36159,0.57228 0.80331,1.08981 1.20578,1.63411 1.04297,1.41047 2.07589,2.81035 3.03858,4.27751 0.43935,0.66959 0.95995,1.37506 1.15755,2.16279"
         id="path2122" />
      <path
         style="fill:none;stroke:#000000;stroke-width:0.264583px;stroke-linecap:butt;stroke-linejoin:miter;stroke-opacity:1"
         d="m 206.75946,184.04052 c -0.0703,0.16206 -0.42847,-0.10172 -0.53055,0 -0.0498,0.0497 0.007,0.42202 0,0.48062 -0.0351,0.31458 -0.0895,0.6498 -0.14469,0.96124 -0.2172,1.22647 -0.75676,2.08418 -1.92925,2.59534 -0.24761,0.10795 -0.54495,0.24031 -0.81994,0.24031"
         id="path2126" />
      <path
         style="fill:none;stroke:#000000;stroke-width:0.264583px;stroke-linecap:butt;stroke-linejoin:miter;stroke-opacity:1"
         d="m 217.17742,181.39711 c -0.11254,0.032 -0.23718,0.0361 -0.33761,0.0961 -0.10713,0.0641 -1.1135,1.48364 -1.30225,1.68217 -0.92443,0.97237 -1.89717,1.8905 -2.84565,2.83566 -0.081,0.0807 -0.51881,0.45594 -0.43408,0.6248 0.23124,0.46085 1.27734,0.74263 1.6881,0.91318 1.11342,0.4623 1.84804,0.78416 2.70095,1.63411"
         id="path2128" />
      <path
         style="fill:none;stroke:#000000;stroke-width:0.264583px;stroke-linecap:butt;stroke-linejoin:miter;stroke-opacity:1"
         d="m 220.16777,181.92579 c -0.0965,0.016 -0.20384,7.2e-4 -0.28939,0.0481 -0.23114,0.12796 -1.29538,2.07723 -1.59163,2.45116 -0.49446,0.62412 -1.02767,1.21631 -1.59164,1.7783 -0.1855,0.18485 -0.34262,0.36295 -0.57878,0.48061 -0.0463,0.0231 -0.25719,0.11222 -0.24115,0.14419 0.14771,0.29441 0.95192,0.55788 1.20578,0.67287 1.42611,0.64595 -0.27708,-0.18612 1.15755,0.52868 0.59982,0.29885 1.14247,0.66899 1.6881,1.05736"
         id="path2130" />
      <path
         style="fill:none;stroke:#000000;stroke-width:0.264583px;stroke-linecap:butt;stroke-linejoin:miter;stroke-opacity:1"
         d="m 226.63077,179.04208 c -0.31081,-0.75531 0.004,-0.0184 0,0 -0.0472,0.19994 -0.30556,0.29151 -0.38585,0.48061 -0.2158,0.50828 -0.39999,2.15243 -0.48231,2.69147 -0.21665,1.41867 -0.37581,2.85118 -0.53055,4.27752 -0.0408,0.3762 -0.32331,2.71999 -0.14469,3.07596 0.0693,0.13809 0.4873,0.0249 0.57878,0 0.8846,-0.24041 1.72771,-0.59271 2.65272,-0.67287 1.25306,-0.10857 2.588,0.23702 3.81027,0.48062 0.0939,0.0187 0.57177,0.19925 0.67524,0.0961 0.26065,-0.25976 -0.39363,-1.46515 -0.48231,-1.73023"
         id="path2132" />
    </g>
    <path
       style="fill:none;stroke:#000000;stroke-width:0.264583px;stroke-linecap:butt;stroke-linejoin:miter;stroke-opacity:1"
       d="m 115.63125,218.32384 c 0.0643,-0.11215 0.11519,-0.23315 0.19293,-0.33644 0.2825,-0.37534 0.49165,0.20309 0.43408,0.43256 -0.0821,0.32721 -0.68375,0.32793 -0.62701,-0.0961 0.10845,-0.81052 0.68197,-0.46048 0.81993,-0.0481 0.0796,0.2379 -0.33762,-0.19578 -0.33762,-0.48063"
       id="path961" />
    <path
       style="fill:none;stroke:#000000;stroke-width:0.264583px;stroke-linecap:butt;stroke-linejoin:miter;stroke-opacity:1"
       d="m 110.3258,216.68973 c 0.23755,-0.90365 -0.44903,-3.22057 -1.73633,-2.73953 -1.81214,0.67717 -3.52857,4.80758 -2.50803,6.53642 0.5079,0.8604 1.78964,0.94513 2.65273,0.86512 0.44436,-0.0412 1.59674,-0.33078 2.02571,-0.43256"
       id="path963" />
    <path
       style="fill:none;stroke:#000000;stroke-width:0.264583px;stroke-linecap:butt;stroke-linejoin:miter;stroke-opacity:1"
       d="m 145.38999,218.70833 c -0.29989,-0.32773 -0.37929,-0.74056 -0.24116,-1.15348 0.0323,-0.0967 0.2368,-0.15289 0.28939,-0.0481 0.009,0.0176 -0.007,0.24031 0,0.24031 0.0167,0 -0.0223,-0.36232 0,-0.38449 0.058,-0.0578 0.33762,0.20095 0.33762,0.19225 0,-0.0322 -0.0677,0.0143 -0.0965,0 -0.0648,-0.0323 -0.40994,-0.3605 -0.33762,-0.43256 0.0608,-0.0606 0.79688,0.0954 0.14469,0.52868"
       id="path965" />
    <path
       style="fill:none;stroke:#000000;stroke-width:0.264583px;stroke-linecap:butt;stroke-linejoin:miter;stroke-opacity:1"
       d="m 154.11986,214.19051 c -0.31526,2.06424 -0.55089,4.15405 -1.01286,6.19999 -0.15556,0.68897 -0.25777,1.93906 -0.7717,2.45116"
       id="path967" />
    <path
       style="fill:none;stroke:#000000;stroke-width:0.264583px;stroke-linecap:butt;stroke-linejoin:miter;stroke-opacity:1"
       d="m 153.39639,216.01687 c -0.01,-0.18018 -0.31096,-0.18718 -0.38584,-0.33644 -0.10585,-0.21097 0.32184,-0.56103 0.43407,-0.67287 0.33708,-0.33589 0.71277,-0.67516 1.15756,-0.86511 1.12916,-0.48223 2.20146,0.15054 1.59163,1.44186 -0.12559,0.26594 -0.33234,0.50823 -0.53054,0.72093 -0.20487,0.21985 -0.43814,0.43916 -0.67524,0.6248 -0.34159,0.26745 -0.69853,0.48836 -1.10932,0.62481 -0.11221,0.0373 -0.13708,-0.0449 0,-0.0961 0.43414,-0.16223 0.89768,-0.29049 1.35047,-0.38449 0.81158,-0.16849 2.89389,-0.26102 2.89389,1.05736 0,1.61855 -4.39611,3.77621 -5.73954,2.88371"
       id="path969" />
    <path
       style="fill:none;stroke:#000000;stroke-width:0.264583px;stroke-linecap:butt;stroke-linejoin:miter;stroke-opacity:1"
       d="m 117.07819,259.94548 c -0.15566,-0.19396 -0.6282,-0.19579 -0.72347,-0.48062 -0.11369,-0.3399 0.28999,-0.43256 0.53055,-0.43256 0.21786,0 0.75836,0.39114 0.38584,0.57675 -0.1901,0.0947 -0.27704,-0.24031 -0.28938,-0.24031 -0.0578,0 0.0705,0.0925 0.0965,0.14419 0.004,0.009 -0.004,0.14418 0,0.14418 0.0908,0 0.12861,-0.12816 0.19292,-0.19225"
       id="path971" />
    <path
       style="fill:none;stroke:#000000;stroke-width:0.264583px;stroke-linecap:butt;stroke-linejoin:miter;stroke-opacity:1"
       d="m 108.0107,256.82145 c -0.0883,0.0845 -0.17466,-0.43863 -0.33762,-0.38449 -0.59935,0.19908 -0.83418,1.39778 -0.96463,1.87441 -0.30194,1.10323 -0.82044,3.31421 -0.53055,4.46977"
       id="path973" />
    <path
       style="fill:none;stroke:#000000;stroke-width:0.264583px;stroke-linecap:butt;stroke-linejoin:miter;stroke-opacity:1"
       d="m 108.0107,256.82145 c 0.374,0.91865 -0.7779,0.56816 -0.62701,0.19225 0.38017,-0.94709 2.43245,-1.64005 3.18327,-0.81705 0.38526,0.4223 0.55786,0.97529 0.57877,1.53798 0.0713,1.91699 -1.90386,3.38584 -3.47265,4.03721 -1.03652,0.43037 -2.03587,0.48061 -3.13504,0.48061"
       id="path975" />
    <path
       style="fill:none;stroke:#000000;stroke-width:0.264583px;stroke-linecap:butt;stroke-linejoin:miter;stroke-opacity:1"
       d="m 147.75332,260.18579 c -0.0643,-0.0961 -0.12555,-0.19437 -0.19292,-0.28837 -0.0618,-0.0862 -0.19386,-0.14605 -0.24115,-0.24031 -0.2598,-0.5178 0.96151,-1.15967 1.15755,-0.76899 0.25919,0.51656 -1.07477,0.94761 -1.39871,0.62481 -0.30913,-0.30804 0.33141,-0.85156 0.57878,-0.91319 0.57213,-0.14253 1.09701,0.81706 0.627,0.81706 -0.15987,0 -0.2206,-0.0552 -0.28939,-0.19225"
       id="path977" />
    <path
       style="fill:none;stroke:#000000;stroke-width:0.264583px;stroke-linecap:butt;stroke-linejoin:miter;stroke-opacity:1"
       d="m 156.72436,255.61991 c -0.11254,0.0961 -0.25357,0.16655 -0.33762,0.28837 -0.098,0.14209 -0.12546,0.32172 -0.19293,0.48062 -0.40638,0.95716 -0.77274,1.89849 -1.10932,2.88372 -0.56592,1.65653 -1.06943,3.30148 -1.49517,4.99844"
       id="path979" />
    <path
       style="fill:none;stroke:#000000;stroke-width:0.264583px;stroke-linecap:butt;stroke-linejoin:miter;stroke-opacity:1"
       d="m 156.72436,255.61991 c 0.0482,-0.24031 0.0965,-0.48062 0.14469,-0.72093 0.032,0 -0.032,-0.0961 0,-0.0961 0.0876,0 0.22065,0.53406 0.28939,0.86512 0.35933,1.73068 0.63144,3.49446 0.91639,5.23875 0.22444,1.37383 0.32804,2.80704 0.77171,4.13333"
       id="path981" />
    <path
       style="fill:none;stroke:#000000;stroke-width:0.264583px;stroke-linecap:butt;stroke-linejoin:miter;stroke-opacity:1"
       d="m 154.84333,260.47416 c 0.92173,-0.30246 1.92923,-0.32575 2.89389,-0.43256"
       id="path983" />
    <rect
       style="fill:#ccff00;fill-opacity:0;stroke:#000000;stroke-width:0.264583;stroke-linejoin:bevel;stroke-dasharray:3.175, 3.175;paint-order:fill markers stroke"
       id="rect1374"
       width="31.880919"
       height="41.42942"
       x="116.11356"
       y="217.79514" />
  </g>
</svg>
