<?xml version="1.0" encoding="UTF-8" standalone="no"?>
<!-- Created with Inkscape (http://www.inkscape.org/) -->

<svg
   width="240mm"
   height="120mm"
   viewBox="0 0 240 120"
   version="1.1"
   id="svg8"
   inkscape:version="1.1.2 (0a00cf5339, 2022-02-04)"
   sodipodi:docname="1731663903.svg"
   xmlns:inkscape="http://www.inkscape.org/namespaces/inkscape"
   xmlns:sodipodi="http://sodipodi.sourceforge.net/DTD/sodipodi-0.dtd"
   xmlns="http://www.w3.org/2000/svg"
   xmlns:svg="http://www.w3.org/2000/svg"
   xmlns:rdf="http://www.w3.org/1999/02/22-rdf-syntax-ns#"
   xmlns:cc="http://creativecommons.org/ns#"
   xmlns:dc="http://purl.org/dc/elements/1.1/">
  <defs
     id="defs2">
    <inkscape:path-effect
       effect="spiro"
       id="path-effect1721"
       is_visible="true"
       lpeversion="1" />
    <inkscape:path-effect
       effect="spiro"
       id="path-effect1472"
       is_visible="true"
       lpeversion="1" />
    <inkscape:path-effect
       effect="spiro"
       id="path-effect1242"
       is_visible="true"
       lpeversion="1" />
    <inkscape:path-effect
       effect="spiro"
       id="path-effect975"
       is_visible="true"
       lpeversion="1" />
    <inkscape:path-effect
       effect="spiro"
       id="path-effect858"
       is_visible="true"
       lpeversion="1" />
  </defs>
  <sodipodi:namedview
     id="base"
     pagecolor="#ffffff"
     bordercolor="#666666"
     borderopacity="1.0"
     inkscape:pageopacity="0.0"
     inkscape:pageshadow="2"
     inkscape:zoom="1.9887477"
     inkscape:cx="480.4531"
     inkscape:cy="200.12594"
     inkscape:document-units="mm"
     inkscape:current-layer="layer1"
     showgrid="false"
     showborder="true"
     width="200mm"
     showguides="true"
     inkscape:guide-bbox="true"
     inkscape:window-width="2160"
     inkscape:window-height="1375"
     inkscape:window-x="0"
     inkscape:window-y="0"
     inkscape:window-maximized="1"
     inkscape:pagecheckerboard="0">
    <inkscape:grid
       type="xygrid"
       id="grid815"
       units="mm"
       spacingx="10"
       spacingy="10"
       empspacing="4"
       dotted="false" />
  </sodipodi:namedview>
  <metadata
     id="metadata5">
    <rdf:RDF>
      <cc:Work
         rdf:about="">
        <dc:format>image/svg+xml</dc:format>
        <dc:type
           rdf:resource="http://purl.org/dc/dcmitype/StillImage" />
      </cc:Work>
    </rdf:RDF>
  </metadata>
  <g
     inkscape:label="Layer 1"
     inkscape:groupmode="layer"
     id="layer1"
     transform="translate(0,-177)">
    <path
       style="fill:none;stroke:#000000;stroke-width:0.391566px;stroke-linecap:butt;stroke-linejoin:miter;stroke-opacity:1"
       d="M 44.828984,238.88093 H 198.98406"
       id="path856"
       inkscape:path-effect="#path-effect858"
       inkscape:original-d="m 44.828984,238.88093 c 51.385426,3.9e-4 102.770446,3.9e-4 154.155076,0" />
    <path
       style="fill:none;stroke:#000000;stroke-width:0.391566px;stroke-linecap:butt;stroke-linejoin:miter;stroke-opacity:1"
       d="m 120.73295,189.17289 v 99.89163"
       id="path973"
       inkscape:path-effect="#path-effect975"
       inkscape:original-d="m 120.73295,189.17289 c 4.1e-4,33.2976 4.1e-4,66.5948 0,99.89163" />
    <path
       style="fill:none;stroke:#000000;stroke-width:0.391566px;stroke-linecap:butt;stroke-linejoin:miter;stroke-opacity:1"
       d="M 120.69909,238.99942 79.649427,188.463"
       id="path1240"
       inkscape:path-effect="#path-effect1242"
       inkscape:original-d="M 120.69909,238.99942 C 107.01627,222.15432 93.333053,205.30886 79.649427,188.463" />
    <path
       style="fill:none;stroke:#000000;stroke-width:0.391566px;stroke-linecap:butt;stroke-linejoin:miter;stroke-opacity:1"
       d="m 120.69909,238.99942 44.91674,-52.58879"
       id="path1470"
       inkscape:path-effect="#path-effect1472"
       inkscape:original-d="m 120.69909,238.99942 c 14.97265,-17.52921 29.94489,-35.0588 44.91674,-52.58879" />
    <path
       style="fill:none;stroke:#000000;stroke-width:0.391566px;stroke-linecap:butt;stroke-linejoin:miter;stroke-opacity:1"
       d="m 120.69909,238.99942 20.73215,53.60729"
       id="path1719"
       inkscape:path-effect="#path-effect1721"
       inkscape:original-d="m 120.69909,238.99942 c 6.91111,17.86948 13.82183,35.73858 20.73215,53.60729" />
    <path
       style="fill:none;stroke:#000000;stroke-width:0.391566px;stroke-linecap:butt;stroke-linejoin:miter;stroke-opacity:1"
       d="m 120.76402,232.83337 c 0.45368,-0.0102 0.90143,-0.0162 1.3381,0.12337 0.71817,0.22944 1.56211,0.97438 1.9557,1.60308"
       id="path866" />
    <path
       style="fill:none;stroke:#000000;stroke-width:0.391566px;stroke-linecap:butt;stroke-linejoin:miter;stroke-opacity:1"
       d="m 122.64251,227.53089 c -0.0427,-0.0131 -0.14351,-0.0949 -0.18013,-0.0247 -0.0747,0.14311 -0.0773,0.33834 -0.0773,0.49326 0,0.78144 0.77365,1.2586 1.54396,1.23313 1.43782,-0.0475 2.83686,-1.71933 2.29024,-3.05817 -0.40108,-0.98233 -1.308,-0.72153 -1.82704,0.0247 -0.3011,0.43285 -0.44014,0.79828 -0.56612,1.30711 -0.18036,0.72846 -0.2032,1.50301 -0.10291,2.24432 0.10593,0.78329 0.37995,1.4825 0.92637,2.07167"
       id="path868" />
    <path
       style="fill:none;stroke:#000000;stroke-width:0.391566px;stroke-linecap:butt;stroke-linejoin:miter;stroke-opacity:1"
       d="m 127.48027,223.51085 c -0.16346,0.69934 -0.16513,1.4548 -0.10291,2.17033"
       id="path870" />
    <path
       style="fill:none;stroke:#000000;stroke-width:0.391566px;stroke-linecap:butt;stroke-linejoin:miter;stroke-opacity:1"
       d="m 116.79187,234.28847 c -0.0258,-0.0494 -0.0614,-0.0949 -0.0773,-0.14797 -0.0195,-0.065 0.77058,-0.56744 0.84918,-0.61657 0.5117,-0.31984 1.94592,-1.04124 2.57329,-0.88786 0.21307,0.0521 0.41791,0.1315 0.62688,0.1973"
       id="path872" />
    <path
       style="fill:none;stroke:#000000;stroke-width:0.391566px;stroke-linecap:butt;stroke-linejoin:miter;stroke-opacity:1"
       d="m 113.54953,226.02645 c -0.10428,0.28843 0.0267,0.54227 0.12872,0.81388 0.36789,0.97946 1.14822,2.0101 2.34168,2.047 1.93603,0.0598 3.02895,-3.09366 2.05862,-4.48862 -0.51159,-0.73548 -1.2342,-0.31379 -1.51823,0.34529 -0.18364,0.42608 -0.28488,1.00636 -0.33453,1.45509 -0.0942,0.85069 -0.0573,1.71735 0.0515,2.56493 0.13491,1.05094 0.36007,2.07138 0.97785,2.95952"
       id="path874" />
    <path
       style="fill:none;stroke:#000000;stroke-width:0.391566px;stroke-linecap:butt;stroke-linejoin:miter;stroke-opacity:1"
       d="m 121.2951,251.99188 c 0.21772,0.34656 0.75327,0.22473 1.10651,0.17264 0.37445,-0.0551 0.74618,-0.10247 1.10651,-0.22196 0.8385,-0.27818 1.71518,-0.78068 2.34169,-1.38112"
       id="path876" />
    <path
       style="fill:none;stroke:#000000;stroke-width:0.391566px;stroke-linecap:butt;stroke-linejoin:miter;stroke-opacity:1"
       d="m 128.01137,247.18266 c 0.0773,0.80859 0.208,1.63125 0.64332,2.34295 0.69771,1.14072 2.19252,2.08776 3.60259,1.87436 0.81359,-0.12308 1.49827,-0.55038 2.05861,-1.10982 1.03581,-1.0341 1.3126,-2.41532 1.10652,-3.79805"
       id="path882" />
    <path
       style="fill:none;stroke:#000000;stroke-width:0.391566px;stroke-linecap:butt;stroke-linejoin:miter;stroke-opacity:1"
       d="m 131.40809,246.34412 c -0.009,0.0987 -0.0256,0.19695 -0.0256,0.29595 0,0.40661 0.0911,0.82911 0.12872,1.23313 0.0596,0.64185 0.11092,1.28267 0.18014,1.92369 0.21146,1.95924 0.42873,3.94545 0.87491,5.86974"
       id="path884" />
    <path
       style="fill:none;stroke:#000000;stroke-width:0.391566px;stroke-linecap:butt;stroke-linejoin:miter;stroke-opacity:1"
       d="m 78.43465,220.60389 c 0.0086,0.0822 0.0063,0.16614 0.02576,0.24663 0.04498,0.18681 0.293517,0.84394 0.334523,0.96185 0.270341,0.77728 0.507922,1.56765 0.694787,2.36762 0.173394,0.74228 0.262028,1.49114 0.360259,2.24431 0.01268,0.0975 0.222681,1.53764 0.18013,1.57841 -0.02712,0.026 -0.04093,-0.0633 -0.05146,-0.0987 -0.04176,-0.14006 -0.0903,-0.27829 -0.128661,-0.41926 -0.06459,-0.2373 -0.12679,-0.47535 -0.180129,-0.71522 -0.250562,-1.12682 -0.417428,-2.32661 -0.257329,-3.47745 0.138651,-0.99664 0.469783,-2.27929 1.595433,-2.6389 0.474178,-0.1515 0.952031,-0.0562 1.338103,0.24663 1.11679,0.87574 1.919894,2.98991 2.29022,4.2913 0.290392,1.02051 0.462138,2.06562 0.643321,3.10751"
       id="path999" />
    <path
       style="fill:none;stroke:#000000;stroke-width:0.391566px;stroke-linecap:butt;stroke-linejoin:miter;stroke-opacity:1"
       d="m 86.591947,226.6956 c 0.320493,-0.54475 0.522602,-1.12547 0.566123,-1.75106 0.0091,-0.12961 0,-0.26436 0,-0.39461 0,-0.0575 0,-0.23019 0,-0.17264 0,0.91866 0.769776,2.00025 1.106508,2.86088 0.154971,0.39607 -0.931825,0.527 -1.183708,0.56723 -0.136508,0.0218 -0.274596,0.0576 -0.411725,0.074 -0.05958,0.007 -0.240172,0 -0.18013,0 0.128661,0 0.257328,0 0.385993,0 0.403449,0 0.188941,0.006 0.643317,-0.0247 0.464325,-0.0318 0.24151,-0.006 0.669055,-0.074 0.441942,-0.0705 0.875855,-0.17475 1.312364,-0.27129"
       id="path1001" />
    <path
       style="fill:none;stroke:#000000;stroke-width:0.391566px;stroke-linecap:butt;stroke-linejoin:miter;stroke-opacity:1"
       d="m 83.092287,218.23628 c -0.614705,-0.3879 -1.407336,-0.38458 -2.110088,-0.29596 -2.661309,0.33561 -4.436309,2.52643 -5.481086,4.73524 -0.423336,0.895 -0.788818,1.7917 -0.977844,2.76223 -0.208933,1.07273 -0.315114,2.27545 0.05146,3.32947 0.72519,2.08511 3.084168,3.31888 5.198023,3.72406 3.390787,0.64997 8.427852,-0.12946 10.936433,-2.58958 0.844326,-0.82802 1.419484,-1.84038 1.7241,-2.95952 0.228621,-0.83991 0.315119,-1.70108 0.205864,-2.56493 -0.283052,-2.23808 -1.29117,-3.39383 -3.242336,-4.5626 -2.07586,-1.24346 -4.446696,-2.06824 -6.896388,-2.17032"
       id="path1003" />
    <path
       style="fill:none;stroke:#000000;stroke-width:0.391566px;stroke-linecap:butt;stroke-linejoin:miter;stroke-opacity:1"
       d="m 77.342667,248.29026 c -0.04289,0.1151 -0.116755,0.22356 -0.128662,0.34527 -0.01708,0.17474 0.166575,1.04596 0.180131,1.10984 0.150331,0.70838 0.222475,0.90651 0.36026,1.62773 0.161747,0.84666 0.246044,1.68329 0.308793,2.54026 0.0045,0.0625 0.109632,1.69531 0.07719,1.72639 -0.06238,0.0598 -0.09987,-0.14195 -0.128661,-0.22196 -0.0619,-0.17204 -0.121192,-0.34493 -0.180131,-0.51792 -0.242316,-0.71124 -0.47213,-1.4239 -0.566123,-2.17032 -0.196687,-1.56193 0.254622,-3.44954 1.286643,-4.68591 0.161284,-0.19322 0.378187,-0.44563 0.591851,-0.59191 1.023841,-0.7009 1.833317,-0.14731 2.444616,0.73988 0.851105,1.23522 1.176457,2.67651 1.415303,4.11867 0.116755,0.70496 0.314076,1.87876 0.128661,2.58959"
       id="path1005" />
    <path
       style="fill:none;stroke:#000000;stroke-width:0.391566px;stroke-linecap:butt;stroke-linejoin:miter;stroke-opacity:1"
       d="m 85.783021,253.61741 c -0.382043,0.0967 -0.388668,-0.31959 -0.360256,-0.59191 0.04378,-0.4196 0.878082,-1.77633 1.363834,-1.1838 0.266371,0.32491 0.329144,0.78398 0.308793,1.1838 -0.02938,0.57728 -0.462325,2.10074 -1.260905,2.17032 -0.208091,0.0182 -0.257328,-0.18688 -0.257328,-0.34527 0,-0.5425 0.403732,-1.1248 0.952114,-1.28246 1.044207,-0.30024 1.875136,0.76133 2.521812,1.38111"
       id="path1007" />
    <path
       style="fill:none;stroke:#000000;stroke-width:0.391566px;stroke-linecap:butt;stroke-linejoin:miter;stroke-opacity:1"
       d="m 83.775864,245.75001 c -0.634918,-0.53168 -1.407139,-1.00267 -2.238752,-1.18382 -2.979295,-0.64894 -6.029981,1.83626 -7.462509,4.09402 -1.321266,2.0824 -1.853759,5.15099 -0.385988,7.30016 0.547848,0.80219 1.382762,1.37785 2.264481,1.80038 2.897292,1.3884 6.681626,1.16447 9.726993,0.41927 1.578233,-0.3862 3.274114,-0.83943 4.580441,-1.82504 2.679356,-2.02157 1.872379,-6.96095 -0.05146,-9.22386 -0.355516,-0.41819 -1.027761,-0.94818 -1.492495,-1.20849 -2.1999,-1.23218 -4.730751,-0.78264 -7.102249,-0.3946"
       id="path1009" />
    <path
       style="fill:none;stroke:#000000;stroke-width:0.391566px;stroke-linecap:butt;stroke-linejoin:miter;stroke-opacity:1"
       d="m 100.7485,216.13749 c 0.003,-0.0332 -0.38598,0.0421 -0.38598,-0.0247 0,-0.0157 0.062,0.0228 0.23158,0.0987 0.24828,0.11103 0.50088,0.20304 0.74625,0.32063 0.52959,0.25377 1.01336,0.58424 1.54398,0.83853 0.0406,0.0194 0.33563,0.19624 0.38599,0.14798 0.096,-0.092 -0.0755,-0.51963 -0.10292,-0.59192 -0.41342,-1.08963 -0.86713,-2.18678 -0.97785,-3.35412"
       id="path1041" />
    <path
       style="fill:none;stroke:#000000;stroke-width:0.391566px;stroke-linecap:butt;stroke-linejoin:miter;stroke-opacity:1"
       d="m 103.99084,208.41806 c 0,0.0658 -0.0154,0.13324 0,0.1973 0.0908,0.37757 0.24472,0.73854 0.36025,1.10982 0.16063,0.51616 0.30021,1.03827 0.46319,1.55375 0.22912,0.72463 0.52702,1.42663 0.77198,2.14566 0.20591,0.60436 0.35579,1.23956 0.6176,1.82504"
       id="path1043" />
    <path
       style="fill:none;stroke:#000000;stroke-width:0.391566px;stroke-linecap:butt;stroke-linejoin:miter;stroke-opacity:1"
       d="m 105.86933,213.72055 c 0.0219,-0.94502 0.44713,-1.8613 1.05505,-2.58959"
       id="path1045" />
    <path
       style="fill:none;stroke:#000000;stroke-width:0.391566px;stroke-linecap:butt;stroke-linejoin:miter;stroke-opacity:1"
       d="m 106.17813,213.05465 c 0.7502,0.2746 1.23734,0.95182 1.95569,1.2578"
       id="path1047" />
    <path
       style="fill:none;stroke:#000000;stroke-width:0.391566px;stroke-linecap:butt;stroke-linejoin:miter;stroke-opacity:1"
       d="m 139.28744,215.03983 c 0.2012,-0.1993 0.47461,-0.26496 0.72053,-0.3946 0.91771,-0.48375 1.70845,-1.11885 2.47033,-1.80038 0.0432,-0.0386 1.13253,-0.93692 1.15799,-0.91252 0.021,0.0202 -0.10066,0.21809 -0.10292,0.22196 -0.17449,0.30103 -0.34415,0.59541 -0.48892,0.91253 -0.38002,0.83249 -0.62114,1.69941 -0.90066,2.56492 -0.2226,0.68925 -0.50145,1.35981 -0.79771,2.02234"
       id="path1049" />
    <path
       style="fill:none;stroke:#000000;stroke-width:0.391566px;stroke-linecap:butt;stroke-linejoin:miter;stroke-opacity:1"
       d="m 149.30761,210.07661 c -0.0429,0.0821 -0.11348,0.15581 -0.12872,0.24662 -0.022,0.13179 0.0975,0.8684 0.10292,0.91252 0.0987,0.80405 0.20352,1.61099 0.28306,2.41696 0.16595,1.6813 0.19146,3.37788 0.386,5.05585"
       id="path1051" />
    <path
       style="fill:none;stroke:#000000;stroke-width:0.391566px;stroke-linecap:butt;stroke-linejoin:miter;stroke-opacity:1"
       d="m 149.79653,216.90818 c -0.0487,-0.37833 0.39677,-0.72899 0.61759,-1.01117 0.47179,-0.60291 0.85745,-1.26573 1.4153,-1.80038"
       id="path1053" />
    <path
       style="fill:none;stroke:#000000;stroke-width:0.391566px;stroke-linecap:butt;stroke-linejoin:miter;stroke-opacity:1"
       d="m 149.79653,216.90818 c 0.13717,-0.1973 0.24498,-0.41688 0.41173,-0.59191 0.0261,-0.0274 0.67383,0.20845 0.74625,0.24664 0.75179,0.39629 1.22866,1.11747 1.90422,1.60307"
       id="path1055" />
    <path
       style="fill:none;stroke:#000000;stroke-width:0.391566px;stroke-linecap:butt;stroke-linejoin:miter;stroke-opacity:1"
       d="m 152.57568,209.78066 c -0.005,0.0203 -0.13808,-0.13121 -0.20587,-0.0987 -0.0558,0.0267 -0.0258,0.26198 -0.0258,0.2713 0,0.5919 0,1.18379 0,1.7757"
       id="path1057" />
    <path
       style="fill:none;stroke:#000000;stroke-width:0.391566px;stroke-linecap:butt;stroke-linejoin:miter;stroke-opacity:1"
       d="m 129.73577,268.74667 c 1.44254,0.81494 2.48173,2.13189 3.65405,3.25549 0.12449,0.1193 0.25504,0.23546 0.36027,0.36994 0.0347,0.0443 0.0515,0.0943 0.0515,0.14797 0,0.0247 -0.0257,0.074 0,0.074 0.009,0 -0.0323,-0.13381 -0.0515,-0.27129 -0.11695,-0.84117 0.0942,0.54982 -0.0773,-0.51792 -0.13279,-0.8274 -0.23159,-1.65332 -0.23159,-2.49093 0,-0.83582 -0.0255,-1.67785 0.20587,-2.49094"
       id="path1059" />
    <path
       style="fill:none;stroke:#000000;stroke-width:0.391566px;stroke-linecap:butt;stroke-linejoin:miter;stroke-opacity:1"
       d="m 139.81603,265.39255 c -0.0258,0.0658 -0.0735,0.12714 -0.0773,0.1973 -0.0166,0.31717 0.19448,1.154 0.25732,1.45509 0.20232,0.9695 0.41846,1.93523 0.59186,2.9102 0.40002,2.24923 0.70372,4.51714 1.38956,6.70826"
       id="path1061" />
    <path
       style="fill:none;stroke:#000000;stroke-width:0.391566px;stroke-linecap:butt;stroke-linejoin:miter;stroke-opacity:1"
       d="m 141.38572,273.92585 c -0.0515,0.0247 -0.0999,0.0566 -0.1544,0.074 -0.0243,0.007 -0.0243,-0.0662 0,-0.074 0.0489,-0.0155 0.12585,0.0411 0.1544,0 0.0429,-0.0615 -0.0267,-0.15257 0,-0.22196 0.0791,-0.20555 0.26099,-0.35937 0.38599,-0.54259 0.60277,-0.88354 1.17216,-1.86324 1.95569,-2.61425"
       id="path1063" />
    <path
       style="fill:none;stroke:#000000;stroke-width:0.391566px;stroke-linecap:butt;stroke-linejoin:miter;stroke-opacity:1"
       d="m 142.05477,273.53124 c 0.16387,-0.0309 -0.27064,-0.0859 -0.20586,-0.14797 0.0462,-0.0443 0.44869,0.0221 0.46319,0.0247 0.9647,0.17611 2.01248,1.33444 2.65049,2.02234"
       id="path1065" />
    <path
       style="fill:none;stroke:#000000;stroke-width:0.391566px;stroke-linecap:butt;stroke-linejoin:miter;stroke-opacity:1"
       d="m 142.33784,263.91278 c -0.0172,0.0658 -0.0515,0.12947 -0.0515,0.1973 0,0.31834 0.14487,0.6993 0.20587,1.01117 0.11167,0.57113 0.194,1.17437 0.38598,1.72639"
       id="path1067" />
    <path
       style="fill:none;stroke:#000000;stroke-width:0.391566px;stroke-linecap:butt;stroke-linejoin:miter;stroke-opacity:1"
       d="m 143.77887,263.7648 c -0.0515,0 -0.10367,-0.009 -0.1544,0 -0.0513,0.009 0.0184,0.0984 0.0256,0.14798 0.0106,0.0737 0.0151,0.14828 0.0257,0.22196 0.0669,0.44827 0.17142,0.88718 0.25733,1.33179 0.0614,0.31816 0.0987,0.6292 0.20587,0.93719"
       id="path1069" />
  </g>
</svg>
