<?xml version="1.0" encoding="UTF-8" standalone="no"?>
<!-- Created with Inkscape (http://www.inkscape.org/) -->

<svg
   width="240mm"
   height="120mm"
   viewBox="0 0 240 120"
   version="1.1"
   id="svg8"
   inkscape:version="1.1.2 (0a00cf5339, 2022-02-04)"
   sodipodi:docname="1731743924.svg"
   xmlns:inkscape="http://www.inkscape.org/namespaces/inkscape"
   xmlns:sodipodi="http://sodipodi.sourceforge.net/DTD/sodipodi-0.dtd"
   xmlns="http://www.w3.org/2000/svg"
   xmlns:svg="http://www.w3.org/2000/svg"
   xmlns:rdf="http://www.w3.org/1999/02/22-rdf-syntax-ns#"
   xmlns:cc="http://creativecommons.org/ns#"
   xmlns:dc="http://purl.org/dc/elements/1.1/">
  <defs
     id="defs2">
    <inkscape:path-effect
       effect="spiro"
       id="path-effect1704"
       is_visible="true"
       lpeversion="1" />
    <marker
       style="overflow:visible"
       id="Arrow1Lstart"
       refX="0.0"
       refY="0.0"
       orient="auto"
       inkscape:stockid="Arrow1Lstart"
       inkscape:isstock="true">
      <path
         transform="scale(0.8) translate(12.5,0)"
         style="fill-rule:evenodd;fill:context-stroke;stroke:context-stroke;stroke-width:1.0pt"
         d="M 0.0,0.0 L 5.0,-5.0 L -12.5,0.0 L 5.0,5.0 L 0.0,0.0 z "
         id="path1169" />
    </marker>
    <marker
       style="overflow:visible;"
       id="Arrow1Lend"
       refX="0.0"
       refY="0.0"
       orient="auto"
       inkscape:stockid="Arrow1Lend"
       inkscape:isstock="true">
      <path
         transform="scale(0.8) rotate(180) translate(12.5,0)"
         style="fill-rule:evenodd;fill:context-stroke;stroke:context-stroke;stroke-width:1.0pt;"
         d="M 0.0,0.0 L 5.0,-5.0 L -12.5,0.0 L 5.0,5.0 L 0.0,0.0 z "
         id="path1172" />
    </marker>
    <inkscape:path-effect
       effect="spiro"
       id="path-effect1087"
       is_visible="true"
       lpeversion="1" />
    <inkscape:path-effect
       effect="spiro"
       id="path-effect858"
       is_visible="true"
       lpeversion="1" />
    <inkscape:path-effect
       effect="spiro"
       id="path-effect858-3"
       is_visible="true"
       lpeversion="1" />
    <marker
       style="overflow:visible"
       id="Arrow1Lend-7"
       refX="0"
       refY="0"
       orient="auto"
       inkscape:stockid="Arrow1Lend"
       inkscape:isstock="true">
      <path
         transform="matrix(-0.8,0,0,-0.8,-10,0)"
         style="fill:context-stroke;fill-rule:evenodd;stroke:context-stroke;stroke-width:1pt"
         d="M 0,0 5,-5 -12.5,0 5,5 Z"
         id="path1172-5" />
    </marker>
    <inkscape:path-effect
       effect="spiro"
       id="path-effect1087-3"
       is_visible="true"
       lpeversion="1" />
    <inkscape:path-effect
       effect="spiro"
       id="path-effect858-3-5"
       is_visible="true"
       lpeversion="1" />
    <inkscape:path-effect
       effect="spiro"
       id="path-effect858-6"
       is_visible="true"
       lpeversion="1" />
  </defs>
  <sodipodi:namedview
     id="base"
     pagecolor="#ffffff"
     bordercolor="#666666"
     borderopacity="1.0"
     inkscape:pageopacity="0.0"
     inkscape:pageshadow="2"
     inkscape:zoom="1.406257"
     inkscape:cx="458.30882"
     inkscape:cy="208.35452"
     inkscape:document-units="mm"
     inkscape:current-layer="layer1"
     showgrid="false"
     showborder="true"
     width="200mm"
     showguides="true"
     inkscape:guide-bbox="true"
     inkscape:window-width="2160"
     inkscape:window-height="1375"
     inkscape:window-x="0"
     inkscape:window-y="0"
     inkscape:window-maximized="1"
     inkscape:pagecheckerboard="0">
    <inkscape:grid
       type="xygrid"
       id="grid815"
       units="mm"
       spacingx="10"
       spacingy="10"
       empspacing="4"
       dotted="false" />
  </sodipodi:namedview>
  <metadata
     id="metadata5">
    <rdf:RDF>
      <cc:Work
         rdf:about="">
        <dc:format>image/svg+xml</dc:format>
        <dc:type
           rdf:resource="http://purl.org/dc/dcmitype/StillImage" />
      </cc:Work>
    </rdf:RDF>
  </metadata>
  <g
     inkscape:label="Layer 1"
     inkscape:groupmode="layer"
     id="layer1"
     transform="translate(0,-177)">
    <path
       id="path2132"
       style="fill:none;stroke:#000000;stroke-width:0.264583px;stroke-linecap:butt;stroke-linejoin:miter;stroke-opacity:1"
       d="m 200.29386,201.64106 c -0.31081,-0.75531 0.004,-0.0184 0,0 -0.0472,0.19994 -0.30556,0.29151 -0.38585,0.48061 -0.2158,0.50828 -0.39999,2.15243 -0.48231,2.69147 -0.21665,1.41867 -0.37581,2.85118 -0.53055,4.27752 -0.0408,0.3762 -0.32331,2.71999 -0.14469,3.07596 0.0693,0.13809 0.4873,0.0249 0.57878,0 0.8846,-0.24041 1.72771,-0.59271 2.65272,-0.67287 1.25306,-0.10857 2.588,0.23702 3.81027,0.48062 0.0939,0.0187 0.57177,0.19925 0.67524,0.0961 0.26065,-0.25976 -0.39363,-1.46515 -0.48231,-1.73023 m -12.1543,-5.81547 c -0.0965,0.016 -0.20384,7.2e-4 -0.28939,0.0481 -0.23114,0.12796 -1.29538,2.07723 -1.59163,2.45116 -0.49446,0.62412 -1.02767,1.21631 -1.59164,1.7783 -0.1855,0.18485 -0.34262,0.36295 -0.57878,0.48061 -0.0463,0.0231 -0.25719,0.11222 -0.24115,0.14419 0.14771,0.29441 0.95192,0.55788 1.20578,0.67287 1.42611,0.64595 -0.27708,-0.18612 1.15755,0.52868 0.59982,0.29885 1.14247,0.66899 1.6881,1.05736 m -2.74919,-7.68995 c -0.11254,0.032 -0.23718,0.0361 -0.33761,0.0961 -0.10713,0.0641 -1.1135,1.48364 -1.30225,1.68217 -0.92443,0.97237 -1.89717,1.8905 -2.84565,2.83566 -0.081,0.0807 -0.51881,0.45594 -0.43408,0.6248 0.23124,0.46085 1.27734,0.74263 1.6881,0.91318 1.11342,0.4623 1.84804,0.78416 2.70095,1.63411 m -9.88742,-5.14261 c -0.0703,0.16206 -0.42847,-0.10172 -0.53055,0 -0.0498,0.0497 0.007,0.42202 0,0.48062 -0.0351,0.31458 -0.0895,0.6498 -0.14469,0.96124 -0.2172,1.22647 -0.75676,2.08418 -1.92925,2.59534 -0.24761,0.10795 -0.54495,0.24031 -0.81994,0.24031 m 0.7717,-7.68991 c -0.16207,0.0275 -0.34091,-0.57674 -0.53054,-0.57674 -0.36594,0 0.23795,0.18105 0.53054,0.57674 0.11516,0.15574 0.1377,0.36493 0.24116,0.52868 0.36159,0.57228 0.80331,1.08981 1.20578,1.63411 1.04297,1.41047 2.07589,2.81035 3.03858,4.27751 0.43935,0.66959 0.95995,1.37506 1.15755,2.16279 m -11.09321,-6.48837 c -0.10393,0.13065 -0.26541,-0.04 -0.38585,0 -0.46093,0.15311 -0.90202,0.65726 -1.25402,0.96124 -0.74935,0.64716 -1.48375,1.31553 -2.26687,1.92248 -0.0594,0.046 -0.7717,0.5209 -0.7717,0.52868 0,0.053 0.69471,0.2315 0.72347,0.24031 0.79765,0.24457 1.52113,0.54594 2.21865,1.0093 m -0.9164,-5.14262 c -0.0965,0 -0.19785,-0.0304 -0.2894,0 -0.21789,0.0724 -0.98668,0.93907 -1.20578,1.10542 -0.84943,0.64491 -1.7264,1.26864 -2.60449,1.87442 -0.11285,0.0778 -1.31105,0.7995 -1.25401,0.91317 0.16447,0.32779 3.22544,1.09684 3.76204,1.24961 m -7.90994,-4.22945 c -0.12955,-0.20873 0.0355,-0.47559 -0.0965,-0.67286 -0.34599,-0.51714 -1.44078,0.0176 -1.78456,0.2403 -0.77161,0.49979 -1.52928,1.28589 -2.07395,2.01861 -0.44076,0.59293 -1.86636,3.26529 0.0482,2.88371 1.61086,-0.32104 2.97585,-1.93526 3.90674,-3.17209 0.0897,-0.11921 1.05903,-1.5881 0.96463,-1.68216 -0.0827,-0.0824 -0.1366,0.11601 -0.33762,0.57674 -0.62057,1.42229 -1.44694,2.92526 -1.44694,4.51782 m -60.179091,-4.90721 c -0.0761,-0.65159 -0.21711,-0.8676 -0.53054,0 -0.34332,0.95032 -0.63815,1.92687 -0.96463,2.88372 -0.65582,1.92212 -1.36675,3.83102 -1.97748,5.76743 -0.1921,0.60907 -0.388,1.20583 -0.67524,1.77829 -0.082,0.16348 -0.20806,0.56167 -0.33762,0.43256 -0.0933,-0.093 0.4676,-0.53493 0.53055,-0.57675 0.99346,-0.65998 4.60929,0.45043 5.691291,0.86512 0.1645,0.0631 1.11194,0.478 1.30225,0.28837 0.073,-0.0728 -0.0774,-0.77674 -0.0482,-1.0093 0.0285,-0.22707 0.1206,-0.45662 0.19293,-0.67286 m 49.2991,29.70988 c -0.0653,-1.52759 -2.24228,-0.70965 -2.99034,-0.24031 -0.72772,0.45659 -1.34856,1.065 -1.83279,1.7783 -0.49156,0.72411 -0.87054,1.57608 -0.96462,2.45116 -0.25021,2.32707 2.11846,1.96492 3.52088,1.15348 1.10649,-0.64022 1.96404,-1.51228 2.55627,-2.64341 0.17092,-0.32645 0.6503,-1.19074 0.38585,-1.58604 -0.24728,-0.36964 -1.05094,1.08586 -1.06109,1.10543 -0.72576,1.39821 -0.86229,3.05132 -0.48232,4.56588 m -9.88742,-24.65578 c 2.6e-4,13.39353 2.6e-4,26.78679 0,40.17978 m -76.863388,3.37247 c 0.06431,-0.0401 0.119414,-0.10184 0.192926,-0.12016 0.178099,-0.0444 0.500155,0.0767 0.675238,0.0961 0.438814,0.0486 0.88583,0.0481 1.326361,0.0481 1.532851,0 3.074874,-0.0486 4.606094,0.024 m -6.149498,-5.62323 c 0.01609,-0.0481 0.01775,-0.10369 0.04823,-0.14419 0.164952,-0.21915 1.305954,-0.10926 1.543402,-0.0961 0.554363,0.0307 1.10916,0.052 1.663983,0.0721 1.018016,0.0369 2.047328,-0.034 3.06269,0.0481 0.373396,0.0302 0.739502,0.0915 1.109324,0.14418 m -3.52089,-0.0722 c 0.0059,-0.0351 0.189529,-0.3845 0.16881,-0.3845 -0.06543,0 -0.531471,1.6569 -0.554657,1.75426 -0.296894,1.24681 -0.452906,2.50244 -0.602895,3.77287 -0.03973,0.33649 -0.07966,0.67295 -0.120576,1.0093 -0.03671,0.3018 -0.120581,0.63268 -0.120581,0.93721 m -32.869661,-4.8062 c 9.180298,2.7e-4 18.360331,2.7e-4 27.5401,0 m -21.575291,5.51138 c 39.775048,2.7e-4 79.549829,2.7e-4 119.324359,0 M 40.00483,261.84146 c 39.775049,2.7e-4 79.54983,2.7e-4 119.32435,0 M 62.878752,229.56767 c 0.06431,-0.0401 0.119414,-0.10184 0.192926,-0.12016 0.178099,-0.0444 0.500155,0.0767 0.675238,0.0961 0.438814,0.0486 0.88583,0.0481 1.326361,0.0481 1.532851,0 3.074874,-0.0486 4.606094,0.024 m -6.149498,-5.62323 c 0.01609,-0.0481 0.01775,-0.10369 0.04823,-0.14419 0.164952,-0.21915 1.305954,-0.10926 1.543402,-0.0961 0.554363,0.0307 1.10916,0.052 1.663983,0.0721 1.018016,0.0369 2.047328,-0.034 3.06269,0.0481 0.373396,0.0302 0.739502,0.0915 1.109324,0.14418 m -3.52089,-0.0721 c 0.0059,-0.0351 0.189529,-0.3845 0.16881,-0.3845 -0.06543,0 -0.531471,1.6569 -0.554657,1.75426 -0.296894,1.24681 -0.452906,2.50244 -0.602895,3.77287 -0.03973,0.33649 -0.07966,0.67295 -0.120576,1.0093 -0.03671,0.3018 -0.120581,0.63268 -0.120581,0.93721 m -32.869661,-4.8062 c 9.180298,2.7e-4 18.360331,2.7e-4 27.5401,0 m -21.575291,5.51138 c 39.775048,2.7e-4 79.549829,2.7e-4 119.324359,0 M 38.85385,220.88447 c 39.775049,2.7e-4 79.54983,2.7e-4 119.32435,0" />
  </g>
</svg>
