<?xml version="1.0" encoding="UTF-8" standalone="no"?>
<!-- Created with Inkscape (http://www.inkscape.org/) -->

<svg
   width="240mm"
   height="120mm"
   viewBox="0 0 240 120"
   version="1.1"
   id="svg8"
   inkscape:version="1.1.2 (0a00cf5339, 2022-02-04)"
   sodipodi:docname="1732353379.svg"
   xmlns:inkscape="http://www.inkscape.org/namespaces/inkscape"
   xmlns:sodipodi="http://sodipodi.sourceforge.net/DTD/sodipodi-0.dtd"
   xmlns="http://www.w3.org/2000/svg"
   xmlns:svg="http://www.w3.org/2000/svg"
   xmlns:rdf="http://www.w3.org/1999/02/22-rdf-syntax-ns#"
   xmlns:cc="http://creativecommons.org/ns#"
   xmlns:dc="http://purl.org/dc/elements/1.1/">
  <defs
     id="defs2">
    <marker
       style="overflow:visible;"
       id="Arrow2Mend"
       refX="0.0"
       refY="0.0"
       orient="auto"
       inkscape:stockid="Arrow2Mend"
       inkscape:isstock="true">
      <path
         transform="scale(0.6) rotate(180) translate(0,0)"
         d="M 8.7185878,4.0337352 L -2.2072895,0.016013256 L 8.7185884,-4.0017078 C 6.9730900,-1.6296469 6.9831476,1.6157441 8.7185878,4.0337352 z "
         style="stroke:context-stroke;fill-rule:evenodd;fill:context-stroke;stroke-width:0.62500000;stroke-linejoin:round;"
         id="path1857" />
    </marker>
    <marker
       style="overflow:visible;"
       id="Arrow1Lend"
       refX="0.0"
       refY="0.0"
       orient="auto"
       inkscape:stockid="Arrow1Lend"
       inkscape:isstock="true">
      <path
         transform="scale(0.8) rotate(180) translate(12.5,0)"
         style="fill-rule:evenodd;fill:context-stroke;stroke:context-stroke;stroke-width:1.0pt;"
         d="M 0.0,0.0 L 5.0,-5.0 L -12.5,0.0 L 5.0,5.0 L 0.0,0.0 z "
         id="path1833" />
    </marker>
    <marker
       style="overflow:visible"
       id="Arrow1Lstart"
       refX="0.0"
       refY="0.0"
       orient="auto"
       inkscape:stockid="Arrow1Lstart"
       inkscape:isstock="true">
      <path
         transform="scale(0.8) translate(12.5,0)"
         style="fill-rule:evenodd;fill:context-stroke;stroke:context-stroke;stroke-width:1.0pt"
         d="M 0.0,0.0 L 5.0,-5.0 L -12.5,0.0 L 5.0,5.0 L 0.0,0.0 z "
         id="path1830" />
    </marker>
    <inkscape:path-effect
       effect="spiro"
       id="path-effect1748"
       is_visible="true"
       lpeversion="1" />
    <inkscape:path-effect
       effect="spiro"
       id="path-effect1631"
       is_visible="true"
       lpeversion="1" />
    <inkscape:path-effect
       effect="spiro"
       id="path-effect1457"
       is_visible="true"
       lpeversion="1" />
    <inkscape:path-effect
       effect="spiro"
       id="path-effect1246"
       is_visible="true"
       lpeversion="1" />
    <inkscape:path-effect
       effect="spiro"
       id="path-effect1129"
       is_visible="true"
       lpeversion="1" />
    <inkscape:path-effect
       effect="spiro"
       id="path-effect975"
       is_visible="true"
       lpeversion="1" />
    <inkscape:path-effect
       effect="spiro"
       id="path-effect858"
       is_visible="true"
       lpeversion="1" />
  </defs>
  <sodipodi:namedview
     id="base"
     pagecolor="#ffffff"
     bordercolor="#666666"
     borderopacity="1.0"
     inkscape:pageopacity="0.0"
     inkscape:pageshadow="2"
     inkscape:zoom="3.9774955"
     inkscape:cx="727.97065"
     inkscape:cy="333.87844"
     inkscape:document-units="mm"
     inkscape:current-layer="layer1"
     showgrid="false"
     showborder="true"
     width="200mm"
     showguides="true"
     inkscape:guide-bbox="true"
     inkscape:window-width="2160"
     inkscape:window-height="1375"
     inkscape:window-x="0"
     inkscape:window-y="0"
     inkscape:window-maximized="1"
     inkscape:pagecheckerboard="0">
    <inkscape:grid
       type="xygrid"
       id="grid815"
       units="mm"
       spacingx="10"
       spacingy="10"
       empspacing="4"
       dotted="false" />
  </sodipodi:namedview>
  <metadata
     id="metadata5">
    <rdf:RDF>
      <cc:Work
         rdf:about="">
        <dc:format>image/svg+xml</dc:format>
        <dc:type
           rdf:resource="http://purl.org/dc/dcmitype/StillImage" />
      </cc:Work>
    </rdf:RDF>
  </metadata>
  <g
     inkscape:label="Layer 1"
     inkscape:groupmode="layer"
     id="layer1"
     transform="translate(0,-177)">
    <path
       style="fill:none;stroke:#000000;stroke-width:0.26458299;stroke-linecap:butt;stroke-linejoin:miter;stroke-opacity:1;stroke-miterlimit:4;stroke-dasharray:2.11666389,2.11666389;stroke-dashoffset:0"
       d="m 67.39614,194.8222 v 84.8774"
       id="path856"
       inkscape:path-effect="#path-effect858"
       inkscape:original-d="m 67.39614,194.8222 c 2.64e-4,28.29273 2.64e-4,56.5852 0,84.8774" />
    <path
       style="fill:none;stroke:#000000;stroke-width:0.274316px;stroke-linecap:butt;stroke-linejoin:miter;stroke-opacity:1;marker-end:url(#Arrow1Lend)"
       d="M 44.920328,272.29806 H 209.16545"
       id="path973"
       inkscape:path-effect="#path-effect975"
       inkscape:original-d="m 44.920328,272.29806 c 54.748659,2.6e-4 109.497032,2.6e-4 164.245122,0" />
    <path
       style="fill:none;stroke:#000000;stroke-width:0.60465002;stroke-linecap:butt;stroke-linejoin:miter;stroke-miterlimit:4;stroke-dasharray:none;stroke-dashoffset:0;stroke-opacity:1;marker-end:url(#Arrow2Mend)"
       d="M 129.83667,279.92371 V 185.54499"
       id="path1127"
       inkscape:path-effect="#path-effect1129"
       inkscape:original-d="m 129.83667,279.92371 c 2.7e-4,-31.45818 2.7e-4,-62.91777 0,-94.37872" />
    <path
       style="fill:none;stroke:#000000;stroke-width:0.26458299;stroke-linecap:butt;stroke-linejoin:miter;stroke-opacity:1;stroke-miterlimit:4;stroke-dasharray:2.11666389,2.11666389;stroke-dashoffset:0"
       d="M 194.61683,278.47228 V 189.46155"
       id="path1244"
       inkscape:path-effect="#path-effect1246"
       inkscape:original-d="m 194.61683,278.47228 c 2.6e-4,-29.66998 2.6e-4,-59.34022 0,-89.01073" />
    <path
       style="fill:none;stroke:#000000;stroke-width:0.264583px;stroke-linecap:butt;stroke-linejoin:miter;stroke-opacity:1"
       d="m 67.588018,199.28001 c 1.637518,14.54343 6.470105,28.71857 14.05736,41.23361 3.966332,6.5424 8.720448,12.67995 14.611456,17.56162 9.315496,7.71943 21.335316,12.02452 33.430466,12.29896 11.91726,0.27041 23.96959,-3.38383 33.43399,-10.63086 8.57484,-6.56587 14.7895,-15.77194 19.61053,-25.43611 5.81976,-11.6662 9.82278,-24.23648 11.82081,-37.11971"
       id="path1455"
       inkscape:path-effect="#path-effect1457"
       inkscape:original-d="m 67.588018,199.28001 c 4.686051,13.7448 9.371838,27.48934 14.05736,41.23361 4.685522,13.74428 9.741236,11.70801 14.611456,17.56162 4.870216,5.85361 22.287246,8.19957 33.430466,12.29896 11.14322,4.09939 22.2298,-6.293 33.43399,-10.63086 11.20418,-4.33787 13.13374,-17.75112 19.61053,-25.43611 6.47679,-7.68499 7.88081,-24.74621 11.82081,-37.11971"
       sodipodi:nodetypes="csssssc" />
    <path
       style="fill:none;stroke:#000000;stroke-width:0.264583px;stroke-linecap:butt;stroke-linejoin:miter;stroke-opacity:1;marker-end:url(#Arrow1Lend)"
       d="M 42.586203,243.82563 H 67.116396"
       id="path1629"
       inkscape:path-effect="#path-effect1631"
       inkscape:original-d="m 42.586203,243.82563 c 8.176995,2.7e-4 16.353726,2.7e-4 24.530193,0" />
    <path
       style="fill:none;stroke:#000000;stroke-width:0.264583px;stroke-linecap:butt;stroke-linejoin:miter;stroke-opacity:1;marker-start:url(#Arrow1Lstart)"
       d="M 83.769006,243.59191 H 102.70535"
       id="path1746"
       inkscape:path-effect="#path-effect1748"
       inkscape:original-d="m 83.769006,243.59191 c 6.312379,2.7e-4 12.624493,2.7e-4 18.936344,0" />
    <path
       style="fill:none;stroke:#000000;stroke-width:0.264583px;stroke-linecap:butt;stroke-linejoin:miter;stroke-opacity:1"
       d="m 72.790785,244.66984 c 0.809032,-0.55066 1.463889,-1.33267 2.029229,-2.12405 0.461958,-0.64667 0.85438,-1.32893 1.210718,-2.0391 0.170151,-0.33911 0.35053,-0.68854 0.460415,-1.05353 0.132302,-0.43946 -0.04156,-0.75986 -0.49452,-0.35684 -0.226123,0.20118 -0.539985,0.61569 -0.682093,0.83263 -0.310026,0.47326 -0.529408,0.94852 -0.767358,1.46135 -0.336865,0.72601 -0.651491,1.46103 -0.835565,2.243 -0.167597,0.71199 -0.327041,1.55268 -0.119366,2.27699 0.12606,0.43967 0.455871,0.78929 0.869669,0.96857 1.072952,0.46486 2.143993,-0.19097 3.069426,-0.69669"
       id="path2141" />
    <path
       style="fill:none;stroke:#000000;stroke-width:0.264583px;stroke-linecap:butt;stroke-linejoin:miter;stroke-opacity:1"
       d="m 130.23537,271.51375 c -0.29251,-0.0218 -0.48816,0.002 -0.6821,0.23789 -0.22791,0.27758 -0.63672,0.87206 -0.44336,1.25744 0.21993,0.43833 1.18669,0.32865 1.50061,0.068 0.36012,-0.29904 0.15307,-1.15549 -0.34105,-1.15549"
       id="path2202" />
    <path
       style="fill:none;stroke:#000000;stroke-width:0.264583px;stroke-linecap:butt;stroke-linejoin:miter;stroke-opacity:1"
       d="m 137.12452,277.06846 c -0.0909,0.0566 -0.19942,0.0919 -0.27284,0.16993 -0.70217,0.74636 -1.33267,2.87407 -1.4665,3.87428 -0.0879,0.65681 -0.12611,1.37897 -0.0341,2.0391 0.15852,1.13731 1.02865,2.4871 2.31912,2.44691 1.82538,-0.0568 2.93576,-2.50784 3.34227,-3.97623 0.32663,-1.17988 0.47853,-2.68854 0.0682,-3.87429 -0.39803,-1.1502 -1.96163,-1.96945 -3.10353,-1.49533 -0.14689,0.061 -0.5737,0.30292 -0.6821,0.4418 -0.0843,0.10797 -0.11368,0.24922 -0.17052,0.37383 z"
       id="path2204" />
    <path
       style="fill:none;stroke:#000000;stroke-width:0.264583px;stroke-linecap:butt;stroke-linejoin:miter;stroke-opacity:1"
       d="m 71.347821,280.39899 c -0.03411,-0.068 -0.09152,-0.12863 -0.102317,-0.20391 -0.0048,-0.0335 1.126884,-0.064 1.22777,-0.068 0.703011,-0.028 1.410944,-0.068 2.114492,-0.068"
       id="path2206" />
    <path
       style="fill:none;stroke:#000000;stroke-width:0.264583px;stroke-linecap:butt;stroke-linejoin:miter;stroke-opacity:1"
       d="m 78.782647,275.57313 c 0.02111,0.0629 -0.146037,-0.20071 -0.238733,-0.16992 -0.268444,0.0892 -0.996551,2.78561 -1.091348,3.09262 -0.696027,2.25413 -1.337215,4.51255 -1.773447,6.83097"
       id="path2208" />
    <path
       style="fill:none;stroke:#000000;stroke-width:0.264583px;stroke-linecap:butt;stroke-linejoin:miter;stroke-opacity:1"
       d="m 78.782647,275.57313 c -0.0667,0.20069 -0.377812,0.005 -0.306943,-0.13594 0.05866,-0.11691 0.439317,-0.21889 0.545674,-0.27188 0.283176,-0.14109 0.594474,-0.30586 0.920829,-0.30586 1.042446,0 1.605045,0.84085 1.364189,1.83518 -0.351043,1.44922 -1.779119,2.8008 -3.137635,3.33052 -0.14623,0.057 -1.53471,0.49825 -1.53471,0 0,-0.54335 1.425104,-0.28229 1.671129,-0.16992 0.27228,0.12435 0.527889,0.31147 0.750306,0.50977 1.106164,0.98624 1.369245,2.48217 1.568812,3.87429 0.0274,0.19111 0.03695,0.5394 0.272838,0.61172 0.419214,0.12854 0.90583,-0.12846 1.261878,-0.30586 0.429199,-0.21385 0.81634,-0.48921 1.193667,-0.78165"
       id="path2210" />
    <path
       style="fill:none;stroke:#000000;stroke-width:0.264583px;stroke-linecap:butt;stroke-linejoin:miter;stroke-opacity:1"
       d="m 200.36411,284.885 c 0,-1.08724 0.37115,-2.18044 0.61388,-3.22857 0.28061,-1.21171 0.60157,-2.40055 0.92083,-3.6024 0.23912,-0.90019 0.44528,-1.80982 0.64799,-2.7188 0.0155,-0.0695 0.0884,-0.66587 0.20463,-0.78165 0.10527,-0.10491 0.12677,0.56805 0.27283,0.40782 0.0617,-0.0518 -0.0136,-0.25829 0.0682,-0.33985 0.20169,-0.20098 0.56029,-0.29257 0.81852,-0.37383 1.0527,-0.33127 2.53335,-0.36956 2.86479,0.95157 0.0856,0.34119 0.0963,0.74634 0,1.08752 -0.17897,0.6341 -0.63177,1.2147 -1.05724,1.69925 -0.47762,0.54393 -1.00946,1.0134 -1.60292,1.42737 -0.28934,0.20182 -0.58274,0.39874 -0.88673,0.57774 -0.21669,0.12759 -0.4937,0.2739 -0.7503,0.30586 -0.11831,0.0147 -0.41612,-0.14543 -0.20463,-0.27188 0.49313,-0.29484 1.37426,0.4467 1.70524,0.71369 0.52845,0.42629 0.94816,0.90167 1.33008,1.46135 0.28353,0.41549 0.49869,0.8079 0.64799,1.29143 0.12393,0.40135 0.14039,1.33504 0.61389,1.52932 0.13006,0.0534 0.27283,0.068 0.40925,0.10195"
       id="path2212" />
    <path
       style="fill:none;stroke:#000000;stroke-width:0.264583px;stroke-linecap:butt;stroke-linejoin:miter;stroke-opacity:1"
       d="m 149.49337,188.64096 c -0.23825,1.66627 -0.1805,3.40217 -0.24115,5.09457 -0.0735,2.04942 -0.20926,4.12429 -0.53055,6.15193 -0.23959,1.51206 -0.61468,3.03781 -1.15755,4.46976 -0.31069,0.81952 -1.17866,2.96162 -2.4598,2.40309 -0.56343,-0.24563 -0.85144,-0.96348 -1.01286,-1.48992 -0.66558,-2.17062 0.0581,-5.27863 2.21864,-6.39223 1.38959,-0.71623 2.70089,-0.23497 4.1479,-0.28838 0.93526,-0.0345 1.57687,-0.48438 2.26688,-1.05736"
       id="path2461" />
    <path
       style="fill:none;stroke:#000000;stroke-width:0.264583px;stroke-linecap:butt;stroke-linejoin:miter;stroke-opacity:1"
       d="m 149.05929,185.70918 c -0.25259,-1.31282 0.86665,-0.74269 0.33762,0.0481 -0.24506,0.3663 -0.41136,-0.33364 -0.28939,-0.57674"
       id="path2463" />
    <path
       style="fill:none;stroke:#000000;stroke-width:0.264583px;stroke-linecap:butt;stroke-linejoin:miter;stroke-opacity:1"
       d="m 213.00509,261.66887 c 0.0983,0.032 -0.34743,-0.86512 -0.19292,-0.86512 0.12452,0 1.24621,1.81249 1.25401,1.82635 1.11509,1.98081 1.85664,4.29642 3.32797,6.05581"
       id="path2578" />
    <path
       style="fill:none;stroke:#000000;stroke-width:0.264583px;stroke-linecap:butt;stroke-linejoin:miter;stroke-opacity:1"
       d="m 218.50347,260.6115 c -0.0385,-0.0926 -0.0832,-0.60741 -0.33762,-0.48062 -0.47306,0.23571 -1.64308,2.35855 -1.88102,2.7876 -1.1107,2.00277 -2.05144,4.09961 -3.32797,6.00774"
       id="path2580" />
  </g>
</svg>
