<?xml version="1.0" encoding="UTF-8" standalone="no"?>
<!-- Created with Inkscape (http://www.inkscape.org/) -->

<svg
   width="240mm"
   height="120mm"
   viewBox="0 0 240 120"
   version="1.1"
   id="svg8"
   inkscape:version="1.1.2 (0a00cf5339, 2022-02-04)"
   sodipodi:docname="1732352594.svg"
   xmlns:inkscape="http://www.inkscape.org/namespaces/inkscape"
   xmlns:sodipodi="http://sodipodi.sourceforge.net/DTD/sodipodi-0.dtd"
   xmlns="http://www.w3.org/2000/svg"
   xmlns:svg="http://www.w3.org/2000/svg"
   xmlns:rdf="http://www.w3.org/1999/02/22-rdf-syntax-ns#"
   xmlns:cc="http://creativecommons.org/ns#"
   xmlns:dc="http://purl.org/dc/elements/1.1/">
  <defs
     id="defs2">
    <marker
       style="overflow:visible"
       id="Arrow1Lstart"
       refX="0.0"
       refY="0.0"
       orient="auto"
       inkscape:stockid="Arrow1Lstart"
       inkscape:isstock="true">
      <path
         transform="scale(0.8) translate(12.5,0)"
         style="fill-rule:evenodd;fill:context-stroke;stroke:context-stroke;stroke-width:1.0pt"
         d="M 0.0,0.0 L 5.0,-5.0 L -12.5,0.0 L 5.0,5.0 L 0.0,0.0 z "
         id="path1291" />
    </marker>
    <inkscape:path-effect
       effect="spiro"
       id="path-effect1209"
       is_visible="true"
       lpeversion="1" />
    <inkscape:path-effect
       effect="spiro"
       id="path-effect1092"
       is_visible="true"
       lpeversion="1" />
    <inkscape:path-effect
       effect="spiro"
       id="path-effect975"
       is_visible="true"
       lpeversion="1" />
    <inkscape:path-effect
       effect="spiro"
       id="path-effect858"
       is_visible="true"
       lpeversion="1" />
  </defs>
  <sodipodi:namedview
     id="base"
     pagecolor="#ffffff"
     bordercolor="#666666"
     borderopacity="1.0"
     inkscape:pageopacity="0.0"
     inkscape:pageshadow="2"
     inkscape:zoom="11.250056"
     inkscape:cx="474.53096"
     inkscape:cy="195.55458"
     inkscape:document-units="mm"
     inkscape:current-layer="layer1"
     showgrid="false"
     showborder="true"
     width="200mm"
     showguides="true"
     inkscape:guide-bbox="true"
     inkscape:window-width="2160"
     inkscape:window-height="1375"
     inkscape:window-x="0"
     inkscape:window-y="0"
     inkscape:window-maximized="1"
     inkscape:pagecheckerboard="0">
    <inkscape:grid
       type="xygrid"
       id="grid815"
       units="mm"
       spacingx="10"
       spacingy="10"
       empspacing="4"
       dotted="false" />
  </sodipodi:namedview>
  <metadata
     id="metadata5">
    <rdf:RDF>
      <cc:Work
         rdf:about="">
        <dc:format>image/svg+xml</dc:format>
        <dc:type
           rdf:resource="http://purl.org/dc/dcmitype/StillImage" />
      </cc:Work>
    </rdf:RDF>
  </metadata>
  <g
     inkscape:label="Layer 1"
     inkscape:groupmode="layer"
     id="layer1"
     transform="translate(0,-177)">
    <path
       style="fill:none;stroke:#000000;stroke-width:0.264583px;stroke-linecap:butt;stroke-linejoin:miter;stroke-opacity:1"
       d="M 62.839083,209.41074 H 190.74861"
       id="path856"
       inkscape:path-effect="#path-effect858"
       inkscape:original-d="m 62.839083,209.41074 c 42.636777,2.7e-4 85.273277,2.7e-4 127.909527,0" />
    <path
       style="fill:none;stroke:#000000;stroke-width:0.264583px;stroke-linecap:butt;stroke-linejoin:miter;stroke-opacity:1"
       d="M 63.900171,248.05254 H 190.55569"
       id="path973"
       inkscape:path-effect="#path-effect975"
       inkscape:original-d="m 63.900171,248.05254 c 42.218769,2.7e-4 84.437279,2.7e-4 126.655519,0" />
    <path
       style="fill:none;stroke:#000000;stroke-width:0.26458299;stroke-linecap:butt;stroke-linejoin:miter;stroke-opacity:1;stroke-miterlimit:4;stroke-dasharray:2.11666389,2.11666389;stroke-dashoffset:0"
       d="M 62.260305,227.96265 H 191.42386"
       id="path1090"
       inkscape:path-effect="#path-effect1092"
       inkscape:original-d="m 62.260305,227.96265 c 43.054785,2.6e-4 86.109305,2.6e-4 129.163555,0" />
    <path
       style="fill:none;stroke:#000000;stroke-width:0.264583px;stroke-linecap:butt;stroke-linejoin:miter;stroke-opacity:1;marker-start:url(#Arrow1Lstart)"
       d="m 37.551061,188.56038 v 81.69977"
       id="path1207"
       inkscape:path-effect="#path-effect1209"
       inkscape:original-d="m 37.551061,188.56038 c 2.64e-4,27.23352 2.64e-4,54.46678 0,81.69977" />
    <path
       style="fill:none;stroke:#000000;stroke-width:0.264583px;stroke-linecap:butt;stroke-linejoin:miter;stroke-opacity:1"
       d="m 35.831121,227.61773 c 1.319228,0.34101 2.734474,0.20391 4.092567,0.20391"
       id="path1592" />
    <path
       style="fill:none;stroke:#000000;stroke-width:0.264583px;stroke-linecap:butt;stroke-linejoin:miter;stroke-opacity:1"
       d="m 26.588743,226.5642 c -0.06821,-0.068 -0.127494,-0.14626 -0.204626,-0.20391 -0.153319,-0.11458 -0.57665,0.4584 -0.613887,0.50978 -0.464625,0.64107 -0.833098,1.43206 -0.989036,2.20902 -0.239401,1.1928 0.428429,2.03333 1.705235,1.86917 1.360056,-0.17488 2.981402,-1.98654 2.796588,-3.3985 -0.135351,-1.03403 -1.176145,-1.71375 -2.182702,-1.5633 -0.183319,0.0274 -0.514445,0.17107 -0.682094,0.23789"
       id="path1594" />
    <path
       style="fill:none;stroke:#000000;stroke-width:0.264583px;stroke-linecap:butt;stroke-linejoin:miter;stroke-opacity:1"
       d="m 34.603351,209.29986 c 0.07958,-0.068 0.143653,-0.16018 0.238736,-0.20391 0.236236,-0.10865 2.088899,0.0928 2.421432,0.10195 1.205561,0.0334 2.410735,-0.034 3.615098,-0.034"
       id="path1596" />
    <path
       style="fill:none;stroke:#000000;stroke-width:0.264583px;stroke-linecap:butt;stroke-linejoin:miter;stroke-opacity:1"
       d="m 26.111279,204.40603 c -0.09095,0.16992 -0.205525,0.32918 -0.272839,0.50977 -0.188136,0.50474 -0.267059,1.04375 -0.409255,1.56331 -0.356063,1.30097 -0.708463,2.59695 -1.023143,3.90826 -0.06734,0.28061 -0.278914,1.36545 -0.511571,1.5973"
       id="path1598" />
    <path
       style="fill:none;stroke:#000000;stroke-width:0.264583px;stroke-linecap:butt;stroke-linejoin:miter;stroke-opacity:1"
       d="m 26.111279,204.40603 c 0.0341,0.0906 0.06406,0.18292 0.102313,0.27188 0.01001,0.0233 0.04412,-0.0447 0.03411,-0.068 -0.03231,-0.0751 -0.189747,-0.14191 -0.136419,-0.20391 0.0745,-0.0866 0.230189,-0.006 0.341045,-0.034 0.08575,-0.0214 0.379751,-0.21016 0.443363,-0.23789 0.502269,-0.21897 1.329097,-0.37499 1.739341,0.10195 0.797748,0.92744 0.302157,2.57048 -0.306943,3.46646 -0.621622,0.91441 -2.064808,1.95948 -3.239949,1.69925 -1.048565,-0.23219 -0.467626,-1.42736 0.545678,-1.42736 1.697887,0 2.680338,1.76928 3.956143,2.61684"
       id="path1600" />
    <path
       style="fill:none;stroke:#000000;stroke-width:0.264583px;stroke-linecap:butt;stroke-linejoin:miter;stroke-opacity:1"
       d="m 36.308588,248.50804 c -0.02727,0.11813 -0.282631,-0.22814 -0.204626,-0.30587 0.132413,-0.13194 0.656487,-0.12056 0.818512,-0.13594 0.819663,-0.0778 1.636623,-0.0204 2.455537,0.034"
       id="path1602" />
    <path
       style="fill:none;stroke:#000000;stroke-width:0.264583px;stroke-linecap:butt;stroke-linejoin:miter;stroke-opacity:1"
       d="m 20.177058,249.2557 c 0.0956,-0.0687 -0.393096,-0.23789 -0.306942,-0.23789 0.551703,0 1.110484,-0.0912 1.671131,-0.068 0.602267,0.025 1.207816,0.11017 1.80755,0.16992"
       id="path1604" />
    <path
       style="fill:none;stroke:#000000;stroke-width:0.264583px;stroke-linecap:butt;stroke-linejoin:miter;stroke-opacity:1"
       d="m 26.179488,245.31345 c -0.742516,2.06708 -1.305112,4.2084 -1.773446,6.35518 -0.132063,0.60537 -0.465479,1.40715 -0.306942,2.0391"
       id="path1606" />
    <path
       style="fill:none;stroke:#000000;stroke-width:0.264583px;stroke-linecap:butt;stroke-linejoin:miter;stroke-opacity:1"
       d="m 26.179488,245.31345 c -0.02274,0.0566 -0.124852,0.14719 -0.06821,0.16993 0.05664,0.0227 0.02794,-0.12407 0.06821,-0.16993 0.12191,-0.13884 0.262862,-0.26111 0.409255,-0.37383 0.364951,-0.28102 1.340642,-0.71228 1.671133,-0.13594 0.785264,1.3694 -0.818695,3.56856 -1.841655,4.38406 -0.556168,0.44337 -1.177686,0.82188 -1.875759,0.98556 -0.04196,0.01 -0.545676,0.11713 -0.545676,-0.068 0,-0.16368 0.476291,-0.29468 0.511569,-0.30587 1.093222,-0.34662 1.990173,0.21318 2.72838,0.98557 0.150307,0.15726 0.522406,0.6321 0.647991,0.81564 0.269052,0.39322 0.395618,0.83467 0.818512,1.08751"
       id="path1608" />
    <rect
       style="fill:#3e4500;fill-opacity:0;stroke:#000000;stroke-width:0.264583;stroke-linejoin:bevel;stroke-miterlimit:4;stroke-dasharray:2.11666, 2.11666;stroke-dashoffset:0;paint-order:fill markers stroke"
       id="rect1737"
       width="35.088306"
       height="17.662766"
       x="105.93827"
       y="210.29144" />
    <path
       style="fill:none;stroke:#000000;stroke-width:0.264583px;stroke-linecap:butt;stroke-linejoin:miter;stroke-opacity:1"
       d="m 121.93787,216.32779 c -0.0341,-0.006 -0.068,-0.0208 -0.10231,-0.017 -0.10174,0.0113 -0.5156,0.38796 -0.59683,0.45879 -0.6646,0.57948 -1.14626,1.32834 -1.19367,2.22602 -0.0168,0.31793 0.0391,0.59355 0.17052,0.88361 0.51447,1.13518 1.89248,1.33326 2.98417,1.05353 0.55599,-0.14247 1.04594,-0.36449 1.39829,-0.83263 0.65204,-0.86633 0.56357,-2.28555 -0.18758,-3.07564 -0.2818,-0.29641 -0.67648,-0.46826 -1.05724,-0.59473 -0.36564,-0.12146 -0.68201,-0.16995 -1.05725,-0.068"
       id="path1820" />
    <path
       style="fill:none;stroke:#000000;stroke-width:0.264583px;stroke-linecap:butt;stroke-linejoin:miter;stroke-opacity:1"
       d="m 122.07429,218.77471 c -0.20082,-0.19609 0.0167,-0.38937 0.20463,-0.50978 0.48103,-0.30815 0.95781,0.15007 0.56273,0.54376 -0.16724,0.16666 -0.52522,0.23741 -0.73325,0.11895 -0.0178,-0.0101 -0.0467,-0.014 -0.0512,-0.034 -0.009,-0.0391 0.0171,-0.0789 0.0171,-0.11894 0,-0.0569 -0.027,-0.11387 -0.0171,-0.16993 0.0286,-0.16152 0.23245,-0.3166 0.34105,-0.42481"
       id="path1822" />
    <path
       style="fill:none;stroke:#000000;stroke-width:0.264583px;stroke-linecap:butt;stroke-linejoin:miter;stroke-opacity:1"
       d="m 128.2984,214.78148 c -0.0341,-0.006 -0.0795,-0.043 -0.10231,-0.017 -0.0339,0.0386 -0.0112,0.10198 -0.017,0.15293 -0.0112,0.0963 -0.0207,0.19285 -0.0341,0.28888 -0.0234,0.1672 -0.12581,0.80917 -0.15347,0.95158 -0.17545,0.90329 -0.39395,1.79467 -0.54567,2.7018"
       id="path1824" />
    <path
       style="fill:none;stroke:#000000;stroke-width:0.264583px;stroke-linecap:butt;stroke-linejoin:miter;stroke-opacity:1"
       d="m 128.2984,214.78148 c -0.0682,-0.0113 -0.13962,-0.0104 -0.20463,-0.034 -0.0267,-0.01 0.0296,-0.0496 0.0512,-0.068 0.0966,-0.0825 0.11973,-0.0956 0.25579,-0.15293 0.406,-0.17117 0.84263,-0.19993 1.27892,-0.15293 0.49548,0.0534 1.08052,0.34125 1.00609,0.93459 -0.016,0.12735 -0.078,0.30439 -0.15347,0.40782 -0.33965,0.46538 -1.02969,0.71019 -1.55176,0.8836 -0.21039,0.0699 -0.6146,0.232 -0.85262,0.15293 -0.0927,-0.0308 0.13371,-0.0884 0.25578,-0.10195 0.31689,-0.0351 0.65403,-0.0487 0.97199,-0.034 0.67602,0.0313 2.21099,0.45352 1.89281,1.44436 -0.25031,0.77945 -1.48934,1.13617 -2.19976,1.17247 -0.26737,0.0137 -0.67895,0.0201 -0.88672,-0.18691"
       id="path1826" />
    <path
       style="fill:none;stroke:#000000;stroke-width:0.264583px;stroke-linecap:butt;stroke-linejoin:miter;stroke-opacity:1"
       d="m 127.47989,213.26915 c 0.9975,-0.0523 2.01349,-0.0399 3.00121,-0.20391 0.0701,-0.0116 0.57185,-0.0692 0.61389,-0.15293 0.0394,-0.0785 -0.14796,-0.0829 -0.17052,-0.085 -0.28464,-0.0258 -0.56906,-0.0585 -0.85262,-0.10196 -0.0857,-0.0131 -0.1723,-0.0272 -0.25579,-0.051 -0.0346,-0.01 -0.13825,-0.034 -0.10231,-0.034 0.21472,0 0.60907,0.11368 0.83556,0.15293 0.16528,0.0286 0.33292,0.0559 0.49452,0.10195 0.0385,0.011 0.19674,0.0353 0.22168,0.085 0.0357,0.0711 -0.12229,0.1348 -0.15347,0.15293 -0.22049,0.12817 -0.55218,0.19341 -0.73325,0.37383"
       id="path1828" />
    <path
       style="fill:none;stroke:#000000;stroke-width:0.264583px;stroke-linecap:butt;stroke-linejoin:miter;stroke-opacity:1"
       d="m 62.260305,227.96265 c 0.108892,0.065 0.211227,0.14254 0.326678,0.19502 0.09233,0.042 0.944269,-0.007 1.108403,0 0.301665,0.012 0.601983,0.0576 0.903774,0.068 0.732568,0.0252 1.466427,0.017 2.199757,0.017 0.87799,0 1.749213,-0.0932 2.626061,-0.11895 0.460007,-0.0135 0.921266,0.0143 1.381241,0 0.665345,-0.0207 1.329635,-0.083 1.995128,-0.10195 0.625681,-0.0178 1.250841,-0.0161 1.875758,-0.068 0.899747,-0.0747 1.791425,-0.10196 2.694271,-0.10196 0.352417,0 0.704831,0 1.057248,0 0.130733,0 0.261469,0 0.392203,0 0.0341,0 0.102314,0.0341 0.102314,0 0,-0.003 -0.75307,-0.16992 -0.835565,-0.16992"
       id="path1830" />
    <path
       style="fill:none;stroke:#000000;stroke-width:0.264583px;stroke-linecap:butt;stroke-linejoin:miter;stroke-opacity:1"
       d="m 74.813522,226.78128 c -0.01201,-0.0421 -0.05258,-0.13167 -0.0341,-0.18691 0.04162,-0.12444 0.398508,-0.0206 0.460412,0 0.298305,0.0991 0.561184,0.30966 0.835568,0.4588 0.299548,0.16281 0.607748,0.30689 0.920824,0.4418 0.496869,0.21411 0.990827,0.44649 1.51766,0.57774 0.177943,0.0443 0.39737,0.10291 0.579782,0.051 0.009,-0.003 0.166777,-0.0547 0.136419,-0.085 -0.01807,-0.018 -0.816917,0.20776 -0.869669,0.2209 -0.837028,0.20852 -1.654162,0.42098 -2.45554,0.74767 -0.522849,0.21314 -1.013931,0.4797 -1.517661,0.73067"
       id="path1832" />
    <path
       style="fill:none;stroke:#000000;stroke-width:0.264583px;stroke-linecap:butt;stroke-linejoin:miter;stroke-opacity:1"
       d="m 77.354326,220.59603 c -0.03979,0.0906 -0.09035,0.17725 -0.119367,0.27188 -0.05446,0.17759 -0.114604,0.66829 -0.136419,0.81563 -0.313079,2.11451 0.167793,-1.19773 -0.170524,1.22346 -0.142907,1.02273 -0.243655,2.0493 -0.3581,3.07564"
       id="path1834" />
    <path
       style="fill:none;stroke:#000000;stroke-width:0.264583px;stroke-linecap:butt;stroke-linejoin:miter;stroke-opacity:1"
       d="m 73.977957,220.78295 c 0.328067,-0.0385 0.259315,-0.0418 0.596834,-0.034 1.285195,0.0298 2.569771,0.12876 3.853833,0.18692 1.001083,0.0453 1.999848,0.017 3.001214,0.017"
       id="path1836" />
    <path
       style="fill:none;stroke:#000000;stroke-width:0.264583px;stroke-linecap:butt;stroke-linejoin:miter;stroke-opacity:1"
       d="m 74.250795,224.79317 c 0.421418,-0.0314 0.856358,-0.0337 1.278927,0 0.632211,0.0504 1.260528,0.1514 1.892813,0.2039 0.964952,0.0801 1.933097,0.0888 2.8989,0.15294"
       id="path1838" />
    <path
       style="fill:none;stroke:#000000;stroke-width:0.264583px;stroke-linecap:butt;stroke-linejoin:miter;stroke-opacity:1"
       d="m 123.72119,237.9745 c -0.93332,-0.7119 -1.95291,-0.2105 -2.66016,0.61173 -0.65333,0.75954 -1.13803,1.88048 -0.81852,2.88872 0.49116,1.54986 2.6941,1.82959 3.99026,1.29143 0.33759,-0.14017 0.75057,-0.32554 1.02314,-0.57775 0.94684,-0.87611 1.20611,-2.78208 0.13642,-3.67037 -0.39904,-0.33136 -0.87118,-0.4455 -1.3642,-0.54376"
       id="path1844" />
    <path
       style="fill:none;stroke:#000000;stroke-width:0.264583px;stroke-linecap:butt;stroke-linejoin:miter;stroke-opacity:1"
       d="m 122.05006,239.26593 c 0.0455,0.0906 0.0745,0.19162 0.13642,0.27188 0.17305,0.22417 0.49749,0.40339 0.7162,0.57774 0.32146,0.25627 0.62911,0.52875 0.88672,0.84963"
       id="path1846" />
    <path
       style="fill:none;stroke:#000000;stroke-width:0.264583px;stroke-linecap:butt;stroke-linejoin:miter;stroke-opacity:1"
       d="m 124.02813,239.02804 c -0.0999,0 -0.19204,-0.0304 -0.27283,0.034 -0.1617,0.12891 -0.27004,0.3255 -0.40926,0.47579 -0.36542,0.39448 -0.7443,0.77567 -1.12545,1.15549"
       id="path1848" />
    <path
       style="fill:none;stroke:#000000;stroke-width:0.264583px;stroke-linecap:butt;stroke-linejoin:miter;stroke-opacity:1"
       d="m 131.32654,239.02804 c -0.0568,0.0906 -0.13968,0.16944 -0.17052,0.27188 -0.11634,0.38644 -0.1332,1.27216 -0.20463,1.69924 -0.15367,0.9188 -0.33736,1.8313 -0.47746,2.75278 -0.0649,0.42682 -0.0994,0.872 -0.20463,1.29143"
       id="path1850" />
    <path
       style="fill:none;stroke:#000000;stroke-width:0.264583px;stroke-linecap:butt;stroke-linejoin:miter;stroke-opacity:1"
       d="m 131.32654,239.02804 c 0.0341,0.068 0.0631,0.13876 0.10232,0.2039 0.0392,0.0651 -0.12645,-0.13178 -0.10232,-0.2039 0.0356,-0.10654 0.14958,-0.16955 0.23874,-0.2379 0.33686,-0.2582 0.92854,-0.26456 1.33008,-0.23789 0.74457,0.0495 1.77458,0.80058 1.15957,1.59729 -0.44395,0.5751 -1.22494,0.84432 -1.87577,1.08752 -0.30425,0.11369 -0.60657,0.19359 -0.92082,0.27187 -0.10169,0.0253 -0.20357,0.0508 -0.30695,0.068 -0.0336,0.006 -0.13642,0 -0.10231,0 0.79956,0 1.5941,-0.0215 2.38733,0.10195 0.24413,0.038 0.77062,0.14584 1.02314,0.20391 0.73748,0.16959 1.66292,0.45285 0.7162,1.29143 -0.69482,0.61544 -1.58649,0.96079 -2.48965,1.1215 -0.38063,0.0677 -0.77298,0.14585 -1.15956,0.16993 -0.0429,0.003 -0.39473,-0.0434 -0.44336,0 -0.20974,0.187 -0.40925,0.38516 -0.61388,0.57774"
       id="path1965" />
    <path
       style="fill:none;stroke:#000000;stroke-width:0.264583px;stroke-linecap:butt;stroke-linejoin:miter;stroke-opacity:1"
       d="m 130.13288,237.15887 c 0.32728,-0.0627 0.6581,-0.0993 0.98904,-0.13594 0.94386,-0.10451 1.88877,-0.21471 2.83069,-0.33985 0.0631,-0.008 0.9293,-0.0935 0.7162,-0.30587 -0.15909,-0.15852 -1.67113,-0.15542 -1.67113,-0.13594 0,0.0412 0.50631,0.10134 0.51157,0.10196 0.13796,0.0162 1.7256,0.12225 1.73934,0.13594 0.0743,0.074 -0.662,0.51135 -0.7162,0.54376 -0.22587,0.13504 -0.44644,0.2904 -0.6821,0.40782"
       id="path1967" />
    <path
       style="fill:none;stroke:#000000;stroke-width:0.264583px;stroke-linecap:butt;stroke-linejoin:miter;stroke-opacity:1"
       d="m 121.68431,206.43993 c 0.11986,0.0746 0.13638,0.0708 0.22168,0.16993 0.15092,0.17545 0.28187,0.35913 0.44336,0.52676 0.5513,0.57225 1.15838,1.10038 1.7905,1.5803 0.34031,0.25837 0.68554,0.50912 1.04019,0.74767 0.46897,0.31544 0.94844,0.63717 1.46651,0.86662 0.0707,0.0313 0.70935,0.22425 0.73325,0.27188 0.0227,0.0452 -0.10142,0.15528 -0.11937,0.16992 -0.2705,0.22054 -0.61248,0.3692 -0.92082,0.52677 -0.87287,0.44605 -1.71796,0.94546 -2.5067,1.52932 -0.28882,0.2138 -0.89122,0.63768 -1.05725,0.96857"
       id="path2002" />
    <path
       style="fill:none;stroke:#000000;stroke-width:0.264583px;stroke-linecap:butt;stroke-linejoin:miter;stroke-opacity:1"
       d="m 130.00586,203.5852 c -0.002,-0.33561 -0.12458,-0.65076 -0.47746,-0.73068 -0.85988,-0.19474 -1.74497,0.70469 -2.01218,1.44436 -0.25938,0.71798 0.41415,0.79621 0.92082,0.54376 0.0945,-0.0471 0.2244,-0.13431 0.30695,-0.20391 0.17631,-0.17569 0.003,-0.0109 0.15347,-0.13594 0.0157,-0.0131 0.0486,-0.0654 0.0341,-0.051 -0.14454,0.14403 -0.25285,0.40879 -0.3581,0.57775 -0.2395,0.38451 -0.59699,0.91224 -0.44336,1.39338 0.0925,0.28978 0.36357,0.44687 0.63094,0.54376 0.78986,0.28621 1.47709,-0.0597 1.96102,-0.6797"
       id="path2004" />
    <path
       style="fill:none;stroke:#000000;stroke-width:0.264583px;stroke-linecap:butt;stroke-linejoin:miter;stroke-opacity:1"
       d="m 122.3323,227.96978 c 1.15267,-0.38872 2.24396,-0.92105 3.32521,-1.47835 0.41748,-0.21517 0.83395,-0.43524 1.24482,-0.6627 0.0444,-0.0246 0.14087,-0.0635 0.10232,-0.10196"
       id="path2006" />
    <path
       style="fill:none;stroke:#000000;stroke-width:0.264583px;stroke-linecap:butt;stroke-linejoin:miter;stroke-opacity:1"
       d="m 122.3323,227.96978 c -0.0341,0.11328 -0.0905,0.22213 -0.10231,0.33985 -0.002,0.0226 0.0456,-0.002 0.0682,0 0.067,0.007 0.16013,0.028 0.22168,0.051 0.26486,0.099 0.51621,0.25231 0.7503,0.40782 0.37866,0.25155 0.74573,0.52486 1.1084,0.79865 0.53891,0.40683 1.07177,0.80289 1.44945,1.37639 0.0949,0.14406 0.21246,0.38943 0.28989,0.54376"
       id="path2008" />
    <path
       style="fill:none;stroke:#000000;stroke-width:0.264583px;stroke-linecap:butt;stroke-linejoin:miter;stroke-opacity:1"
       d="m 132.54666,223.09294 c -0.0773,-1.6243 -2.36785,-0.56835 -2.31912,0.64571 0.0307,0.76591 0.91463,0.85145 1.48356,0.62872 0.0642,-0.0251 0.67359,-0.31434 0.56272,-0.42481 -0.12706,-0.12661 -0.55911,0.16181 -0.63093,0.20391 -0.54912,0.32188 -1.878,1.57919 -0.81852,2.10707 0.27124,0.13514 0.49731,0.17966 0.80146,0.20391 0.39511,0.0315 0.81414,-0.0252 1.19367,-0.13594 0.40161,-0.11713 0.77396,-0.30665 1.09135,-0.57775"
       id="path2010" />
  </g>
</svg>
