<?xml version="1.0" encoding="UTF-8" standalone="no"?>
<!-- Created with Inkscape (http://www.inkscape.org/) -->

<svg
   width="240mm"
   height="120mm"
   viewBox="0 0 240 120"
   version="1.1"
   id="svg8"
   inkscape:version="1.1.2 (0a00cf5339, 2022-02-04)"
   sodipodi:docname="1732268797.svg"
   xmlns:inkscape="http://www.inkscape.org/namespaces/inkscape"
   xmlns:sodipodi="http://sodipodi.sourceforge.net/DTD/sodipodi-0.dtd"
   xmlns="http://www.w3.org/2000/svg"
   xmlns:svg="http://www.w3.org/2000/svg"
   xmlns:rdf="http://www.w3.org/1999/02/22-rdf-syntax-ns#"
   xmlns:cc="http://creativecommons.org/ns#"
   xmlns:dc="http://purl.org/dc/elements/1.1/">
  <defs
     id="defs2">
    <inkscape:path-effect
       effect="spiro"
       id="path-effect3178"
       is_visible="true"
       lpeversion="1" />
    <inkscape:path-effect
       effect="spiro"
       id="path-effect3061"
       is_visible="true"
       lpeversion="1" />
    <inkscape:path-effect
       effect="spiro"
       id="path-effect2944"
       is_visible="true"
       lpeversion="1" />
    <marker
       style="overflow:visible;"
       id="Arrow1Lend"
       refX="0.0"
       refY="0.0"
       orient="auto"
       inkscape:stockid="Arrow1Lend"
       inkscape:isstock="true">
      <path
         transform="scale(0.8) rotate(180) translate(12.5,0)"
         style="fill-rule:evenodd;fill:context-stroke;stroke:context-stroke;stroke-width:1.0pt;"
         d="M 0.0,0.0 L 5.0,-5.0 L -12.5,0.0 L 5.0,5.0 L 0.0,0.0 z "
         id="path2519" />
    </marker>
    <inkscape:path-effect
       effect="spiro"
       id="path-effect2434"
       is_visible="true"
       lpeversion="1" />
    <inkscape:path-effect
       effect="spiro"
       id="path-effect2284"
       is_visible="true"
       lpeversion="1" />
    <inkscape:path-effect
       effect="spiro"
       id="path-effect2167"
       is_visible="true"
       lpeversion="1" />
    <inkscape:perspective
       sodipodi:type="inkscape:persp3d"
       inkscape:vp_x="7.0994761 : 116.76906 : 1"
       inkscape:vp_y="0 : 1000 : 0"
       inkscape:vp_z="247.09948 : 116.76906 : 1"
       inkscape:persp3d-origin="127.09948 : 96.769061 : 1"
       id="perspective873" />
  </defs>
  <sodipodi:namedview
     id="base"
     pagecolor="#ffffff"
     bordercolor="#666666"
     borderopacity="1.0"
     inkscape:pageopacity="0.0"
     inkscape:pageshadow="2"
     inkscape:zoom="1.406257"
     inkscape:cx="478.21983"
     inkscape:cy="209.77673"
     inkscape:document-units="mm"
     inkscape:current-layer="layer1"
     showgrid="false"
     showborder="true"
     width="200mm"
     showguides="true"
     inkscape:guide-bbox="true"
     inkscape:window-width="2160"
     inkscape:window-height="1375"
     inkscape:window-x="0"
     inkscape:window-y="0"
     inkscape:window-maximized="1"
     inkscape:pagecheckerboard="0">
    <inkscape:grid
       type="xygrid"
       id="grid815"
       units="mm"
       spacingx="10"
       spacingy="10"
       empspacing="4"
       dotted="false" />
  </sodipodi:namedview>
  <metadata
     id="metadata5">
    <rdf:RDF>
      <cc:Work
         rdf:about="">
        <dc:format>image/svg+xml</dc:format>
        <dc:type
           rdf:resource="http://purl.org/dc/dcmitype/StillImage" />
      </cc:Work>
    </rdf:RDF>
  </metadata>
  <g
     inkscape:label="Layer 1"
     inkscape:groupmode="layer"
     id="layer1"
     transform="translate(0,-177)">
    <rect
       style="fill:#3e4500;fill-opacity:0;stroke:#000000;stroke-width:1.31861;stroke-linejoin:bevel;stroke-miterlimit:4;stroke-dasharray:none;stroke-opacity:1;paint-order:fill markers stroke"
       id="rect2130"
       width="39.933655"
       height="32.509659"
       x="52.478088"
       y="241.5562" />
    <path
       style="fill:none;stroke:#000000;stroke-width:0.348882px;stroke-linecap:butt;stroke-linejoin:miter;stroke-opacity:1;marker-end:url(#Arrow1Lend)"
       d="M 52.47809,274.06586 H 175.72061"
       id="path2165"
       inkscape:path-effect="#path-effect2167"
       inkscape:original-d="m 52.47809,274.06586 c 41.081184,3.5e-4 82.16202,3.5e-4 123.24252,0" />
    <path
       style="fill:none;stroke:#000000;stroke-width:0.348882px;stroke-linecap:butt;stroke-linejoin:miter;stroke-opacity:1;marker-end:url(#Arrow1Lend)"
       d="M 52.47809,274.06586 V 193.56048"
       id="path2282"
       inkscape:path-effect="#path-effect2284"
       inkscape:original-d="m 52.47809,274.06586 c 3.41e-4,-26.83478 3.41e-4,-53.6699 0,-80.50538" />
    <path
       style="fill:none;stroke:#000000;stroke-width:0.349432;stroke-linecap:butt;stroke-linejoin:miter;stroke-miterlimit:4;stroke-dasharray:none;stroke-opacity:1;marker-end:url(#Arrow1Lend)"
       d="M 52.47809,274.06586 158.53738,229.68492"
       id="path2432"
       inkscape:path-effect="#path-effect2434"
       inkscape:original-d="m 52.47809,274.06586 c 35.353437,-14.79328 70.70654,-29.58693 106.05929,-44.38094" />
    <path
       style="fill:none;stroke:#000000;stroke-width:0.348882px;stroke-linecap:butt;stroke-linejoin:miter;stroke-opacity:1"
       d="m 173.75935,282.25161 c 2.75193,2.73891 4.98432,6.0626 7.96905,8.54557"
       id="path2817" />
    <path
       style="fill:none;stroke:#000000;stroke-width:0.348882px;stroke-linecap:butt;stroke-linejoin:miter;stroke-opacity:1"
       d="m 180.42098,281.86318 c -0.22829,0.19421 -0.50046,0.34297 -0.68485,0.58264 -0.67192,0.87339 -1.26017,2.37755 -1.86774,3.36645 -1.15597,1.88145 -2.48255,3.64561 -3.67323,5.50282"
       id="path2819" />
    <path
       style="fill:none;stroke:#000000;stroke-width:0.348882px;stroke-linecap:butt;stroke-linejoin:miter;stroke-opacity:1"
       d="m 164.66967,233.11458 c -0.0208,-0.12944 -0.11863,-0.27109 -0.0622,-0.38843 0.0329,-0.0687 3.17485,-0.8359 3.48645,-0.90635 0.86661,-0.19589 1.72808,-0.43392 2.55258,-0.77687 0.0954,-0.0397 1.31695,-0.71212 1.36969,-0.71212 0.0509,0 -0.099,0.37363 -0.18678,0.64739 -0.20704,0.64587 -0.0396,0.30956 -0.3113,1.03582 -0.64133,1.71486 -1.73032,3.1152 -2.73936,4.59649 -0.45823,0.67268 -0.86875,1.36581 -1.36968,2.00691 -0.11049,0.14145 -1.60237,1.82968 -1.49419,1.94216 0.17641,0.18344 0.49807,0 0.7471,0 1.73284,0 3.58741,-0.38986 5.29194,-0.71211 1.51627,-0.28668 3.19036,-0.55468 4.54485,-1.35954"
       id="path2821" />
    <path
       style="fill:none;stroke:#000000;stroke-width:0.348882px;stroke-linecap:butt;stroke-linejoin:miter;stroke-opacity:1"
       d="m 165.6658,236.41628 c 2.63124,-0.20012 5.24495,-0.67041 7.78225,-1.42425"
       id="path2823" />
    <path
       style="fill:none;stroke:#000000;stroke-width:0.348882px;stroke-linecap:butt;stroke-linejoin:miter;stroke-opacity:1"
       d="m 32.194401,190.38992 c 0.079,-0.64593 0.556919,-1.13781 0.871613,-1.68321 0.186776,-0.3237 0.370071,-0.6496 0.560324,-0.97109 0.07336,-0.12392 0.720117,-1.25811 0.809355,-1.1653 0.207176,0.21543 0.0967,0.60253 0.124513,0.90634 0.09716,1.06078 -0.05862,5.21214 1.245162,5.4381 1.868293,0.32377 3.813603,-4.38494 4.295813,-5.82653 0.05136,-0.15355 0.501581,-1.4548 0.186772,-1.61848 -0.09147,-0.0476 -0.303406,0.32144 -0.498063,0.77687 -0.566641,1.32576 -0.936197,2.71808 -1.182904,4.1433 -0.466777,2.69654 -0.669656,5.42125 -0.498068,8.15715 0.127701,2.03615 0.435806,4.04169 0.435806,6.08547 0,0.79302 0.0981,2.07852 -0.871609,2.33061 -1.530171,0.39778 -2.802239,-1.41014 -2.739363,-2.84853 0.03434,-0.7856 0.434062,-1.52081 0.871616,-2.13638 1.269834,-1.78648 3.112154,-2.96124 4.793877,-4.27279"
       id="path2827" />
    <path
       style="fill:none;stroke:#000000;stroke-width:0.348882px;stroke-linecap:butt;stroke-linejoin:miter;stroke-opacity:1"
       d="m 52.47809,241.5562 96.04732,-38.52919"
       id="path2942"
       inkscape:path-effect="#path-effect2944"
       inkscape:original-d="m 52.47809,241.5562 c 32.016117,-12.8427 96.04732,-38.52919 96.04732,-38.52919" />
    <path
       style="fill:none;stroke:#000000;stroke-width:0.348882px;stroke-linecap:butt;stroke-linejoin:miter;stroke-opacity:1"
       d="M 92.411754,274.06586 149.33046,250.2518"
       id="path3059"
       inkscape:path-effect="#path-effect3061"
       inkscape:original-d="M 92.411754,274.06586 C 111.38499,266.1282 149.33046,250.2518 149.33046,250.2518" />
    <path
       style="fill:none;stroke:#000000;stroke-width:0.348882px;stroke-linecap:butt;stroke-linejoin:miter;stroke-opacity:1"
       d="M 92.411754,241.5562 159.43221,213.65646"
       id="path3176"
       inkscape:path-effect="#path-effect3178"
       inkscape:original-d="m 92.411754,241.5562 c 22.340496,-9.29956 67.020456,-27.89974 67.020456,-27.89974" />
  </g>
</svg>
