<?xml version="1.0" encoding="UTF-8" standalone="no"?>
<!-- Created with Inkscape (http://www.inkscape.org/) -->

<svg
   width="240mm"
   height="120mm"
   viewBox="0 0 240 120"
   version="1.1"
   id="svg8"
   inkscape:version="1.1.2 (0a00cf5339, 2022-02-04)"
   sodipodi:docname="1732350663.svg"
   xmlns:inkscape="http://www.inkscape.org/namespaces/inkscape"
   xmlns:sodipodi="http://sodipodi.sourceforge.net/DTD/sodipodi-0.dtd"
   xmlns="http://www.w3.org/2000/svg"
   xmlns:svg="http://www.w3.org/2000/svg"
   xmlns:rdf="http://www.w3.org/1999/02/22-rdf-syntax-ns#"
   xmlns:cc="http://creativecommons.org/ns#"
   xmlns:dc="http://purl.org/dc/elements/1.1/">
  <defs
     id="defs2">
    <marker
       style="overflow:visible;"
       id="Arrow1Lend"
       refX="0.0"
       refY="0.0"
       orient="auto"
       inkscape:stockid="Arrow1Lend"
       inkscape:isstock="true">
      <path
         transform="scale(0.8) rotate(180) translate(12.5,0)"
         style="fill-rule:evenodd;fill:context-stroke;stroke:context-stroke;stroke-width:1.0pt;"
         d="M 0.0,0.0 L 5.0,-5.0 L -12.5,0.0 L 5.0,5.0 L 0.0,0.0 z "
         id="path1346" />
    </marker>
    <marker
       style="overflow:visible"
       id="Arrow1Lstart"
       refX="0.0"
       refY="0.0"
       orient="auto"
       inkscape:stockid="Arrow1Lstart"
       inkscape:isstock="true">
      <path
         transform="scale(0.8) translate(12.5,0)"
         style="fill-rule:evenodd;fill:context-stroke;stroke:context-stroke;stroke-width:1.0pt"
         d="M 0.0,0.0 L 5.0,-5.0 L -12.5,0.0 L 5.0,5.0 L 0.0,0.0 z "
         id="path1343" />
    </marker>
    <inkscape:path-effect
       effect="spiro"
       id="path-effect1261"
       is_visible="true"
       lpeversion="1" />
    <inkscape:path-effect
       effect="spiro"
       id="path-effect975"
       is_visible="true"
       lpeversion="1" />
    <inkscape:path-effect
       effect="spiro"
       id="path-effect858"
       is_visible="true"
       lpeversion="1" />
  </defs>
  <sodipodi:namedview
     id="base"
     pagecolor="#ffffff"
     bordercolor="#666666"
     borderopacity="1.0"
     inkscape:pageopacity="0.0"
     inkscape:pageshadow="2"
     inkscape:zoom="1.9887478"
     inkscape:cx="521.18223"
     inkscape:cy="221.74758"
     inkscape:document-units="mm"
     inkscape:current-layer="layer1"
     showgrid="false"
     showborder="true"
     width="200mm"
     showguides="true"
     inkscape:guide-bbox="true"
     inkscape:window-width="2160"
     inkscape:window-height="1375"
     inkscape:window-x="0"
     inkscape:window-y="0"
     inkscape:window-maximized="1"
     inkscape:pagecheckerboard="0">
    <inkscape:grid
       type="xygrid"
       id="grid815"
       units="mm"
       spacingx="10"
       spacingy="10"
       empspacing="4"
       dotted="false" />
  </sodipodi:namedview>
  <metadata
     id="metadata5">
    <rdf:RDF>
      <cc:Work
         rdf:about="">
        <dc:format>image/svg+xml</dc:format>
        <dc:type
           rdf:resource="http://purl.org/dc/dcmitype/StillImage" />
      </cc:Work>
    </rdf:RDF>
  </metadata>
  <g
     inkscape:label="Layer 1"
     inkscape:groupmode="layer"
     id="layer1"
     transform="translate(0,-177)">
    <path
       style="fill:none;stroke:#000000;stroke-width:0.264583px;stroke-linecap:butt;stroke-linejoin:miter;stroke-opacity:1"
       d="M 36.561726,219.0866 H 187.04353"
       id="path856"
       inkscape:path-effect="#path-effect858"
       inkscape:original-d="m 36.561726,219.0866 c 50.16086,2.6e-4 100.321474,2.6e-4 150.481804,0" />
    <path
       style="fill:none;stroke:#000000;stroke-width:0.264583px;stroke-linecap:butt;stroke-linejoin:miter;stroke-opacity:1"
       d="M 37.719283,256.95941 H 190.5162"
       id="path973"
       inkscape:path-effect="#path-effect975"
       inkscape:original-d="m 37.719283,256.95941 c 50.932573,2.6e-4 101.864877,2.6e-4 152.796917,0" />
    <path
       style="fill:none;stroke:#000000;stroke-width:0.264583px;stroke-linecap:butt;stroke-linejoin:miter;stroke-opacity:1"
       d="m 50.937358,247.5379 c -0.01156,1.77974 -0.241157,3.55455 -0.241157,5.33488 0,0.47714 -0.04594,0.97267 0.04823,1.44186"
       id="path1090" />
    <path
       style="fill:none;stroke:#000000;stroke-width:0.264583px;stroke-linecap:butt;stroke-linejoin:miter;stroke-opacity:1"
       d="m 46.885924,251.47899 c -0.01609,-0.0961 -0.04823,-0.19092 -0.04823,-0.28838 0,-0.16057 0.238183,-0.22531 0.385847,-0.28837 0.900843,-0.38472 1.883096,-0.43266 2.84565,-0.48062 1.916782,-0.0955 3.828851,0.0193 5.739534,-0.19225"
       id="path1092" />
    <path
       style="fill:none;stroke:#000000;stroke-width:0.264583px;stroke-linecap:butt;stroke-linejoin:miter;stroke-opacity:1"
       d="m 82.384196,248.73945 c 0,-0.3845 0,-0.76899 0,-1.15349 0,-0.0961 0.06809,-0.35621 0,-0.28837 -0.203716,0.203 0,1.22003 0,1.44186 0,0.27424 -0.08786,0.54295 -0.09646,0.81705 -0.02913,0.92882 0.12138,1.9088 0.192918,2.83566"
       id="path1094" />
    <path
       style="fill:none;stroke:#000000;stroke-width:0.264583px;stroke-linecap:butt;stroke-linejoin:miter;stroke-opacity:1"
       d="m 76.692897,250.90224 c 0.5773,-0.0719 0.256241,-0.0481 0.964631,-0.0481 1.983172,0 3.959956,-0.065 5.932451,-0.28837 1.627391,-0.18427 3.242277,-0.48188 4.871367,-0.67286"
       id="path1096" />
    <path
       style="fill:none;stroke:#000000;stroke-width:0.264583px;stroke-linecap:butt;stroke-linejoin:miter;stroke-opacity:1"
       d="m 122.39237,248.16271 c -0.13813,-0.18408 -0.37334,-0.38268 -0.43408,-0.62481 -0.005,-0.0212 0.003,-0.43255 0,-0.43255 -0.0582,0 -0.10296,0.63494 -0.1447,1.0093 -0.16236,1.45609 -0.33762,2.90548 -0.33762,4.37364"
       id="path1098" />
    <path
       style="fill:none;stroke:#000000;stroke-width:0.264583px;stroke-linecap:butt;stroke-linejoin:miter;stroke-opacity:1"
       d="m 116.7493,250.66193 c 0.22508,-0.0641 0.44573,-0.14651 0.67524,-0.19225 0.71393,-0.14229 1.49673,-0.0889 2.21864,-0.14418 2.33647,-0.1791 4.67913,-0.40485 6.99355,-0.769"
       id="path1100" />
    <path
       style="fill:none;stroke:#000000;stroke-width:0.264583px;stroke-linecap:butt;stroke-linejoin:miter;stroke-opacity:1"
       d="m 159.25522,248.3069 c -0.12862,0.0641 -0.29505,0.0809 -0.38585,0.19224 -0.33071,0.4056 -0.62588,1.60613 -0.77171,2.11473 -0.4973,1.73445 -0.76645,3.49371 -0.91639,5.28681"
       id="path1102" />
    <path
       style="fill:none;stroke:#000000;stroke-width:0.264583px;stroke-linecap:butt;stroke-linejoin:miter;stroke-opacity:1"
       d="m 152.02052,252.15185 c 0.39507,0.0562 0.3678,0.0686 0.81993,0.0481 3.14451,-0.14243 6.20833,-0.13725 9.30865,0.48062"
       id="path1104" />
    <path
       style="fill:none;stroke:#000000;stroke-width:0.264583px;stroke-linecap:butt;stroke-linejoin:miter;stroke-opacity:1"
       d="m 47.246164,224.49258 c 2.284447,-0.26294 4.595937,-0.47946 6.897082,-0.28837"
       id="path1106" />
    <path
       style="fill:none;stroke:#000000;stroke-width:0.264583px;stroke-linecap:butt;stroke-linejoin:miter;stroke-opacity:1"
       d="m 77.631917,224.49258 c 0.337298,0.0154 0.675529,-0.014 1.012856,0 1.062496,0.0441 2.12012,0.0859 3.183269,0 1.224161,-0.0989 2.435595,-0.33643 3.665579,-0.33643"
       id="path1108" />
    <path
       style="fill:none;stroke:#000000;stroke-width:0.264583px;stroke-linecap:butt;stroke-linejoin:miter;stroke-opacity:1"
       d="m 115.3006,224.15615 c 3.90196,0.1829 7.77624,-0.48062 11.67199,-0.48062"
       id="path1110" />
    <path
       style="fill:none;stroke:#000000;stroke-width:0.264583px;stroke-linecap:butt;stroke-linejoin:miter;stroke-opacity:1"
       d="m 154.26834,224.87708 c 2.48608,0.21519 4.98786,0.0497 7.47586,-0.0961"
       id="path1112" />
    <path
       style="fill:none;stroke:#000000;stroke-width:0.264583px;stroke-linecap:butt;stroke-linejoin:miter;stroke-opacity:1"
       d="m 103.05586,234.10498 c -0.0965,-0.032 -0.19417,-0.13171 -0.28939,-0.0961 -0.0809,0.0302 -0.0654,0.15978 -0.0965,0.24031 -0.19888,0.51527 -0.39611,1.03597 -0.62701,1.53798 -0.25287,0.54978 -0.5612,1.06604 -0.86816,1.58604 -0.18261,0.30935 -0.36936,0.75257 -0.62701,1.00931 -0.0112,0.0112 -0.15709,0.0838 -0.19293,0.0481 -0.0314,-0.0313 0.0862,-0.43527 0.1447,-0.57674 0.0685,-0.16566 0.15199,-0.32513 0.24116,-0.48063 0.40773,-0.71103 0.9784,-1.37929 1.59163,-1.92247 0.72482,-0.64202 2.27503,-1.43823 2.4598,0.0961 0.13319,1.10605 -0.41691,2.16195 -0.7717,3.17209 -0.0589,0.16761 -0.29321,0.62099 -0.0965,0.81705 0.2279,0.2271 0.97387,-0.10265 1.10933,-0.14418"
       id="path1114" />
    <path
       style="fill:none;stroke:#000000;stroke-width:0.264583px;stroke-linecap:butt;stroke-linejoin:miter;stroke-opacity:1"
       d="m 105.08158,209.88175 c -0.17063,-0.11127 -0.43538,-0.24678 -0.48232,-0.48062 -0.14273,-0.71119 0.74729,-0.95908 1.25402,-0.91317 1.90531,0.1726 3.94315,1.67635 3.66558,3.79689 -0.17724,1.35409 -2.45146,3.36089 -3.81027,2.49922 -1.32083,-0.83758 -0.63192,-3.20366 -0.57878,-4.4217 0.007,-0.16086 -0.089,-0.32485 -0.0482,-0.48062 0.0947,-0.36175 0.51069,-1.03835 0.7717,-1.34573 2.02157,-2.38074 5.57083,1.17402 8.05463,-0.24031"
       id="path1120" />
    <path
       style="fill:none;stroke:#000000;stroke-width:0.264583px;stroke-linecap:butt;stroke-linejoin:miter;stroke-opacity:1;marker-start:url(#Arrow1Lstart);marker-end:url(#Arrow1Lend)"
       d="m 195.72175,220.00101 v 35.66196"
       id="path1259"
       inkscape:path-effect="#path-effect1261"
       inkscape:original-d="m 195.72175,220.00101 c 2.7e-4,11.88758 2.7e-4,23.7749 0,35.66196" />
    <path
       style="fill:none;stroke:#000000;stroke-width:0.264583px;stroke-linecap:butt;stroke-linejoin:miter;stroke-opacity:1"
       d="m 201.21757,235.94846 c 0.0483,-0.16646 -0.3181,-0.6006 -0.17052,-0.74767 0.19179,-0.19112 0.906,1.3897 0.95493,1.49534 0.56353,1.21668 1.17236,2.40444 1.77345,3.6024 0.48077,0.95816 0.76775,2.02646 1.90986,2.31098"
       id="path1652" />
    <path
       style="fill:none;stroke:#000000;stroke-width:0.264583px;stroke-linecap:butt;stroke-linejoin:miter;stroke-opacity:1"
       d="m 206.33328,235.03087 c 0.005,0.23469 -0.17178,-0.0785 -0.23873,-0.034 -0.19699,0.13087 -0.76456,1.23608 -0.88672,1.42737 -0.42452,0.66476 -0.83069,1.34527 -1.26188,2.00511 -0.88898,1.36043 -1.96034,2.63623 -2.52375,4.18015"
       id="path1654" />
  </g>
</svg>
