<?xml version="1.0" encoding="UTF-8" standalone="no"?>
<!-- Created with Inkscape (http://www.inkscape.org/) -->

<svg
   width="240mm"
   height="120mm"
   viewBox="0 0 240 120"
   version="1.1"
   id="svg8"
   inkscape:version="1.1.2 (0a00cf5339, 2022-02-04)"
   sodipodi:docname="1733324520.svg"
   xmlns:inkscape="http://www.inkscape.org/namespaces/inkscape"
   xmlns:sodipodi="http://sodipodi.sourceforge.net/DTD/sodipodi-0.dtd"
   xmlns="http://www.w3.org/2000/svg"
   xmlns:svg="http://www.w3.org/2000/svg"
   xmlns:rdf="http://www.w3.org/1999/02/22-rdf-syntax-ns#"
   xmlns:cc="http://creativecommons.org/ns#"
   xmlns:dc="http://purl.org/dc/elements/1.1/">
  <defs
     id="defs2">
    <inkscape:path-effect
       effect="spiro"
       id="path-effect1504"
       is_visible="true"
       lpeversion="1" />
    <inkscape:path-effect
       effect="spiro"
       id="path-effect975"
       is_visible="true"
       lpeversion="1" />
    <inkscape:path-effect
       effect="spiro"
       id="path-effect858"
       is_visible="true"
       lpeversion="1" />
  </defs>
  <sodipodi:namedview
     id="base"
     pagecolor="#ffffff"
     bordercolor="#666666"
     borderopacity="1.0"
     inkscape:pageopacity="0.0"
     inkscape:pageshadow="2"
     inkscape:zoom="5.6250281"
     inkscape:cx="515.28631"
     inkscape:cy="218.31002"
     inkscape:document-units="mm"
     inkscape:current-layer="layer1"
     showgrid="false"
     showborder="true"
     width="200mm"
     showguides="true"
     inkscape:guide-bbox="true"
     inkscape:window-width="2160"
     inkscape:window-height="1375"
     inkscape:window-x="0"
     inkscape:window-y="0"
     inkscape:window-maximized="1"
     inkscape:pagecheckerboard="0">
    <inkscape:grid
       type="xygrid"
       id="grid815"
       units="mm"
       spacingx="10"
       spacingy="10"
       empspacing="4"
       dotted="false" />
  </sodipodi:namedview>
  <metadata
     id="metadata5">
    <rdf:RDF>
      <cc:Work
         rdf:about="">
        <dc:format>image/svg+xml</dc:format>
        <dc:type
           rdf:resource="http://purl.org/dc/dcmitype/StillImage" />
      </cc:Work>
    </rdf:RDF>
  </metadata>
  <g
     inkscape:label="Layer 1"
     inkscape:groupmode="layer"
     id="layer1"
     transform="translate(0,-177)">
    <path
       style="fill:none;stroke:#000000;stroke-width:0.264583px;stroke-linecap:butt;stroke-linejoin:miter;stroke-opacity:1"
       d="m 46.895167,271.54439 v -74.8805"
       id="path856"
       inkscape:path-effect="#path-effect858"
       inkscape:original-d="m 46.895167,271.54439 c 2.65e-4,-24.9599 2.65e-4,-49.92007 0,-74.8805" />
    <path
       style="fill:none;stroke:#000000;stroke-width:0.264583px;stroke-linecap:butt;stroke-linejoin:miter;stroke-opacity:1"
       d="M 46.895167,271.54439 H 196.31588"
       id="path973"
       inkscape:path-effect="#path-effect975"
       inkscape:original-d="m 46.895167,271.54439 c 49.807169,2.6e-4 99.614073,2.6e-4 149.420713,0" />
    <circle
       style="fill:none;fill-opacity:0;stroke:#000000;stroke-width:0.26458299;stroke-linejoin:bevel;stroke-dasharray:none;paint-order:fill markers stroke;stroke-miterlimit:4"
       id="path1079"
       cx="129.78125"
       cy="250.97388"
       r="20.378263" />
    <path
       style="fill:none;stroke:#000000;stroke-width:0.294291px;stroke-linecap:butt;stroke-linejoin:miter;stroke-opacity:1"
       d="m 47.801416,257.35668 c -0.119337,-0.0961 -0.256709,-0.17957 -0.358022,-0.28837 -0.248837,-0.26724 0.91935,-2.02393 1.074066,-2.21085 1.8599,-2.2471 6.00765,-4.50348 9.48758,-3.74883 0.412491,0.0894 0.900942,0.21983 1.253079,0.43256 1.342843,0.81119 1.264054,2.26019 0.477361,3.31627 -0.168341,0.22599 -0.377056,0.49873 -0.716043,0.57674 -0.987633,0.22728 -0.08843,-1.42223 0,-1.53798 1.421537,-1.86061 4.261234,-3.19448 6.802419,-3.74883 1.681224,-0.36675 3.722657,-0.42398 5.191318,0.48062 1.517574,0.93472 1.360005,2.74968 0.358019,3.89302 -0.212158,0.24209 -0.528979,0.52651 -0.895057,0.6248 -0.414484,0.11128 -0.06983,-0.5498 0.358025,-1.0093 0.557438,-0.59865 1.647707,-1.4324 2.327144,-1.87442 2.543024,-1.6544 6.133606,-3.32515 9.547251,-3.0279 2.969377,0.25857 3.746907,3.1066 2.148131,4.85426 -0.136181,0.14886 -0.745071,0.81705 -1.074066,0.81705 -0.120574,0 -0.0016,-0.20444 0.05967,-0.28837 0.420214,-0.57539 0.790823,-0.91508 1.432087,-1.3938 2.726502,-2.03539 6.2667,-3.84507 10.024612,-4.18139 2.043561,-0.18289 3.65424,0.28473 3.93824,2.11473 0.177933,1.14653 -0.391962,2.24127 -1.253074,3.12403 -0.09035,0.0926 -0.854185,0.6075 -0.417691,0.0961 0.86969,-1.01891 2.158268,-1.93224 3.341545,-2.69147 2.51459,-1.61346 5.6132,-3.05852 8.89087,-3.22015 3.45849,-0.17055 4.98825,2.22264 4.77363,4.75813 -0.0351,0.41528 -0.93751,3.60465 -1.67077,3.60465 -0.41696,0 0.29673,-0.63774 0.53703,-0.91318 0.8916,-1.02198 1.14656,-1.3089 2.32715,-2.16278 2.46028,-1.77945 5.54373,-5.00096 8.93501,-4.85332 2.90697,0.14082 4.12672,0.19001 5.07779,1.59441"
       id="path1196"
       sodipodi:nodetypes="cscccsscssssssssscssssssscssscc" />
    <path
       style="fill:none;stroke:#000000;stroke-width:0.264583px;stroke-linecap:butt;stroke-linejoin:miter;stroke-opacity:1"
       d="m 129.77872,250.49311 49.26117,-22.49449"
       id="path1502"
       inkscape:path-effect="#path-effect1504"
       inkscape:original-d="m 129.77872,250.49311 c 16.42065,-7.4979 32.84104,-14.99606 49.26117,-22.49449" />
    <path
       style="fill:none;stroke:#000000;stroke-width:0.264583px;stroke-linecap:butt;stroke-linejoin:miter;stroke-opacity:1"
       d="m 179.71398,226.54614 c -0.39887,-0.87129 -1.55631,-0.17288 -1.90987,0.39083 -0.23264,0.37091 -0.37515,0.83467 -0.37515,1.27443 0,1.33789 1.2315,2.87024 2.66017,2.14105 0.855,-0.43638 2.11949,-2.3645 1.77344,-3.3645 -0.2461,-0.71119 -1.60655,-0.89038 -2.25091,-0.79865"
       id="path1619" />
    <path
       style="fill:none;stroke:#000000;stroke-width:0.264583px;stroke-linecap:butt;stroke-linejoin:miter;stroke-opacity:1"
       d="m 169.58488,223.53848 c -0.0341,0.0226 -0.0827,0.032 -0.10232,0.068 -0.0686,0.12523 0.0665,1.11832 0.0853,1.29142 0.0196,0.18013 0.19325,1.12718 0.11936,1.27444 -0.0217,0.0433 -0.0432,-0.0882 -0.0511,-0.13594 -0.0659,-0.39374 -0.058,-0.24227 -0.0853,-0.71369 -0.0537,-0.92778 -0.0817,-2.50198 1.10841,-2.76977 0.88667,-0.19951 1.53749,1.45337 1.73934,2.10707 0.0112,0.0363 0.12231,0.3539 0.0682,0.40782 -0.0143,0.0143 -0.0596,-0.0451 -0.10232,-0.18692 -0.0352,-0.1171 -0.0626,-0.23665 -0.0853,-0.35684 -0.17135,-0.91067 -0.0619,-2.03376 0.86967,-2.49789 1.37287,-0.68403 1.59635,1.5894 1.77345,2.41293"
       id="path1621" />
    <path
       style="fill:none;stroke:#000000;stroke-width:0.264583px;stroke-linecap:butt;stroke-linejoin:miter;stroke-opacity:1"
       d="m 130.32184,249.27985 c -0.28819,0.0972 -0.57662,0.19176 -0.86531,0.28799 -0.19883,0.0663 -0.44851,0.0787 -0.61838,0.21182 -0.56543,0.44322 -0.19838,1.11475 0.16517,1.551 0.11115,0.13338 0.24618,0.30409 0.40934,0.3766 0.31398,0.13954 0.86521,0.15718 1.17772,2.2e-4 0.61685,-0.30983 0.30912,-1.46637 0.0195,-1.92178 -0.0661,-0.10395 -0.14198,-0.28539 -0.28135,-0.28539"
       id="path2055" />
    <path
       style="fill:none;stroke:#000000;stroke-width:0.264583px;stroke-linecap:butt;stroke-linejoin:miter;stroke-opacity:1"
       d="m 111.01468,227.79534 c -0.0482,0 -0.0969,-0.007 -0.1447,0 -0.12543,0.0179 -0.11183,0.23407 -0.12058,0.36046 -0.04,0.57761 0.004,1.1772 0.0241,1.75426 0.0175,0.50564 0.0351,0.78157 0.0241,1.27365 -0.008,0.36587 -0.0267,0.74148 -0.0724,1.10542 -0.0104,0.083 0.0113,0.24031 -0.0724,0.24031 -0.0538,0 -0.0627,-0.0913 -0.0724,-0.14419 -0.0762,-0.41781 -0.0531,-0.6739 -0.0241,-1.12945 0.0863,-1.3548 0.39152,-3.02482 1.59163,-3.86899 0.32292,-0.22714 0.79693,-0.42697 1.20579,-0.33643 0.20565,0.0455 0.42756,0.2326 0.53054,0.40853 0.56346,0.96253 0.48425,2.13363 0.21704,3.17208 -0.0812,0.31552 -0.19139,0.62175 -0.33761,0.91318 -0.0356,0.071 -0.11255,0.22429 -0.16882,0.16822 -0.15031,-0.14979 0.0696,-0.82108 0.1447,-1.05737 0.43585,-1.37154 1.28294,-2.81384 2.55626,-3.55658 0.26084,-0.15215 0.55708,-0.28837 0.86816,-0.28837 1.09465,0 1.24434,1.94866 1.25402,2.69147 0.0104,0.79987 -0.10765,1.61279 -0.21704,2.40309"
       id="path2108" />
    <path
       style="fill:none;stroke:#000000;stroke-width:0.264583px;stroke-linecap:butt;stroke-linejoin:miter;stroke-opacity:1"
       d="m 119.79398,246.82706 c -0.31513,-0.83738 -0.43722,-1.76819 -0.54568,-2.65083 -0.17475,-1.4221 -0.35475,-2.84847 -0.37515,-4.2821 -0.17256,0.0475 -0.35331,0.0435 -0.44336,-0.13594 -0.1033,-0.20585 0.81455,-0.43074 0.88672,-0.4418 1.03665,-0.15893 2.04022,0.13532 2.28502,1.25744 0.23891,1.09516 -1.0246,1.92017 -1.80755,2.41293 -0.0721,0.0454 -0.47896,0.33911 -0.61389,0.27188 -0.19441,-0.0969 0.37067,-0.27977 0.64799,-0.33985 0.63147,-0.13679 1.27091,-0.0278 1.80755,0.33985 0.63703,0.43642 1.09294,1.1107 1.84166,1.3594"
       id="path2317" />
    <path
       style="fill:none;stroke:#000000;stroke-width:0.264583px;stroke-linecap:butt;stroke-linejoin:miter;stroke-opacity:1"
       d="m 152.26166,236.97143 c 0.0114,-0.068 0.0105,-0.13917 0.0341,-0.20391 0.10937,-0.29971 0.42379,-0.57761 0.57978,-0.84963 0.21436,-0.37382 0.39524,-0.76607 0.57978,-1.15548 0.28885,-0.60954 0.51945,-1.23657 0.7503,-1.86917 0.0648,-0.1775 0.62288,-1.52038 0.44336,-1.69925 -0.0743,-0.074 -0.2229,0.0989 -0.37515,0.33985 -0.3536,0.55963 -0.43466,0.7986 -0.64799,1.46135 -0.32797,1.0189 -1.0987,3.6065 -0.40926,4.58797 0.6439,0.91662 2.05059,0.4557 2.8648,0.2039"
       id="path2319" />
  </g>
</svg>
