<?xml version="1.0" encoding="UTF-8" standalone="no"?>
<!-- Created with Inkscape (http://www.inkscape.org/) -->

<svg
   width="240mm"
   height="120mm"
   viewBox="0 0 240 120"
   version="1.1"
   id="svg8"
   inkscape:version="1.1.2 (0a00cf5339, 2022-02-04)"
   sodipodi:docname="1733322502.svg"
   xmlns:inkscape="http://www.inkscape.org/namespaces/inkscape"
   xmlns:sodipodi="http://sodipodi.sourceforge.net/DTD/sodipodi-0.dtd"
   xmlns="http://www.w3.org/2000/svg"
   xmlns:svg="http://www.w3.org/2000/svg"
   xmlns:rdf="http://www.w3.org/1999/02/22-rdf-syntax-ns#"
   xmlns:cc="http://creativecommons.org/ns#"
   xmlns:dc="http://purl.org/dc/elements/1.1/">
  <defs
     id="defs2">
    <inkscape:path-effect
       effect="spiro"
       id="path-effect890"
       is_visible="true"
       lpeversion="1" />
    <marker
       style="overflow:visible;"
       id="Arrow1Lend"
       refX="0.0"
       refY="0.0"
       orient="auto"
       inkscape:stockid="Arrow1Lend"
       inkscape:isstock="true">
      <path
         transform="scale(0.8) rotate(180) translate(12.5,0)"
         style="fill-rule:evenodd;fill:context-stroke;stroke:context-stroke;stroke-width:1.0pt;"
         d="M 0.0,0.0 L 5.0,-5.0 L -12.5,0.0 L 5.0,5.0 L 0.0,0.0 z "
         id="path1496" />
    </marker>
    <inkscape:path-effect
       effect="spiro"
       id="path-effect1242"
       is_visible="true"
       lpeversion="1" />
    <inkscape:path-effect
       effect="spiro"
       id="path-effect1125"
       is_visible="true"
       lpeversion="1" />
    <inkscape:path-effect
       effect="spiro"
       id="path-effect1008"
       is_visible="true"
       lpeversion="1" />
    <inkscape:path-effect
       effect="spiro"
       id="path-effect858"
       is_visible="true"
       lpeversion="1" />
  </defs>
  <sodipodi:namedview
     id="base"
     pagecolor="#ffffff"
     bordercolor="#666666"
     borderopacity="1.0"
     inkscape:pageopacity="0.0"
     inkscape:pageshadow="2"
     inkscape:zoom="7.9549909"
     inkscape:cx="578.5676"
     inkscape:cy="276.55594"
     inkscape:document-units="mm"
     inkscape:current-layer="layer1"
     showgrid="false"
     showborder="true"
     width="200mm"
     showguides="true"
     inkscape:guide-bbox="true"
     inkscape:window-width="2160"
     inkscape:window-height="1375"
     inkscape:window-x="0"
     inkscape:window-y="0"
     inkscape:window-maximized="1"
     inkscape:pagecheckerboard="0">
    <inkscape:grid
       type="xygrid"
       id="grid815"
       units="mm"
       spacingx="10"
       spacingy="10"
       empspacing="4"
       dotted="false" />
  </sodipodi:namedview>
  <metadata
     id="metadata5">
    <rdf:RDF>
      <cc:Work
         rdf:about="">
        <dc:format>image/svg+xml</dc:format>
        <dc:type
           rdf:resource="http://purl.org/dc/dcmitype/StillImage" />
      </cc:Work>
    </rdf:RDF>
  </metadata>
  <g
     inkscape:label="Layer 1"
     inkscape:groupmode="layer"
     id="layer1"
     transform="translate(0,-177)">
    <g
       id="g1852"
       transform="translate(24.619752,2.5255619)">
      <path
         style="fill:none;stroke:#000000;stroke-width:0.234799px;stroke-linecap:butt;stroke-linejoin:miter;stroke-opacity:1;marker-end:url(#Arrow1Lend)"
         d="m 56.712431,202.47861 v 62.98288"
         id="path856"
         inkscape:path-effect="#path-effect858"
         inkscape:original-d="m 56.712431,202.47861 c 2.65e-4,20.99451 2.65e-4,41.9888 0,62.98288" />
      <path
         style="fill:none;stroke:#000000;stroke-width:0.202814px;stroke-linecap:butt;stroke-linejoin:miter;stroke-opacity:1;marker-end:url(#Arrow1Lend)"
         d="M 56.712431,202.47861 H 128.35612"
         id="path1006"
         inkscape:path-effect="#path-effect1008"
         inkscape:original-d="m 56.712431,202.47861 c 23.881384,2.6e-4 47.762609,2.6e-4 71.643689,0" />
      <path
         style="fill:none;stroke:#000000;stroke-width:0.264583px;stroke-linecap:butt;stroke-linejoin:miter;stroke-opacity:1"
         d="m 56.712431,202.47861 31.639759,39.0263"
         id="path1123"
         inkscape:path-effect="#path-effect1125"
         inkscape:original-d="m 56.712431,202.47861 c 10.54685,13.00903 21.093438,26.0178 31.639759,39.0263" />
      <path
         style="fill:none;stroke:#000000;stroke-width:0.264583px;stroke-linecap:butt;stroke-linejoin:miter;stroke-opacity:1"
         d="m 88.35219,241.50491 45.53039,15.86044"
         id="path1240"
         inkscape:path-effect="#path-effect1242"
         inkscape:original-d="m 88.35219,241.50491 c 15.17706,5.28708 45.53039,15.86044 45.53039,15.86044" />
      <path
         style="fill:none;stroke:#000000;stroke-width:0.264583px;stroke-linecap:butt;stroke-linejoin:miter;stroke-opacity:1"
         d="m 89.008523,240.62253 c -0.514657,-0.2832 -1.301649,-0.22657 -1.841656,0 -0.961803,0.40355 -2.284227,2.7246 -0.409258,2.4809 1.0139,-0.13178 1.871025,-0.81832 2.353226,-1.69925 0.06266,-0.11447 0.319283,-0.6805 0.102314,-0.81563 -0.05869,-0.0366 -0.146235,0.071 -0.204626,0.034 -0.638413,-0.40483 0.333396,-0.21608 -0.477467,-0.30586"
         id="path1357" />
      <path
         style="fill:none;stroke:#000000;stroke-width:0.264583px;stroke-linecap:butt;stroke-linejoin:miter;stroke-opacity:1"
         d="m 134.36779,255.74583 c -1.54011,-0.19192 -3.16028,3.852 -0.81851,3.16059 1.0265,-0.30307 2.01679,-2.10063 1.33008,-3.05864 -0.21977,-0.3066 -0.58092,-0.38341 -0.92083,-0.47579"
         id="path1359" />
      <path
         style="fill:none;stroke:#000000;stroke-width:0.264583px;stroke-linecap:butt;stroke-linejoin:miter;stroke-opacity:1"
         d="m 111.2789,245.82223 c 0.51725,-0.55308 1.2599,-0.85034 1.87576,-1.29143 0.81069,-0.58064 2.22566,-1.58974 2.55785,-2.58286 0.0844,-0.25244 -0.0267,-0.39864 -0.30694,-0.33984 -0.56392,0.1183 -1.01396,0.5114 -1.3983,0.91759 -1.06733,1.12804 -2.93821,4.14096 -1.4665,5.60751 1.04037,1.03671 2.64753,0.84634 3.95615,0.64571"
         id="path1361" />
      <path
         style="fill:none;stroke:#000000;stroke-width:0.264583px;stroke-linecap:butt;stroke-linejoin:miter;stroke-opacity:1"
         d="m 79.390993,225.15939 c 1.020966,-0.76511 1.8943,-1.6849 2.728375,-2.65082 0.67056,-0.77657 1.98173,-2.23695 2.046283,-3.33053 0.03925,-0.6649 -0.772687,-0.59562 -1.193663,-0.4418 -0.359262,0.13127 -0.796536,0.45388 -1.057248,0.71368 -1.624238,1.61853 -3.030644,5.61218 -1.125456,7.51067 0.880655,0.87756 2.043883,0.95158 3.205843,0.95158"
         id="path1363" />
      <path
         style="fill:none;stroke:#000000;stroke-width:0.264583px;stroke-linecap:butt;stroke-linejoin:miter;stroke-opacity:1"
         d="m 57.370429,211.29759 c 0.293907,0.47176 0.969386,0.42239 1.466501,0.40782 1.494067,-0.0438 2.893451,-0.42595 4.058462,-1.39338 0.185473,-0.15402 0.376745,-0.30825 0.511569,-0.50978"
         id="path1365" />
      <path
         style="fill:none;stroke:#000000;stroke-width:0.264583px;stroke-linecap:butt;stroke-linejoin:miter;stroke-opacity:1"
         d="m 59.484921,216.05548 c -0.06821,-0.0113 -0.139862,-0.0582 -0.204629,-0.034 -0.150238,0.0561 -0.199599,0.86582 -0.204626,0.91759 -0.111845,1.15166 -0.0074,3.14801 1.398291,3.53444 0.625322,0.17189 1.293392,0.0128 1.841653,-0.30587 1.279327,-0.74365 3.471283,-3.29869 3.035319,-4.92781 -0.324287,-1.2118 -2.305876,0.0303 -2.728375,0.50977 -0.821267,0.93205 -1.340488,2.05307 -1.60292,3.26256 -0.177774,0.81931 -0.204629,1.64714 -0.204629,2.4809 0,1.38808 0.170767,2.75401 0.44336,4.11217"
         id="path1367" />
      <path
         style="fill:none;stroke:#000000;stroke-width:0.264583px;stroke-linecap:butt;stroke-linejoin:miter;stroke-opacity:1"
         d="m 89.119804,242.08042 c -0.06821,0.0226 -0.149336,0.022 -0.204631,0.068 -0.02848,0.0237 0,0.3804 0,0.47579 0,0.69274 0.03411,1.38107 0.03411,2.07308"
         id="path1369" />
      <path
         style="fill:none;stroke:#000000;stroke-width:0.264583px;stroke-linecap:butt;stroke-linejoin:miter;stroke-opacity:1"
         d="m 89.153904,248.4356 c -0.127971,0.30305 -0.04455,0.60681 0,0.9176"
         id="path1371" />
      <path
         style="fill:none;stroke:#000000;stroke-width:0.264583px;stroke-linecap:butt;stroke-linejoin:miter;stroke-opacity:1"
         d="m 89.460849,255.09665 c -0.574413,0.71554 -0.472625,1.87864 -0.37515,2.75278"
         id="path1373" />
      <path
         style="fill:none;stroke:#000000;stroke-width:0.264583px;stroke-linecap:butt;stroke-linejoin:miter;stroke-opacity:1"
         d="m 89.153904,248.4356 c 0.170524,0.16993 0.324202,0.35863 0.511571,0.50978 0.300482,0.24239 0.92078,0.18449 1.261875,0.13594 2.057776,-0.29294 4.271783,-2.88471 5.388547,-4.55398"
         id="path1375" />
      <path
         style="fill:none;stroke:#000000;stroke-width:0.264583px;stroke-linecap:butt;stroke-linejoin:miter;stroke-opacity:1"
         d="m 97.100304,248.6735 c -0.07958,-0.034 -0.152627,-0.0934 -0.238731,-0.10196 -0.158864,-0.0158 -0.736634,0.9689 -0.78441,1.05354 -0.743349,1.31687 -1.187299,2.71607 -1.398294,4.21413 -0.126103,0.89533 -0.16561,1.82018 -0.0341,2.71879 0.176056,1.20301 0.838293,2.878 2.216806,3.09263 1.964828,0.30592 4.044055,-2.81528 4.604135,-4.35007 0.26042,-0.71363 0.37864,-1.52141 0.27284,-2.27699 -0.25064,-1.78992 -2.625347,-5.60815 -4.774663,-3.77233"
         id="path1383" />
      <path
         style="fill:none;stroke:#000000;stroke-width:0.264583px;stroke-linecap:butt;stroke-linejoin:miter;stroke-opacity:1"
         d="m 94.815288,255.36853 c -0.05684,-0.068 -0.134429,-0.12299 -0.170521,-0.20391 -0.04133,-0.0927 0.225253,-0.75479 0.272841,-0.84962 0.40939,-0.81589 1.376201,-1.97238 2.353223,-1.22346 0.740992,0.568 0.944321,2.243 2.080384,2.243 0.755145,0 1.908265,-1.77391 2.387335,-2.31097"
         id="path1385" />
      <path
         style="fill:none;stroke:#000000;stroke-width:0.264583px;stroke-linecap:butt;stroke-linejoin:miter;stroke-opacity:1"
         d="m 125.29739,195.82121 c 0.73829,1.5164 1.56915,2.98268 2.45554,4.41804"
         id="path1794" />
      <path
         style="fill:none;stroke:#000000;stroke-width:0.264583px;stroke-linecap:butt;stroke-linejoin:miter;stroke-opacity:1"
         d="m 127.94051,195.56632 c -0.0512,0.0283 -0.10827,0.0479 -0.15347,0.085 -0.35456,0.29096 -0.57349,0.79945 -0.81852,1.17248 -0.73187,1.11423 -1.41921,2.24846 -2.06333,3.41549"
         id="path1796" />
      <path
         style="fill:none;stroke:#000000;stroke-width:0.264583px;stroke-linecap:butt;stroke-linejoin:miter;stroke-opacity:1"
         d="m 61.60018,260.41533 c -0.0341,0.0453 -0.08119,0.0833 -0.102312,0.13594 -0.08825,0.21985 -0.117028,0.71816 -0.136419,0.93458 -0.06375,0.71146 -0.07634,1.43149 0.01704,2.14106 0.05289,0.40183 0.266967,1.35823 0.596831,1.64826 0.322816,0.28384 0.70512,0.068 0.971984,-0.16992 0.463746,-0.41347 0.825878,-0.93599 1.176613,-1.44436 0.463219,-0.67141 0.932481,-1.41182 1.091353,-2.22601 0.03912,-0.20049 0.128006,-0.74122 -0.08526,-0.9006 -0.152818,-0.11421 -0.247838,0.27418 -0.255786,0.30586 -0.175067,0.69781 -0.162885,1.47927 -0.153474,2.19203 0.0098,0.7426 0.06045,1.48327 0.06821,2.22601 0.01429,1.36632 -0.0057,2.73139 -0.08526,4.09518 -0.04771,0.8177 -0.09414,1.62456 -0.255786,2.42993 -0.119488,0.59535 -0.314687,1.52809 -1.074298,1.5803 -0.343106,0.0236 -1.016026,-0.13492 -1.074298,-0.56075 -0.07157,-0.52299 0.336396,-1.06809 0.613883,-1.46136 0.401633,-0.5692 0.547497,-0.72489 1.023144,-1.27443 1.023845,-1.1829 2.188263,-2.43177 3.717414,-2.9397 0.172665,-0.0573 0.352415,-0.0906 0.528622,-0.13594"
         id="path1800" />
    </g>
    <path
       style="fill:none;stroke:#000000;stroke-width:0.264583px;stroke-linecap:butt;stroke-linejoin:miter;stroke-opacity:1;marker-end:url(#Arrow1Lend)"
       d="m 158.50233,259.89091 8.28231,-18.84803"
       id="path888"
       inkscape:path-effect="#path-effect890"
       inkscape:original-d="m 158.50233,259.89091 c 2.76103,-6.28241 5.5218,-12.56508 8.28231,-18.84803" />
    <path
       style="fill:none;stroke:#000000;stroke-width:0.264583px;stroke-linecap:butt;stroke-linejoin:miter;stroke-opacity:1"
       d="m 159.43892,231.05689 c 0,0.3904 -0.008,0.16629 0.0482,0.69689 0.17977,1.68384 0.10758,3.34657 -0.14469,5.02248 -0.30955,2.05645 -0.94051,4.08311 -0.94051,6.17596"
       id="path1005" />
    <path
       style="fill:none;stroke:#000000;stroke-width:0.264583px;stroke-linecap:butt;stroke-linejoin:miter;stroke-opacity:1"
       d="m 159.43892,231.05689 c -0.0161,0.17623 -0.0231,0.35351 -0.0482,0.52868 -0.007,0.0508 -0.0965,-0.0688 -0.0965,-0.12016 0,-0.0622 0.19068,-0.13396 0.21704,-0.14418 0.42115,-0.16321 0.88801,-0.26157 1.32636,-0.36047 0.98244,-0.22165 1.97761,-0.38607 2.96623,-0.57674 0.90993,-0.1755 1.82266,-0.37485 2.74919,-0.43256"
       id="path1007" />
    <path
       style="fill:none;stroke:#000000;stroke-width:0.264583px;stroke-linecap:butt;stroke-linejoin:miter;stroke-opacity:1"
       d="m 159.39069,236.68014 c 1.93524,-0.2752 3.84666,-0.69935 5.76365,-1.0814"
       id="path1009" />
    <path
       style="fill:none;stroke:#000000;stroke-width:0.264583px;stroke-linecap:butt;stroke-linejoin:miter;stroke-opacity:1"
       d="m 157.79906,229.11038 c 0.0402,-0.0481 0.0645,-0.11625 0.12057,-0.14419 0.085,-0.0424 0.79439,-0.12521 0.89229,-0.14418 0.53714,-0.10408 1.07902,-0.18373 1.61575,-0.28837 1.27313,-0.24822 2.52569,-0.61 3.78616,-0.91318 0.4253,-0.1023 0.84943,-0.16264 1.27813,-0.24031 0.0188,-0.003 0.26527,-0.0356 0.26527,-0.0961 0,-0.0492 -0.3226,-0.0698 -0.33762,-0.0721 -0.19191,-0.0294 -0.38757,-0.0403 -0.57877,-0.0721 -0.2691,-0.0447 -0.52484,-0.13221 -0.79582,-0.16822 -0.13699,-0.0182 -0.27666,-0.0341 -0.40997,-0.0721 -0.0547,-0.0156 -0.22565,-0.024 -0.16881,-0.024 0.21547,0 0.71527,0.1664 0.94052,0.21627 0.42134,0.0933 0.84816,0.15655 1.27812,0.19225 0.25765,0.0214 0.51468,0.031 0.7717,0.0481 0.13281,0.009 0.28846,0.025 0.26527,0.0481 -0.0789,0.0786 -0.33981,0.199 -0.40996,0.24031 -0.5819,0.34263 -1.21826,0.60409 -1.76044,1.0093"
       id="path1011" />
    <path
       style="fill:none;stroke:#000000;stroke-width:0.264583px;stroke-linecap:butt;stroke-linejoin:miter;stroke-opacity:1"
       d="m 155.58159,258.84382 1.41757,-3.15055 3.02111,1.12939"
       id="path1084" />
  </g>
</svg>
