<?xml version="1.0" encoding="UTF-8" standalone="no"?>
<!-- Created with Inkscape (http://www.inkscape.org/) -->

<svg
   width="240mm"
   height="120mm"
   viewBox="0 0 240 120"
   version="1.1"
   id="svg8"
   inkscape:version="1.1.2 (0a00cf5339, 2022-02-04)"
   sodipodi:docname="1738658642.svg"
   xmlns:inkscape="http://www.inkscape.org/namespaces/inkscape"
   xmlns:sodipodi="http://sodipodi.sourceforge.net/DTD/sodipodi-0.dtd"
   xmlns="http://www.w3.org/2000/svg"
   xmlns:svg="http://www.w3.org/2000/svg"
   xmlns:rdf="http://www.w3.org/1999/02/22-rdf-syntax-ns#"
   xmlns:cc="http://creativecommons.org/ns#"
   xmlns:dc="http://purl.org/dc/elements/1.1/">
  <defs
     id="defs2" />
  <sodipodi:namedview
     id="base"
     pagecolor="#ffffff"
     bordercolor="#666666"
     borderopacity="1.0"
     inkscape:pageopacity="0.0"
     inkscape:pageshadow="2"
     inkscape:zoom="7.9549912"
     inkscape:cx="538.34126"
     inkscape:cy="59.836647"
     inkscape:document-units="mm"
     inkscape:current-layer="layer1"
     showgrid="false"
     showborder="true"
     width="200mm"
     showguides="true"
     inkscape:guide-bbox="true"
     inkscape:window-width="2160"
     inkscape:window-height="1375"
     inkscape:window-x="0"
     inkscape:window-y="0"
     inkscape:window-maximized="1"
     inkscape:pagecheckerboard="0">
    <inkscape:grid
       type="xygrid"
       id="grid815"
       units="mm"
       spacingx="10"
       spacingy="10"
       empspacing="4"
       dotted="false" />
  </sodipodi:namedview>
  <metadata
     id="metadata5">
    <rdf:RDF>
      <cc:Work
         rdf:about="">
        <dc:format>image/svg+xml</dc:format>
        <dc:type
           rdf:resource="http://purl.org/dc/dcmitype/StillImage" />
      </cc:Work>
    </rdf:RDF>
  </metadata>
  <g
     inkscape:label="Layer 1"
     inkscape:groupmode="layer"
     id="layer1"
     transform="translate(0,-177)">
    <circle
       style="fill:none;fill-opacity:0;stroke:#000000;stroke-width:0.265;stroke-linejoin:bevel;stroke-dasharray:none;paint-order:fill markers stroke;stroke-miterlimit:4;stroke-dashoffset:0"
       id="path845"
       cx="188.26599"
       cy="237.39423"
       r="79.759239" />
    <path
       style="fill:none;stroke:#000000;stroke-width:0.264583px;stroke-linecap:butt;stroke-linejoin:miter;stroke-opacity:1"
       d="M -20.045165,237.00263 H 278.12328 v 0.20349"
       id="path1064" />
    <path
       style="fill:none;stroke:#000000;stroke-width:0.264583px;stroke-linecap:butt;stroke-linejoin:miter;stroke-opacity:1"
       d="m 36.474892,237.1736 76.330378,-25.18067 80.9739,-15.77781"
       id="path1179" />
    <path
       style="fill:none;stroke:#000000;stroke-width:0.264583px;stroke-linecap:butt;stroke-linejoin:miter;stroke-opacity:1"
       d="M 112.80527,211.99293 H 218.6661"
       id="path1294" />
    <path
       style="fill:none;stroke:#000000;stroke-width:0.264583px;stroke-linecap:butt;stroke-linejoin:miter;stroke-opacity:1"
       d="M 190.81076,237.17576 25.679395,183.24374"
       id="path1409" />
    <path
       style="fill:none;stroke:#000000;stroke-width:0.264583px;stroke-linecap:butt;stroke-linejoin:miter;stroke-opacity:1"
       d="m 56.322705,232.21088 c -0.02756,-0.03 -0.369355,-0.41938 -0.272838,-0.61174 0.315505,-0.62877 0.851149,-0.67581 1.364186,-0.2039 1.505855,1.38514 3.342267,3.30692 3.342267,5.50555"
       id="path1524" />
    <path
       style="fill:none;stroke:#000000;stroke-width:0.264583px;stroke-linecap:butt;stroke-linejoin:miter;stroke-opacity:1"
       d="m 70.578474,228.20066 c 0.09338,0.36383 1.161992,-0.20153 0.818515,-0.54377 -0.268386,-0.26741 -0.87203,3.96944 -0.886722,4.0782 -0.216281,1.601 -0.822248,5.16915 0.613883,6.45713 1.468959,1.31742 3.626237,-0.97335 4.297196,-2.10707 0.672595,-1.13648 1.050232,-2.03266 1.295977,-3.33052 0.316529,-1.67171 0.494721,-3.89934 -0.272833,-5.50556 -0.566073,-1.18458 -2.213928,-1.60224 -3.205848,-0.67969 -0.792064,0.73666 -1.104643,1.87492 -1.432393,2.85473"
       id="path1526" />
    <path
       style="fill:none;stroke:#000000;stroke-width:0.264583px;stroke-linecap:butt;stroke-linejoin:miter;stroke-opacity:1"
       d="m 71.942663,234.45388 c -1.578065,-0.8319 -0.157814,-2.85474 1.295979,-2.85474 1.349656,0 2.569295,0.83183 3.887938,1.01955"
       id="path1528" />
    <path
       style="fill:none;stroke:#000000;stroke-width:0.264583px;stroke-linecap:butt;stroke-linejoin:miter;stroke-opacity:1"
       d="m 80.332426,235.13358 c -0.365327,-0.0193 -0.138785,-2.65082 -0.204632,-2.65082 -0.363934,0 0.265099,2.4098 0.204632,2.65082 -0.05206,0.20752 -0.209408,0.37509 -0.341051,0.54376 -0.05184,0.0664 -2.124295,0.85448 -0.477464,0.47579 1.513038,-0.34794 -0.823275,0.10447 1.15956,-0.27189 0.249716,-0.0474 0.500203,-0.0906 0.750305,-0.13593"
       id="path1530" />
    <path
       style="fill:none;stroke:#000000;stroke-width:0.264583px;stroke-linecap:butt;stroke-linejoin:miter;stroke-opacity:1"
       d="m 172.60784,232.2089 c -0.89262,0.0427 -1.00151,0.39338 -1.49517,1.20155 -0.44674,0.73136 -0.38128,0.56707 -0.7717,1.3938 -0.56921,1.20532 -1.30663,2.61272 -1.10932,3.98914"
       id="path1532" />
    <path
       style="fill:none;stroke:#000000;stroke-width:0.264583px;stroke-linecap:butt;stroke-linejoin:miter;stroke-opacity:1"
       d="m 161.27348,231.24767 c -0.11254,0.12816 -0.2576,0.23387 -0.33762,0.38449 -0.0693,0.13046 -0.0659,0.28802 -0.0965,0.43256 -0.2206,1.04415 -0.10057,2.30095 1.20578,2.45116 1.96315,0.22572 3.9395,-1.57658 4.48551,-3.36434 0.0834,-0.27313 0.21002,-0.7477 0,-1.0093 -0.24096,-0.30015 -0.99873,0.47622 -1.44693,1.0093 -0.28703,0.34138 -0.55936,0.6954 -0.81994,1.05736 -0.72423,1.00599 -0.92148,1.33196 -1.39871,2.49922 -0.48659,1.19017 -0.627,2.23912 -0.627,3.50853"
       id="path1534" />
    <path
       style="fill:none;stroke:#000000;stroke-width:0.264583px;stroke-linecap:butt;stroke-linejoin:miter;stroke-opacity:1"
       d="m 137.83304,212.02289 c 0.54987,1.99489 0.98631,4.05695 0.0965,6.00774"
       id="path1536" />
    <path
       style="fill:none;stroke:#000000;stroke-width:0.264583px;stroke-linecap:butt;stroke-linejoin:miter;stroke-opacity:1"
       d="m 146.75584,215.05079 c -0.12155,0.0554 0.10521,-0.48062 -0.0482,-0.48062 -0.0786,0 -0.51763,0.89571 -0.67524,1.20155 -0.45345,0.87994 -1.50741,3.23951 -2.26687,3.84495 -0.52023,0.41473 -1.02685,0.0317 -1.20578,-0.52868 -0.57765,-1.80909 0.7107,-3.86781 2.50802,-1.77829 0.15691,0.18242 0.29468,0.38063 0.43408,0.57675 0.44837,0.63076 0.7288,1.31885 0.9164,2.06666"
       id="path1538" />
    <path
       style="fill:none;stroke:#000000;stroke-width:0.264583px;stroke-linecap:butt;stroke-linejoin:miter;stroke-opacity:1"
       d="m 149.4568,217.88645 c -1.33991,-0.95304 1.44104,-0.5581 1.5434,-0.0481 0.22978,1.14492 -2.15206,2.2717 -0.7717,2.59535 0.2831,0.0664 0.84469,0.16295 1.10932,0.19225 0.0981,0.0108 1.3265,0.0913 1.39871,0.0961"
       id="path1540" />
    <path
       style="fill:none;stroke:#000000;stroke-width:0.264583px;stroke-linecap:butt;stroke-linejoin:miter;stroke-opacity:1"
       d="m 105.64584,209.28336 c -0.11344,0.18612 -0.44209,-0.35648 -0.57878,-0.28837 -0.53487,0.26649 -0.82992,1.23944 -1.01285,1.73022 -0.82211,2.2056 -0.86816,4.64208 -0.86816,6.96899"
       id="path1542" />
    <path
       style="fill:none;stroke:#000000;stroke-width:0.264583px;stroke-linecap:butt;stroke-linejoin:miter;stroke-opacity:1"
       d="m 97.301821,209.04305 c -0.11254,0.016 -0.242935,-0.0148 -0.337619,0.0481 -0.33873,0.22502 -0.948499,1.73886 -1.109323,2.06666 -0.941435,1.9189 -1.929779,4.97815 -3.90674,6.10387 -3.082793,1.7554 -2.270255,-8.67632 1.06109,-5.19069 0.577525,0.60427 1.016281,1.37977 1.398712,2.11473 0.377145,0.72479 0.70575,1.43695 0.964626,2.21084"
       id="path1544" />
    <path
       style="fill:none;stroke:#000000;stroke-width:0.264583px;stroke-linecap:butt;stroke-linejoin:miter;stroke-opacity:1"
       d="m 98.459373,212.74382 c -0.204083,1.17427 -0.03075,2.37604 0.04823,3.55658"
       id="path1546" />
    <path
       style="fill:none;stroke:#000000;stroke-width:0.264583px;stroke-linecap:butt;stroke-linejoin:miter;stroke-opacity:1"
       d="m 140.22772,206.92832 c 1.40378,0.26117 2.0166,2.73112 2.12218,3.94108 0.0544,0.62309 -0.0965,1.21329 -0.0965,1.82635"
       id="path1548" />
    <path
       style="fill:none;stroke:#000000;stroke-width:0.264583px;stroke-linecap:butt;stroke-linejoin:miter;stroke-opacity:1"
       d="m 153.97365,204.66941 c -0.64967,1.19755 -0.87997,2.65056 -1.10932,3.98914 -0.0923,0.53856 -0.66171,2.88694 -0.14469,3.31628 0.33448,0.27774 0.93247,0.0448 1.25401,-0.0961 1.74874,-0.76674 3.44016,-2.6463 4.00321,-4.46976 0.41021,-1.32851 0.29447,-2.86119 -1.15756,-3.4124 -0.61249,-0.2325 -1.10073,-0.19652 -1.68809,0.0961 -1.40516,0.7001 -2.26206,2.09418 -3.08681,3.36433"
       id="path1550" />
    <path
       style="fill:none;stroke:#000000;stroke-width:0.264583px;stroke-linecap:butt;stroke-linejoin:miter;stroke-opacity:1"
       d="m 152.62318,209.04305 c 0.10929,-0.5743 0.6126,-0.79275 1.10932,-1.0093 0.80405,-0.35054 1.59639,-0.38653 2.41156,-0.0481 0.81954,0.34028 1.00337,1.22066 1.92926,0.52869"
       id="path1552" />
    <path
       style="fill:none;stroke:#000000;stroke-width:0.264583px;stroke-linecap:butt;stroke-linejoin:miter;stroke-opacity:1"
       d="m 158.5074,209.90816 c -0.40884,-0.80869 1.90294,-1.01516 2.12218,-0.43256 0.28525,0.758 -0.59347,1.71301 -1.10932,2.16279 -0.007,0.006 -0.50859,0.35103 -0.38585,0.43256 0.40641,0.26997 1.99759,0.0961 2.50803,0.0961"
       id="path1554" />
    <path
       style="fill:none;stroke:#000000;stroke-width:0.264583px;stroke-linecap:butt;stroke-linejoin:miter;stroke-opacity:1"
       d="m 93.153925,252.49105 c 0.658884,-2.17704 2.408385,-4.03466 2.556261,-6.39224 0.01331,-0.21217 0.134419,-1.06248 -0.144693,-1.20155 -0.145706,-0.0726 -0.173564,0.40205 -0.192926,0.86511 -0.04379,1.04734 0.117263,2.09493 0.289385,3.12403 0.315648,1.88723 0.699561,3.8418 0.578779,5.76743 -0.08489,1.35348 -2.406883,2.14555 -3.520887,2.21085 -0.398351,0.0234 -0.806466,0 -1.205786,0 -0.160771,0 -0.321542,0 -0.482311,0 -0.03215,0 -0.128617,0 -0.09646,0 0.685007,0 1.343909,-0.0891 2.025716,-0.14419 0.94447,-0.0763 1.899153,-0.097 2.845652,-0.14418 1.626484,-0.081 3.254807,-0.19977 4.871375,0.0481"
       id="path1556" />
    <path
       style="fill:none;stroke:#000000;stroke-width:0.264583px;stroke-linecap:butt;stroke-linejoin:miter;stroke-opacity:1"
       d="m 124.79369,251.28949 c -0.82956,0.004 -1.53551,-0.62271 -1.88102,-1.34573 -1.78698,-3.73948 4.40911,-7.47241 5.40191,-3.84495 0.40111,1.46556 0.0646,2.78113 -0.53055,4.13332 -0.30341,0.68935 -0.9001,1.81418 -1.35047,2.45117 -0.40818,0.5773 -1.08233,1.31883 -1.59164,1.82634 -0.22358,0.2228 -2.2057,2.10537 -2.50803,1.20155 -0.16917,-0.50573 0.049,-1.14689 0.28939,-1.58604 0.93173,-1.70221 3.27317,-1.62317 4.82313,-0.96124 1.68692,0.72042 2.93917,2.39084 4.82314,2.54728"
       id="path1558" />
    <path
       style="fill:none;stroke:#000000;stroke-width:0.264583px;stroke-linecap:butt;stroke-linejoin:miter;stroke-opacity:1"
       d="m 91.813585,258.9764 c -1.458775,0.80534 -1.995815,3.25317 -2.218642,4.75813 -0.421767,2.84857 -0.198424,6.13733 0.819933,8.8434"
       id="path1560" />
    <path
       style="fill:none;stroke:#000000;stroke-width:0.264583px;stroke-linecap:butt;stroke-linejoin:miter;stroke-opacity:1"
       d="m 93.308756,264.59965 c 0.5696,1.10107 0.772586,2.33854 0.916398,3.55658 0.0019,0.0149 0.11481,0.55846 0.04823,0.6248 -0.04096,0.0408 -0.07812,-0.0893 -0.09647,-0.14418 -0.08151,-0.24369 -0.205494,-0.76931 -0.24116,-0.96124 -0.168505,-0.90672 -0.260561,-3.67446 1.157555,-3.74884 1.623028,-0.0851 2.430105,1.98157 2.652726,3.26822 0.110723,0.63993 0.04823,1.32307 0.04823,1.97054"
       id="path1562" />
    <path
       style="fill:none;stroke:#000000;stroke-width:0.264583px;stroke-linecap:butt;stroke-linejoin:miter;stroke-opacity:1"
       d="m 100.63992,265.84925 c -0.0643,0.14419 -0.15856,0.27847 -0.19292,0.43256 -0.13235,0.59347 0,2.20532 0,2.93178"
       id="path1564" />
    <path
       style="fill:none;stroke:#000000;stroke-width:0.264583px;stroke-linecap:butt;stroke-linejoin:miter;stroke-opacity:1"
       d="m 102.18332,259.9857 c 2.28435,2.36024 3.08149,5.93887 3.32797,9.13177 0.1388,1.79807 0.12615,4.086 -0.86817,5.67131"
       id="path1566" />
    <path
       style="fill:none;stroke:#000000;stroke-width:0.264583px;stroke-linecap:butt;stroke-linejoin:miter;stroke-opacity:1"
       d="m 125.52729,260.27407 c -0.0965,-0.016 -0.19235,-0.0602 -0.28938,-0.0481 -0.33157,0.0413 -1.02363,2.40791 -1.06109,2.54728 -0.65051,2.42002 -1.12077,5.31183 -0.48231,7.78603 0.22034,0.8539 0.62189,1.57587 1.01285,2.35504"
       id="path1568" />
    <path
       style="fill:none;stroke:#000000;stroke-width:0.264583px;stroke-linecap:butt;stroke-linejoin:miter;stroke-opacity:1"
       d="m 129.28934,263.54228 c -0.1254,0.78054 -0.15591,1.56923 -0.24116,2.35503 -0.045,0.41489 -0.13164,1.20666 -0.19292,1.63411 -0.0637,0.44465 -0.1045,0.90517 -0.19292,1.34574 -0.0161,0.0801 -0.12994,0.24031 -0.0482,0.24031 0.11215,0 0,-0.22429 0,-0.33644 0,-0.86286 -0.0224,-0.63925 0.0965,-1.63411 0.12816,-1.07274 0.34812,-3.28676 1.39872,-3.94108 2.06868,-1.28837 2.68169,3.15198 2.65272,4.27752 -0.0247,0.95979 -0.27817,1.96158 -0.53054,2.88372"
       id="path1570" />
    <path
       style="fill:none;stroke:#000000;stroke-width:0.264583px;stroke-linecap:butt;stroke-linejoin:miter;stroke-opacity:1"
       d="m 135.36649,267.19499 c 0.0109,-0.0765 -0.0462,-0.3385 0.0482,-0.43256 0.14097,-0.14047 0.39935,-0.22335 0.57878,-0.28837 1.25479,-0.45469 1.90987,0.54168 1.3987,1.73023 -0.15177,0.3529 -0.44325,0.70862 -0.77169,0.91318 -0.13398,0.0834 -0.324,0.20875 -0.48231,0.2403 -0.0473,0.009 -0.1447,-0.0482 -0.1447,0 0,0.0978 0.19273,-0.0332 0.28939,-0.0481 0.12811,-0.0196 0.25712,-0.033 0.38585,-0.0481 0.70704,-0.0829 1.66305,-0.21096 2.26687,0.24031"
       id="path1572" />
    <path
       style="fill:none;stroke:#000000;stroke-width:0.264583px;stroke-linecap:butt;stroke-linejoin:miter;stroke-opacity:1"
       d="m 138.16391,259.12058 c 1.45172,3.30157 2.74311,6.69954 2.99034,10.33332 0.11505,1.69103 0.0445,3.27569 -0.72347,4.80619"
       id="path1574" />
    <path
       style="fill:none;stroke:#000000;stroke-width:0.264583px;stroke-linecap:butt;stroke-linejoin:miter;stroke-opacity:1"
       d="m 112.80527,211.99293 v 25.05359"
       id="path887" />
    <path
       style="fill:none;stroke:#000000;stroke-width:0.264583px;stroke-linecap:butt;stroke-linejoin:miter;stroke-opacity:1"
       d="m 211.68032,235.66096 c 0.0205,0.039 -0.23415,-0.15117 -0.16881,-0.21628 0.0312,-0.0311 0.35528,0.11396 0.48231,0.16821 0.54623,0.23328 1.10423,0.39204 1.6881,0.50465 0.56051,0.10811 1.14121,0.17295 1.6881,0.33644 0.47198,0.14109 0.99404,0.40852 1.49517,0.40852 0.0306,0 0.40996,0.0345 0.40996,0.024 0,-0.041 -0.0831,0.007 -0.12058,0.024 -0.0493,0.0218 -0.0965,0.0481 -0.14469,0.0721 -0.0965,0.0401 -0.19333,0.0791 -0.28939,0.12016 -0.40079,0.17116 -0.38286,0.174 -0.79582,0.33643 -1.21952,0.4797 -2.41454,0.92998 -3.44854,1.75426"
       id="path890" />
    <path
       style="fill:none;stroke:#000000;stroke-width:0.264583px;stroke-linecap:butt;stroke-linejoin:miter;stroke-opacity:1"
       d="m 213.17549,228.88422 c -0.0402,0.0481 -0.10071,0.0848 -0.12058,0.14419 -0.0301,0.0898 -0.0271,0.51826 -0.0241,0.60077 0.0247,0.69041 0.21507,1.61841 1.13343,1.46589 0.66216,-0.10997 1.20913,-0.77489 1.51929,-1.3217 0.11753,-0.20721 0.18355,-0.44324 0.24116,-0.67287 0.0218,-0.0868 0.0241,-0.15391 0.0241,-0.24031 0,-0.008 0.003,-0.0316 0,-0.024 -0.11141,0.33303 -0.0809,0.75951 -0.12058,1.10542 -0.088,0.7668 -0.13589,1.5387 -0.21704,2.30698 -0.0577,0.54651 -0.15631,1.07427 -0.36174,1.58604 -0.13348,0.33252 -0.32853,0.70566 -0.67524,0.86511 -0.48246,0.22189 -0.9113,-0.33298 -0.89228,-0.76899 0.0308,-0.70595 0.67051,-1.20091 1.18167,-1.58604 0.69325,-0.52233 1.44962,-0.92589 2.24276,-1.27364"
       id="path892" />
    <path
       style="fill:none;stroke:#000000;stroke-width:0.264583px;stroke-linecap:butt;stroke-linejoin:miter;stroke-opacity:1"
       d="M 112.80527,211.99293 V 158.95991"
       id="path929" />
    <path
       style="fill:none;stroke:#000000;stroke-width:0.264583px;stroke-linecap:butt;stroke-linejoin:miter;stroke-opacity:1"
       d="m 112.80527,237.04652 v 74.02972"
       id="path1044" />
    <path
       style="fill:none;stroke:#000000;stroke-width:0.264583px;stroke-linecap:butt;stroke-linejoin:miter;stroke-opacity:1"
       d="m 112.95338,187.99312 c -0.14753,0.89489 -0.34191,1.82612 -0.68729,2.66744 -0.13625,0.33188 -0.29242,0.65587 -0.43409,0.98527"
       id="path1167" />
    <path
       style="fill:none;stroke:#000000;stroke-width:0.264583px;stroke-linecap:butt;stroke-linejoin:miter;stroke-opacity:1"
       d="m 112.95338,187.99312 c 0.0362,-0.004 0.087,-0.0413 0.10852,-0.012 0.01,0.0134 0.10227,0.71651 0.10852,0.75697 0.073,0.4727 0.1536,0.94366 0.21704,1.41783 0.0669,0.4998 0.0954,1.05953 0.36174,1.50194"
       id="path1169" />
    <path
       style="fill:none;stroke:#000000;stroke-width:0.264583px;stroke-linecap:butt;stroke-linejoin:miter;stroke-opacity:1"
       d="m 114.90675,185.32569 c -0.0269,-0.095 0.004,-0.13096 0.10852,-0.0961 0.47735,0.15856 0.86791,0.66856 1.18167,1.03333 0.16711,0.19428 0.3262,0.3954 0.49437,0.58876 0.29457,0.33869 0.61271,0.65514 0.9164,0.98527 0.2296,0.2496 0.40797,0.55593 0.67524,0.76899"
       id="path1171" />
    <path
       style="fill:none;stroke:#000000;stroke-width:0.264583px;stroke-linecap:butt;stroke-linejoin:miter;stroke-opacity:1"
       d="m 117.37861,184.7129 c -0.0241,-0.012 -0.0482,-0.0481 -0.0724,-0.036 -0.0128,0.006 -0.0542,0.23792 -0.0603,0.26434 -0.0224,0.0966 -0.0474,0.19246 -0.0724,0.28837 -0.19272,0.74076 -0.42144,1.47342 -0.627,2.21085 -0.14602,0.52382 -0.32137,1.03909 -0.42203,1.57403"
       id="path1173" />
    <path
       style="fill:none;stroke:#000000;stroke-width:0.264583px;stroke-linecap:butt;stroke-linejoin:miter;stroke-opacity:1"
       d="m 112.80527,211.99293 c 0.3193,-0.11839 0.22476,-0.0555 0.124,-0.10568 -0.2308,-0.11499 -0.22457,-0.65672 0.0965,-0.57675 0.0371,0.009 0.0745,0.0735 0.0844,0.0961 0.12041,0.27426 -0.002,0.6426 -0.28939,0.75697 -0.47793,0.19051 -0.43654,-0.5532 -0.19292,-0.76899 0.18674,-0.16541 0.65223,-0.30856 0.84405,-0.0601 0.39746,0.51488 -0.59382,1.52299 -0.94051,1.17751 -0.20258,-0.20186 -0.15682,-0.59721 -0.0362,-0.82906 0.0854,-0.16422 0.23528,-0.29449 0.38586,-0.39651 0.11353,-0.0769 0.31268,-0.1905 0.44613,-0.0841 0.2522,0.20104 0.0928,0.69828 -0.0482,0.91317 -0.13411,0.2044 -0.54281,0.6163 -0.80787,0.37248 -0.1167,-0.10734 -0.16356,-0.28076 -0.16881,-0.43255 -0.005,-0.15267 0.0322,-0.3245 0.13264,-0.44458 0.17123,-0.20475 0.59061,-0.3727 0.80787,-0.1562"
       id="path1175" />
    <path
       style="fill:none;stroke:#000000;stroke-width:0.264583px;stroke-linecap:butt;stroke-linejoin:miter;stroke-opacity:1"
       d="m 112.80527,237.04652 c -0.21706,0.20149 -0.19693,0.2958 -0.22568,0.13822 -0.0199,-0.10942 -0.0181,-0.23136 0.0241,-0.33644 0.0917,-0.22838 0.40246,-0.39578 0.57877,-0.1562 0.27778,0.37746 0.10092,0.93124 -0.28938,1.15349 -0.11758,0.067 -0.25308,0.11153 -0.38585,0.0601 -0.10923,-0.0423 -0.21255,-0.15163 -0.26528,-0.25233 -0.23393,-0.4468 0.0864,-0.94057 0.53055,-1.08139 0.0966,-0.0306 0.21814,-0.0439 0.3135,0 0.47709,0.21942 0.13718,1.2388 -0.40996,1.09341 -0.11243,-0.0299 -0.18357,-0.11193 -0.2291,-0.21628 -0.18682,-0.42817 0.0263,-0.89035 0.42202,-1.10543 0.0876,-0.0476 0.21392,-0.0841 0.3135,-0.0481 0.0525,0.019 0.0828,0.0868 0.0965,0.13217 0.0895,0.29717 -0.10077,0.66371 -0.34968,0.82907 -0.0868,0.0576 -0.21691,0.0944 -0.21704,0.0841 -10e-4,-0.10292 0.062,-0.19628 0.093,-0.29442"
       id="path1177" />
    <path
       style="fill:none;stroke:#000000;stroke-width:0.264583px;stroke-linecap:butt;stroke-linejoin:miter;stroke-opacity:1"
       d="m 115.28054,238.33823 c -0.18509,0.0154 -0.27608,0.2258 -0.34967,0.37247 -0.2972,0.59232 -0.29345,1.27119 -0.0362,1.87442 0.30788,0.72188 1.02191,1.29105 1.83279,1.24961 0.20275,-0.0104 0.41629,-0.0587 0.59084,-0.16822 0.62013,-0.38907 0.71484,-1.32486 0.67524,-1.98255 -0.0485,-0.80455 -0.43008,-1.68344 -1.29019,-1.88643 -0.9006,-0.21255 -1.62153,0.56663 -1.90514,1.33372"
       id="path1180" />
    <path
       style="fill:none;stroke:#000000;stroke-width:0.264583px;stroke-linecap:butt;stroke-linejoin:miter;stroke-opacity:1"
       d="m 115.26849,241.05372 c -0.0161,-0.024 -0.038,-0.045 -0.0482,-0.0721 -0.0166,-0.0441 0.11958,-0.14419 0.13263,-0.1562 0.22956,-0.21115 0.44961,-0.43337 0.67524,-0.64884 0.45855,-0.4379 0.93743,-0.85007 1.38665,-1.29767"
       id="path1184" />
    <path
       style="fill:none;stroke:#000000;stroke-width:0.264583px;stroke-linecap:butt;stroke-linejoin:miter;stroke-opacity:1"
       d="m 135.36327,185.67141 c -0.0482,-0.0401 -0.086,-0.0982 -0.14469,-0.12016 -0.0249,-0.009 -0.0695,0.0763 -0.12058,0.21628 -0.0434,0.11902 -0.0804,0.24031 -0.12058,0.36047 -0.0643,0.18423 -0.12543,0.36961 -0.19292,0.55271 -0.35551,0.96436 -0.81799,1.9589 -0.98874,2.97984"
       id="path1447" />
    <path
       style="fill:none;stroke:#000000;stroke-width:0.264583px;stroke-linecap:butt;stroke-linejoin:miter;stroke-opacity:1"
       d="m 135.36327,185.67141 c -0.0804,0.10413 -0.18855,0.19183 -0.24115,0.3124 -0.0767,0.17577 0.0245,0.87736 0.0482,1.05736 0.10668,0.80794 0.34816,1.57628 0.65112,2.33101"
       id="path1449" />
    <path
       style="fill:none;stroke:#000000;stroke-width:0.264583px;stroke-linecap:butt;stroke-linejoin:miter;stroke-opacity:1"
       d="m 137.41311,185.7435 c -0.0482,0 -0.11502,-0.038 -0.1447,0 -0.0739,0.0947 -0.0482,1.04667 -0.0482,1.12946 0,0.79561 -0.055,1.74082 0.31351,2.47519 0.0971,0.19349 0.27189,0.27922 0.48231,0.16821 0.75486,-0.39823 1.17912,-2.08622 1.30224,-2.88371 0.18204,-1.17908 -0.19362,-0.42931 -0.33761,0.24031 -0.0725,0.33693 -0.14228,0.84036 -0.16881,1.17751 -0.0542,0.6887 -0.0326,1.38175 0.0482,2.06667"
       id="path1451" />
    <path
       style="fill:none;stroke:#000000;stroke-width:0.264583px;stroke-linecap:butt;stroke-linejoin:miter;stroke-opacity:1"
       d="m 141.44042,186.10397 c -0.0482,0.024 -0.11747,0.0256 -0.14469,0.0721 -0.0811,0.13859 -0.0856,1.24231 -0.0965,1.44186 -0.027,0.49715 -0.0117,0.35781 -0.0724,0.84108 -0.0151,0.12028 -0.0297,0.24066 -0.0482,0.36047 -0.28164,1.82422 -0.0635,-1.00801 0.24116,-1.12946 0.359,-0.1431 1.13288,1.10183 1.59163,0.0961 0.0494,-0.10838 0.0898,-0.22135 0.12058,-0.33643 0.11114,-0.41533 0.16881,-0.89215 0.16881,-1.3217 0,-0.0348 -0.0227,-0.43462 -0.0241,-0.43256 -0.14932,0.2232 -0.17274,1.01836 -0.19292,1.24961 -0.0805,0.92299 -0.22221,1.86069 -0.1447,2.78759"
       id="path1453" />
    <path
       style="fill:none;stroke:#000000;stroke-width:0.264583px;stroke-linecap:butt;stroke-linejoin:miter;stroke-opacity:1"
       d="m 144.86485,187.04117 c -0.58613,-0.36039 0.43551,-1.15206 0.81993,-0.76899 0.46525,0.46361 0.12526,1.42959 -0.16881,1.89845 -0.0243,0.0388 -0.38585,0.44565 -0.38585,0.45659 0,0.0452 0.14277,-0.038 0.38585,-0.0961 0.46856,-0.11205 1.18188,-0.23031 1.47106,0.28838 0.56374,1.01117 -0.12415,2.07223 -0.89228,2.73953 -0.31667,0.27509 -2.49452,1.86383 -2.918,1.44185"
       id="path1455" />
    <path
       style="fill:none;stroke:#000000;stroke-width:0.264583px;stroke-linecap:butt;stroke-linejoin:miter;stroke-opacity:1"
       d="m 150.07383,186.32024 c 0.0599,-0.85739 -0.95219,-0.23471 -1.25401,0.0961 -0.13926,0.15265 -0.39476,0.5224 -0.48231,0.6969 -0.10983,0.21888 -0.22252,0.56994 -0.26527,0.81705 -0.17905,1.03482 0.5543,1.1778 1.27813,0.60077 0.47423,-0.37805 0.80957,-0.91085 1.0852,-1.44185 0.0899,-0.17325 0.29682,-0.49909 0.24116,-0.72093 -0.0363,-0.14486 -0.27756,0.14098 -0.36174,0.26434 -0.46326,0.67887 -0.81658,1.59201 -0.72347,2.42713"
       id="path1457" />
  </g>
</svg>
