<?xml version="1.0" encoding="UTF-8" standalone="no"?>
<!-- Created with Inkscape (http://www.inkscape.org/) -->

<svg
   width="148mm"
   height="105mm"
   viewBox="0 0 148 105"
   version="1.1"
   id="svg10427"
   inkscape:version="1.1.2 (0a00cf5339, 2022-02-04)"
   sodipodi:docname="phi-12-10-3.svg"
   xmlns:inkscape="http://www.inkscape.org/namespaces/inkscape"
   xmlns:sodipodi="http://sodipodi.sourceforge.net/DTD/sodipodi-0.dtd"
   xmlns="http://www.w3.org/2000/svg"
   xmlns:svg="http://www.w3.org/2000/svg">
  <sodipodi:namedview
     id="namedview10429"
     pagecolor="#ffffff"
     bordercolor="#cccccc"
     borderopacity="1"
     inkscape:pageshadow="0"
     inkscape:pageopacity="1"
     inkscape:pagecheckerboard="0"
     inkscape:document-units="mm"
     showgrid="false"
     inkscape:zoom="3.8350027"
     inkscape:cx="248.89161"
     inkscape:cy="197.3923"
     inkscape:window-width="2160"
     inkscape:window-height="1375"
     inkscape:window-x="0"
     inkscape:window-y="0"
     inkscape:window-maximized="1"
     inkscape:current-layer="layer1" />
  <defs
     id="defs10424">
    <inkscape:path-effect
       effect="bspline"
       id="path-effect10681"
       is_visible="true"
       lpeversion="1"
       weight="33.333333"
       steps="2"
       helper_size="0"
       apply_no_weight="true"
       apply_with_weight="true"
       only_selected="false" />
    <inkscape:path-effect
       effect="bspline"
       id="path-effect10681-9"
       is_visible="true"
       lpeversion="1"
       weight="33.333333"
       steps="2"
       helper_size="0"
       apply_no_weight="true"
       apply_with_weight="true"
       only_selected="false" />
    <inkscape:path-effect
       effect="bspline"
       id="path-effect10681-6"
       is_visible="true"
       lpeversion="1"
       weight="33.333333"
       steps="2"
       helper_size="0"
       apply_no_weight="true"
       apply_with_weight="true"
       only_selected="false" />
    <inkscape:path-effect
       effect="bspline"
       id="path-effect10681-6-6"
       is_visible="true"
       lpeversion="1"
       weight="33.333333"
       steps="2"
       helper_size="0"
       apply_no_weight="true"
       apply_with_weight="true"
       only_selected="false" />
  </defs>
  <g
     inkscape:label="Layer 1"
     inkscape:groupmode="layer"
     id="layer1">
    <ellipse
       style="fill:#5f5fd3;fill-opacity:0;stroke:#000000;stroke-width:0.421;stroke-linejoin:bevel;stroke-opacity:1;paint-order:fill markers stroke"
       id="path10510"
       cx="79.238487"
       cy="54.177826"
       rx="10.78843"
       ry="10.891529" />
    <path
       style="fill:none;stroke:#000000;stroke-width:0.264583px;stroke-linecap:butt;stroke-linejoin:miter;stroke-opacity:1"
       d="M 75.740777,43.042608 C 75.290344,40.418291 74.840002,37.794504 72.324033,35.77034 69.808064,33.746175 65.226577,32.322557 61.32146,35.303375 c -3.905117,2.980818 -7.134122,10.366808 -6.985635,17.946142 0.148488,7.579333 3.673946,15.351932 7.422353,18.466599 3.748408,3.114666 7.719542,1.571683 9.944648,-0.302877 2.225106,-1.874559 2.704266,-4.080824 3.183479,-6.287334"
       id="path10679"
       inkscape:path-effect="#path-effect10681"
       inkscape:original-d="m 75.740777,43.042608 c -0.45022,-2.624354 -0.900563,-5.24814 -1.351279,-7.872831 -4.581485,-1.423436 -9.162973,-2.847054 -13.744464,-4.270856 -3.228372,7.385411 -6.457379,14.771401 -9.686462,22.156705 3.525861,7.77317 7.051318,15.545769 10.576581,23.318256 3.971557,-1.54278 7.942691,-3.085764 11.913642,-4.629044 0.479444,-2.206091 0.958604,-4.412356 1.43751,-6.618933"
       sodipodi:nodetypes="ccccccc" />
    <path
       style="fill:none;stroke:#000000;stroke-width:0.264583px;stroke-linecap:butt;stroke-linejoin:miter;stroke-opacity:1"
       d="m 82.945335,65.199457 c 0.450433,2.624313 0.900776,5.248103 3.416743,7.272267 2.515967,2.024165 7.097456,3.447785 11.002573,0.466969 3.905119,-2.980816 7.134119,-10.366809 6.985639,-17.946143 -0.14849,-7.579335 -3.67395,-15.351935 -7.422356,-18.466601 -3.748408,-3.114666 -7.719545,-1.571682 -9.94465,0.302876 -2.225106,1.874559 -2.704266,4.080824 -3.183479,6.287335"
       id="path10679-3"
       inkscape:path-effect="#path-effect10681-9"
       inkscape:original-d="m 82.945335,65.199457 c 0.45022,2.62435 0.90056,5.24814 1.35128,7.87283 4.58148,1.42344 9.162972,2.84705 13.744465,4.27086 3.22837,-7.38541 6.45738,-14.7714 9.68646,-22.156708 -3.52586,-7.77317 -7.05132,-15.545769 -10.57658,-23.318256 -3.971558,1.54278 -7.942695,3.085764 -11.913645,4.629044 -0.47944,2.206091 -0.9586,4.412356 -1.43751,6.618933"
       sodipodi:nodetypes="ccccccc" />
    <path
       style="fill:none;stroke:#000000;stroke-width:0.443045px;stroke-linecap:butt;stroke-linejoin:miter;stroke-opacity:1"
       d="M 78.489148,43.01008 C 77.909391,37.362859 77.329762,31.716891 72.693239,27.841102 68.056716,23.965312 59.363426,21.861598 51.953585,26.266375 44.543745,30.671152 38.416767,41.5856 38.698502,52.785825 c 0.281736,11.200225 6.971227,22.685972 14.083793,27.288554 7.112565,4.602581 14.647719,2.322479 18.922016,-1.28489 4.274298,-3.607369 5.287954,-8.542147 6.301691,-13.477317"
       id="path10679-0"
       inkscape:path-effect="#path-effect10681-6"
       inkscape:original-d="M 78.489148,43.01008 C 77.909625,37.362835 77.329997,31.716867 76.749937,26.06901 68.056654,23.965567 59.363364,21.861854 50.67007,19.757868 44.544293,30.67146 38.417312,41.585906 32.290186,52.499339 38.980443,63.98593 45.669933,75.471678 52.359054,86.95726 c 7.535957,-2.279802 15.07111,-4.559905 22.605916,-6.840445 1.013945,-4.934632 2.027601,-9.86941 3.041032,-14.804643"
       sodipodi:nodetypes="ccccccc" />
    <path
       style="fill:none;stroke:#000000;stroke-width:0.443045px;stroke-linecap:butt;stroke-linejoin:miter;stroke-opacity:1"
       d="m 80.674591,65.331335 c 0.579756,5.647216 1.159384,11.293186 5.795906,15.168976 4.636521,3.87579 13.32981,5.979503 20.739653,1.574728 7.40984,-4.404774 13.53682,-15.319229 13.25509,-26.51945 -0.28174,-11.200221 -6.97123,-22.685975 -14.0838,-27.288557 -7.11256,-4.602582 -14.647719,-2.322478 -18.922014,1.284891 -4.274295,3.607369 -5.28795,8.542145 -6.301685,13.477312"
       id="path10679-0-2"
       inkscape:path-effect="#path-effect10681-6-6"
       inkscape:original-d="m 80.674591,65.331335 c 0.57952,5.64724 1.159149,11.29321 1.739209,16.94107 8.69328,2.10344 17.38657,4.20715 26.07987,6.31114 6.12577,-10.91359 12.25276,-21.82804 18.37988,-32.74147 -6.69025,-11.48659 -13.37975,-22.972342 -20.06887,-34.457924 -7.53595,2.279802 -15.07111,4.559905 -22.60591,6.840445 -1.01395,4.934632 -2.0276,9.869409 -3.041029,14.804639"
       sodipodi:nodetypes="ccccccc" />
    <path
       style="fill:none;stroke:#000000;stroke-width:0.264583px;stroke-linecap:butt;stroke-linejoin:miter;stroke-opacity:1"
       d="m 25.324342,74.169391 c 0.07074,-0.08225 0.128772,-0.177427 0.212232,-0.246735 0.122869,-0.102028 0.917085,-0.588528 0.990413,-0.63446 1.671124,-1.046729 -0.396118,0.223763 1.450247,-0.845939 0.25173,-0.145841 0.494067,-0.307345 0.74281,-0.458224 1.051661,-0.637895 2.100302,-1.284687 3.183472,-1.868128 0.19952,-0.107468 0.403987,-0.205793 0.601324,-0.317222 0.276183,-0.155953 0.544327,-0.325795 0.813551,-0.493472 0.26025,-0.162083 0.144913,-0.09811 0.353722,-0.246731 0.03773,-0.02685 0.149106,-0.08568 0.176858,-0.140992 0.02787,-0.05555 -0.04602,-0.03525 -0.07074,-0.03525 -0.08254,0 -0.165069,0 -0.247603,0 -0.08253,0 -0.165229,-0.0051 -0.247602,0 -0.83652,0.0521 0.232264,0.02043 -0.672068,0.0705 -0.176588,0.0098 -0.353719,0 -0.530577,0 -0.106117,0 -0.212233,0 -0.318349,0 -0.05895,0 -0.119653,0.01426 -0.176859,0 -0.06034,-0.01503 -0.141488,-0.07686 -0.141488,-0.140991 0,-0.01175 -0.0098,-0.02875 0,-0.03525 0.115049,-0.07643 0.66661,-0.09607 0.778182,-0.105743 0.424315,-0.03677 0.849225,-0.06732 1.273392,-0.105741 0.118004,-0.01069 0.235429,-0.02832 0.353716,-0.03525 0.08239,-0.0048 0.165351,0.0068 0.247602,0 0.05991,-0.005 0.117113,-0.02863 0.176861,-0.03525 0.04688,-0.0052 0.09432,0 0.141486,0 0.0118,0 0.03537,0.0118 0.03537,0 0,-0.0024 -0.05037,-0.01106 -0.106119,0.03525 -0.140862,0.116973 -0.259393,0.258482 -0.389091,0.387723 -0.298366,0.297318 -0.357566,0.3452 -0.636694,0.669703 -0.215159,0.25014 -0.366508,0.449432 -0.565949,0.704959"
       id="path11780" />
    <path
       style="fill:none;stroke:#000000;stroke-width:0.264583px;stroke-linecap:butt;stroke-linejoin:miter;stroke-opacity:1"
       d="m 19.841698,64.08856 c 0.04716,-0.08225 0.07171,-0.18255 0.141487,-0.246735 0.08927,-0.08211 0.212666,-0.116716 0.318348,-0.176239 0.898482,-0.506055 0.08537,-0.07292 1.238017,-0.634458 0.28422,-0.138464 0.56595,-0.281982 0.848925,-0.422973 0.318347,-0.140989 0.640067,-0.274598 0.955041,-0.422971 2.069788,-0.975011 -0.141583,-0.0034 2.122314,-1.022183 1.022837,-0.460301 2.069987,-0.857203 3.112728,-1.268913 0.322813,-0.12746 1.315818,-0.522896 1.662478,-0.669708 1.441415,-0.610446 -0.0962,0.01016 1.167273,-0.493466"
       id="path11782" />
    <path
       style="fill:none;stroke:#000000;stroke-width:0.264583px;stroke-linecap:butt;stroke-linejoin:miter;stroke-opacity:1"
       d="m 27.588144,59.788342 c 0.253642,-0.337 0.118419,-0.26257 0.495207,-0.387725 0.522533,-0.173567 1.056992,-0.29508 1.591736,-0.422969 0.405495,-0.09698 0.413747,-0.11648 0.813554,-0.176239 0.10559,-0.01579 0.212402,-0.02204 0.318347,-0.03525 0.145838,0.0032 0.282138,-0.05276 0.424463,-0.07049 0.0585,-0.0073 0.117906,0 0.176858,0 0.0118,0 0.02702,-0.0083 0.03537,0 0.0083,0.0083 0.0037,0.0241 0,0.03525 -0.02574,0.077 -0.100097,0.152566 -0.141486,0.211487 -0.04875,0.0694 -0.08966,0.144343 -0.141489,0.211484 -0.305323,0.395523 -0.672901,0.741034 -1.025787,1.092679 -0.468415,0.466767 0.0033,-0.01886 -0.353718,0.387723 -0.145526,0.165732 -0.07277,0.0393 -0.141486,0.176239"
       id="path11784" />
    <path
       style="fill:none;stroke:#000000;stroke-width:0.264583px;stroke-linecap:butt;stroke-linejoin:miter;stroke-opacity:1"
       d="m 16.622855,53.302772 c 0.250887,-0.208338 0.157322,-0.16475 0.459834,-0.281982 0.45441,-0.176093 0.918691,-0.335124 1.379505,-0.493466 0.176246,-0.06056 0.355535,-0.112282 0.530578,-0.176239 0.461696,-0.168693 0.637152,-0.264017 1.096529,-0.458222 0.643224,-0.271925 1.299114,-0.511214 1.945454,-0.775446 1.102218,-0.450604 0.248192,-0.0986 1.308761,-0.599209 0.151973,-0.07174 1.160252,-0.518372 1.344132,-0.59921 1.41e-4,-6.1e-5 1.131758,-0.493408 1.131901,-0.493469 0.323293,-0.146505 0.662983,-0.251775 0.990415,-0.387723 0.619136,-0.25707 0.162671,-0.08105 0.707438,-0.352478 0.103875,-0.05175 0.213267,-0.09172 0.318347,-0.140991 0.09541,-0.04474 0.187414,-0.09655 0.282974,-0.140989 0.08138,-0.03784 0.167275,-0.06572 0.247602,-0.105743 0.144958,-0.07222 0.274974,-0.168267 0.389091,-0.281983 0.03007,-0.02996 0.156406,-0.135477 0.176861,-0.176239 0.01466,-0.02919 0,-0.107635 0,-0.140991 0,-0.01175 0.0083,-0.02695 0,-0.03524 -0.0078,-0.0077 -0.117962,0 -0.141488,0 -0.459836,0 -0.919668,0 -1.379504,0 -0.16507,0 -0.330139,0 -0.495207,0 -0.04716,0 -0.09432,0 -0.141486,0 -0.0118,0 -0.04716,0 -0.03537,0 0.08253,0 0.165275,0.0058 0.247602,0 0.106495,-0.0076 0.212754,-0.01947 0.318347,-0.03525 0.13036,-0.0195 0.260271,-0.04259 0.389091,-0.0705 0.142507,-0.03087 0.282252,-0.07354 0.424463,-0.105741 5.29e-4,-1.24e-4 0.706893,-0.140864 0.707438,-0.140991 0.211373,-0.04956 0.413969,-0.133487 0.636693,-0.105743 0.363368,0.04526 0.247401,0.458525 0.106116,0.669705 -0.08938,0.133601 -0.317452,0.358696 -0.424463,0.458221 -0.269539,0.25069 -0.567721,0.467847 -0.848926,0.704954 -0.0703,0.05927 -0.150257,0.108304 -0.21223,0.176239 -0.05716,0.06266 -0.09432,0.140988 -0.141489,0.211484"
       id="path11786" />
    <path
       style="fill:none;stroke:#000000;stroke-width:0.264583px;stroke-linecap:butt;stroke-linejoin:miter;stroke-opacity:1"
       d="m 44.212938,67.2256 c -0.299347,0.431506 -0.578009,0.876866 -0.884298,1.304165 -0.117907,0.164487 -0.23005,0.333262 -0.353716,0.493467 -0.153525,0.198882 -0.181248,0.215857 -0.353722,0.387723 -0.04716,0.047 -0.08816,0.101134 -0.141488,0.140994 -0.06807,0.05087 -0.338728,0.140988 -0.424461,0.140988 -0.03727,0 -0.07413,-0.01611 -0.106114,-0.03525 -0.02858,-0.01709 -0.04716,-0.047 -0.07074,-0.0705 -0.110654,-0.11026 -0.163547,-0.228505 -0.176863,-0.38772 -0.0069,-0.08196 -0.01167,-0.165323 0,-0.246735 0.01214,-0.08469 0.0436,-0.165595 0.07074,-0.246732 0.102079,-0.305157 0.245774,-0.578852 0.424466,-0.845947 0.191325,-0.28598 0.392805,-0.567663 0.636693,-0.810696 0.02996,-0.02986 0.29315,-0.307092 0.353719,-0.246732 0.05824,0.05804 0.04081,0.292857 0.03537,0.352475 -0.0065,0.07118 -0.02357,0.140991 -0.03537,0.211487 -0.03594,0.214857 -0.07387,0.386694 -0.21223,0.563965 -0.143984,0.184472 -0.326896,0.286239 -0.53058,0.387723 -0.07074,0.03525 -0.137223,0.08083 -0.212233,0.105743 -0.241676,0.08028 -0.692367,0.05026 -0.884296,-0.140991 -0.03004,-0.02993 -0.04821,-0.06982 -0.07074,-0.105744 -0.170003,-0.271047 -0.176858,-0.353269 -0.176858,-0.669705 0,-0.370618 -0.02045,-0.212952 0.07074,-0.599212 0.07898,-0.334503 0.164621,-0.539568 0.318347,-0.845942 0.129947,-0.258985 0.122992,-0.274267 0.282972,-0.493467 0.121949,-0.167089 0.256455,-0.303384 0.424466,-0.422973 0.0346,-0.02463 0.06667,-0.05477 0.106113,-0.0705 0.02191,-0.0087 0.04716,0 0.07075,0 0.09126,0 0.109752,0.01087 0.141488,0.105744 0.08603,0.257172 0.01675,0.547288 -0.176858,0.740201 -0.04171,0.04156 -0.09433,0.0705 -0.141488,0.105743 -0.0969,0.07241 -0.166471,0.137541 -0.282978,0.176239 -0.13386,0.04446 -0.186772,0.03525 -0.318346,0.03525 -0.04716,0 -0.09572,0.0114 -0.141489,0 -0.124124,-0.03092 -0.162975,-0.0919 -0.247602,-0.176236 -0.04716,-0.047 -0.103217,-0.08651 -0.141489,-0.140991 -0.04534,-0.06454 -0.07495,-0.139031 -0.106113,-0.211487 -0.03968,-0.09226 -0.08168,-0.184571 -0.10612,-0.28198 -0.07019,-0.279757 -0.05295,-0.635013 0,-0.91644 0.07943,-0.422156 0.244505,-0.848659 0.49521,-1.198419 0.208429,-0.29078 0.506484,-0.580866 0.848927,-0.704956 0.07166,-0.02596 0.34119,-0.05599 0.42446,-0.03525 0.06586,0.0164 0.106117,0.216495 0.106117,0.246735 0,0.07147 -0.01429,0.143192 -0.03537,0.211486 -0.117252,0.379736 -0.440113,0.710383 -0.742807,0.951688 -0.423397,0.337529 -0.852305,0.604002 -1.41488,0.563962 -0.18034,-0.01283 -0.40468,-0.06811 -0.530577,-0.211487 -0.351261,-0.400028 -0.134623,-1.021662 0.03537,-1.445154 0.201202,-0.501234 0.520547,-0.944187 0.95504,-1.268915 0.147743,-0.110418 0.342209,-0.255167 0.53058,-0.28198 0.360375,-0.0513 0.178141,0.305332 0.07074,0.458216 -0.206174,0.2935 -0.468149,0.46068 -0.778182,0.634458 -0.279061,0.156422 -0.284448,0.152281 -0.601324,0.211489 -0.208804,0.03901 -0.25981,0.05436 -0.459835,0 -0.184523,-0.05015 -0.31759,-0.131984 -0.389091,-0.31723 -0.08947,-0.231793 -0.08271,-0.384093 -0.07074,-0.634457 0.0062,-0.12963 0.01101,-0.260255 0.03537,-0.387726 0.0739,-0.386593 0.288015,-0.73053 0.495205,-1.057428 0.06811,-0.107461 0.135726,-0.21558 0.212233,-0.317231 0.06524,-0.08668 0.142015,-0.164041 0.212233,-0.246734 0.101264,-0.119256 0.228579,-0.287965 0.353716,-0.387723 0.05371,-0.04282 0.116769,-0.07248 0.176863,-0.105744 0.1161,-0.06427 0.258993,-0.142187 0.318347,0.03525 0.05374,0.160666 0.05858,0.368178 0,0.528717 -0.03541,0.09703 -0.183565,0.280681 -0.247608,0.352475 -0.353017,0.395756 -1.008454,0.545987 -1.414875,0.140992 -0.259712,-0.258803 -0.417496,-0.663575 -0.459835,-1.022184 -0.02138,-0.181067 0.0098,-0.385895 0.03538,-0.563962 0.05685,-0.396531 0.167923,-0.658151 0.565949,-0.810696 0.182075,-0.06978 0.446749,-0.119372 0.636693,-0.03525 0.212188,0.09398 0.353722,0.377603 0.353722,0.599213 0,0.07903 -0.06359,0.288901 -0.10612,0.352475 -0.03702,0.05534 -0.09164,0.09684 -0.141483,0.140991 -0.219363,0.194305 -0.456784,0.295474 -0.742812,0.352475 -0.08176,0.0163 -0.164447,0.04117 -0.247603,0.03525 -0.176633,-0.01257 -0.327207,-0.103354 -0.459835,-0.211487 -0.160017,-0.130463 -0.259863,-0.271166 -0.353719,-0.458219 -0.05678,-0.113159 -0.110678,-0.229679 -0.141486,-0.352478 -0.07818,-0.311634 -0.02101,-0.787884 0.07074,-1.092678 0.0972,-0.322861 0.298289,-0.712214 0.495207,-0.986933 0.180174,-0.25136 0.384554,-0.425265 0.636694,-0.59921 0.06991,-0.04823 0.136213,-0.103116 0.212233,-0.140991 0.106066,-0.05285 0.367739,-0.131149 0.495204,-0.105744 0.113933,0.0227 0.127101,0.152646 0.106119,0.246735 -0.08317,0.372938 -0.467373,0.665274 -0.778184,0.845944 -0.06833,0.03972 -0.136665,0.08257 -0.21223,0.105744 -0.08808,0.02701 -0.403064,0.05492 -0.495208,0.03525 -0.08777,-0.01873 -0.167277,-0.06572 -0.247605,-0.105743 -0.08501,-0.04235 -0.174532,-0.08031 -0.247602,-0.140991 -0.11071,-0.09193 -0.293828,-0.380741 -0.353719,-0.493469 -0.09636,-0.181377 -0.199803,-0.423924 -0.21223,-0.634458 -0.0056,-0.09456 0.01786,-0.188883 0.03537,-0.281982 0.05742,-0.305157 0.200814,-0.623075 0.424466,-0.845942 0.0534,-0.05322 0.117906,-0.09399 0.176858,-0.140991 0.218072,-0.173844 0.109371,-0.107363 0.318347,-0.211484 0.04716,-0.0235 0.09036,-0.05776 0.141488,-0.0705 0.04576,-0.0114 0.09433,0 0.141489,0 0.02357,0 0.04837,-0.0074 0.07074,0 0.06822,0.02265 0.134999,0.30077 0.141486,0.352478 0.0168,0.133961 -0.01712,0.316534 -0.106116,0.42297 -0.02724,0.03258 -0.06921,0.04949 -0.106114,0.0705 -0.252965,0.144044 -0.538533,0.207523 -0.813557,0.07049 -0.117821,-0.05871 -0.247509,-0.211344 -0.318346,-0.317228 -0.248058,-0.370779 -0.34108,-0.755965 -0.247603,-1.198419 0.09449,-0.447263 0.436714,-0.906862 0.74281,-1.23367 0.28072,-0.299715 0.597202,-0.600261 0.990412,-0.740201 0.199173,-0.07088 0.364231,-0.102254 0.565952,-0.03525 0.025,0.0083 0.05208,0.01664 0.07074,0.03525 0.128722,0.128264 -0.06337,0.527428 -0.141484,0.634457 -0.07073,0.09691 -0.256304,0.244422 -0.353721,0.317228 -0.08115,0.06065 -0.157999,0.128971 -0.247603,0.176239 -0.114569,0.06044 -0.57481,0.226909 -0.707437,0.246734 -0.116613,0.01744 -0.235993,0.0065 -0.353722,0 -0.332189,-0.01839 -0.625684,-0.09354 -0.813551,-0.387726 -0.291129,-0.455879 -0.206624,-1.05747 0.03537,-1.515647 0.05942,-0.112498 0.13757,-0.214214 0.21223,-0.31723 0.348414,-0.480721 0.770356,-0.930164 1.308762,-1.198419 0.201268,-0.100283 0.409106,-0.166193 0.636693,-0.140992 0.0044,5.3e-4 0.186171,0.03587 0.212233,0.0705 0.05032,0.06686 0.0412,0.218096 0.03537,0.281982 -0.04152,0.455189 -0.390776,0.91644 -0.884295,0.91644 -0.407583,0 -0.679008,-0.236654 -0.884299,-0.563964 -0.06433,-0.102563 -0.132844,-0.204449 -0.17686,-0.317231 -0.07057,-0.180832 -0.09338,-0.442748 -0.07075,-0.634457 0.04585,-0.388326 0.317275,-0.863743 0.601324,-1.127924 0.09831,-0.09143 0.209378,-0.16831 0.318347,-0.246732 0.315301,-0.22692 0.643313,-0.408776 1.025784,-0.493472 0.20919,-0.04632 0.430202,-0.05879 0.636693,0 0.03585,0.01021 0.07626,0.01294 0.10612,0.03525 0.06001,0.04485 0.0857,0.257627 0.07074,0.31723 -0.04595,0.183144 -0.247798,0.320572 -0.389091,0.422968 -0.248333,0.17997 -0.501169,0.281982 -0.813557,0.281982 -0.595513,0 -1.167273,-0.520816 -1.167273,-1.127924 0,-0.336179 0.173369,-0.611613 0.353722,-0.881189 0.191153,-0.285721 0.433591,-0.53153 0.707437,-0.740204 0.218856,-0.166772 0.359233,-0.239898 0.601324,-0.352475 0.194813,-0.09059 0.455848,-0.213469 0.672063,-0.105743 0.09095,0.04532 0.08396,0.251399 0.07074,0.317227 -0.01246,0.06207 -0.03809,0.122007 -0.07074,0.176239 -0.175564,0.291579 -0.615995,0.613397 -0.95504,0.669705 -0.09492,0.01577 -0.293608,5.3e-4 -0.389091,-0.03525 -0.129992,-0.04857 -0.230386,-0.201941 -0.282977,-0.317228 -0.03085,-0.06763 -0.0594,-0.138022 -0.07074,-0.211487 -0.05328,-0.345109 0.09926,-0.772649 0.282975,-1.057431 0.06898,-0.106918 0.343323,-0.392525 0.424463,-0.458218 0.244777,-0.198184 0.356952,-0.230519 0.636696,-0.352476 0.08227,-0.03587 0.161287,-0.08117 0.247602,-0.105746 0.08018,-0.02283 0.164481,-0.02887 0.247603,-0.03524 0.126042,-0.0097 0.411678,0.01125 0.530579,0.0705 0.0298,0.01484 0.05073,0.04389 0.07074,0.0705 0.03779,0.05021 0.06456,0.162195 0.07075,0.211484 0.01683,0.134049 0.0024,0.165582 -0.07075,0.281983 -0.09367,0.149347 -0.195966,0.212114 -0.353721,0.281979 -0.05803,0.02569 -0.114411,0.05918 -0.176858,0.0705 -0.162518,0.02945 -0.248047,-2.2e-4 -0.389091,-0.0705 -0.264427,-0.131749 -0.341228,-0.28195 -0.424463,-0.563962 -0.08626,-0.292264 -0.110403,-0.617368 -0.03537,-0.916439 0.127897,-0.509802 0.559779,-1.089364 1.025784,-1.339411 0.07908,-0.04243 0.165068,-0.0705 0.247602,-0.105744 0.326512,-0.13944 0.161304,-0.08117 0.49521,-0.176239"
       id="path11788" />
    <path
       style="fill:none;stroke:#000000;stroke-width:0.264583px;stroke-linecap:butt;stroke-linejoin:miter;stroke-opacity:1"
       d="m 41.588057,36.467711 c -0.03807,-0.265533 -0.08934,-0.208267 0.07074,-0.387726 0.0554,-0.06211 0.115412,-0.120107 0.176858,-0.176239 0.31128,-0.284337 0.18872,-0.150445 0.53058,-0.422971 0.169749,-0.135321 0.329242,-0.283035 0.495205,-0.422973 0.0703,-0.05927 0.144084,-0.114501 0.212233,-0.176236 0.182343,-0.165185 0.168095,-0.169482 0.318346,-0.352478 0.405339,-0.493673 -0.02836,0.04413 0.318347,-0.387723 0.09433,-0.117494 0.182679,-0.240041 0.282977,-0.352478 0.226285,-0.25368 0.06334,-0.02492 0.247603,-0.28198 0.06344,-0.08851 0.100425,-0.205819 0.176858,-0.281982 0.01836,-0.01828 0.109468,-0.13765 0.141488,-0.105744 0.0083,0.0083 0,0.0235 0,0.03525 0,0.203864 -0.118052,0.38967 -0.212233,0.563962 -0.04507,0.08341 -0.09897,0.161997 -0.141488,0.246735 -0.105551,0.210365 -0.194032,0.453062 -0.282972,0.669705 -0.04279,0.104227 -0.271471,0.641982 -0.318347,0.775449 -0.04066,0.115768 -0.06905,0.235508 -0.106119,0.352475 -0.26553,0.793806 0.02611,-0.09338 -0.176858,0.563965 -0.05051,0.163568 -0.08775,0.22303 -0.106114,0.387723 -0.0091,0.08174 0,0.164489 0,0.246734"
       id="path11790" />
    <path
       style="fill:none;stroke:#000000;stroke-width:0.264583px;stroke-linecap:butt;stroke-linejoin:miter;stroke-opacity:1"
       d="m 54.003595,23.355578 c 0,0.117492 -0.02048,0.236784 0,0.352476 0.01561,0.08816 0.07012,0.164759 0.106114,0.246734 0.04655,0.106016 0.08956,0.213742 0.141489,0.317229 0.10859,0.216417 0.245131,0.418041 0.353719,0.634458 0.05193,0.103487 0.09204,0.212533 0.141486,0.317229 0.07859,0.166412 0.17123,0.326029 0.247605,0.493467 0.02627,0.05759 0.04496,0.118426 0.07074,0.176239 0.02143,0.04802 0.04716,0.09399 0.07075,0.14099 0.03417,0.0681 0.05752,0.105744 0.03537,0.105744 -0.027,0 -0.07055,-0.105351 -0.07074,-0.105744 -0.03537,-0.0705 -0.0689,-0.141948 -0.106116,-0.211486 -0.186407,-0.348285 -0.394878,-0.685553 -0.601322,-1.022182 -0.058,-0.09458 -0.122322,-0.18536 -0.176863,-0.281982 -0.08234,-0.145871 -0.165208,-0.342944 -0.247602,-0.493467 -0.295233,-0.490331 0.06387,0.127289 -0.176858,-0.352476 -0.238546,-0.475417 0.07166,0.231385 -0.106114,-0.211486 -2.1e-5,-5.4e-5 -0.07073,-0.140935 -0.07074,-0.140991 -0.0075,-0.02229 -0.01664,-0.08708 0,-0.07049 0.01863,0.01856 0.02357,0.047 0.03537,0.07049 0.03537,0.0705 0.0689,0.141947 0.106119,0.211486 0.05713,0.106739 0.116634,0.212205 0.176858,0.317229 0.162539,0.283447 0.339873,0.558484 0.495205,0.845944 0.08749,0.161908 0.165068,0.328978 0.247602,0.493467 0.07075,0.140991 0.146318,0.279661 0.212233,0.422972 0.112234,0.244012 0.208942,0.494908 0.318347,0.740201"
       id="path11792" />
    <path
       style="fill:none;stroke:#000000;stroke-width:0.264583px;stroke-linecap:butt;stroke-linejoin:miter;stroke-opacity:1"
       d="m 48.308717,29.20669 c -0.0033,-0.249214 -0.03147,-0.266277 0.106117,-0.458219 0.07815,-0.109024 0.170497,-0.207465 0.247602,-0.31723 0.03942,-0.05611 0.06921,-0.118443 0.106116,-0.176239 4e-5,-6.4e-5 0.282938,-0.422907 0.282975,-0.422971 1e-5,-1.3e-5 0.282969,-0.493453 0.282977,-0.493466 0.146066,-0.272913 0.245012,-0.557081 0.353716,-0.845945 0.113009,-0.300296 0.213207,-0.60357 0.282977,-0.91644 0.01863,-0.08351 0.05391,-0.162848 0.07075,-0.246733 0.01077,-0.05364 0,-0.121064 0,-0.176238 0,-0.0235 0.01664,-0.05391 0,-0.0705 -0.04133,-0.04118 -0.08794,0.06952 -0.141489,0.176239 -0.127847,0.254791 -0.231952,0.502826 -0.318347,0.775448 -0.03707,0.116969 -0.07074,0.234985 -0.106116,0.352477 -0.04716,0.129241 -0.09784,0.257252 -0.141486,0.387726 -0.07785,0.232725 -0.130908,0.473416 -0.212233,0.70495 -0.111707,0.318048 -0.238934,0.568629 -0.424463,0.845945 -0.02315,0.0346 -0.195233,0.300291 -0.247602,0.352477 -0.03008,0.02998 -0.07291,0.04402 -0.106117,0.0705 -0.08235,0.06565 -0.04653,0.0742 -0.141486,0.105743 -0.0068,0.0024 -0.106116,-0.0019 -0.106116,0 0,0.0118 0.02357,0 0.03537,0 0.04716,0 0.09432,0 0.141486,0 0.04716,0 0.09469,0.0058 0.141489,0 0.225419,-0.02808 0.424767,-0.141091 0.636693,-0.211486 0.08144,-0.02705 0.165671,-0.04498 0.247605,-0.0705 0.245218,-0.07636 0.42023,-0.148749 0.672065,-0.211487 0.144603,-0.03602 0.606404,-0.115099 0.74281,-0.140988 0.118115,-0.02241 0.234815,-0.05272 0.353719,-0.0705 0.117189,-0.01751 0.235873,-0.02289 0.353719,-0.03525 0.306903,-0.03219 0.613455,-0.0676 0.919668,-0.105743"
       id="path11794" />
    <path
       style="fill:none;stroke:#000000;stroke-width:0.264583px;stroke-linecap:butt;stroke-linejoin:miter;stroke-opacity:1"
       d="m 60.638787,80.113356 c -0.07074,0.047 -0.163409,0.0715 -0.21223,0.140991 -0.04109,0.05849 -0.02215,0.141245 -0.03538,0.211487 -0.101682,0.540409 -0.04359,0.190963 -0.176855,0.810696 -0.03779,0.175737 -0.06514,0.353695 -0.106119,0.528715 -0.04844,0.206872 -0.219956,0.810252 -0.282972,1.02218 -0.0909,0.305724 -0.165156,0.552432 -0.282975,0.845947 -0.04313,0.10745 -0.09494,0.211212 -0.141488,0.317228 -0.03599,0.08197 -0.06597,0.166711 -0.106119,0.246732 -0.03075,0.06129 -0.07272,0.116345 -0.106114,0.176238 -0.02561,0.04593 -0.04459,0.09538 -0.07075,0.140992 -0.02109,0.03679 -0.04887,0.06941 -0.07074,0.105743 -0.01357,0.02252 -0.02074,0.04865 -0.03537,0.0705 -0.0093,0.01384 -0.02791,0.02037 -0.03538,0.03525 -0.0053,0.0105 0,0.02349 0,0.03525"
       id="path11796" />
    <path
       style="fill:none;stroke:#000000;stroke-width:0.264583px;stroke-linecap:butt;stroke-linejoin:miter;stroke-opacity:1"
       d="m 51.583581,78.809193 c -0.09614,0.05784 -0.216749,-0.02529 -0.318346,0 -0.231058,0.05756 0.13386,0.01889 -0.176858,0.0705 -0.07192,0.01193 -0.318098,0.0079 -0.389091,0 -0.18193,-0.02013 -0.204185,-0.0531 -0.389091,-0.105743 -0.09349,-0.02662 -0.190164,-0.0416 -0.282977,-0.0705 -7.4e-5,-2.3e-5 -0.565875,-0.21146 -0.565949,-0.211486 -0.219385,-0.07287 -0.419844,-0.125048 -0.636696,-0.211484 -0.12844,-0.05119 -0.261067,-0.08996 -0.389091,-0.140992 -0.02447,-0.0098 -0.04574,-0.02694 -0.07075,-0.03525 -0.01119,-0.0037 -0.02482,0.0053 -0.03537,0 -0.02574,-0.01283 -0.07074,-0.09794 -0.07074,-0.03525 0,0.01093 0.03872,-0.0084 0.106116,0 0.07116,0.0089 0.141068,0.02638 0.212231,0.03525 0.117583,0.01463 0.23622,0.01998 0.353721,0.03525 1.69e-4,2.2e-5 0.919501,0.140965 0.919671,0.140992 0.295042,0.04523 0.588525,0.100801 0.884295,0.140991 0.117412,0.01595 0.23667,0.01683 0.353722,0.03525 0.166737,0.02625 0.32744,0.08717 0.495204,0.105743 0.04688,0.0052 0.09433,0 0.141489,0 0.02357,0 0.04716,0 0.07074,0 0.0118,0 0.02702,0.0083 0.03537,0 0.02743,-0.02733 -0.02958,-0.131368 -0.03537,-0.140988 -0.07997,-0.132824 -0.102214,-0.135806 -0.212233,-0.281983 -0.345619,-0.459208 -0.0073,-0.04398 -0.353721,-0.458221 -0.144328,-0.172585 -0.206002,-0.231058 -0.318347,-0.422973 -0.03984,-0.06806 -0.06824,-0.142299 -0.106113,-0.211484 -0.03292,-0.06015 -0.07536,-0.114949 -0.106114,-0.176239 -0.03516,-0.07007 -0.124971,-0.321887 -0.141489,-0.387723 -0.01738,-0.06933 -0.02357,-0.140992 -0.03538,-0.211487 -0.02357,-0.140991 -0.05776,-0.280615 -0.07074,-0.422971 -0.01066,-0.117007 0,-0.234984 0,-0.352475"
       id="path11798" />
    <path
       style="fill:none;stroke:#000000;stroke-width:0.264583px;stroke-linecap:butt;stroke-linejoin:miter;stroke-opacity:1"
       d="m 54.271846,80.853557 c -0.0118,0.0705 -0.04716,0.140988 -0.03537,0.211484 0.0088,0.05268 0.234955,0.435819 0.247602,0.458221 0.154615,0.273905 0.182436,0.343186 0.353722,0.59921 0.198371,0.296516 0.416967,0.575019 0.601321,0.881195"
       id="path11800" />
    <path
       style="fill:none;stroke:#000000;stroke-width:0.264583px;stroke-linecap:butt;stroke-linejoin:miter;stroke-opacity:1"
       d="m 54.271846,80.853557 c 0.02357,-0.129241 -0.01008,-0.28416 0.07074,-0.387723 0.03905,-0.05003 0.116631,0.05049 0.176858,0.07049 0.08144,0.02705 0.164336,0.04975 0.247605,0.07049 0.31622,0.07878 0.632069,0.105233 0.95504,0.140991 0.341871,0.03785 0.683205,0.07471 1.025787,0.105744"
       id="path11802" />
    <path
       style="fill:none;stroke:#000000;stroke-width:0.264583px;stroke-linecap:butt;stroke-linejoin:miter;stroke-opacity:1"
       d="m 69.090481,72.306843 c 0.02783,0.238226 -0.03195,0.447982 -0.106117,0.669706 -0.07435,0.222287 -0.147674,0.429138 -0.318346,0.599209 -0.276053,0.275085 -0.774277,0.483222 -1.167273,0.422974 -0.146333,-0.02244 -0.269031,-0.09648 -0.389091,-0.176239 -0.157631,-0.10472 -0.291973,-0.2384 -0.353716,-0.422974 -0.104926,-0.31366 0.01585,-0.601337 0.212227,-0.845941 0.08224,-0.102442 0.195842,-0.165494 0.282978,-0.03525 0.105994,0.158438 -0.02143,0.318305 -0.141489,0.422974 -0.318916,0.278069 -0.75375,0.431657 -1.167273,0.493466 -0.451628,0.06751 -1.014997,0.100666 -1.344131,-0.281982 -0.08176,-0.09505 -0.151378,-0.19027 -0.176858,-0.317228 -0.01156,-0.0576 0,-0.11749 0,-0.176239 0,-0.163708 0.0097,-0.270962 0.07074,-0.42297 0.01958,-0.0488 0.0415,-0.09729 0.07074,-0.140992 3e-6,-7e-6 0.07074,-0.07048 0.07074,-0.07049 0,-0.05335 -0.04368,0.01503 -0.07074,0.03525 -0.03402,0.02543 -0.06896,0.04992 -0.106116,0.07049 -0.188934,0.104593 -0.2827,0.136747 -0.495205,0.211487 -0.364445,0.128177 -0.742675,0.211487 -1.131903,0.211487 -0.248505,0 -0.501701,-0.05235 -0.74281,-0.105744 -0.235797,-0.05222 -0.296688,-0.05755 -0.495205,-0.176239 -0.123822,-0.07403 -0.284692,-0.201551 -0.318347,-0.352475 -0.01278,-0.05734 -0.0065,-0.117856 0,-0.176239 0.0016,-0.01413 0.05286,-0.220001 0.07074,-0.246734 0.09457,-0.141354 0.269854,-0.230624 0.424463,-0.281983 0.05958,-0.01979 0.177472,-0.05272 0.247605,-0.03525 0.01614,0.004 0.02357,0.02349 0.03537,0.03525 0.0118,0.01175 0.02791,0.02037 0.03537,0.03525 0.01834,0.03654 -0.03268,0.131511 -0.07074,0.140991 -0.03432,0.0085 -0.07074,0 -0.106116,0 -0.05896,0 -0.118851,0.0105 -0.176861,0 -0.186825,-0.03385 -0.34403,-0.137932 -0.495205,-0.246732 -0.184137,-0.132519 -0.549661,-0.441989 -0.70744,-0.599212 -0.268822,-0.267877 -0.362477,-0.415944 -0.601321,-0.704951 -0.105355,-0.127484 -0.512223,-0.566621 -0.459833,-0.775451 0.0064,-0.02551 0.02358,-0.047 0.03537,-0.0705 0.07178,-0.143052 0.13817,-0.135011 0.282977,-0.176239 0.03585,-0.01021 0.06995,-0.02625 0.106114,-0.03525 0.01143,-0.0029 0.03537,0.0118 0.03537,0 0,-0.0118 -0.02358,0 -0.03537,0 -0.05896,0 -0.117907,0 -0.176858,0 -0.204052,0 -0.439606,0.0074 -0.636694,-0.03525 -0.145711,-0.03157 -0.284808,-0.08881 -0.424466,-0.140992 -0.555093,-0.20743 -0.94095,-0.449963 -1.308761,-0.91644 -0.171056,-0.216945 -0.34581,-0.459875 -0.389091,-0.740198 -0.115734,-0.749641 0.938199,-1.400961 1.48562,-1.691891 0.02819,-0.01498 0.390186,-0.177329 0.424465,-0.211484 0.0084,-0.0083 -0.02482,-0.0053 -0.03537,0 -0.03801,0.01894 -0.06967,0.0487 -0.106116,0.07049 -0.08152,0.04874 -0.16451,0.09499 -0.247603,0.140991 -0.38505,0.213167 -0.416118,0.243961 -0.848926,0.387723 -0.680717,0.226107 -1.090202,0.238593 -1.768596,0 -0.08466,-0.02978 -0.170014,-0.06064 -0.247603,-0.105741 -0.152305,-0.08854 -0.359717,-0.290475 -0.42446,-0.458219 -0.140195,-0.363225 -0.08441,-0.699351 0.03537,-1.057431 0.121526,-0.363294 0.305388,-0.672065 0.565949,-0.951687 0.287258,-0.308266 0.180594,-0.187839 0.49521,-0.422971 0.06039,-0.04514 0.114059,-0.09927 0.176858,-0.140991 0.100807,-0.06697 0.304777,-0.119267 0.247603,-0.176237 -0.0084,-0.0083 -0.02358,0 -0.03537,0 -0.04716,0 -0.09433,0 -0.141488,0 -0.08254,0 -0.165227,0.0051 -0.247603,0 -0.272822,-0.01699 -0.409519,-0.04133 -0.672068,-0.140991 -0.475205,-0.180395 -0.766741,-0.431787 -1.131901,-0.775449 -0.326503,-0.307279 -0.649033,-0.662328 -0.707437,-1.127926 -0.03441,-0.27427 0.04055,-0.515824 0.247602,-0.704953 0.149709,-0.13675 0.417288,-0.306221 0.601324,-0.387726 0.102238,-0.04528 0.21223,-0.0705 0.318347,-0.105744 0.07074,-0.02349 0.138879,-0.0572 0.21223,-0.07049 0.09282,-0.01683 0.18865,0 0.282977,0 0.0118,0 0.03537,0.0118 0.03537,0 0,-0.01233 -0.03917,0.0095 -0.106114,0 -0.05951,-0.0085 -0.121341,-0.0122 -0.176858,-0.03525 -0.141134,-0.0586 -0.430409,-0.25853 -0.53058,-0.352478 -0.669975,-0.628354 -1.273389,-1.740006 -1.273389,-2.678822 0,-0.09473 0.01786,-0.188886 0.03537,-0.281982 0.01791,-0.09524 0.03246,-0.192958 0.07074,-0.281982 0.03351,-0.07792 0.08659,-0.146834 0.141486,-0.211484 0.268764,-0.316514 0.573164,-0.459013 0.955043,-0.59921 0.05723,-0.02101 0.473702,-0.16092 0.565949,-0.176239 0.03353,-0.0056 0.424466,0.0034 0.424466,0 0,-0.0118 -0.02358,0 -0.03538,0 -0.03537,0 -0.07092,0.0035 -0.106114,0 -0.08295,-0.0083 -0.168487,-0.009 -0.247602,-0.03525 -0.178475,-0.05928 -0.433107,-0.227883 -0.565952,-0.352475 -0.499679,-0.468633 -0.852998,-1.102363 -1.025787,-1.762387 -0.06054,-0.231265 -0.1036,-0.535342 -0.07074,-0.775446 0.05368,-0.39228 0.260874,-0.772864 0.530577,-1.057431 0.108948,-0.114951 0.232868,-0.214866 0.353719,-0.317228 0.272455,-0.230775 0.396198,-0.329271 0.70744,-0.493469 0.17462,-0.09212 0.40268,-0.183208 0.601322,-0.211484 0.03502,-0.005 0.07074,0 0.106116,0 0.0118,0 0.03537,0.0118 0.03537,0 0,-0.0118 -0.02358,0 -0.03537,0 -0.09898,0 -0.06264,0.0074 -0.176861,-0.03525 -0.143399,-0.05359 -0.303821,-0.117025 -0.424463,-0.211484 -0.164774,-0.12901 -0.462542,-0.495046 -0.565949,-0.634457 -0.24847,-0.334987 -0.325175,-0.460161 -0.459835,-0.845945 -0.04416,-0.12651 -0.0871,-0.255087 -0.106117,-0.387725 -0.01667,-0.116303 -0.01939,-0.236593 0,-0.352476 0.04623,-0.276412 0.311738,-0.614764 0.53058,-0.775448 0.131913,-0.09686 0.27578,-0.178351 0.424463,-0.246735 0.344062,-0.158239 0.622657,-0.211508 0.990412,-0.28198 0.140862,-0.02699 0.281678,-0.05695 0.424463,-0.0705 0.17607,-0.01672 0.353719,0 0.53058,0 0.03542,0 0.229198,-0.0085 0.141488,0.03525 -0.02111,0.0105 -0.0474,-0.0033 -0.07074,0 -0.254672,0.03625 -0.163102,0.07008 -0.49521,0.03525 -0.667081,-0.06997 -1.115004,-0.494598 -1.485619,-1.022183 -0.277546,-0.395099 -0.437301,-0.83158 -0.247603,-1.304163 0.196628,-0.489839 0.814057,-0.831466 1.273387,-1.022183 0.120245,-0.04993 0.629131,-0.205476 0.778182,-0.246732 0.140843,-0.03899 0.343275,-0.0906 0.49521,-0.105746 0.08213,-0.0082 0.165068,0 0.247602,0 0.02358,0 0.07074,0.02357 0.07074,0 0,-0.01913 -0.139633,-0.138404 -0.141488,-0.140989 -0.03995,-0.05573 -0.07352,-0.115911 -0.106114,-0.176238 -0.224658,-0.415756 -0.482872,-0.899266 -0.530579,-1.374659 -0.01172,-0.116906 -0.0065,-0.235167 0,-0.352475 0.0053,-0.09459 0.01087,-0.190474 0.03537,-0.281983 0.03418,-0.127714 0.156239,-0.358896 0.247608,-0.458221 0.316124,-0.343651 0.920215,-0.586282 1.3795,-0.634458 0.105537,-0.01106 0.212233,0 0.318347,0 0.164888,0 0.341987,-0.0058 0.49521,0.0705 0.05266,0.02625 0.05266,0.114755 0,0.140991 -0.06725,0.0335 -0.18156,-0.05989 -0.212233,-0.105743 -0.215455,-0.322048 -0.181697,-0.752449 -0.03537,-1.092676 0.267512,-0.622001 0.786982,-1.054585 1.344133,-1.409909 0.316051,-0.20156 0.52273,-0.316217 0.884296,-0.422971 0.389882,-0.115115 0.532374,-0.108829 0.919671,-0.140991"
       id="path11804" />
    <path
       style="fill:none;stroke:#000000;stroke-width:0.264583px;stroke-linecap:butt;stroke-linejoin:miter;stroke-opacity:1"
       d="m 78.209898,53.455175 c -0.100047,-0.116311 -0.214831,-0.221419 -0.30014,-0.348932 -0.03741,-0.05592 0.03512,-0.404075 0.05002,-0.448633 0.08511,-0.254439 0.10918,-0.264404 0.250118,-0.498475 0.05003,-0.08308 0.08936,-0.173617 0.150069,-0.24924 0.237773,-0.296175 0.552805,-0.464947 0.900422,-0.598176 0.239263,-0.0917 0.305435,-0.126796 0.550257,-0.09969 0.452371,0.05008 0.50487,0.532159 0.400188,0.897258 -0.07225,0.251991 -0.198292,0.439928 -0.350163,0.64802 -0.154088,0.211129 -0.323916,0.412996 -0.550257,0.548322 -0.108249,0.06472 -0.08216,0.04985 -0.200094,0.04985 -0.01667,0 -0.0667,0 -0.05003,0 0.281337,0 0.570249,-0.01468 0.8504,0 0.167341,0.0088 0.333579,0.03237 0.500237,0.04985 0.150162,0.01574 0.30213,0.02035 0.450204,0.04985 0.140338,0.02797 0.60007,0.174194 0.700337,0.299085 0.125772,0.156663 0.03726,0.556519 -0.05003,0.697868 -0.08061,0.130535 -0.191468,0.240638 -0.300146,0.348932 -0.751588,0.748956 -2.037014,1.395312 -3.051423,1.694823 -0.213323,0.06298 -0.432523,0.104336 -0.650307,0.149548 -0.182512,0.03789 -0.367445,0.06326 -0.550256,0.09969 -0.59068,0.117719 -0.264467,0.09969 -0.700326,0.09969"
       id="path11919" />
  </g>
</svg>
