<?xml version="1.0" encoding="UTF-8" standalone="no"?>
<!-- Created with Inkscape (http://www.inkscape.org/) -->

<svg
   width="148mm"
   height="105mm"
   viewBox="0 0 148 105"
   version="1.1"
   id="svg5652"
   inkscape:version="1.1.2 (0a00cf5339, 2022-02-04)"
   sodipodi:docname="phi-12-10-2.svg"
   xmlns:inkscape="http://www.inkscape.org/namespaces/inkscape"
   xmlns:sodipodi="http://sodipodi.sourceforge.net/DTD/sodipodi-0.dtd"
   xmlns:xlink="http://www.w3.org/1999/xlink"
   xmlns="http://www.w3.org/2000/svg"
   xmlns:svg="http://www.w3.org/2000/svg">
  <sodipodi:namedview
     id="namedview5654"
     pagecolor="#ffe8ff"
     bordercolor="#cccccc"
     borderopacity="1"
     inkscape:pageshadow="0"
     inkscape:pageopacity="1"
     inkscape:pagecheckerboard="false"
     inkscape:document-units="mm"
     showgrid="false"
     inkscape:zoom="3.8350027"
     inkscape:cx="307.30095"
     inkscape:cy="198.43532"
     inkscape:window-width="2160"
     inkscape:window-height="1375"
     inkscape:window-x="0"
     inkscape:window-y="0"
     inkscape:window-maximized="1"
     inkscape:current-layer="layer1" />
  <defs
     id="defs5649">
    <color-profile
       name="Apple-RGB"
       xlink:href="file:///usr/share/color/icc/colord/AppleRGB.icc"
       id="color-profile10333" />
    <color-profile
       name="Blue"
       xlink:href="file:///usr/share/color/icc/colord/Bluish.icc"
       id="color-profile10335" />
  </defs>
  <g
     inkscape:label="Layer 1"
     inkscape:groupmode="layer"
     id="layer1">
    <path
       style="fill:none;stroke:#000000;stroke-width:0.264583px;stroke-linecap:butt;stroke-linejoin:miter;stroke-opacity:1"
       d="m 58.210447,25.929658 c 0.236069,0.627367 -0.368065,-0.338188 -0.495205,-0.211488 -0.01664,0.01659 0,0.047 0,0.0705 0,0.09399 0,0.187986 0,0.281979 0,0.211487 -0.0092,0.423176 0,0.634461 0.01437,0.329507 0.05072,0.65772 0.07074,0.986933 0.04021,0.661212 0.11731,2.275959 0.141488,2.890311 0.17008,4.321784 0.265824,8.645803 0.212233,12.971137 -0.01135,0.916673 -0.04746,1.832872 -0.07075,2.74932 -0.06329,2.491073 -0.127508,4.98204 -0.212228,7.472502 -0.02159,0.634529 -0.05825,1.268603 -0.07075,1.903376 -0.0336,1.70752 0,3.435524 0,5.146161"
       id="path6068" />
    <path
       style="fill:none;stroke:#000000;stroke-width:0.264583px;stroke-linecap:butt;stroke-linejoin:miter;stroke-opacity:1"
       d="m 58.210447,25.929658 c 0.02357,-0.234985 0.104253,-0.471179 0.07074,-0.704954 -0.01204,-0.08396 -0.133014,0.127093 -0.141483,0.211485 -0.01659,0.16534 0.13385,0.339747 0.07074,0.493469 -0.161058,0.39231 -0.493197,0.691441 -0.707441,1.057426 -0.307684,0.525606 -0.273185,0.715817 -0.495204,1.268915 -2.2e-5,5.6e-5 -0.314399,0.626595 -0.353719,0.704959 -0.03884,0.07741 -0.162216,0.433297 -0.282975,0.493466 -0.02111,0.0105 -0.04716,0 -0.07074,0 -0.02358,0 -0.05404,0.01664 -0.07075,0 -0.01664,-0.01659 0,-0.047 0,-0.0705 0,-0.04699 -0.0078,-0.09464 0,-0.140986 0.09086,-0.543195 0.291237,-1.04277 0.495204,-1.5509 0.815885,-2.032567 -0.217897,0.603464 0.495213,-1.409906 0.224176,-0.632931 0.652407,-1.355066 1.131898,-1.832879 0.127566,-0.127118 0.302781,-0.375036 0.495205,-0.422972 0.04576,-0.0114 0.09433,0 0.141489,0 0.287072,0 0.290128,0.08474 0.424465,0.352475 0.260231,0.51864 0.210246,0.382119 0.424463,0.986937 0.358736,1.012839 0.0521,0.262126 0.424458,1.127923"
       id="path6070" />
    <path
       style="fill:none;stroke:#000000;stroke-width:0.264583px;stroke-linecap:butt;stroke-linejoin:miter;stroke-opacity:1"
       d="m 57.785976,60.82485 c 0.400883,0.140989 0.792898,0.31033 1.202653,0.422968 0.375179,0.103132 1.790895,0.2539 2.051568,0.281983 1.66642,0.179519 1.271992,0.13799 3.041986,0.211484 0.589492,0.02447 1.178594,0.0705 1.768594,0.0705 1.306132,0 2.805954,-0.129413 4.103137,-0.211484 0.778045,-0.04923 1.556454,-0.09253 2.334546,-0.140994 0.731112,-0.04553 1.460899,-0.117827 2.193062,-0.140988 0.754224,-0.02387 1.5092,0 2.263799,0 0.660278,0 1.320673,-0.01241 1.980835,0 0.0021,4e-5 3.535124,0.140943 3.537185,0.140988 0.447929,0.01013 0.896089,0 1.344134,0 0.400881,0 0.801942,0.01209 1.20264,0 1.258403,-0.038 0.939644,-0.06417 2.122315,-0.211484 0.235165,-0.02929 0.473657,-0.03167 0.707435,-0.0705 0.60611,-0.100661 0.461598,-0.138263 0.990423,-0.28198 0.116014,-0.03153 0.237056,-0.04143 0.353711,-0.07049 0.07233,-0.01802 0.138694,-0.05828 0.21223,-0.0705 0.150021,-0.02492 0.340961,0 0.495218,0 0.141486,0 0.282972,0 0.424458,0 0.02357,0 0.07075,0.02357 0.07075,0 0,-0.02357 -0.04716,0 -0.07075,0 -0.04716,0 -0.09433,0 -0.141494,0 -0.216027,0 -0.09673,0.01487 -0.353711,-0.0705 -0.35601,-0.118256 -0.712473,-0.21349 -1.061159,-0.352473 -0.117906,-0.047 -0.232111,-0.104637 -0.353721,-0.140994 -0.303216,-0.09065 -0.62274,-0.09313 -0.919666,-0.211484 -0.02949,-0.01175 -0.424471,-0.227026 -0.424471,-0.140994 0,0.02357 0.04787,-0.0057 0.07075,0 0.07234,0.01802 0.142402,0.0444 0.21223,0.0705 1.273657,0.475954 -1.108366,-0.368155 1.06116,0.35248 0.261831,0.08697 0.515183,0.198594 0.778179,0.281983 0.256233,0.08124 0.520642,0.134493 0.778182,0.211484 0.214267,0.06405 0.42318,0.144994 0.636701,0.211484 0.163867,0.05103 0.332327,0.08689 0.495205,0.140994 0.443251,0.14723 0.240884,0.08762 0.565951,0.281977 0.04523,0.02704 0.09759,0.04134 0.141484,0.0705 0.03273,0.02175 0.109331,0.08333 0.07075,0.140994 -0.12904,0.192873 -0.860915,0.506614 -0.990413,0.563965 -0.232111,0.102796 -0.467748,0.198376 -0.707445,0.281974 -0.534474,0.18641 -1.089517,0.314902 -1.627098,0.493475"
       id="path6072" />
    <path
       style="fill:none;stroke:#000000;stroke-width:0.264583px;stroke-linecap:butt;stroke-linejoin:miter;stroke-opacity:1"
       d="m 57.785976,60.82485 c 0.09433,-0.094 0.233375,-0.158406 0.282982,-0.281982 0.03621,-0.09021 -0.185767,-0.0705 -0.282974,-0.0705 -0.289309,0 -0.468064,0.007 -0.707435,0.211484 -0.244478,0.208814 -0.509286,0.549783 -0.707441,0.775448 -0.140613,0.160137 -1.086712,1.21811 -1.202647,1.339414 -0.253013,0.264729 -0.524346,0.511503 -0.778182,0.775446 -2.130798,2.215642 0.59065,-0.527966 -1.91008,2.044364 -0.371285,0.381915 -0.765493,0.741328 -1.131898,1.127927 -3.033141,3.200288 0.473136,-0.345967 -2.546782,2.749322 -0.395216,0.405077 -0.807426,0.79334 -1.202639,1.198417 -0.475578,0.487447 -1.817841,1.918123 -2.334546,2.46734 -0.09661,0.102687 -1.920253,2.03939 -2.051574,2.18535 -0.784061,0.871458 -1.519171,1.790007 -2.193057,2.749314 -0.337397,0.480298 -0.609028,0.985137 -0.91967,1.480413 -0.04507,0.07185 -0.09049,0.143714 -0.141489,0.211479 -0.04062,0.05397 -0.177819,0.140993 -0.07074,0.140993 0.03329,0 0.04716,-0.047 0.07074,-0.0705 0.08924,-0.08893 0.209026,-0.183724 0.282977,-0.281974 0.03162,-0.04201 0.03913,-0.09898 0.07075,-0.140994 0.08571,-0.113879 0.366107,-0.306671 0.424458,-0.422971 0.01082,-0.02159 0.01029,-0.462679 0,-0.493466 -0.01667,-0.04987 -0.06039,-0.08944 -0.07074,-0.140994 -0.01386,-0.06912 0.01,-0.141708 0,-0.211489 -0.06591,-0.459706 -0.09373,-0.110922 -0.141488,-0.634455 -0.01281,-0.140407 0.01085,-0.282398 0,-0.422971 -0.01278,-0.165677 -0.05886,-0.327721 -0.07074,-0.493467 -0.03325,-0.463814 0,-0.94457 0,-1.409909 0,-0.117491 0.01463,-0.2359 0,-0.352478 -0.08566,-0.682812 -0.07075,0.132657 -0.07075,-0.352472 0,-0.047 0.047,-0.140994 0,-0.140994 -0.02349,0 0,0.047 0,0.0705 0,0.047 0,0.09399 0,0.140988 0,0.117494 0,0.234987 0,0.352481 0,0.39947 0,0.798943 0,1.198417 0,0.234984 0.01177,0.470267 0,0.704955 -0.08509,1.695945 -0.04501,-0.173153 -0.141486,1.26891 -0.01098,0.164127 0.01371,0.329557 0,0.49348 -0.01,0.119417 -0.05746,0.233376 -0.07074,0.352473 -0.01042,0.09341 0,0.187983 0,0.281974 0,0.047 0,0.094 0,0.140994 0,0.02349 -0.01664,0.05391 0,0.0705 0.0528,0.05262 0.145508,-0.03725 0.212228,-0.0705 0.940287,-0.468501 -0.659836,0.321865 0.778182,-0.352473 1.021196,-0.478874 1.914972,-1.151755 2.900497,-1.691888 0.92456,-0.460661 0.476938,-0.224878 1.344131,-0.704954"
       id="path6078" />
    <path
       style="fill:none;stroke:#000000;stroke-width:0.264583px;stroke-linecap:butt;stroke-linejoin:miter;stroke-opacity:1"
       d="m 92.23822,66.534968 c 0.933408,0.582126 1.644378,1.415278 2.334546,2.255848 0.248415,0.302552 0.386554,0.491782 0.707435,0.704959"
       id="path6080" />
    <path
       style="fill:none;stroke:#000000;stroke-width:0.264583px;stroke-linecap:butt;stroke-linejoin:miter;stroke-opacity:1"
       d="m 94.997224,66.252986 c -0.141486,0.0705 -0.299516,0.114649 -0.424458,0.211487 -0.09298,0.07206 -0.141483,0.187986 -0.212228,0.28198 -0.135718,0.180318 -0.352647,0.47463 -0.495218,0.63446 -0.08864,0.09937 -0.194325,0.182613 -0.282963,0.281982 -0.100296,0.112437 -0.17625,0.246121 -0.282978,0.352473 -0.106812,0.106436 -0.241466,0.181305 -0.353724,0.281982 -0.328895,0.294965 -0.368599,0.371009 -0.636698,0.704959"
       id="path6082" />
    <path
       style="fill:none;stroke:#000000;stroke-width:0.264583px;stroke-linecap:butt;stroke-linejoin:miter;stroke-opacity:1"
       d="m 48.023338,78.660161 c 0.522078,-0.43353 0.25365,-0.284395 0.778181,-0.493466 0.411996,-0.164217 0.678278,-0.352473 1.131906,-0.352473 0.04716,0 0.09673,-0.01487 0.141486,0 0.03159,0.0105 0.04716,0.047 0.07074,0.0705 0.02357,0.02349 0.06264,0.03821 0.07074,0.0705 0.01714,0.06837 0,0.140986 0,0.211479 0,0.09399 0.01042,0.188568 0,0.281987 -0.06785,0.608497 -0.3848,1.14803 -0.636694,1.691889 -0.194789,0.42056 -0.377356,0.846071 -0.565946,1.26891 -0.02223,0.04981 -0.35238,0.635794 -0.282977,0.704958 0.01669,0.01664 0.04716,0 0.07074,0 0.04716,0 0.09432,0 0.141489,0 0.09432,0 0.189116,0.0093 0.282975,0 0.849992,-0.0847 1.649486,-0.444386 2.476034,-0.63446 0.139779,-0.03214 0.282977,-0.047 0.424466,-0.0705"
       id="path6084" />
    <path
       style="fill:none;stroke:#000000;stroke-width:0.264583px;stroke-linecap:butt;stroke-linejoin:miter;stroke-opacity:1"
       d="m 48.235573,81.902947 c -0.02357,-0.140988 -0.116094,-0.287403 -0.07075,-0.422968 0.03736,-0.111678 0.183526,-0.148429 0.282975,-0.211492 0.609761,-0.386665 1.155173,-0.500425 1.839341,-0.704945"
       id="path6086" />
    <path
       style="fill:none;stroke:#000000;stroke-width:0.264583px;stroke-linecap:butt;stroke-linejoin:miter;stroke-opacity:1"
       d="m 62.313586,23.60331 c -0.117906,0.187988 -0.277648,0.355506 -0.353718,0.563964 -0.02548,0.06983 0.04717,0.140989 0.07075,0.211484 0.0735,0.219724 0.163687,0.499002 0.424457,0.563964 0.206457,0.05143 0.363355,-0.08009 0.495213,-0.211485 0.146098,-0.145583 0.343016,-0.374601 0.424458,-0.563963 0.03983,-0.09261 0.125973,-0.564882 0.141488,-0.634458 0.02109,-0.09458 0.05699,-0.186055 0.07075,-0.281982 0.01667,-0.116302 0,-0.234984 0,-0.352475 0,-0.047 0,-0.09399 0,-0.140991 0,-0.0235 0.02349,-0.0705 0,-0.0705 -0.0235,0 -0.0046,0.04746 0,0.0705 0.01908,0.09501 0.04965,0.187398 0.07074,0.281981 0.100809,0.45205 0.05465,0.382531 0.212235,0.91644 0.06313,0.213882 0.14486,0.421872 0.212228,0.634457 0.14827,0.467874 0.282977,0.939937 0.424466,1.409906 0.07074,0.234985 0.152514,0.466928 0.212227,0.704955 0.05832,0.232466 0.08932,0.471027 0.141489,0.704951 0.120256,0.539244 0.325453,1.071438 0.141489,1.62139 -0.01667,0.04987 -0.0335,0.103878 -0.07075,0.140994 -0.03732,0.0372 -0.09432,0.047 -0.141489,0.0705 -0.04716,0.0235 -0.09036,0.05775 -0.141481,0.07049 -0.04577,0.0114 -0.09433,0 -0.141488,0 -0.349462,0 -0.588113,-0.24687 -0.70744,-0.563957 -0.03413,-0.0907 -0.07074,-0.185076 -0.07074,-0.281983 0,-0.119835 0.04158,-0.236246 0.07074,-0.35248 0.150688,-0.600647 0.104079,-0.428233 0.424463,-0.986936"
       id="path6088" />
    <path
       style="fill:none;stroke:#000000;stroke-width:0.264583px;stroke-linecap:butt;stroke-linejoin:miter;stroke-opacity:1"
       d="m 98.74665,62.093763 c -0.117906,-0.140992 -0.246642,-0.273593 -0.353721,-0.422977 -0.04655,-0.06494 0.04931,-0.108942 0.07075,-0.140985 0.02924,-0.0437 0.03913,-0.09898 0.07075,-0.140994 0.148887,-0.197821 0.348539,-0.265819 0.565942,-0.352473 0.04895,-0.01953 0.09036,-0.05776 0.141493,-0.0705 0.04576,-0.0114 0.09432,0 0.141481,0 0.0862,0 0.16311,-0.02741 0.21223,0.0705 0.01053,0.02101 0,0.047 0,0.0705 0,0.04699 0.02109,0.09898 0,0.140988 -0.115268,0.229762 -0.628642,0.336857 -0.848918,0.281983 -0.114226,-0.02846 -0.140219,-0.06924 -0.212228,-0.140994 -1.3e-5,-1.6e-5 -0.141485,-0.140973 -0.141493,-0.140989 -0.01053,-0.02101 0,-0.047 0,-0.0705 0,-0.178594 0.148717,-0.140986 0.282974,-0.140986 0.04716,0 0.09523,-0.0092 0.141483,0 0.155398,0.03097 0.361019,0.12233 0.495218,0.211484 0.05376,0.03571 0.141481,0.184103 0.141481,0.0705 0,-0.04716 -0.09432,0 -0.141481,0 -0.03537,0 -0.545861,0.05047 -0.424471,-0.0705 0.0167,-0.01664 0.04717,0 0.07075,0 0.141486,0 0.282972,0 0.424458,0 0.754602,0 1.509212,0 2.263812,0 0.23581,0 0.47189,-0.01117 0.70744,0 0.26016,0.01236 0.51794,0.05969 0.77817,0.0705 0.3063,0.01273 0.61312,0 0.91967,0 0.68385,0 1.36818,0.02521 2.05157,0 0.30725,-0.01135 0.61299,-0.04867 0.91967,-0.0705 0.96721,-0.06884 1.93413,-0.131236 2.9005,-0.211484 0.28298,-0.02349 0.56524,-0.05821 0.84892,-0.0705 0.25915,-0.01122 0.51904,0.01122 0.77819,0 0.28368,-0.01228 0.56526,-0.05765 0.84892,-0.0705 0.23557,-0.01066 0.47163,0 0.70745,0 0.23581,-0.02349 0.47086,-0.05663 0.70743,-0.07049 0.16479,-0.0097 0.33062,0.01262 0.49521,0 0.143,-0.01095 0.28162,-0.05755 0.42446,-0.0705 0.37025,-0.03354 0.75898,0 1.1319,0 0.0943,0 0.18865,0 0.28298,0 0.0236,0 0.0707,0.02357 0.0707,0 0,-0.04716 -0.0993,0.02103 -0.14149,0 -9e-5,-4.5e-5 -0.1414,-0.140938 -0.14148,-0.140994 -0.0439,-0.02916 -0.0943,-0.04699 -0.1415,-0.07049 -0.23465,-0.116914 -0.44727,-0.159639 -0.70743,-0.211487 -0.16922,-0.03372 -0.62302,-0.128109 -0.77818,-0.140994 -0.141,-0.01172 -0.28298,0 -0.42446,0 -0.30656,0 -0.61312,0 -0.91968,0 -0.0943,0 -0.18865,0 -0.28298,0 -0.0472,0 -0.14148,-0.04716 -0.14148,0 0,0.02358 0.0476,-0.0046 0.0707,0 0.0953,0.019 0.18984,0.04266 0.28298,0.0705 0.14284,0.0427 0.28107,0.100164 0.42447,0.140989 3e-5,8e-6 1.13184,0.281972 1.13189,0.28198 0.18687,0.03492 0.3775,0.04546 0.56595,0.0705 0.16528,0.02196 0.32889,0.05866 0.49521,0.0705 0.30578,0.02178 0.61311,0 0.91967,0 0.21223,0 0.42446,0 0.63669,0 0.0472,0 0.0943,0 0.14149,0 0.0236,0 0.0707,0.02358 0.0707,0 0,-0.04716 -0.0943,0 -0.14148,0 -0.37442,0 -0.76381,0.07626 -1.13191,0.140989 -0.44709,0.07862 -0.90074,0.183801 -1.34412,0.281982 -0.21223,0.047 -0.42261,0.103341 -0.6367,0.140989 -0.56695,0.09969 -1.17246,0.09069 -1.69785,0.352478"
       id="path6090" />
    <path
       style="fill:none;stroke:#000000;stroke-width:0.264583px;stroke-linecap:butt;stroke-linejoin:miter;stroke-opacity:1"
       d="m 113.39061,68.579332 c -0.39478,-0.550764 -0.35371,-0.291086 -0.35371,-0.704953 0,-0.258482 0,-0.516964 0,-0.775446 0,-0.0705 -0.0116,-0.141957 0,-0.211487 0.0177,-0.105531 0.15012,-0.449339 0.28298,-0.493471 0.0448,-0.01487 0.0943,0 0.14148,0 0.11197,0 0.19112,-0.02103 0.28297,0.0705 0.29891,0.297865 0.50266,0.770824 0.70744,1.127927 0.18865,0.328977 0.38567,0.653295 0.56595,0.986932 0.22572,0.417714 0.17261,0.398989 0.42447,0.775449 0.14568,0.217744 0.60055,0.813033 0.77818,0.28198 0.0703,-0.210246 0.10666,-0.49675 0.14148,-0.704951 0.0311,-0.185663 0.12848,-0.747844 0.14149,-0.916442 0.0199,-0.257715 0,-0.516964 0,-0.775449 0,-0.130186 -0.0321,-0.890918 0,-0.986933 0.0106,-0.03157 0.041,-0.05565 0.0707,-0.0705 0.23682,-0.117989 0.22814,-0.06653 0.49521,0"
       id="path6092" />
    <path
       style="fill:none;stroke:#000000;stroke-width:0.264583px;stroke-linecap:butt;stroke-linejoin:miter;stroke-opacity:1"
       d="m 113.16674,64.965497 c 0.05,-0.02492 0.0965,-0.05876 0.15007,-0.07477 0.0319,-0.0096 0.0667,0 0.10005,0 0.10839,0 0.21698,0.0067 0.32515,0 0.21343,-0.01328 0.25937,-0.0338 0.47523,-0.07477 0.0916,-0.01738 0.18372,-0.03163 0.27513,-0.04984 0.21339,-0.04253 0.41762,-0.110799 0.62529,-0.174471 0.0504,-0.01545 0.0989,-0.0371 0.15007,-0.04984 0.0984,-0.02453 0.20035,-0.03177 0.30014,-0.04985 0.0418,-0.0076 0.0828,-0.02072 0.12506,-0.02492 0.11489,-0.01146 0.2359,0.01627 0.35016,0 0.0261,-0.0037 0.0492,-0.01976 0.075,-0.02492 0.0397,-0.0079 0.0538,0.01736 0.075,-0.02492 0.0118,-0.0236 0.003,-0.09034 -0.025,-0.09969 -0.0158,-0.0053 -0.0337,0.0033 -0.05,0 -0.11861,-0.02363 -0.0352,-0.03436 -0.17508,-0.04985 -0.0414,-0.0046 -0.0836,0.0041 -0.12506,0 -0.10163,-0.01013 -0.25006,-0.04627 -0.35017,-0.07477 -0.0407,-0.01159 -0.17865,-0.05697 -0.20009,-0.0997 -0.004,-0.0074 0,-0.01662 0,-0.02492 0,-0.0083 -0.006,-0.01905 0,-0.02492 0.006,-0.0059 0.0167,0 0.025,0 0.0333,0 0.0667,0 0.10005,0 0.11672,0 0.2337,-0.0077 0.35016,0 0.0588,0.0039 0.11672,0.01662 0.17508,0.02492 0.0584,0.0083 0.11634,0.02005 0.17509,0.02492 0.0685,0.0057 0.25701,-0.01117 0.30014,0.07477 0.0236,0.04702 -0.0556,0.147376 -0.075,0.174466 -0.087,0.121389 -0.19459,0.218829 -0.30014,0.324012 -0.0891,0.08882 -0.17013,0.17948 -0.27513,0.24924"
       id="path6209" />
    <path
       style="fill:none;stroke:#000000;stroke-width:0.264583px;stroke-linecap:butt;stroke-linejoin:miter;stroke-opacity:1"
       d="m 81.803025,34.808514 c -0.03335,-0.0997 -2.65e-4,-0.332433 -0.100042,-0.299085 -0.0997,0.03335 0.07107,0.198033 0.100042,0.299085 0.03777,0.131741 0.05658,0.268814 0.100052,0.398783 0.844735,2.525292 -0.297781,-1.188477 0.600273,1.794518 0.515615,1.712669 0.116848,0.274669 0.500243,1.993908 0.05966,0.267522 0.139512,0.530248 0.200086,0.797565 0.09363,0.413205 0.180228,0.828315 0.250118,1.24619 0.181663,1.08616 -0.05293,-0.11416 0.100052,0.648023"
       id="path6324" />
    <path
       style="fill:none;stroke:#000000;stroke-width:0.264583px;stroke-linecap:butt;stroke-linejoin:miter;stroke-opacity:1"
       d="m 81.803025,34.808514 c -0.05002,0.06646 -0.216533,0.149371 -0.150069,0.199393 0.06647,0.05002 0.07449,-0.164635 0.150069,-0.199393 0.154469,-0.07104 0.337071,-0.05187 0.500231,-0.0997 0.121796,-0.03569 0.233821,-0.09882 0.350163,-0.149542 0.150456,-0.06559 0.300144,-0.132927 0.450215,-0.19939 1.151655,-0.510046 -0.289883,0.121631 0.950447,-0.398783 0.368869,-0.154768 0.720752,-0.322485 1.100516,-0.44863"
       id="path6326" />
    <path
       style="fill:none;stroke:#000000;stroke-width:0.264583px;stroke-linecap:butt;stroke-linejoin:miter;stroke-opacity:1"
       d="m 82.753471,37.74953 c 0.05002,-0.09969 0.07733,-0.214522 0.150069,-0.299085 0.03437,-0.03996 0.101595,-0.02915 0.15007,-0.04985 0.06853,-0.02927 0.133394,-0.06646 0.200093,-0.09969 0.08337,-0.03323 0.16723,-0.06528 0.250122,-0.0997 0.434435,-0.18038 0.865613,-0.369838 1.300609,-0.548323 0.519078,-0.193971 0.269227,-0.09361 0.750351,-0.299087"
       id="path6328" />
    <path
       style="fill:none;stroke:#000000;stroke-width:0.264583px;stroke-linecap:butt;stroke-linejoin:miter;stroke-opacity:1"
       d="m 83.553847,41.687501 c -0.200094,-0.116311 -0.475711,-0.153874 -0.600282,-0.348933 -0.05738,-0.08986 0.15961,-0.143026 0.250114,-0.199392 0.582011,-0.362477 1.234564,-0.60247 1.850866,-0.897258 0.201673,-0.09646 0.396933,-0.206214 0.600284,-0.299088 0.39415,-0.180017 0.802965,-0.326212 1.200565,-0.498477 1.119349,-0.484966 0.0016,-0.03057 1.050491,-0.44863"
       id="path6330" />
    <path
       style="fill:none;stroke:#000000;stroke-width:0.264583px;stroke-linecap:butt;stroke-linejoin:miter;stroke-opacity:1"
       d="m 89.956845,38.447397 c -0.01087,0.498113 0.01667,0.997514 0,1.495433 -0.01389,0.415526 -0.06437,0.969079 -0.100049,1.395738"
       id="path6332" />
    <path
       style="fill:none;stroke:#000000;stroke-width:0.264583px;stroke-linecap:butt;stroke-linejoin:miter;stroke-opacity:1"
       d="m 92.458015,36.802422 c -0.03728,-0.148609 -0.05959,-0.300847 -0.100044,-0.448627 -0.110607,-0.404144 -0.273616,-0.796933 -0.400188,-1.196346 -0.30493,-0.962236 -0.561861,-1.977665 -0.40019,-2.990863 0.08362,-0.210176 0.145056,-0.467724 0.300139,-0.648021 0.376811,-0.438075 0.947354,-0.569151 1.500704,-0.598172 0.364462,-0.01911 0.473366,-0.02564 0.800378,0.0997 0.262922,0.100769 0.568186,0.284978 0.700326,0.548325 0.232844,0.464046 0.106384,1.098407 -0.200095,1.495432 -0.307988,0.39898 -0.974925,0.801234 -1.450678,0.947105 -0.08128,0.02492 -0.167118,0.03147 -0.25012,0.04985 -0.06711,0.01486 -0.132281,0.03858 -0.200086,0.04985 -0.09369,0.01556 -0.150077,-0.01996 -0.150077,0 0,0.01667 0.03358,0.0027 0.05003,0 0.08386,-0.01393 0.165759,-0.03934 0.25012,-0.04985 0.182758,-0.02276 0.367128,-0.0303 0.550257,-0.04985 0.283794,-0.0303 0.566086,-0.0747 0.850395,-0.09969 0.744508,-0.06546 0.916177,-0.04985 1.650773,-0.04985 0.567235,0 0.548377,-0.04326 1.05049,0.09969 0.0923,0.02628 0.292274,0.084 0.350171,0.199391 0.146973,0.292918 -0.135474,0.785976 -0.300146,0.996954 -0.130353,0.167009 -0.296353,0.302982 -0.450206,0.44863 -0.464953,0.440156 -0.693257,0.645217 -1.250592,0.996956 -0.598592,0.377776 -0.922039,0.505208 -1.550722,0.797562"
       id="path6334" />
    <path
       style="fill:none;stroke:#000000;stroke-width:0.264583px;stroke-linecap:butt;stroke-linejoin:miter;stroke-opacity:1"
       d="m 80.852578,33.512474 c 0.166748,-0.08308 0.328451,-0.17716 0.500242,-0.249238 1.99e-4,-8.4e-5 0.900224,-0.299011 0.90042,-0.299087 0.418073,-0.162013 0.812014,-0.376926 1.200557,-0.598173 0.116721,-0.06646 0.238284,-0.125066 0.350163,-0.19939 0.158152,-0.105063 0.295532,-0.238834 0.450215,-0.348935 0.06975,-0.04964 0.256902,-0.163073 0.300138,-0.249238 0.0149,-0.0297 0,-0.06646 0,-0.0997 0,-0.01661 0.0075,-0.035 0,-0.04985 -0.01056,-0.02103 -0.02769,-0.04243 -0.05002,-0.04985 -0.0634,-0.02106 -0.409728,0 -0.500232,0 -0.0667,0 -0.133397,0 -0.200096,0 -0.01667,0 -0.05002,-0.01667 -0.05002,0 0,0.01746 0.05537,-0.01349 0.150069,0 0.08416,0.01199 0.166463,0.03469 0.250113,0.04985 0.199091,0.03607 0.401191,0.06363 0.600282,0.0997 0.115226,0.02088 0.53368,0.06666 0.600284,0.199393 0.0149,0.0297 0,0.06646 0,0.0997 0,0.01662 0.0075,0.035 0,0.04985 -0.02111,0.04208 -0.0667,0.06646 -0.100052,0.09969"
       id="path6336" />
    <path
       style="fill:none;stroke:#000000;stroke-width:0.264583px;stroke-linecap:butt;stroke-linejoin:miter;stroke-opacity:1"
       d="m 88.906349,30.820698 c 0.116723,-0.0997 0.216776,-0.223131 0.350171,-0.299087 0.10546,-0.06005 0.234291,-0.06361 0.350162,-0.0997 0.472779,-0.147225 0.47107,-0.157856 0.950447,-0.348936 0.386104,-0.153897 0.579864,-0.223863 0.950439,-0.398782 1.406306,-0.663803 -0.355634,0.15227 0.950447,-0.498478 0.868995,-0.432972 0.06538,0.02847 0.800378,-0.39878 0.250751,-0.145761 0.491135,-0.319476 0.75035,-0.448627 1.62e-4,-8.2e-5 0.150069,-0.06163 0.150069,-0.0997 0,-0.01667 -0.03335,0 -0.05002,0 -0.03335,0 -0.0667,0 -0.100044,0 -0.100047,0 -0.200705,-0.01101 -0.300146,0 -0.02207,0.0024 -0.47816,0.09725 -0.500232,0.0997 -0.214799,0.02379 -0.479128,0 -0.700325,0 -0.01752,0 -0.29623,0.0039 -0.300138,0 -0.01177,-0.01172 -0.0075,-0.035 0,-0.04985 0.04175,-0.08321 0.193503,-0.08841 0.250113,-0.09969 0.330515,-0.06587 0.667575,-0.09851 1.000472,-0.149543 0.100245,-0.01537 0.199133,-0.0407 0.300138,-0.04985 0.149457,-0.01355 0.300143,0 0.450212,0 0.05773,0 0.321466,-0.03594 0.350165,0.04985 0.04058,0.121309 -0.140213,0.502693 -0.200096,0.59817 -0.151977,0.242319 -0.349157,0.447622 -0.550257,0.648023"
       id="path6338" />
  </g>
</svg>
