<?xml version="1.0" encoding="UTF-8" standalone="no"?>
<!-- Created with Inkscape (http://www.inkscape.org/) -->

<svg
   width="210mm"
   height="297mm"
   viewBox="0 0 210 297"
   version="1.1"
   id="svg5"
   inkscape:version="1.1.2 (0a00cf5339, 2022-02-04)"
   sodipodi:docname="phi-9876857564678.svg"
   xmlns:inkscape="http://www.inkscape.org/namespaces/inkscape"
   xmlns:sodipodi="http://sodipodi.sourceforge.net/DTD/sodipodi-0.dtd"
   xmlns="http://www.w3.org/2000/svg"
   xmlns:svg="http://www.w3.org/2000/svg">
  <sodipodi:namedview
     id="namedview7"
     pagecolor="#ffffff"
     bordercolor="#666666"
     borderopacity="1.0"
     inkscape:pageshadow="2"
     inkscape:pageopacity="0.0"
     inkscape:pagecheckerboard="0"
     inkscape:document-units="mm"
     showgrid="false"
     inkscape:zoom="2.7117565"
     inkscape:cx="374.8493"
     inkscape:cy="561.25984"
     inkscape:window-width="2160"
     inkscape:window-height="1375"
     inkscape:window-x="0"
     inkscape:window-y="0"
     inkscape:window-maximized="1"
     inkscape:current-layer="layer1" />
  <defs
     id="defs2" />
  <g
     inkscape:label="Layer 1"
     inkscape:groupmode="layer"
     id="layer1">
    <ellipse
       style="fill:#ccff00;fill-opacity:0;stroke:#000000;stroke-width:0.421;paint-order:fill markers stroke"
       id="path848"
       cx="99.427788"
       cy="143.01738"
       rx="29.389683"
       ry="29.765987" />
    <ellipse
       style="fill:#ccff00;fill-opacity:0;stroke:#000000;stroke-width:0.421;paint-order:fill markers stroke"
       id="path850"
       cx="99.697594"
       cy="143.04533"
       rx="34.08535"
       ry="33.8955" />
    <path
       style="fill:none;stroke:#000000;stroke-width:0.264583px;stroke-linecap:butt;stroke-linejoin:miter;stroke-opacity:1"
       d="m 75.971986,129.68026 c -0.57582,-0.6858 -1.330441,-0.57818 -2.12231,-0.77545 -0.49965,-0.12447 -0.974431,-0.33308 -1.485622,-0.42297 -0.66067,-0.11618 -1.382255,-0.17638 -2.051569,-0.21148 -0.702661,-0.0369 -1.363707,0.0869 -2.051568,0.21148 -0.919088,0.16652 -1.905463,0.37853 -2.759009,0.77545 -0.698653,0.32489 -1.376108,0.79544 -1.980829,1.26892 -0.755722,0.5917 -1.768592,1.48182 -1.768592,2.53783 0,1.20688 1.282729,1.95461 2.193057,2.46733 1.220634,0.6875 2.654898,1.2669 4.032396,1.5509 0.349477,0.0721 0.707244,0.0955 1.061159,0.141 0.705771,0.0907 1.344091,0.18328 2.051568,0.21148 0.541938,0.0216 1.084736,0 1.627106,0 0.405318,0 2.425176,0.0111 2.61752,-0.56396 0.281779,-0.8424 -1.718982,-1.44353 -2.193057,-1.5509 -2.93357,-0.66438 -6.20735,0.16722 -8.842976,1.4804 -1.089112,0.54264 -2.086625,1.2632 -2.61752,2.39684 -0.08518,0.1819 -0.177204,0.36618 -0.21223,0.56397 -0.03688,0.20824 -0.01177,0.4233 0,0.63446 0.05658,1.01492 0.572302,1.7046 1.20264,2.46733 1.136121,1.37473 2.475814,2.20424 4.103145,2.89031 0.691695,0.29161 1.085538,0.48423 1.839338,0.63446 0.923793,0.1841 1.95748,0.2542 2.900497,0.21148 1.061062,-0.0481 3.060076,-0.29836 2.546776,-1.83288 -0.321669,-0.96163 -1.788993,-1.22146 -2.617522,-1.33941 -1.339369,-0.19067 -2.802285,-0.0884 -4.103138,0.28198 -0.540178,0.1538 -1.33527,0.54362 -1.839338,0.77545 -0.947042,0.43556 -1.829477,0.88508 -2.68827,1.4804 -1.377733,0.95505 -3.206911,2.65396 -3.395697,4.44121 -0.07146,0.6765 0.03781,1.34568 0.28297,1.97387 0.150765,0.38632 0.373245,0.87027 0.636693,1.19842 0.580393,0.72294 1.443056,1.2276 2.263804,1.62139 2.14227,1.02785 4.652071,1.33311 7.003637,1.05743 1.083456,-0.12702 2.139077,-0.4781 3.183475,-0.77545 1.226687,-0.34925 2.571483,-0.67742 3.678671,-1.33941 0.263171,-0.15735 0.750681,-0.43471 0.282977,-0.63445 -0.99872,-0.42654 -2.201979,-0.33132 -3.254213,-0.21149 -2.369839,0.26989 -4.662967,1.24469 -6.508433,2.74932 -1.34471,1.09635 -2.442318,2.70911 -1.839338,4.5117 0.425569,1.27222 1.731722,2.24667 2.829756,2.89031 1.225134,0.71813 2.681475,1.27169 4.103137,1.40991 0.492884,0.0479 0.990571,0.0123 1.485625,0 0.448519,-0.0112 0.899276,-0.0122 1.344128,-0.0705 1.990394,-0.26098 4.036092,-1.04055 5.730248,-2.11486 0.72644,-0.46066 2.386552,-1.61837 2.193062,-2.67883 -0.186655,-1.02299 -1.810877,-1.07965 -2.546781,-1.05742 -1.341556,0.0405 -2.541116,0.51877 -3.749418,1.05742 -2.078908,0.92678 -3.787235,2.0187 -5.376532,3.66576 -1.094348,1.13413 -2.37754,2.75568 -1.839341,4.44121 0.599228,1.87665 3.270784,2.56316 4.952066,2.74932 3.650501,0.40419 7.837874,-0.3272 10.753063,-2.67883 0.509847,-0.41128 1.697853,-1.42969 1.697853,-2.18535 0,-0.54715 -0.936263,-0.63446 -1.273395,-0.63446 -2.047319,0 -4.213997,1.71041 -5.518012,3.17229"
       id="path922" />
    <path
       style="fill:none;stroke:#000000;stroke-width:0.264583px;stroke-linecap:butt;stroke-linejoin:miter;stroke-opacity:1"
       d="m 131.85959,124.67509 c -0.16507,-0.11749 -0.31064,-0.26888 -0.4952,-0.35247 -0.11554,-0.0523 -0.66261,0.0641 -0.70744,0.0705 -1.03182,0.14689 -1.57623,0.33653 -2.54677,0.70496 -2.0127,0.76405 -4.00383,1.75633 -5.58877,3.24278 -0.68245,0.64004 -1.61482,1.66733 -1.06116,2.67882 0.50624,0.92486 2.19667,1.3782 3.11273,1.5509 1.99275,0.37568 4.12221,0.13692 6.08397,-0.28198 1.6464,-0.35156 3.30694,-0.77175 4.81057,-1.5509 0.49436,-0.25616 2.95824,-1.75949 2.61753,-2.60833 -0.0618,-0.15403 -0.4029,-0.26227 -0.49521,-0.28198 -1.20464,-0.25723 -2.88478,0.37253 -3.96165,0.84595 -2.61662,1.15033 -4.94896,2.90266 -7.07438,4.79368 -1.22853,1.09305 -2.89608,2.65245 -3.18347,4.37071 -0.19205,1.14821 0.3107,2.18667 1.20264,2.89031 1.9849,1.56587 4.62761,1.88957 7.07438,1.83288 2.16611,-0.0502 4.74808,-0.46853 6.50843,-1.83288 0.38052,-0.29492 0.70524,-0.59943 0.99041,-0.98693 0.31678,-0.43045 1.02421,-1.53212 0.42447,-2.04437 -0.26412,-0.22559 -0.76111,-0.37314 -1.06115,-0.42297 -1.68708,-0.2802 -3.48429,0.27091 -5.02282,0.91644 -0.45686,0.19169 -0.89632,0.42249 -1.34413,0.63446 -1.30005,0.61535 -1.5928,0.69426 -2.75901,1.4804 -0.39057,0.26328 -0.7546,0.56396 -1.1319,0.84594 -1.08432,0.81039 -2.10186,1.63077 -3.04198,2.60833 -1.01532,1.05574 -2.55381,2.67292 -1.83934,4.30021 0.15856,0.36115 0.62286,0.77569 0.91966,0.98694 1.10568,0.787 2.29497,1.12954 3.60795,1.4099 0.49293,0.10526 0.98463,0.22651 1.48561,0.28198 0.563,0.0623 1.13154,0.0585 1.69785,0.0705 1.97454,0.0419 3.88023,-0.1841 5.801,-0.63446 0.73713,-0.17283 3.09197,-0.78387 3.3957,-1.69188 0.29208,-0.87319 -2.06346,-1.07927 -2.4053,-1.12793 -1.41255,-0.20108 -2.82132,-0.21148 -4.24462,-0.21148 -3.2687,0 -6.572,0.2079 -9.55042,1.69188 -1.34564,0.67046 -2.92762,1.6397 -3.3957,3.17229 -0.36447,1.19333 0.20396,2.23103 0.99041,3.1018 2.72656,3.01888 7.9826,4.00212 11.81422,2.9608 0.23751,-0.0645 0.47974,-0.11806 0.70744,-0.21149 0.98984,-0.40615 1.88006,-1.43983 0.91967,-2.39684 -0.78739,-0.78462 -1.83748,-1.15154 -2.9005,-1.4099 -2.04654,-0.4974 -4.14423,-0.51766 -6.22545,-0.28198 -2.24116,0.25378 -4.53284,0.614 -6.50843,1.76238 -0.49709,0.28895 -0.94797,0.56749 -1.34413,0.98693 -3.04689,3.22594 0.007,6.14313 2.97124,7.75449 1.734,0.9425 3.61863,1.43019 5.51801,1.90338"
       id="path924" />
    <path
       style="fill:none;stroke:#000000;stroke-width:0.264583px;stroke-linecap:butt;stroke-linejoin:miter;stroke-opacity:1"
       d="m 146.99877,139.90209 c -0.19246,1.07708 -0.27093,2.17001 -0.49521,3.24278 -0.10295,0.49244 -0.27107,1.06689 -0.42446,1.5509 -0.029,0.0914 -0.42192,1.51691 -0.6367,1.4099 -0.1752,-0.0873 -0.0398,-0.66869 0,-0.91644 0.0607,-0.37773 0.13695,-0.75283 0.21223,-1.12792 0.25349,-1.263 0.27616,-1.38677 0.6367,-2.60833 0.11155,-0.37791 0.19019,-0.76943 0.35371,-1.12792 0.0763,-0.16722 0.28526,-0.25241 0.35373,-0.42297 0.0877,-0.21853 0.1981,-1.49452 0.70743,-1.6214 0.35893,-0.0894 0.61586,0.90682 0.6367,0.98694 0.3213,1.23492 0.34983,2.54236 0.42446,3.80674 0.0896,1.51741 0.0708,0.56158 0.0708,1.90338 0,0.37597 0,0.75195 0,1.12792 0,0.094 0,0.18799 0,0.28199 0,0.0235 -0.0105,0.0915 0,0.0705 0.0333,-0.0664 0.0374,-0.14504 0.0708,-0.21149 0.13215,-0.26337 0.2923,-0.51207 0.42445,-0.77545 0.43247,-0.86189 1.06048,-2.26093 1.41488,-3.10179 1.00643,-2.38784 0.3379,-1.08238 1.41487,-3.17229 0.70726,-1.37245 1.45647,-2.94627 2.9005,-3.66576"
       id="path926" />
    <path
       style="fill:none;stroke:#000000;stroke-width:0.264583px;stroke-linecap:butt;stroke-linejoin:miter;stroke-opacity:1"
       d="m 155.48803,143.42685 c -0.11791,0.21149 -0.26352,0.40976 -0.35372,0.63446 -0.0532,0.13266 -0.036,0.28432 -0.0708,0.42297 -0.38683,1.5419 0.11942,-0.82105 -0.28298,0.91644 -0.0856,0.36972 -0.13738,0.75504 -0.21222,1.12793"
       id="path928" />
    <path
       style="fill:none;stroke:#000000;stroke-width:0.264583px;stroke-linecap:butt;stroke-linejoin:miter;stroke-opacity:1"
       d="m 53.404716,140.67754 c -0.141488,0.14099 -0.309649,0.25952 -0.424465,0.42297 -0.07989,0.11372 -0.296564,1.08667 -0.353716,1.26891 -0.18605,0.59326 -0.414155,1.07864 -0.707441,1.62139 -0.225668,0.41763 -0.172654,0.39906 -0.424466,0.77545 -0.202295,0.30238 -0.472477,0.58916 -0.636693,0.91645 -0.06667,0.13288 -0.08611,0.285 -0.141488,0.42296 -0.03918,0.0976 -0.115896,0.17998 -0.141486,0.28199 -0.01011,0.0403 0.03577,0.31683 0,0.35247 -0.115385,0.11499 -0.141484,-0.16992 -0.141484,-0.21148 0,-0.44078 0.02339,-0.8374 0.141484,-1.26892 0.184549,-0.67432 0.461843,-1.32123 0.70744,-1.97387 0.07838,-0.20827 0.129339,-0.42796 0.212227,-0.63446 0.05597,-0.13941 0.175766,-0.27761 0.212236,-0.42297 0.01143,-0.0456 -0.0149,-0.0964 0,-0.14099 2.4e-5,-7e-5 0.141457,-0.14093 0.141489,-0.14099 0.01053,-0.021 -0.01053,-0.0495 0,-0.0705 0.01492,-0.0298 0.05581,-0.0408 0.07074,-0.0705 3e-6,-1e-5 -5e-6,-0.14099 0,-0.14099 0.01669,-0.0166 0.04716,0 0.07075,0 0.274392,0 0.388588,0.25973 0.495205,0.49347 0.572701,1.25552 0.832829,2.67714 1.131901,4.01823 0.03821,0.17136 0.101825,0.70495 0.353716,0.70495 0.02357,0 0.05404,0.0166 0.07075,0 0.07976,-0.0795 0.121425,-0.36299 0.141488,-0.42297 0.251386,-0.7515 0.457203,-1.48079 0.636694,-2.25585 0.589237,-2.54439 -0.152808,0.63446 0.424463,-1.76238 0.259678,-1.07818 0.433734,-2.20845 0.848923,-3.24279 0.141658,-0.3529 0.323972,-0.71617 0.495205,-1.05743"
       id="path930" />
    <path
       style="fill:none;stroke:#000000;stroke-width:0.264583px;stroke-linecap:butt;stroke-linejoin:miter;stroke-opacity:1"
       d="m 57.08339,145.33023 c -0.07451,-0.31795 -0.131799,-0.57684 0.07075,-0.84595 0.197118,-0.2619 0.438523,-0.54984 0.778182,-0.63445 0.395687,-0.0986 0.778182,0.14908 0.778182,0.56396 0,0.83565 -0.962657,1.95543 -1.627111,2.39684 -0.07074,0.047 -0.141486,0.094 -0.21223,0.14099 -0.04716,0.0235 -0.0976,0.0413 -0.141488,0.0705 -0.02773,0.0184 -0.04095,0.0557 -0.07074,0.0705 -0.02111,0.0105 -0.07075,-0.0236 -0.07075,0 0,0.0745 0.140539,-0.0501 0.212236,-0.0705 0.11563,-0.0329 0.237058,-0.0414 0.353718,-0.0705 0.582846,-0.1452 0.48142,-0.17395 1.131898,-0.28198 0.398175,-0.0661 0.802114,-0.0911 1.202648,-0.14099"
       id="path932" />
    <path
       style="fill:none;stroke:#000000;stroke-width:0.264583px;stroke-linecap:butt;stroke-linejoin:miter;stroke-opacity:1"
       d="m 80.782566,138.84466 c 0,2.18535 0,4.37071 0,6.55606"
       id="path934" />
    <path
       style="fill:none;stroke:#000000;stroke-width:0.264583px;stroke-linecap:butt;stroke-linejoin:miter;stroke-opacity:1"
       d="m 76.60868,139.26763 c 0.141488,-0.0705 0.27169,-0.17089 0.424465,-0.21149 0.572355,-0.15209 1.588228,-0.13614 2.193058,-0.21148 0.873879,-0.10885 1.748636,-0.27867 2.61752,-0.42298 0.765146,-0.12707 1.923399,-0.40203 2.688264,-0.21148"
       id="path936" />
    <path
       style="fill:none;stroke:#000000;stroke-width:0.264583px;stroke-linecap:butt;stroke-linejoin:miter;stroke-opacity:1"
       d="m 77.952816,144.2728 c 0.926634,0.0799 1.838883,-0.0951 2.759009,-0.141 0.966687,-0.0482 1.931178,-0.0705 2.900497,-0.0705"
       id="path938" />
    <path
       style="fill:none;stroke:#000000;stroke-width:0.264583px;stroke-linecap:butt;stroke-linejoin:miter;stroke-opacity:1"
       d="m 84.461246,142.15794 c 0.577172,-0.32866 0.30525,-0.28198 0.778182,-0.28198 0.467884,0 1.296233,0.0433 1.414875,0.63446 0.156514,0.77981 -0.625745,1.74783 -1.061159,2.32634 -0.07547,0.10028 -0.650015,0.76217 -0.565947,0.84595 0.07059,0.0703 1.599309,-0.0596 1.697853,-0.0705"
       id="path940" />
    <path
       style="fill:none;stroke:#000000;stroke-width:0.264583px;stroke-linecap:butt;stroke-linejoin:miter;stroke-opacity:1"
       d="m 111.27314,138.2102 c -0.0472,0.14099 -0.11399,0.27686 -0.14148,0.42297 -0.1656,0.88012 -0.1118,1.79137 -0.14148,2.67882 -0.0118,0.35307 -0.0585,0.70438 -0.0707,1.05743 -0.0211,0.6106 0.0278,1.22255 0,1.83288 -0.0239,0.52368 -0.0708,1.02599 -0.0708,1.5509"
       id="path942" />
    <path
       style="fill:none;stroke:#000000;stroke-width:0.264583px;stroke-linecap:butt;stroke-linejoin:miter;stroke-opacity:1"
       d="m 107.17,139.62011 c -0.44555,-0.38374 -0.41401,-0.35248 -0.84892,-0.35248 -0.0943,0 -0.19346,0.0297 -0.28297,0 -0.0316,-0.0105 -0.041,-0.0556 -0.0708,-0.0705 -0.0211,-0.0105 -0.054,0.0166 -0.0707,0 -0.0472,-0.047 0.0753,-0.13366 0.14149,-0.14099 0.16407,-0.0181 0.33037,0.009 0.49521,0 0.68452,-0.0359 1.36727,-0.10088 2.05156,-0.14099 2.46967,-0.14476 4.95403,-0.0705 7.4281,-0.0705"
       id="path944" />
    <path
       style="fill:none;stroke:#000000;stroke-width:0.264583px;stroke-linecap:butt;stroke-linejoin:miter;stroke-opacity:1"
       d="m 108.51414,144.2023 c -0.14149,0 -0.42446,-0.14149 -0.42446,0 0,0.14148 0.28505,-0.0242 0.42446,0 0.4057,0.0703 0.7953,0.22185 1.20264,0.28198 0.4899,0.0723 0.99042,0 1.48563,0 0.72556,0 1.46854,0.0401 2.19305,0 0.14953,-0.008 0.88807,-0.11635 1.06116,-0.14099"
       id="path946" />
    <path
       style="fill:none;stroke:#000000;stroke-width:0.264583px;stroke-linecap:butt;stroke-linejoin:miter;stroke-opacity:1"
       d="m 115.80075,141.94645 c -0.0236,0.18799 -0.0707,0.37451 -0.0707,0.56397 0,0.30909 0.11771,0.60825 0.1415,0.91643 0.0217,0.28115 -0.0235,0.56495 0,0.84595 0.0119,0.14245 0.21352,0.41585 0.0707,0.42297 -0.50832,0.0253 -0.99041,-0.23499 -1.48562,-0.35248"
       id="path948" />
    <path
       style="fill:none;stroke:#000000;stroke-width:0.264583px;stroke-linecap:butt;stroke-linejoin:miter;stroke-opacity:1"
       d="m 95.072821,119.24695 c 0.02357,-0.14099 0.02952,-0.28609 0.07073,-0.42297 0.0819,-0.27204 0.239512,-0.51531 0.353724,-0.77545 0.313084,-0.71311 0.694595,-1.39428 0.99041,-2.11486 0.510103,-1.24255 0.974222,-2.51659 1.344136,-3.80674 0.20257,-0.70652 0.444273,-1.38739 0.565952,-2.11487 0.08244,-0.49289 0.21223,-1.05046 0.21223,-1.55089 0,-0.0705 0,-0.14099 0,-0.21149 0,-0.0235 0.02349,-0.0705 0,-0.0705 -0.02349,0 0,0.047 0,0.0705 0,0.0705 -0.007,0.14134 0,0.21149 0.01659,0.16534 0.04717,0.32898 0.07075,0.49346 0.02357,0.23499 0.04929,0.46977 0.07075,0.70496 0.0846,0.92742 0.170783,1.69694 0.353711,2.60832 0.03486,0.17368 0.08262,0.56101 0.353724,0.49347 0.286319,-0.0713 0.489519,-0.68515 0.565952,-0.84594 0.48866,-1.02801 0.82619,-2.14615 1.13189,-3.24279 0.14056,-0.50423 0.25094,-1.03883 0.35372,-1.5509 0.0139,-0.0691 0,-0.14098 0,-0.21148 0,-0.0235 0.0235,-0.0705 0,-0.0705 -0.0235,0 0.003,0.0472 0,0.0705 -0.0203,0.1415 -0.0623,0.28027 -0.0707,0.42297 -0.0152,0.25804 0,0.51697 0,0.77545 0,0.97334 -0.0235,1.14408 0.0707,2.11486 0.13277,1.36709 0.11764,0.86794 0.35372,2.18536 0.0545,0.30425 0.0807,0.61338 0.14149,0.91644 0.14854,0.7401 0.38292,1.45582 0.56595,2.18535"
       id="path1063" />
  </g>
</svg>
