<?xml version="1.0" encoding="UTF-8" standalone="no"?>
<!-- Created with Inkscape (http://www.inkscape.org/) -->

<svg
   width="148mm"
   height="105mm"
   viewBox="0 0 148 105"
   version="1.1"
   id="svg5"
   inkscape:version="1.1.2 (0a00cf5339, 2022-02-04)"
   sodipodi:docname="phi-12-10-17685.svg"
   xmlns:inkscape="http://www.inkscape.org/namespaces/inkscape"
   xmlns:sodipodi="http://sodipodi.sourceforge.net/DTD/sodipodi-0.dtd"
   xmlns="http://www.w3.org/2000/svg"
   xmlns:svg="http://www.w3.org/2000/svg">
  <sodipodi:namedview
     id="namedview7"
     pagecolor="#ffffff"
     bordercolor="#cccccc"
     borderopacity="1"
     inkscape:pageshadow="0"
     inkscape:pageopacity="1"
     inkscape:pagecheckerboard="0"
     inkscape:document-units="mm"
     showgrid="false"
     units="mm"
     inkscape:zoom="3.8350027"
     inkscape:cx="294.78466"
     inkscape:cy="167.1446"
     inkscape:window-width="2160"
     inkscape:window-height="1375"
     inkscape:window-x="0"
     inkscape:window-y="0"
     inkscape:window-maximized="1"
     inkscape:current-layer="layer1" />
  <defs
     id="defs2">
    <marker
       style="overflow:visible;"
       id="Arrow1Mend"
       refX="0.0"
       refY="0.0"
       orient="auto"
       inkscape:stockid="Arrow1Mend"
       inkscape:isstock="true">
      <path
         transform="scale(0.4) rotate(180) translate(10,0)"
         style="fill-rule:evenodd;fill:context-stroke;stroke:context-stroke;stroke-width:1.0pt;"
         d="M 0.0,0.0 L 5.0,-5.0 L -12.5,0.0 L 5.0,5.0 L 0.0,0.0 z "
         id="path4111" />
    </marker>
    <inkscape:path-effect
       effect="bspline"
       id="path-effect5092"
       is_visible="true"
       lpeversion="1"
       weight="33.333333"
       steps="2"
       helper_size="0"
       apply_no_weight="true"
       apply_with_weight="true"
       only_selected="false" />
    <inkscape:path-effect
       effect="bspline"
       id="path-effect4796"
       is_visible="true"
       lpeversion="1"
       weight="33.333333"
       steps="2"
       helper_size="0"
       apply_no_weight="true"
       apply_with_weight="true"
       only_selected="false" />
    <inkscape:path-effect
       effect="bspline"
       id="path-effect4679"
       is_visible="true"
       lpeversion="1"
       weight="33.333333"
       steps="2"
       helper_size="0"
       apply_no_weight="true"
       apply_with_weight="true"
       only_selected="false" />
    <marker
       style="overflow:visible"
       id="Arrow1Lstart"
       refX="0.0"
       refY="0.0"
       orient="auto"
       inkscape:stockid="Arrow1Lstart"
       inkscape:isstock="true">
      <path
         transform="scale(0.8) translate(12.5,0)"
         style="fill-rule:evenodd;fill:context-stroke;stroke:context-stroke;stroke-width:1.0pt"
         d="M 0.0,0.0 L 5.0,-5.0 L -12.5,0.0 L 5.0,5.0 L 0.0,0.0 z "
         id="path4102" />
    </marker>
    <marker
       style="overflow:visible;"
       id="Arrow1Lend"
       refX="0.0"
       refY="0.0"
       orient="auto"
       inkscape:stockid="Arrow1Lend"
       inkscape:isstock="true">
      <path
         transform="scale(0.8) rotate(180) translate(12.5,0)"
         style="fill-rule:evenodd;fill:context-stroke;stroke:context-stroke;stroke-width:1.0pt;"
         d="M 0.0,0.0 L 5.0,-5.0 L -12.5,0.0 L 5.0,5.0 L 0.0,0.0 z "
         id="path4105" />
    </marker>
    <inkscape:path-effect
       effect="bspline"
       id="path-effect4020"
       is_visible="true"
       lpeversion="1"
       weight="33.333333"
       steps="2"
       helper_size="0"
       apply_no_weight="true"
       apply_with_weight="true"
       only_selected="false" />
    <inkscape:path-effect
       effect="bspline"
       id="path-effect2905"
       is_visible="true"
       lpeversion="1"
       weight="33.333333"
       steps="2"
       helper_size="0"
       apply_no_weight="true"
       apply_with_weight="true"
       only_selected="false" />
    <inkscape:path-effect
       effect="bspline"
       id="path-effect2788"
       is_visible="true"
       lpeversion="1"
       weight="33.333333"
       steps="2"
       helper_size="0"
       apply_no_weight="true"
       apply_with_weight="true"
       only_selected="false" />
    <inkscape:path-effect
       effect="bspline"
       id="path-effect2671"
       is_visible="true"
       lpeversion="1"
       weight="33.333333"
       steps="2"
       helper_size="0"
       apply_no_weight="true"
       apply_with_weight="true"
       only_selected="false" />
    <inkscape:path-effect
       effect="bspline"
       id="path-effect1286"
       is_visible="true"
       lpeversion="1"
       weight="33.333333"
       steps="2"
       helper_size="0"
       apply_no_weight="true"
       apply_with_weight="true"
       only_selected="false" />
    <inkscape:path-effect
       effect="bspline"
       id="path-effect1249"
       is_visible="true"
       lpeversion="1"
       weight="33.333333"
       steps="2"
       helper_size="0"
       apply_no_weight="true"
       apply_with_weight="true"
       only_selected="false" />
    <inkscape:path-effect
       effect="bspline"
       id="path-effect1019"
       is_visible="true"
       lpeversion="1"
       weight="33.333333"
       steps="2"
       helper_size="0"
       apply_no_weight="true"
       apply_with_weight="true"
       only_selected="false" />
    <inkscape:path-effect
       effect="bspline"
       id="path-effect902"
       is_visible="true"
       lpeversion="1"
       weight="33.333333"
       steps="2"
       helper_size="0"
       apply_no_weight="true"
       apply_with_weight="true"
       only_selected="false" />
    <marker
       style="overflow:visible"
       id="Arrow1Lstart-6"
       refX="0"
       refY="0"
       orient="auto"
       inkscape:stockid="Arrow1Lstart"
       inkscape:isstock="true">
      <path
         transform="matrix(0.8,0,0,0.8,10,0)"
         style="fill:context-stroke;fill-rule:evenodd;stroke:context-stroke;stroke-width:1pt"
         d="M 0,0 5,-5 -12.5,0 5,5 Z"
         id="path4102-7" />
    </marker>
    <inkscape:path-effect
       effect="bspline"
       id="path-effect4020-5"
       is_visible="true"
       lpeversion="1"
       weight="33.333333"
       steps="2"
       helper_size="0"
       apply_no_weight="true"
       apply_with_weight="true"
       only_selected="false" />
    <marker
       style="overflow:visible"
       id="Arrow1Lstart-6-5"
       refX="0"
       refY="0"
       orient="auto"
       inkscape:stockid="Arrow1Lstart"
       inkscape:isstock="true">
      <path
         transform="matrix(0.8,0,0,0.8,10,0)"
         style="fill:context-stroke;fill-rule:evenodd;stroke:context-stroke;stroke-width:1pt"
         d="M 0,0 5,-5 -12.5,0 5,5 Z"
         id="path4102-7-6" />
    </marker>
    <inkscape:path-effect
       effect="bspline"
       id="path-effect4020-5-2"
       is_visible="true"
       lpeversion="1"
       weight="33.333333"
       steps="2"
       helper_size="0"
       apply_no_weight="true"
       apply_with_weight="true"
       only_selected="false" />
    <marker
       style="overflow:visible"
       id="Arrow1Lstart-9"
       refX="0"
       refY="0"
       orient="auto"
       inkscape:stockid="Arrow1Lstart"
       inkscape:isstock="true">
      <path
         transform="matrix(0.8,0,0,0.8,10,0)"
         style="fill:context-stroke;fill-rule:evenodd;stroke:context-stroke;stroke-width:1pt"
         d="M 0,0 5,-5 -12.5,0 5,5 Z"
         id="path4102-1" />
    </marker>
    <inkscape:path-effect
       effect="bspline"
       id="path-effect4020-2"
       is_visible="true"
       lpeversion="1"
       weight="33.333333"
       steps="2"
       helper_size="0"
       apply_no_weight="true"
       apply_with_weight="true"
       only_selected="false" />
  </defs>
  <g
     inkscape:label="Layer 1"
     inkscape:groupmode="layer"
     id="layer1">
    <path
       style="fill:none;stroke:#000000;stroke-width:0.264583px;stroke-linecap:butt;stroke-linejoin:bevel;stroke-opacity:1;marker-start:url(#Arrow1Lstart)"
       d="m 49.300997,21.125322 c 0,13.313934 0,26.627603 0,39.941008"
       id="path4018"
       inkscape:path-effect="#path-effect4020"
       inkscape:original-d="m 49.300997,21.125322 c 2.65e-4,13.313934 2.65e-4,26.627603 0,39.941008" />
    <path
       style="fill:none;stroke:#000000;stroke-width:0.264583px;stroke-linecap:butt;stroke-linejoin:bevel;stroke-opacity:1;marker-start:url(#Arrow1Lstart-6)"
       d="m 60.599614,21.090127 c 0,13.313934 0,26.627603 0,39.941008"
       id="path4018-3"
       inkscape:path-effect="#path-effect4020-5"
       inkscape:original-d="m 60.599614,21.090127 c 2.65e-4,13.313934 2.65e-4,26.627603 0,39.941008" />
    <path
       style="fill:none;stroke:#000000;stroke-width:0.264583px;stroke-linecap:butt;stroke-linejoin:bevel;stroke-opacity:1;marker-start:url(#Arrow1Lstart-9)"
       d="m 71.617051,20.771148 c 0,13.313934 0,26.627603 0,39.941008"
       id="path4018-7"
       inkscape:path-effect="#path-effect4020-2"
       inkscape:original-d="m 71.617051,20.771148 c 2.65e-4,13.313934 2.65e-4,26.627603 0,39.941008" />
    <path
       style="fill:none;stroke:#000000;stroke-width:0.264583px;stroke-linecap:butt;stroke-linejoin:bevel;stroke-opacity:1;marker-start:url(#Arrow1Lstart-6-5)"
       d="m 82.915668,20.735953 c 0,13.313934 0,26.627603 0,39.941008"
       id="path4018-3-0"
       inkscape:path-effect="#path-effect4020-5-2"
       inkscape:original-d="m 82.915668,20.735953 c 2.65e-4,13.313934 2.65e-4,26.627603 0,39.941008" />
    <path
       style="fill:none;stroke:#000000;stroke-width:0.264583px;stroke-linecap:butt;stroke-linejoin:miter;stroke-opacity:1"
       d="m 65.928028,19.027 c -0.147985,0.178959 -0.198086,0.383211 -0.27513,0.598172 -0.04792,0.133701 -0.103754,0.264518 -0.150069,0.398783 -0.08691,0.251923 -0.153945,0.523465 -0.250119,0.772639 -0.03617,0.09371 -0.08537,0.181888 -0.125058,0.274162 -0.08453,0.196552 -0.151921,0.397624 -0.225105,0.598173 -0.114995,0.315127 7.94e-4,-0.04028 -0.07503,0.224316 -0.0072,0.02526 -0.01984,0.049 -0.025,0.07477 -0.0049,0.02444 0,0.04985 0,0.07477"
       id="path4556" />
    <path
       style="fill:none;stroke:#000000;stroke-width:0.264583px;stroke-linecap:butt;stroke-linejoin:miter;stroke-opacity:1"
       d="m 65.928028,19.027 c 0.04169,0.06646 0.07935,0.135625 0.125057,0.199391 0,0 0,-0.04985 0,-0.04985 0.0053,-0.01052 0.01847,-0.01514 0.025,-0.02492 0.04671,-0.06983 -0.0024,-0.03807 0.07503,-0.09969 0.02349,-0.01872 0.05057,-0.03243 0.07504,-0.04985 0.03392,-0.02414 0.06278,-0.05621 0.100047,-0.07477 0.03526,-0.01757 0.297828,-0.09459 0.325152,-0.0997 0.133432,-0.02493 0.267697,-0.04062 0.400187,0 0.123767,0.03795 0.236604,0.121278 0.27513,0.249239 0.01458,0.0484 0.03218,0.09952 0.025,0.149543 -0.01008,0.0703 -0.04153,0.136781 -0.07504,0.199392 -0.06683,0.12487 -0.172444,0.229559 -0.275129,0.32401 -0.244467,0.22487 -0.531879,0.3802 -0.850398,0.473552 -0.191201,0.05604 -0.175146,0.04306 -0.350165,0.07477 -0.04182,0.0076 -0.08288,0.01967 -0.125058,0.02492 -0.03309,0.0041 -0.0667,0 -0.100047,0 -0.0083,0 -0.03335,0 -0.025,0 0.266793,0 0.533583,0 0.800375,0 0.300662,0 0.532972,0.0019 0.825386,0.07477 0.111747,0.02784 0.211082,0.04697 0.300138,0.124619 0.03135,0.02733 0.05191,0.06513 0.07504,0.0997 0.08456,0.126388 0.16764,0.289508 0.125058,0.44863 -0.03722,0.139097 -0.151855,0.275941 -0.250116,0.373858 -0.153892,0.153353 -0.311978,0.261301 -0.500234,0.373859 -0.393126,0.235046 -0.815584,0.398237 -1.275599,0.423704 -0.116541,0.0065 -0.233442,0 -0.350163,0 -0.04169,0 -0.08634,0.01544 -0.125058,0 -0.131553,-0.05244 -0.250108,-0.132928 -0.37516,-0.199393"
       id="path4558" />
    <path
       style="fill:none;stroke:#000000;stroke-width:0.264583px;stroke-linecap:butt;stroke-linejoin:miter;stroke-opacity:1"
       d="m 64.977581,18.179588 c 0.09171,-0.01662 0.182385,-0.04061 0.275129,-0.04985 0.07467,-0.0074 0.150069,0 0.225105,0 0.150072,0 0.300141,0 0.450213,0 0.240784,0 0.484862,-0.01089 0.725339,0 0.100287,0.0045 0.199853,0.02038 0.300141,0.02492 0.149915,0.0068 0.30014,0 0.450209,0 0.136277,0 0.35002,0.02498 0.475224,-0.02492 0.0173,-0.0069 0.03235,-0.01905 0.05002,-0.02492 0.0044,-0.0015 0.08548,0.01041 0.05002,-0.02492 -0.0088,-0.0088 -0.107715,0.0086 -0.125061,0 -0.08282,-0.08254 0.02352,0.01172 -0.05002,-0.02492 -0.01894,-0.0094 -0.160819,-0.153152 -0.17508,-0.174467 -0.02066,-0.0309 -0.02368,-0.07345 -0.05003,-0.0997 -0.0132,-0.01315 -0.0351,-0.01377 -0.05002,-0.02492 -0.09312,-0.06959 -0.0026,-0.03867 -0.125061,-0.0997 -1.6e-5,-7e-6 -0.150053,-0.04984 -0.150069,-0.04985 -0.0173,-0.0069 -0.03195,-0.02042 -0.05002,-0.02492 -0.02596,-0.0065 -0.07134,0 -0.100049,0 -0.0083,0 -0.0191,-0.0059 -0.025,0 -0.02746,0.02737 0.04706,0.06515 0.125061,0.0997 0.171977,0.07616 0.346803,0.140118 0.525246,0.199391 0.170936,0.05678 0.252182,0.09014 0.425198,0.124619 0.0767,0.01528 0.430993,0.03647 0.475224,0.124619 0.01109,0.02209 -0.0098,0.03975 -0.025,0.04985 -0.01553,0.01031 -0.03383,0.01571 -0.05002,0.02492 -0.196254,0.111751 -0.07049,0.05504 -0.325154,0.174467 -0.116867,0.0548 -0.357,0.158158 -0.475223,0.199391 -0.08216,0.02866 -0.167535,0.04734 -0.250116,0.07477 -0.06757,0.02245 -0.133012,0.0509 -0.200092,0.07477 -0.09274,0.03301 -0.202432,0.05217 -0.275129,0.124619"
       id="path4562" />
    <path
       style="fill:none;stroke:#000000;stroke-width:0.312884px;stroke-linecap:butt;stroke-linejoin:miter;stroke-opacity:1;marker-end:url(#Arrow1Mend)"
       d="m 34.525076,53.898383 c 3.700147,-3.120314 7.400239,-6.240581 11.100276,-9.360802"
       id="path4677"
       inkscape:path-effect="#path-effect4679"
       inkscape:original-d="m 34.525076,53.898383 c 3.70043,-3.119978 7.400522,-6.240245 11.100276,-9.360802" />
    <path
       style="fill:none;stroke:#000000;stroke-width:0.312884px;stroke-linecap:butt;stroke-linejoin:miter;stroke-opacity:1;marker-end:url(#Arrow1Mend)"
       d="m 34.525076,53.898383 c 3.47985,0 6.959362,0 10.438538,0"
       id="path4794"
       inkscape:path-effect="#path-effect4796"
       inkscape:original-d="m 34.525076,53.898383 c 3.47985,2.89e-4 6.959362,2.89e-4 10.438538,0" />
    <path
       style="fill:none;stroke:#000000;stroke-width:0.312884px;stroke-linecap:butt;stroke-linejoin:miter;stroke-opacity:1;marker-end:url(#Arrow1Mend)"
       d="m 34.525076,53.898383 c 0,-3.354747 0,-6.709782 0,-10.065107"
       id="path5090"
       inkscape:path-effect="#path-effect5092"
       inkscape:original-d="m 34.525076,53.898383 c 3.39e-4,-3.354747 3.39e-4,-6.709782 0,-10.065107" />
    <path
       style="fill:none;stroke:#000000;stroke-width:0.264583px;stroke-linecap:butt;stroke-linejoin:miter;stroke-opacity:1"
       d="m 42.906944,42.55485 c -0.141047,-0.168661 -0.125058,-0.08456 -0.125058,-0.224316 0,-0.08308 -0.0083,-0.166574 0,-0.249238 0.0079,-0.07878 0.06289,-0.305498 0.150072,-0.348932 0.07761,-0.03867 0.215432,0.108069 0.250116,0.149542 0.148841,0.177983 0.176577,0.243411 0.30014,0.448628 0.09417,0.156397 0.18096,0.317158 0.27513,0.473553 0.03093,0.05138 0.06776,0.099 0.100044,0.149546 0.05753,0.09008 0.111506,0.236426 0.225108,0.274161 0.03476,0.01156 0.04098,-0.01831 0.05002,-0.04985 0.01167,-0.04073 0.01667,-0.08308 0.025,-0.124618 0.01667,-0.08308 0.038,-0.16536 0.05002,-0.249241 0.03331,-0.232375 0.025,-0.314642 0.025,-0.548325 0,-0.06646 0.0048,-0.133096 0,-0.19939 -0.0071,-0.09943 -0.0408,-0.310218 -0.100047,-0.39878 -0.03051,-0.04561 -0.08607,-0.08577 -0.125058,-0.124621"
       id="path5488" />
    <path
       style="fill:none;stroke:#000000;stroke-width:0.264583px;stroke-linecap:butt;stroke-linejoin:miter;stroke-opacity:1"
       d="m 42.056547,41.283733 c 0.03335,-0.05815 0.05256,-0.127148 0.100044,-0.174469 0.03179,-0.03167 0.08429,-0.0311 0.125061,-0.04985 0.0677,-0.03114 0.134183,-0.06492 0.200091,-0.0997 0.07586,-0.04002 0.150072,-0.08308 0.225107,-0.124619 0.08337,-0.04154 0.167627,-0.08135 0.250116,-0.124619 0.07595,-0.03984 0.148342,-0.08637 0.225108,-0.124621 0.392096,-0.173654 0.06738,-0.02082 0.400185,-0.19939 0.04925,-0.02643 0.102102,-0.04609 0.150071,-0.07477 0.06148,-0.03676 0.113599,-0.08786 0.17508,-0.124619 0.0036,-0.0021 0.107509,-0.04242 0.07504,-0.07477 -0.0059,-0.0059 -0.01667,0 -0.025,0 -0.0083,0 -0.01709,-0.0026 -0.025,0 -0.03536,0.01175 -0.06544,0.03605 -0.100047,0.04985 -0.04896,0.01953 -0.100047,0.03323 -0.150072,0.04985 -0.05002,0.01662 -0.09838,0.03954 -0.150069,0.04985 -0.0043,7.94e-4 -0.194344,0.01918 -0.150069,-0.02492 0.0132,-0.01315 0.03335,-0.01662 0.05002,-0.02492 0.18342,-0.09139 0.0118,-0.0168 0.225105,-0.07477 0.05087,-0.01384 0.09893,-0.03711 0.150072,-0.04985 0.132937,-0.03312 0.164941,-0.02492 0.30014,-0.02492 0.05237,0 0.167566,-0.01498 0.200094,0.04985 0.0702,0.139915 -0.0019,0.291354 -0.05003,0.423707 -0.01802,0.04938 -0.03335,0.0997 -0.05002,0.149542"
       id="path5490" />
    <path
       style="fill:none;stroke:#000000;stroke-width:0.264583px;stroke-linecap:butt;stroke-linejoin:miter;stroke-opacity:1"
       d="m 43.006991,57.683637 c -0.06477,-0.03227 -0.155287,-0.05765 -0.200094,-0.124624 -0.02066,-0.0309 -0.03488,-0.06574 -0.05002,-0.09969 -0.08552,-0.191736 -0.0872,-0.369488 -0.05002,-0.573249 0.0076,-0.04168 0.01156,-0.08444 0.025,-0.124619 0.02371,-0.07086 0.06372,-0.130807 0.125057,-0.174466 0.218739,-0.155691 0.466352,0.05749 0.600282,0.224311 0.05632,0.07015 0.100047,0.149545 0.150071,0.224317 0.05002,0.07477 0.10304,0.147624 0.150072,0.224313 0.04475,0.07298 0.07957,0.151794 0.125058,0.224317 0.03802,0.06062 0.08423,0.115705 0.125058,0.174466 0.03422,0.04926 0.06557,0.100468 0.100047,0.149543 0.01947,0.02774 0.105987,0.152503 0.150069,0.174468 0.03819,0.01902 0.06929,-0.05473 0.07504,-0.07477 0.0378,-0.131844 0.03199,-0.227806 0.025,-0.373858 -0.0044,-0.09166 -0.01667,-0.182775 -0.025,-0.274162 -0.0083,-0.09139 -0.01199,-0.183324 -0.025,-0.274164 -0.01204,-0.08388 -0.03741,-0.165443 -0.05002,-0.249234 -0.01244,-0.08257 -0.01045,-0.167024 -0.025,-0.249241 -0.01056,-0.05957 -0.0353,-0.115786 -0.05003,-0.174466 -0.01984,-0.07906 -0.02434,-0.147534 -0.05002,-0.224316 -0.02066,-0.06176 -0.025,-0.04158 -0.025,-0.09969"
       id="path5492" />
    <path
       style="fill:none;stroke:#000000;stroke-width:0.264583px;stroke-linecap:butt;stroke-linejoin:miter;stroke-opacity:1"
       d="m 45.858326,56.786374 c 0.114348,0.152948 0.16146,0.324073 0.225105,0.498481 0.01535,0.04205 0.03583,0.08217 0.05003,0.124616 1e-5,5e-5 0.05001,0.199342 0.05002,0.199393 0.0059,0.01762 0.02048,0.03182 0.025,0.04985 0.004,0.01611 0,0.03323 0,0.04985 0,0.0083 0.0059,0.01905 0,0.02492 -0.02461,0.02453 -0.08394,-0.06407 -0.100044,-0.07477 -0.06284,-0.04174 -0.12709,-0.04985 -0.200094,-0.04985 -0.08425,0 -0.173183,0.01151 -0.250118,0.04985 -0.177121,0.08825 0.02705,0.01146 -0.15007,0.09969 -0.0236,0.01175 -0.05055,0.01516 -0.07503,0.02492 -0.03461,0.01378 -0.0667,0.03323 -0.10005,0.04985 -0.01307,0.0065 -0.100044,0.04789 -0.100044,0.07477 0,0.0083 0.01667,0 0.025,0 0.03335,0 0.0667,0 0.100047,0 0.161581,0 0.315254,-0.02859 0.475221,-0.04984 0.216064,-0.02871 0.170849,-0.01852 0.375176,-0.04985 0.184446,-0.02828 0.367311,-0.06324 0.550257,-0.09969"
       id="path5494" />
    <path
       style="fill:none;stroke:#000000;stroke-width:0.264583px;stroke-linecap:butt;stroke-linejoin:miter;stroke-opacity:1"
       d="m 31.201463,44.847845 c -0.12496,0.0013 -0.231754,-0.04855 -0.350166,-0.07477 -0.03886,-0.0086 -0.18076,-0.03328 -0.225105,-0.04985 -0.277532,-0.103709 -0.400187,-0.337188 -0.400187,-0.623099 0,-0.06236 0.0029,-0.143664 0.07504,-0.174467 0.201665,-0.08613 0.433467,0.05456 0.600281,0.149546 0.05836,0.03323 0.119801,0.06156 0.17508,0.0997 0.05352,0.03692 0.10005,0.08308 0.150072,0.124618 0.105262,0.08741 0.169592,0.142518 0.275129,0.224317 0.03005,0.02328 0.222158,0.184729 0.275127,0.14954 0.04631,-0.03076 0.07504,-0.289206 0.07504,-0.299085 0,-0.137129 -0.04895,-0.343599 -0.07504,-0.473554 -0.01667,-0.08308 -0.02604,-0.167968 -0.05002,-0.249238 -0.04412,-0.149479 -0.14211,-0.316301 -0.225105,-0.44863 -0.152918,-0.243811 0.04171,0.06374 -0.100046,-0.124619 -0.0295,-0.03919 -0.04156,-0.0997 -0.100047,-0.0997"
       id="path5496" />
    <path
       style="fill:none;stroke:#000000;stroke-width:0.264583px;stroke-linecap:butt;stroke-linejoin:miter;stroke-opacity:1"
       d="m 32.353009,43.235025 c 0.08596,0.122777 0.163285,0.251698 0.250118,0.373859 0.03615,0.05085 0.07641,0.09869 0.112554,0.149542 0.03475,0.04888 0.06618,0.100047 0.100044,0.149543 0.07086,0.103555 0.144675,0.202909 0.225108,0.299087"
       id="path5502" />
    <path
       style="fill:none;stroke:#000000;stroke-width:0.264583px;stroke-linecap:butt;stroke-linejoin:miter;stroke-opacity:1"
       d="m 32.940786,42.811318 c 0.0042,0.03323 0.0013,0.06813 0.01252,0.09969 0.0098,0.02779 0.126883,0.219038 0.137565,0.236779 0.03766,0.06255 0.13055,0.215656 0.162575,0.274161 0.07503,0.137078 0.124799,0.298831 0.237612,0.411244"
       id="path5504" />
    <ellipse
       style="fill:#ccff00;fill-opacity:0;stroke:#000000;stroke-width:0.421;stroke-linejoin:bevel;paint-order:fill markers stroke"
       id="path6587"
       cx="103.9502"
       cy="42.086124"
       rx="12.730961"
       ry="13.159801" />
    <path
       style="fill:none;stroke:#000000;stroke-width:0.264583px;stroke-linecap:butt;stroke-linejoin:miter;stroke-opacity:1"
       d="m 104.46602,40.612609 c -0.0547,-0.04116 -0.006,-0.09505 -0.0177,-0.140991 -0.003,-0.01275 -0.0128,-0.02305 -0.0177,-0.03525 -0.007,-0.01725 -0.008,-0.03695 -0.0177,-0.05287 -0.0227,-0.03763 -0.11024,-0.102603 -0.14149,-0.123367 -0.0712,-0.04728 -0.14491,-0.08692 -0.22992,-0.105743 -0.27407,-0.06069 -0.59984,0.02585 -0.83124,0.176238 -0.0702,0.0456 -0.13398,0.100886 -0.19455,0.158616 -0.20382,0.19428 -0.29238,0.318362 -0.42446,0.581588 -0.18336,0.365437 -0.30066,0.787604 -0.30066,1.198417 0,0.216413 0.0466,0.433157 0.1238,0.63446 0.0759,0.197853 0.17681,0.386903 0.31835,0.546338 0.0691,0.07787 0.14681,0.148747 0.22992,0.211487 0.34359,0.259384 0.69571,0.413094 1.1319,0.422971 0.39098,0.0089 0.77714,-0.131458 1.09652,-0.352475 0.10291,-0.07121 0.19434,-0.158398 0.28298,-0.246735 0.43105,-0.429538 0.71677,-0.975889 0.84893,-1.568521 0.0654,-0.293444 0.0977,-0.659675 0,-0.951688 -0.0797,-0.238329 -0.27363,-0.443952 -0.47752,-0.581586 -0.10053,-0.06786 -0.21037,-0.120986 -0.31835,-0.176236 -0.21698,-0.11103 -0.4384,-0.210836 -0.67207,-0.281982 -0.19905,-0.06061 -0.36194,-0.08316 -0.56595,-0.105744 -0.0705,-0.0078 -0.14124,-0.01762 -0.21223,-0.01762 -0.0475,0 -0.0943,0.01175 -0.14149,0.01762"
       id="path6622" />
    <path
       style="fill:none;stroke:#000000;stroke-width:0.264583px;stroke-linecap:butt;stroke-linejoin:miter;stroke-opacity:1"
       d="m 103.21032,41.317562 c 0.0708,0.03525 0.14337,0.06696 0.21223,0.105743 0.0669,0.03768 0.12909,0.08322 0.19455,0.123365 0.0878,0.05386 0.17611,0.107019 0.26529,0.158615 0.0936,0.05415 0.1896,0.104074 0.28297,0.158615 0.22151,0.129395 0.43611,0.270701 0.65438,0.405347 0.32414,0.199951 0.0338,0.01069 0.33604,0.211487"
       id="path6624" />
    <path
       style="fill:none;stroke:#000000;stroke-width:0.264583px;stroke-linecap:butt;stroke-linejoin:miter;stroke-opacity:1"
       d="m 104.46602,40.612609 c 0.0589,0.170362 0.15841,0.331763 0.17686,0.51109 0.007,0.06821 -0.0707,0.117494 -0.10611,0.176239 -0.0354,0.05875 -0.0711,0.117255 -0.10612,0.176239 -0.29419,0.49612 0.0323,-0.04776 -0.22992,0.387723 -0.0354,0.05875 -0.073,0.116202 -0.10611,0.176239 -0.0318,0.05754 -0.0589,0.117491 -0.0884,0.176239"
       id="path6626" />
    <path
       style="fill:none;stroke:#000000;stroke-width:0.264583px;stroke-linecap:butt;stroke-linejoin:miter;stroke-opacity:1"
       d="m 104.749,41.370434 c -0.0413,0.0059 -0.0858,5.29e-4 -0.1238,0.01762 -0.0303,0.01373 -0.0472,0.047 -0.0707,0.0705 -0.20486,0.204147 -0.004,0.0037 -0.22991,0.229108 -0.0413,0.04112 -0.084,0.08085 -0.12381,0.123367 -0.183,0.195387 -0.34163,0.415845 -0.4952,0.63446 -0.14649,0.208534 -0.29759,0.41321 -0.42446,0.634458"
       id="path6628" />
    <path
       style="fill:none;stroke:#000000;stroke-width:0.264583px;stroke-linecap:butt;stroke-linejoin:miter;stroke-opacity:1"
       d="m 106.23462,38.162895 c 0.0236,0.03525 0.0494,0.06907 0.0707,0.105744 0.16001,0.275407 0.28695,0.569036 0.40678,0.863568 0.0439,0.107923 0.18682,0.478951 0.22992,0.59921 0.25659,0.715952 -0.09,-0.206518 0.14148,0.370099 0.0236,0.05868 0.0265,0.114506 0.0708,0.158615"
       id="path6630" />
    <path
       style="fill:none;stroke:#000000;stroke-width:0.264583px;stroke-linecap:butt;stroke-linejoin:miter;stroke-opacity:1"
       d="m 106.23462,38.162895 c 0.0766,0 0.15359,0.0069 0.22992,0 0.0131,-0.0011 -0.0248,-0.0097 -0.0354,-0.01762 -0.0267,-0.01992 -0.0472,-0.047 -0.0707,-0.0705 -0.0242,-0.02408 -0.0903,-0.07947 -0.10611,-0.105743 -0.0369,-0.06122 -0.0235,-0.139176 0.0177,-0.19386 0.14925,-0.198308 0.48256,-0.233408 0.70744,-0.193863 0.0871,0.01532 0.25827,0.06402 0.31834,0.140991 0.11941,0.152982 0.0749,0.386374 0,0.546338 -0.0504,0.10754 -0.12655,0.187132 -0.19454,0.281983 -0.05,0.06976 -0.0164,0.03399 -0.0531,0.0705 -0.006,0.0059 -0.026,0.01762 -0.0177,0.01762 0.0132,0 0.0231,-0.01275 0.0354,-0.01762 0.0468,-0.01865 0.0932,-0.03845 0.14149,-0.05287 0.0698,-0.02088 0.14181,-0.03398 0.21223,-0.05287 0.0829,-0.02223 0.16356,-0.05317 0.2476,-0.0705 0.0874,-0.01802 0.17659,-0.02577 0.26529,-0.03525 0.25868,-0.02762 0.91258,-0.08926 0.70744,0.387723 -0.0617,0.143468 -0.21388,0.301244 -0.31835,0.40535 -0.21483,0.21408 -0.26861,0.246134 -0.53058,0.422971 -0.0812,0.05484 -0.16262,0.109762 -0.2476,0.158615 -0.0701,0.04031 -0.28243,0.140774 -0.37141,0.176239 -0.0346,0.01381 -0.10391,-0.0019 -0.10611,0.03525 -0.005,0.09276 0.059,0.176236 0.0884,0.264356"
       id="path6632" />
    <path
       style="fill:none;stroke:#000000;stroke-width:0.264583px;stroke-linecap:butt;stroke-linejoin:miter;stroke-opacity:1"
       d="m 104.90817,37.299327 c 0.12435,-0.03098 0.17748,-0.04038 0.30066,-0.08812 0.18413,-0.07135 0.35762,-0.170342 0.53058,-0.264356 0.30416,-0.165322 0.59862,-0.350626 0.8843,-0.546338 0.0418,-0.02863 0.0821,-0.05936 0.1238,-0.08812 0.0744,-0.0513 0.1482,-0.09481 0.21223,-0.158615 0.0127,-0.01262 0.0281,-0.03216 0.0177,-0.05287 -0.0241,-0.04794 -0.1506,-0.006 -0.17686,0 -0.0474,0.0109 -0.0937,0.02633 -0.14149,0.03525 -0.12847,0.024 -0.26023,0.02952 -0.38909,0.05287 -0.11635,0.02109 -0.0522,0.01762 -0.14149,0.01762 -0.0177,0 -0.0354,0 -0.0531,0 -0.006,0 -0.0236,0 -0.0177,0 0.0833,0 0.0625,0.0024 0.17686,-0.01762 0.0592,-0.01043 0.11823,-0.02196 0.17686,-0.03525 0.0711,-0.01611 0.14149,-0.03525 0.21223,-0.05287 0.0825,-0.01762 0.16521,-0.03463 0.2476,-0.05287 0.20758,-0.04597 0.212,-0.06028 0.40678,-0.0705 0.0516,-0.0027 0.25797,-0.01246 0.31835,0.01762 0.0453,0.02254 0.0664,0.09804 0.0707,0.140992 0.0207,0.206668 -0.12189,0.384865 -0.22992,0.546338"
       id="path6634" />
    <path
       style="fill:none;stroke:#000000;stroke-width:0.264583px;stroke-linecap:butt;stroke-linejoin:miter;stroke-opacity:1"
       d="m 103.71894,54.288704 c 0.1567,-0.01363 0.30747,0.02394 0.45984,0.05287 0.48392,0.09185 -0.0801,-0.01947 0.3714,0.0705 0.0589,0.01175 0.11741,0.02635 0.17686,0.03525 0.0586,0.0088 0.11815,0.0096 0.17686,0.01762 0.71345,0.09694 -0.2592,-0.02432 0.40678,0.0705 0.1173,0.0167 0.23587,0.02289 0.35372,0.03525 0.61254,0.06782 -0.21299,-0.01767 0.28297,0.01762 0.0416,0.003 0.0822,0.01466 0.1238,0.01762 0.0412,0.0029 0.0825,0 0.1238,0 0.12381,0 0.24761,0 0.37141,0 0.0943,0 0.18865,0 0.28297,0 0.0118,0 0.027,0.0083 0.0354,0 0.004,-0.0042 0.004,-0.01347 0,-0.01762 -0.004,-0.0042 -0.0118,0 -0.0177,0 -0.006,0 -0.0124,-0.0026 -0.0177,0 -0.007,0.0037 -0.0107,0.01302 -0.0177,0.01762 -0.12333,0.08192 0.0867,-0.07804 -0.0884,0.05287 -0.13754,0.102793 -0.27314,0.209428 -0.40677,0.31723 -0.0651,0.05253 -0.12785,0.108098 -0.19455,0.158612 -0.15182,0.114978 -0.35423,0.248896 -0.51289,0.352478 -0.0821,0.05358 -0.1632,0.108773 -0.2476,0.158613 -0.0749,0.04423 -0.15414,0.08069 -0.22992,0.123369 -0.17753,0.09999 -0.15659,0.09714 -0.31835,0.193861 -0.0408,0.02437 -0.0821,0.04782 -0.1238,0.0705 -0.0418,0.0227 -0.0898,0.03665 -0.1238,0.07049"
       id="path6636" />
    <path
       style="fill:none;stroke:#000000;stroke-width:0.264583px;stroke-linecap:butt;stroke-linejoin:miter;stroke-opacity:1"
       d="m 91.639439,44.154999 c -0.0413,0.03525 -0.0832,0.06976 -0.12381,0.105743 -0.0464,0.0411 -0.0764,0.0705 -0.14148,0.0705 -0.0118,0 -0.0239,0.0029 -0.0354,0 -0.0881,-0.02193 -0.16031,-0.13062 -0.21224,-0.193863 -0.1285,-0.156512 -0.0578,-0.0618 -0.19454,-0.246732 -0.17114,-0.231437 -0.11334,-0.149783 -0.26529,-0.387726 -0.0607,-0.09507 -0.17369,-0.268216 -0.22992,-0.370102 -0.0318,-0.05754 -0.0564,-0.118829 -0.0884,-0.176236 -0.14221,-0.25508 -0.0391,-0.02551 -0.15917,-0.281982 -0.0539,-0.115009 -0.0943,-0.234977 -0.14149,-0.352476 -10e-4,-0.0036 -0.0459,-0.08812 -0.0354,-0.08812 0.01,0 0.0483,0.0634 0.0531,0.0705 0.0196,0.02938 0.17685,0.264343 0.17686,0.264356 0.12641,0.184105 0.26707,0.354695 0.40677,0.528717 0.0472,0.05875 0.0947,0.117187 0.14149,0.176236 0.0417,0.05257 0.0795,0.108218 0.1238,0.158616 0.0384,0.04378 0.0841,0.08075 0.1238,0.123367 0.0298,0.03195 0.16138,0.188709 0.19455,0.229108 0.0532,0.06473 0.0999,0.13476 0.15917,0.193863 0.006,0.0059 0.009,0.01762 0.0177,0.01762 0.0117,0 -0.003,-0.02384 0,-0.03524 0.008,-0.03198 0.0443,-0.122336 0.0531,-0.140991 0.0396,-0.08457 0.17308,-0.341951 0.21223,-0.40535 0.0489,-0.07912 0.10929,-0.150627 0.15918,-0.229111 0.0622,-0.09787 0.11444,-0.201864 0.17685,-0.299603 0.1569,-0.24569 0.34336,-0.468432 0.5129,-0.704953 0.0418,-0.05835 0.0817,-0.11811 0.1238,-0.176239 0.0736,-0.10154 0.12599,-0.161894 0.19455,-0.264359 0.23064,-0.344752 -0.0491,0.05085 0.17685,-0.264356"
       id="path6638" />
    <path
       style="fill:none;stroke:#000000;stroke-width:0.264583px;stroke-linecap:butt;stroke-linejoin:miter;stroke-opacity:1"
       d="m 106.00038,27.667809 c -0.41825,0.238162 -0.87065,0.412565 -1.32645,0.563965 -0.43057,0.14302 -0.86757,0.289287 -1.2557,0.528714 -0.0542,0.03344 -0.10727,0.0688 -0.15917,0.105743 -0.0307,0.02185 -0.0743,0.03551 -0.0884,0.07049 -0.0133,0.03316 0.0117,0.07049 0.0177,0.105743 0.27506,-0.03019 0.48268,0.08756 0.72513,0.193864 0.0822,0.03604 0.16669,0.06692 0.2476,0.105743 0.30619,0.146907 0.58472,0.341444 0.86661,0.528715"
       id="path6640" />
    <path
       style="fill:none;stroke:#000000;stroke-width:0.264583px;stroke-linecap:butt;stroke-linejoin:miter;stroke-opacity:1"
       d="m 116.43514,40.762313 c -0.0236,0.04112 -0.0557,0.07841 -0.0708,0.123367 -0.0208,0.0623 -0.0234,0.129281 -0.0354,0.193863 -0.0439,0.236238 -0.0613,0.34617 -0.12381,0.581588 -0.0859,0.323485 -0.19985,0.636437 -0.35372,0.934062 -0.0496,0.09588 -0.0991,0.192272 -0.15917,0.281982 -0.0582,0.08705 -0.1286,0.165367 -0.19455,0.246732 -0.14261,0.175948 -0.28743,0.34957 -0.47752,0.475845"
       id="path6642" />
    <path
       style="fill:none;stroke:#000000;stroke-width:0.264583px;stroke-linecap:butt;stroke-linejoin:miter;stroke-opacity:1"
       d="m 116.43514,40.762313 c 0.0884,0.129241 0.18568,0.25287 0.26529,0.387725 0.0388,0.0658 0.0626,0.139558 0.0884,0.211487 0.0637,0.177776 0.10498,0.348702 0.15917,0.528714 0.0396,0.131464 0.12949,0.414171 0.17686,0.546341 0.058,0.161727 0.11097,0.283017 0.17686,0.440595"
       id="path6644" />
    <path
       style="fill:none;stroke:#000000;stroke-width:0.264583px;stroke-linecap:butt;stroke-linejoin:miter;stroke-opacity:1"
       d="m 105.59365,47.797509 c -0.0505,-0.04196 -0.10103,-0.09026 -0.15917,-0.123364 -0.0579,-0.03294 -0.096,-0.04532 -0.15917,-0.0705 -0.1083,-0.04317 -0.22015,-0.08751 -0.33604,-0.105743 -0.1976,-0.03109 -0.40355,-0.02365 -0.60132,0 -0.077,0.0092 -0.15503,0.01516 -0.22992,0.03525 -0.22687,0.06087 -0.47624,0.200318 -0.65438,0.352475 -0.22443,0.191693 -0.37754,0.436943 -0.49521,0.704953 -0.0864,0.196911 -0.13835,0.349552 -0.15917,0.563962 -0.0152,0.156239 0.004,0.375798 0.0354,0.528717 0.0401,0.193326 0.0782,0.298852 0.19455,0.458219 0.0467,0.06394 0.1031,0.120361 0.15917,0.176239 0.16849,0.167891 0.28613,0.262718 0.49521,0.387723 0.10856,0.06491 0.2194,0.127304 0.33603,0.176239 0.30883,0.129577 0.67402,0.192759 1.0081,0.158615 0.17907,-0.01831 0.48769,-0.107842 0.65438,-0.176239 0.17883,-0.07338 0.40822,-0.208831 0.56595,-0.317228 0.0796,-0.05469 0.15995,-0.109686 0.22992,-0.176239 0.0877,-0.08345 0.27017,-0.341392 0.31835,-0.440597 0.0463,-0.09531 0.0789,-0.197207 0.10611,-0.299604 0.15025,-0.565605 -0.003,-1.07742 -0.2476,-1.586145 -0.1035,-0.214874 -0.1854,-0.361588 -0.33603,-0.546338 -0.0343,-0.04204 -0.0662,-0.08665 -0.10612,-0.123367 -0.0632,-0.05808 -0.22711,-0.15425 -0.30066,-0.176239 -0.0568,-0.01696 -0.11791,-0.01175 -0.17686,-0.01762"
       id="path6646" />
    <path
       style="fill:none;stroke:#000000;stroke-width:0.264583px;stroke-linecap:butt;stroke-linejoin:miter;stroke-opacity:1"
       d="m 104.74473,49.119299 c 0.006,-0.03525 0.005,-0.0723 0.0177,-0.105743 0.006,-0.01558 0.0224,-0.02487 0.0354,-0.03525 0.0482,-0.03844 0.11364,-0.06547 0.17686,-0.05287 0.0536,0.01069 0.0654,0.05757 0.0707,0.105743 0.005,0.04893 -0.002,0.15031 -0.0177,0.193861 -0.0117,0.03221 -0.034,0.05962 -0.0531,0.08812 -0.0492,0.07351 -0.11851,0.160674 -0.21223,0.176239 -0.0174,0.0029 -0.0354,0 -0.0531,0 -0.0279,0 -0.0928,0.0046 -0.10611,-0.03525 -0.004,-0.01114 0,-0.02349 0,-0.03525 0,-0.123642 0.12139,-0.140028 0.21223,-0.176238 0.0122,-0.0049 0.0229,-0.01347 0.0354,-0.01762 0.0112,-0.0037 0.0354,0.0118 0.0354,0 0,-0.0059 -0.0118,0 -0.0177,0 -0.0177,0 -0.0354,0 -0.0531,0 -0.026,0 -0.18248,0.006 -0.19455,0 -0.0111,-0.0055 -0.0307,-0.03994 -0.0177,-0.05287 0.009,-0.0093 0.023,-0.01302 0.0354,-0.01762 0.0349,-0.01304 0.0689,-0.03277 0.10611,-0.03525 0.0768,-0.0051 0.23659,0.02572 0.31835,0.05287 0.0184,0.0061 0.0627,0.02402 0.0531,0.05287 -0.0154,0.04586 -0.0629,0.08728 -0.10612,0.105743 -0.0729,0.03113 -0.23957,0.04646 -0.31834,0.03525 -0.0387,-0.0055 -0.0788,-0.02561 -0.10612,-0.05287"
       id="path6648" />
    <path
       style="fill:none;stroke:#000000;stroke-width:0.264583px;stroke-linecap:butt;stroke-linejoin:miter;stroke-opacity:1"
       d="m 109.29002,47.533154 c -0.0768,0.0484 -0.0404,-0.107419 -0.0884,-0.123368 -0.0112,-0.0037 -0.0236,0 -0.0354,0 -0.11465,0 -0.0811,-0.0042 -0.21223,0.01762 -0.065,0.0108 -0.12969,0.02349 -0.19454,0.03525 -0.0648,0.01175 -0.13116,0.0172 -0.19455,0.03525 -0.061,0.01738 -0.11768,0.04756 -0.17686,0.07049 -0.0469,0.0182 -0.0964,0.03042 -0.14149,0.05287 -0.0934,0.04653 -0.28885,0.19186 -0.31834,0.299606 -0.0313,0.114403 0.0381,0.216707 0.1238,0.281982 0.20662,0.157449 0.26758,0.17263 0.53058,0.264359 0.34006,0.118602 0.69286,0.195728 1.02578,0.334851 0.20281,0.08475 0.45165,0.199647 0.60133,0.370102 0.13823,0.157422 0.19299,0.358666 0.14149,0.563962 -0.0575,0.228986 -0.22164,0.42559 -0.40678,0.563962 -0.2851,0.213077 -0.60472,0.347165 -0.95505,0.405347 -0.0642,0.01066 -0.12969,0.01175 -0.19454,0.01762 -0.12628,0.01143 -0.22812,0.02656 -0.35372,0.01762 -0.03,-0.0021 -0.059,-0.01175 -0.0884,-0.01762"
       id="path6650" />
    <path
       style="fill:none;stroke:#000000;stroke-width:0.264583px;stroke-linecap:butt;stroke-linejoin:miter;stroke-opacity:1"
       d="m 107.15002,47.11018 c 0.0413,-0.03525 0.0781,-0.07647 0.1238,-0.105743 0.0517,-0.03314 0.23507,-0.09067 0.28297,-0.105744 0.0775,-0.02437 0.37096,-0.110037 0.42446,-0.123364 3e-5,-8e-6 0.49519,-0.105738 0.49521,-0.105744 0.1421,-0.03268 0.2817,-0.0761 0.42447,-0.105743 0.0702,-0.01458 0.14166,-0.02246 0.21223,-0.03525 0.0592,-0.01071 0.11765,-0.02484 0.17686,-0.03525 0.1018,-0.01791 0.12024,-0.01233 0.21223,-0.03525 0.0181,-0.0045 0.035,-0.01312 0.0531,-0.01762 0,0 0.0354,0 0.0354,0 0.0455,-0.04531 -0.20775,-0.0873 -0.21223,-0.08812 -0.1116,-0.02021 -0.22417,-0.03429 -0.33604,-0.05287 -0.0354,-0.0059 -0.0715,-0.0082 -0.10612,-0.01762 -0.0306,-0.0083 -0.058,-0.02617 -0.0884,-0.03525 -0.0576,-0.01722 -0.11817,-0.02225 -0.17686,-0.03525 -0.0542,-0.01201 -0.10381,-0.03525 -0.15918,-0.03525 -0.0118,0 -0.0236,0 -0.0354,0 -0.006,0 -0.0177,-0.0059 -0.0177,0 0,0.0059 0.0118,0 0.0177,0 0.0236,0 0.0473,-0.0026 0.0707,0 0.0299,0.0033 0.0589,0.01228 0.0884,0.01762 0.0353,0.0064 0.0712,0.0096 0.10611,0.01762 0.0945,0.02172 0.19137,0.05929 0.28298,0.08812 0.15295,0.04813 0.30657,0.094 0.45983,0.140991 0.18657,0.05721 0.0325,0.01691 0.17686,0.05287 0.0365,0.0091 0.14607,0.02154 0.1238,0.08812 -0.0194,0.05792 -0.13514,0.152289 -0.17686,0.193863 -0.072,0.07175 -0.11636,0.131103 -0.17686,0.211484"
       id="path6652" />
  </g>
</svg>
