<?xml version="1.0" encoding="UTF-8" standalone="no"?>
<!-- Created with Inkscape (http://www.inkscape.org/) -->

<svg
   width="148mm"
   height="105mm"
   viewBox="0 0 148 105"
   version="1.1"
   id="svg12111"
   sodipodi:docname="phi-12-10-4.svg"
   inkscape:version="1.1.2 (0a00cf5339, 2022-02-04)"
   xmlns:inkscape="http://www.inkscape.org/namespaces/inkscape"
   xmlns:sodipodi="http://sodipodi.sourceforge.net/DTD/sodipodi-0.dtd"
   xmlns="http://www.w3.org/2000/svg"
   xmlns:svg="http://www.w3.org/2000/svg">
  <sodipodi:namedview
     id="namedview12113"
     pagecolor="#ffffff"
     bordercolor="#cccccc"
     borderopacity="1"
     inkscape:pageshadow="0"
     inkscape:pageopacity="1"
     inkscape:pagecheckerboard="0"
     inkscape:document-units="mm"
     showgrid="false"
     inkscape:zoom="2.7972783"
     inkscape:cx="263.64913"
     inkscape:cy="171.59537"
     inkscape:window-width="2160"
     inkscape:window-height="1375"
     inkscape:window-x="0"
     inkscape:window-y="0"
     inkscape:window-maximized="1"
     inkscape:current-layer="layer1" />
  <defs
     id="defs12108">
    <inkscape:path-effect
       effect="bspline"
       id="path-effect12700"
       is_visible="true"
       lpeversion="1"
       weight="33.333333"
       steps="2"
       helper_size="0"
       apply_no_weight="true"
       apply_with_weight="true"
       only_selected="false" />
    <inkscape:path-effect
       effect="bspline"
       id="path-effect12583"
       is_visible="true"
       lpeversion="1"
       weight="33.333333"
       steps="2"
       helper_size="0"
       apply_no_weight="true"
       apply_with_weight="true"
       only_selected="false" />
    <inkscape:path-effect
       effect="bspline"
       id="path-effect12207"
       is_visible="true"
       lpeversion="1"
       weight="33.333333"
       steps="2"
       helper_size="0"
       apply_no_weight="true"
       apply_with_weight="true"
       only_selected="false" />
  </defs>
  <g
     inkscape:label="Layer 1"
     inkscape:groupmode="layer"
     id="layer1">
    <path
       style="fill:none;stroke:#000000;stroke-width:0.327338px;stroke-linecap:butt;stroke-linejoin:miter;stroke-opacity:1"
       d="m 46.535607,13.709859 c 0,14.151111 0,28.301885 0,42.452322"
       id="path12205"
       inkscape:path-effect="#path-effect12207"
       inkscape:original-d="m 46.535607,13.709859 c 3.19e-4,14.151111 3.19e-4,28.301885 0,42.452322" />
    <path
       style="fill:none;stroke:#000000;stroke-width:0.327338px;stroke-linecap:butt;stroke-linejoin:miter;stroke-opacity:1"
       d="M 46.535607,56.162181 C 39.111104,63.994968 31.686637,71.827717 24.262152,79.660485"
       id="path12581"
       inkscape:path-effect="#path-effect12583"
       inkscape:original-d="M 46.535607,56.162181 C 39.111439,63.995285 24.262152,79.660485 24.262152,79.660485" />
    <path
       style="fill:none;stroke:#000000;stroke-width:0.327338px;stroke-linecap:butt;stroke-linejoin:miter;stroke-opacity:1"
       d="m 46.535607,56.162181 c 12.134907,0 24.269495,0 36.403761,0"
       id="path12698"
       inkscape:path-effect="#path-effect12700"
       inkscape:original-d="m 46.535607,56.162181 c 12.134907,3.36e-4 24.269495,3.36e-4 36.403761,0" />
    <path
       style="fill:none;stroke:#000000;stroke-width:0.327338px;stroke-linecap:butt;stroke-linejoin:miter;stroke-opacity:1"
       d="m 24.262152,79.660485 c 0.261517,-0.0756 0.856203,0.04913 0.784552,-0.226777 -0.07166,-0.2759 -0.523035,0.151184 -0.784552,0.226777"
       id="path12815" />
    <path
       style="fill:none;stroke:#000000;stroke-width:0.327338px;stroke-linecap:butt;stroke-linejoin:miter;stroke-opacity:1"
       d="m 24.262152,79.660485 4.997477,-1.312318"
       id="path12817" />
    <path
       style="fill:none;stroke:#000000;stroke-width:0.327338px;stroke-linecap:butt;stroke-linejoin:miter;stroke-opacity:1"
       d="m 24.262152,79.660485 c 0.110068,-0.24928 0.231834,-0.49318 0.330218,-0.747841 0.01036,-0.0269 -0.0631,0.02051 -0.08261,0 -0.0098,-0.01017 0,-0.02895 0,-0.04341 0,-0.01446 -0.0026,-0.02925 0,-0.04342 0.03612,-0.189849 0.06372,-0.228555 0.123912,-0.434219 0.02947,-0.100707 0.05091,-0.203994 0.08261,-0.303949 0.110779,-0.349387 0.241634,-0.700197 0.371728,-1.042114 0.07788,-0.204704 0.172534,-0.402118 0.247818,-0.6079 0.06251,-0.170859 0.11014,-0.347371 0.16521,-0.521054"
       id="path12852" />
    <path
       style="fill:none;stroke:#000000;stroke-width:0.327338px;stroke-linecap:butt;stroke-linejoin:miter;stroke-opacity:1"
       d="m 77.336505,55.074279 c 0.23222,0.04395 0.469368,0.0482 0.702161,0.08684 0.290705,0.04825 0.577401,0.12067 0.867363,0.173687 0.330033,0.06035 0.663318,0.101863 0.991279,0.173687 0.333413,0.07303 0.663276,0.163979 0.991272,0.260528 0.180319,0.05308 0.360735,0.106997 0.536946,0.173687 0.348766,0.131992 0.683813,0.302216 1.032578,0.434213 0.163863,0.06201 0.332878,0.108509 0.495632,0.173686 0.283779,0.113656 0.542102,0.278843 0.826067,0.39079 0.04076,0.01608 0.08347,0.02643 0.123908,0.04342 0.02858,0.01195 0.05341,0.03318 0.08261,0.04342 0.01307,0.0046 0.0413,0.01452 0.0413,0 0,-0.07097 -0.244861,-0.11457 -0.371724,-0.130264 -0.40212,-0.04974 -0.611772,-0.05867 -1.032578,-0.04342 -0.868402,0.03148 -1.714739,0.19314 -2.560796,0.390796 -0.613554,0.14334 -1.228155,0.288778 -1.817345,0.521054"
       id="path12854" />
    <path
       style="fill:none;stroke:#000000;stroke-width:0.327338px;stroke-linecap:butt;stroke-linejoin:miter;stroke-opacity:1"
       d="m 82.003769,60.805914 c 0.08261,0.144735 0.151514,0.299223 0.247815,0.434211 0.111176,0.155828 0.250656,0.286829 0.371733,0.434213 0.293797,0.357632 0.578244,0.723693 0.867364,1.085538 0.191576,0.239763 0.592304,0.745782 0.784763,0.998689 0.159777,0.209965 0.322478,0.449056 0.495637,0.651322 0.09015,0.105294 0.193418,0.203345 0.289122,0.303955"
       id="path12856" />
    <path
       style="fill:none;stroke:#000000;stroke-width:0.327338px;stroke-linecap:butt;stroke-linejoin:miter;stroke-opacity:1"
       d="m 84.771081,61.196704 c -0.08261,-0.02895 -0.164422,-0.113148 -0.247821,-0.08684 -0.08428,0.0266 -0.110743,0.144228 -0.165214,0.217107 -0.406394,0.543752 -0.208884,0.299001 -0.702151,0.91185 -0.163986,0.203742 -0.333773,0.402282 -0.49564,0.6079 -2.079835,2.642009 1.045029,-1.270737 -0.991272,1.25922 -0.138912,0.172588 -0.268773,0.35343 -0.413038,0.521058 -0.117585,0.13663 -0.247816,0.260529 -0.371724,0.390794"
       id="path12858" />
    <path
       style="fill:none;stroke:#000000;stroke-width:0.327338px;stroke-linecap:butt;stroke-linejoin:miter;stroke-opacity:1"
       d="m 33.224733,79.781078 c 0.386753,-0.353633 0.858032,-0.499764 1.3217,-0.694743 0.137677,-0.0579 0.275356,-0.115791 0.413032,-0.173691 0.12391,-0.04342 0.250445,-0.07926 0.371729,-0.130258 0.08574,-0.03605 0.161049,-0.0971 0.247819,-0.130268 0.143291,-0.05478 0.228301,-0.04342 0.37173,-0.04342 0.0413,0 0.08694,-0.01943 0.123907,0 0.160494,0.08436 -0.09141,0.664966 -0.123907,0.738167 -0.332809,0.74973 -0.828357,1.402475 -1.321703,2.040808 -0.72334,0.935924 0.197656,-0.306003 -0.454334,0.607899 -0.0529,0.07415 -0.116296,0.139971 -0.165214,0.217107 -0.03414,0.05384 -0.05206,0.117493 -0.08261,0.17369 -0.0039,0.007 -0.165593,0.216699 -0.123907,0.260525 0.140036,0.14722 0.582605,-0.0057 0.702156,-0.04342 0.407786,-0.12861 0.516981,-0.21176 0.908667,-0.390793 0.164143,-0.07503 0.330424,-0.144739 0.495637,-0.217107 0.302086,-0.132322 0.609599,-0.251054 0.90867,-0.390793 0.251857,-0.117671 0.496667,-0.261067 0.74346,-0.390796"
       id="path12860" />
    <path
       style="fill:none;stroke:#000000;stroke-width:0.327338px;stroke-linecap:butt;stroke-linejoin:miter;stroke-opacity:1"
       d="m 33.802976,82.169254 c 0.0052,-0.103426 -0.239386,-0.0691 -0.289122,-0.173685 -0.0061,-0.01295 0,-0.02895 0,-0.04342 0,-0.225812 0.408478,-0.36669 0.536944,-0.434216 1.121349,-0.589435 -0.366583,0.180254 0.908667,-0.434209 1.044398,-0.503228 -0.06842,-0.03244 1.032577,-0.477642"
       id="path12862" />
    <path
       style="fill:none;stroke:#000000;stroke-width:0.327338px;stroke-linecap:butt;stroke-linejoin:miter;stroke-opacity:1"
       d="m 46.535607,13.709859 c 0.07717,0.133318 0.158897,0.263824 0.231531,0.399954 0.0095,0.01787 -0.02753,-0.02895 -0.0413,-0.04342 -0.01704,-0.01793 -0.10201,-0.130265 -0.123908,-0.130265 -0.01371,0 0,0.02895 0,0.04342 0,0.04342 0.0041,0.08706 0,0.130263 -0.0096,0.101838 -0.02126,0.203808 -0.0413,0.30395 -0.02903,0.144946 -0.264184,1.093726 -0.289125,1.17238 -0.22051,0.695459 -0.333917,0.859144 -0.619542,1.519747 -0.995151,2.391264 0.373818,-0.865962 -0.578249,1.302644 -0.217391,0.495175 -0.385713,1.013749 -0.578243,1.519751"
       id="path12864" />
    <path
       style="fill:none;stroke:#000000;stroke-width:0.327338px;stroke-linecap:butt;stroke-linejoin:miter;stroke-opacity:1"
       d="m 46.535607,13.709859 c 0.22862,-0.08379 0.458854,-0.162837 0.685865,-0.251367 0.02581,-0.01004 -0.05796,-0.01295 -0.08261,0 -0.0174,0.0091 -0.02511,0.03207 -0.0413,0.04342 -0.13118,0.09194 -0.08154,-0.02478 -0.165212,0.217104 -0.15226,0.440184 -0.138495,0.929633 -0.123912,1.389487 0.01859,0.585666 0.04393,0.76321 0.165214,1.346062 0.04852,0.233206 0.09342,0.468318 0.165213,0.694745 0.190709,0.601467 0.524556,1.150063 0.826062,1.693437"
       id="path12866" />
    <path
       style="fill:none;stroke:#000000;stroke-width:0.327338px;stroke-linecap:butt;stroke-linejoin:miter;stroke-opacity:1"
       d="m 50.856149,12.546638 c -0.01377,0.08684 -0.04772,0.172743 -0.0413,0.260531 0.0057,0.07712 0.197983,0.671677 0.206513,0.694745 0.169906,0.459301 0.420934,0.884396 0.867364,1.085533 0.297176,0.133893 0.715552,0.151391 0.949977,-0.130263 0.05283,-0.06347 0.08585,-0.142789 0.123908,-0.217107 0.142679,-0.278564 0.23108,-0.461239 0.28912,-0.781585 0.05128,-0.28301 0.0413,-0.54224 0.0413,-0.825008 0,-0.594453 0.02336,-0.0697 -0.0413,-0.477636 -0.01288,-0.08129 0.01654,-0.130264 0,-0.130264 -0.06815,0 -0.04129,0.14608 -0.04129,0.260527 0,0.712946 -0.01824,0.454479 0.08261,1.302643 0.07584,0.637785 0.168739,1.273197 0.247816,1.910543 0.04307,0.347133 0.09507,0.693347 0.123917,1.042116 0.02626,0.317548 0.03371,0.636617 0.04129,0.955271 0.01501,0.630881 0.01731,0.867181 -0.08261,1.476329 -0.0312,0.190311 -0.07755,0.377634 -0.123907,0.564477 -0.07198,0.290065 -0.155579,0.685418 -0.454335,0.825007 -0.538138,0.251437 -0.873193,-0.601935 -0.991282,-0.955271 -0.371659,-1.11205 -0.323467,-2.311843 0.123914,-3.386871 0.229817,-0.552238 0.343915,-0.670828 0.660849,-1.128958"
       id="path12868" />
    <path
       style="fill:none;stroke:#000000;stroke-width:0.327338px;stroke-linecap:butt;stroke-linejoin:miter;stroke-opacity:1"
       d="m 52.508274,26.441501 c -0.02754,0.08684 -0.07778,0.169097 -0.08261,0.260525 -0.01692,0.320148 0.133915,1.052579 0.165214,1.302644 0.0361,0.288429 0.05364,0.57911 0.08261,0.868432 0.04078,0.407372 0.110743,1.061174 0.165214,1.476327 0.02473,0.188592 0.06014,0.375569 0.08261,0.564477 0.03872,0.325688 0.04824,0.637049 0.123917,0.955269"
       id="path12870" />
    <path
       style="fill:none;stroke:#000000;stroke-width:0.327338px;stroke-linecap:butt;stroke-linejoin:miter;stroke-opacity:1"
       d="m 52.508274,26.441501 c 0,0.02895 -0.0268,0.0931 0,0.08684 0.132316,-0.03089 0.246768,-0.11837 0.371734,-0.173687 1.478247,-0.654341 -0.832725,0.404861 0.90867,-0.434213 0.162718,-0.07841 0.331488,-0.142082 0.495631,-0.217109 0.529177,-0.241875 1.041033,-0.531518 1.610827,-0.651322"
       id="path12872" />
    <path
       style="fill:none;stroke:#000000;stroke-width:0.327338px;stroke-linecap:butt;stroke-linejoin:miter;stroke-opacity:1"
       d="m 52.797396,29.090205 c 0.06884,-0.115791 0.123408,-0.242518 0.206519,-0.347367 0.05648,-0.07125 0.138288,-0.115003 0.206521,-0.173687 0.377356,-0.324582 0.126723,-0.14639 0.619538,-0.434217 0.468242,-0.273476 0.944858,-0.535685 1.445617,-0.738164 0.08128,-0.03285 0.167425,-0.05163 0.247815,-0.08684 0.314152,-0.165127 0.16209,-0.09421 0.454335,-0.217102"
       id="path12874" />
    <path
       style="fill:none;stroke:#000000;stroke-width:0.327338px;stroke-linecap:butt;stroke-linejoin:miter;stroke-opacity:1"
       d="m 53.045225,31.869175 c -0.05507,-0.11579 -0.187258,-0.219923 -0.165217,-0.347369 0.01657,-0.09579 0.164129,-0.08921 0.247815,-0.130265 0.122882,-0.06028 0.24918,-0.112651 0.371733,-0.173684 0.623287,-0.310382 1.22423,-0.66944 1.858636,-0.955273 0.533747,-0.24048 1.079892,-0.446669 1.610827,-0.694745"
       id="path12876" />
    <path
       style="fill:none;stroke:#000000;stroke-width:0.327338px;stroke-linecap:butt;stroke-linejoin:miter;stroke-opacity:1"
       d="m 51.021362,25.182276 c 0.08261,-0.130265 0.142589,-0.280164 0.247823,-0.39079 0.09569,-0.100593 0.685782,-0.453427 0.784755,-0.521057 0.140891,-0.09627 0.272144,-0.207676 0.413036,-0.303951 0.134631,-0.092 0.275354,-0.173685 0.413032,-0.260526 1.02e-4,-6.7e-5 0.825953,-0.520997 0.826059,-0.521061 0.107659,-0.06288 0.221762,-0.112753 0.330426,-0.173684 0.213734,-0.119831 0.412587,-0.260246 0.619549,-0.390796 0.04042,-0.02548 0.125215,-0.04204 0.08261,-0.08684 -0.03038,-0.03195 -0.233965,0.03979 -0.247815,0.04342 -0.23395,0.06149 -0.480487,0.111178 -0.70215,0.217105 -0.07307,0.03491 -0.134731,0.09254 -0.20652,0.130264 -0.170912,0.08984 -0.360151,0.142766 -0.536937,0.217107 -0.02858,0.01207 -0.05341,0.03318 -0.08261,0.04342 -0.02614,0.0092 -0.08261,-0.02905 -0.08261,0 0,0.01452 0.02779,0.0027 0.0413,0 0.05566,-0.01169 0.10937,-0.03275 0.165214,-0.04342 0.09578,-0.01832 0.193434,-0.02454 0.289121,-0.04342 0.402962,-0.07943 0.400126,-0.105154 0.826068,-0.217105 0.233267,-0.06131 0.467054,-0.120721 0.702151,-0.173687 0.009,-0.002 0.466971,-0.101914 0.495641,-0.08684 0.02221,0.01169 -0.01348,0.09063 -0.08261,0.173687 -0.141066,0.169491 -0.297408,0.324447 -0.454336,0.477635 -0.10725,0.10471 -0.226913,0.195131 -0.330423,0.303951 -0.05301,0.05572 -0.390861,0.484404 -0.454336,0.564481"
       id="path12878" />
    <path
       style="fill:none;stroke:#000000;stroke-width:0.327338px;stroke-linecap:butt;stroke-linejoin:miter;stroke-opacity:1"
       d="m 25.790457,63.83017 c 0.04434,0.632036 0.269059,1.243086 0.49564,1.823701 0.114621,0.293706 0.257112,0.574722 0.371727,0.868428 0.105804,0.271116 0.192057,0.550275 0.289121,0.825005 0.204834,0.579751 0.418508,1.155647 0.619549,1.73686"
       id="path12880" />
    <path
       style="fill:none;stroke:#000000;stroke-width:0.327338px;stroke-linecap:butt;stroke-linejoin:miter;stroke-opacity:1"
       d="m 25.790457,63.83017 c -0.06884,0 -0.206516,-0.07262 -0.206516,0 3e-6,0.07262 0.173461,0.0637 0.206516,0 0.07276,-0.140237 -0.01208,-0.328009 0.0413,-0.477636 0.03423,-0.09595 0.134763,-0.147959 0.206513,-0.217107 0.225259,-0.217079 0.347933,-0.325344 0.619549,-0.477637 0.09254,-0.05189 0.186638,-0.107175 0.28912,-0.130261 0.09425,-0.02125 0.193081,-0.0084 0.289122,0 0.06996,0.0061 0.142338,0.01345 0.206517,0.04342 0.261639,0.122245 0.410912,0.464271 0.454334,0.738161 0.02037,0.128482 0.0065,0.26071 0,0.390796 -0.02199,0.438993 -0.103347,0.73836 -0.289121,1.128958 -0.06673,0.140296 -0.190875,0.390788 -0.37173,0.390788 -0.01377,0 -0.03155,0.01029 -0.0413,0 -0.05236,-0.05504 0.100419,-0.183312 0.206513,-0.260528 0.323384,-0.23536 0.489342,-0.35547 0.867364,-0.521058 0.16078,-0.07043 0.329693,-0.118179 0.49564,-0.173683 0.116031,-0.03882 0.5941,-0.192949 0.743456,-0.217106 0.06008,-0.0097 0.404709,-0.02613 0.454335,0.04342 0.06716,0.09414 0.0515,0.377028 0.0413,0.434215 -0.08703,0.487947 -0.407002,0.894173 -0.702156,1.259222 -0.177044,0.218968 -0.53594,0.629811 -0.743457,0.825009 -0.255489,0.240318 -0.543954,0.4484 -0.826061,0.651318 -0.122911,0.08842 -0.240157,0.1873 -0.371733,0.260528 -0.210468,0.117138 -0.325971,0.129331 -0.53694,0.173689"
       id="path12882" />
    <path
       style="fill:none;stroke:#000000;stroke-width:0.327338px;stroke-linecap:butt;stroke-linejoin:miter;stroke-opacity:1"
       d="m 23.725298,62.04989 c 0.420188,-0.334089 0.942764,-0.493659 1.363005,-0.825005 0.336332,-0.26519 0.602199,-0.61268 0.90867,-0.911851 0.755694,-0.737703 -0.148358,0.199388 0.53694,-0.521058 0.119824,-0.125969 0.495641,-0.448441 0.495641,-0.651322 0,-0.02895 0.01944,-0.06641 0,-0.08684 -0.02961,-0.03113 -0.233822,0.03791 -0.247822,0.04342 -0.208135,0.08205 -0.410652,0.180673 -0.619546,0.260532 -0.251811,0.09626 -0.223439,0.0658 -0.454335,0.173684 -0.05626,0.02629 -0.108634,0.06135 -0.165212,0.08684 -0.09636,0.04341 -0.200098,0.06787 -0.289122,0.13026 -0.01619,0.01131 -0.05507,0.02895 -0.0413,0.04342 0.0195,0.02051 0.05507,0 0.08261,0 0.06884,0 0.138363,0.01029 0.206517,0 0.413067,-0.06204 0.815712,-0.221665 1.197791,-0.390793 0.313195,-0.138633 0.620558,-0.296343 0.949975,-0.39079 0.0053,-0.0014 0.39589,-0.104862 0.41303,-0.08684 0.01803,0.01896 -0.0344,0.151904 -0.0413,0.173683 -0.135878,0.428542 -0.01628,0.108077 -0.247819,0.564481 -0.05795,0.114215 -0.11014,0.231581 -0.165214,0.34737"
       id="path12884" />
    <path
       style="fill:none;stroke:#000000;stroke-width:0.327338px;stroke-linecap:butt;stroke-linejoin:miter;stroke-opacity:1"
       d="m 78.337682,48.277147 c -0.08261,-0.07237 -0.171759,-0.13715 -0.247818,-0.217109 -0.02174,-0.02286 -0.02546,-0.0591 -0.0413,-0.08684 -0.02556,-0.04476 -0.06518,-0.08137 -0.08261,-0.130264 -0.01481,-0.0415 -0.08096,-0.45676 -0.08261,-0.477636 -0.01871,-0.236022 -2.96e-4,-0.258952 0.0413,-0.477635 0.01377,-0.07237 0.01667,-0.148027 0.0413,-0.21711 0.01743,-0.0489 0.05707,-0.08551 0.08261,-0.130264 0.05128,-0.08984 0.03554,-0.139604 0.165211,-0.173684 0.142324,-0.03741 0.379604,0.03456 0.495633,0.08684 0.101998,0.04595 0.19499,0.111838 0.289128,0.173687 0.485051,0.3187 0.27233,0.199528 0.743456,0.564476 0.135305,0.104812 0.277725,0.199139 0.41303,0.303952 1.118749,0.866622 -0.356149,-0.23027 0.743456,0.564476 0.09759,0.07054 0.188281,0.15187 0.289122,0.21711 0.279691,0.180945 0.671027,0.278033 0.949976,0.04342 0.06774,-0.05697 0.219097,-0.266859 0.247815,-0.34737 0.02463,-0.06908 0.02754,-0.144739 0.0413,-0.217107 0.01377,-0.07237 0.03547,-0.143551 0.0413,-0.217105 0.04342,-0.547807 -0.145318,-1.000269 -0.371733,-1.476332 -0.0413,-0.08684 -0.08569,-0.17213 -0.123907,-0.260528 -0.09836,-0.227479 -0.05538,-0.18872 -0.165214,-0.390794 -0.199413,-0.366884 0.0016,0.04643 -0.123908,-0.217105 -0.0059,-0.01233 -0.07374,-0.139592 -0.0413,-0.173683 0.0098,-0.01029 0.02754,0 0.0413,0"
       id="path12886" />
    <path
       style="fill:none;stroke:#000000;stroke-width:0.327338px;stroke-linecap:butt;stroke-linejoin:miter;stroke-opacity:1"
       d="m 76.726853,44.933696 c 0.221102,-0.03157 -0.0848,-0.212464 -0.04129,-0.303949 0.03927,-0.08256 0.13627,-0.102574 0.20651,-0.130268 0.09873,-0.03892 0.428447,-0.181786 0.49564,-0.217105 0.302644,-0.159079 0.487365,-0.298979 0.784763,-0.477636 0.149789,-0.08998 0.304546,-0.170543 0.454335,-0.260528 0.369626,-0.222049 0.735868,-0.464819 1.07388,-0.738164 0.196073,-0.158561 0.362918,-0.338111 0.53694,-0.521058 0.04234,-0.0445 0.165433,-0.129814 0.123914,-0.217105 -0.04767,-0.100224 -0.185854,-0.02172 -0.247822,0 -0.08261,0.02895 -0.165214,0.0579 -0.247819,0.08684 -0.11014,0.02895 -0.222048,0.05124 -0.330427,0.08684 -0.11226,0.03689 -0.21816,0.09339 -0.330424,0.130268 -0.679325,0.223171 9.56e-4,-0.04374 -0.619549,0.173683 -0.153602,0.05383 -0.333221,0.139538 -0.495633,0.173685 -0.04051,0.0085 -0.08261,0 -0.123914,0 -0.01377,0 -0.05507,0 -0.0413,0 0.209162,0 0.418897,-0.08063 0.619549,-0.130262 0.123561,-0.03056 0.248966,-0.05288 0.371727,-0.08684 0.606103,-0.167679 0.214892,-0.08433 0.784759,-0.260528 0.108924,-0.03367 0.221259,-0.05404 0.330427,-0.08684 0.08371,-0.02515 0.16382,-0.06276 0.247815,-0.08684 0.06774,-0.01943 0.136866,-0.03427 0.206519,-0.04342 0.06831,-0.009 0.137676,0 0.206513,0 0.01377,0 0.03155,-0.01029 0.0413,0 0.01778,0.01869 -0.03499,0.158214 -0.0413,0.173687 -0.102178,0.25065 -0.232011,0.509686 -0.371725,0.738163 -0.180661,0.295442 -0.406408,0.556128 -0.619549,0.825006"
       id="path12888" />
    <path
       style="fill:none;stroke:#000000;stroke-width:0.327338px;stroke-linecap:butt;stroke-linejoin:miter;stroke-opacity:1"
       d="m 81.683231,45.020541 c 0.04967,-0.05125 0.104912,-0.09712 0.14904,-0.153742 0.0061,-0.0079 -0.01948,0 -0.0292,0 -0.0466,0 -0.05234,0.0064 -0.08762,-0.0307 -0.0098,-0.01017 -0.02304,-0.01775 -0.0292,-0.0307 -0.004,-0.0084 -0.0013,-0.178777 0,-0.184221 0.0106,-0.04442 0.04224,-0.08031 0.05841,-0.122818 0.01144,-0.03005 0.01338,-0.06438 0.0292,-0.09212 0.02776,-0.04862 0.10631,-0.09498 0.146029,-0.122805 0.0292,-0.02047 0.05537,-0.04688 0.08762,-0.06141 0.172651,-0.07778 0.335405,-0.0064 0.496498,0.06141 0.186811,0.07856 0.36838,0.167188 0.554911,0.245628"
       id="path12890" />
    <path
       style="fill:none;stroke:#000000;stroke-width:0.327338px;stroke-linecap:butt;stroke-linejoin:miter;stroke-opacity:1"
       d="m 21.395398,66.094611 c -0.08261,-0.202634 -0.200653,-0.393008 -0.247826,-0.607898 -0.03715,-0.169209 0,-0.347375 0,-0.521062 0,-1.072553 -0.02467,-0.522314 0.08261,-1.650018 0.02754,-0.289473 0.04347,-0.58044 0.08261,-0.868424 0.110092,-0.810131 0.240215,-1.266645 0.413039,-2.084233 0.498149,-2.356638 -0.03139,-0.101634 0.578242,-2.344749 0.117428,-0.432084 0.19963,-0.874858 0.330427,-1.302644 10e-6,-3.1e-5 0.826046,-2.257881 0.826059,-2.257914 0.148801,-0.355535 0.335768,-0.691975 0.495641,-1.042119 0.170596,-0.373636 0.31934,-0.758279 0.495637,-1.12896 0.181834,-0.382314 0.385497,-0.752635 0.578243,-1.128954 0.192749,-0.376318 0.375095,-0.758777 0.578242,-1.128961 0.555623,-1.012467 0.767117,-1.290314 1.404311,-2.257914 0.966258,-1.467286 0.467854,-0.774831 1.486913,-2.084223 0.247818,-0.318426 0.48094,-0.650239 0.743457,-0.955273 1.356111,-1.57573 3.037414,-2.823527 4.708566,-3.994774 1.001591,-0.701976 2.016902,-1.359899 3.056421,-1.997385 0.330426,-0.202636 0.646497,-0.433917 0.991281,-0.6079 0.345829,-0.17451 0.712725,-0.298615 1.073889,-0.434219 0.410027,-0.153947 0.819443,-0.312504 1.239094,-0.434208 0.38009,-0.110225 0.770422,-0.176555 1.156486,-0.260526 1.46686,-0.319058 1.040061,-0.240433 2.56079,-0.434219 0.908669,-0.115791 1.8147,-0.257554 2.726009,-0.34737 1.783418,-0.175769 3.600016,-0.126351 5.36942,0.173683 0.656473,0.111317 1.848581,0.387272 2.478191,0.607906 0.421959,0.147865 0.826056,0.347371 1.239082,0.521054 0.413032,0.173684 0.833631,0.328549 1.239097,0.521054 0.381526,0.181137 2.178287,1.148209 2.560802,1.389486 1.140608,0.719463 1.252788,0.880421 2.230375,1.736863 0.330421,0.289474 0.672959,0.564214 0.991266,0.868425 0.39953,0.381836 1.316546,1.396623 1.652133,1.823698 0.263007,0.334708 0.495631,0.694745 0.743449,1.042115 0.247819,0.347375 0.520761,0.6763 0.743463,1.042116 0.384375,0.631384 0.823031,1.649483 1.07389,2.344759 0.463931,1.285822 0.795318,2.635205 0.991266,3.994767 0.07061,0.489899 0.11014,0.984221 0.16522,1.476334 0.209294,1.870241 0.142812,1.044476 0.247814,2.865813 0.07993,1.386352 0.209286,2.778067 0.165208,4.168458 -0.03518,1.109796 -0.103515,1.505454 -0.247819,2.605284 -0.06042,0.460491 -0.232085,1.761673 -0.330423,2.257913 -0.307597,1.55216 -0.776047,3.114599 -1.486913,4.515832 -0.465789,0.918134 -0.808063,1.35697 -1.569524,1.997385 -0.414168,0.34833 -0.863553,0.68684 -1.404301,0.78159 -0.16298,0.02854 -0.330421,0 -0.495635,0 -0.165213,0 -0.331103,0.01573 -0.495647,0 -0.451294,-0.04313 -0.893267,-0.208788 -1.321689,-0.347375 -0.191609,-0.06197 -0.389447,-0.102803 -0.578259,-0.173686 -0.768996,-0.288728 -1.51171,-0.75476 -2.065156,-1.389482 -0.17152,-0.196712 -0.345466,-0.392633 -0.495631,-0.607906 -0.529498,-0.759074 -1.094407,-2.044598 -1.321705,-2.952653 -0.07146,-0.285461 -0.112669,-0.578432 -0.165208,-0.86843 -0.155585,-0.858716 -0.213906,-1.106008 -0.247815,-1.997389 -0.03909,-1.02746 0.0065,-1.170853 0.08259,-2.171069 0.07787,-1.023304 0.052,-1.18294 0.247816,-2.171068 0.09524,-0.480567 0.369078,-1.509497 0.495648,-1.99739 0.210378,-0.810954 0.291775,-1.1943 0.578242,-1.997388 0.125699,-0.352386 0.280089,-0.692697 0.413036,-1.042116 0.142433,-0.374341 0.252335,-0.762929 0.413022,-1.128952 0.170399,-0.388138 0.391091,-0.749511 0.578242,-1.128961 1.520044,-3.081863 -0.343011,0.582845 1.156502,-2.344759 0.736019,-1.436977 1.436983,-2.904622 2.312971,-4.255292 0.675368,-1.041342 1.468426,-1.982998 2.230375,-2.952659 0.807195,-1.02724 1.580504,-2.095789 2.478179,-3.039504 0.107731,-0.113261 1.742051,-1.672793 1.899948,-1.823697 0.602288,-0.575616 1.161827,-1.140661 1.81734,-1.650016 0.31941,-0.248192 0.65891,-0.46628 0.991278,-0.694743 1.326136,-0.911559 0.956222,-0.661279 2.312978,-1.476325 0.385491,-0.231581 0.75943,-0.486034 1.156484,-0.694745 0.648399,-0.340824 1.875227,-0.840666 2.56081,-1.12896 0.413026,-0.173687 0.817126,-0.373189 1.23909,-0.521054 0.405582,-0.142127 0.822149,-0.248398 1.23909,-0.347374 0.671802,-0.159475 1.953038,-0.387391 2.643402,-0.434216 0.412183,-0.02794 0.826281,-0.01399 1.239102,0 1.37915,0.04678 2.636091,0.202269 3.965097,0.607899 0.418085,0.127602 0.837531,0.25718 1.239102,0.434217 2.25266,0.993111 4.313239,2.710749 6.030254,4.515827 1.222516,1.285205 2.452994,2.810589 3.386862,4.342147 0.359371,0.589348 0.665451,1.213053 0.99129,1.823699 0.30749,0.576248 0.62756,1.145805 0.90867,1.73686 0.81062,1.704398 1.49756,3.609854 1.89993,5.471098 0.1533,0.70909 0.51165,3.155243 0.57826,3.907932 0.0536,0.605955 0.0556,1.215764 0.0826,1.823694 0.0699,1.57835 0.11985,2.168867 0.0826,3.734248 -0.0131,0.550598 -0.0558,1.099968 -0.0826,1.650008 -0.10877,2.228499 0.022,1.150152 -0.33042,3.126349 -0.0829,0.464253 -0.33778,1.999826 -0.49564,2.518443 -0.10913,0.358486 -0.26492,0.699553 -0.41303,1.042116 -0.49381,1.142081 -1.05089,1.995414 -1.98255,2.778968 -0.512019,0.430624 -0.807249,0.657951 -1.404303,0.955269 -2.082209,1.036884 -4.815239,1.287458 -6.856342,0 -1.039948,-0.655968 -1.701729,-1.51784 -2.312969,-2.605285 -0.73993,-1.316405 -1.303507,-2.892451 -1.404313,-4.428985 -0.02843,-0.433177 -0.01421,-0.868687 0,-1.30264 0.05962,-1.816094 0.469783,-3.631437 1.156497,-5.297418 0.17139,-0.415809 0.390863,-0.807741 0.578249,-1.215799 0.919955,-2.003373 0.197961,-0.636361 1.321683,-2.605288 0.247827,-0.434216 0.479527,-0.87913 0.743471,-1.30264 0.259655,-0.416642 0.548208,-0.812432 0.826052,-1.215799 0.792556,-1.150604 1.03182,-1.50249 1.899958,-2.605289 0.489825,-0.622218 1.432401,-1.7664 1.982536,-2.344758 0.372037,-0.391113 0.771006,-0.752635 1.156509,-1.128954 0.385491,-0.37632 0.758094,-0.767903 1.156493,-1.128961 1.486489,-1.347193 0.960399,-0.74368 2.478189,-1.997388 0.36866,-0.304519 0.71155,-0.642385 1.07387,-0.95527 0.28711,-0.247941 2.06043,-1.733124 2.39558,-1.997389 0.37902,-0.29884 0.77579,-0.571964 1.15649,-0.868424 0.9373,-0.7299 1.16713,-1.000906 2.14777,-1.650015 0.37577,-0.248734 0.77098,-0.463165 1.15648,-0.694744 1.53057,-0.91946 0.75964,-0.486132 2.31298,-1.302644 0.3855,-0.202632 0.76325,-0.422577 1.15649,-0.6079 0.40596,-0.191318 0.82318,-0.355201 1.2391,-0.521054 0.64312,-0.256454 1.63569,-0.629017 2.31296,-0.781587 0.3808,-0.08579 0.771,-0.11579 1.1565,-0.173683 0.3855,-0.05789 0.76825,-0.142291 1.15649,-0.17369 0.42864,-0.03467 1.55924,0.006 1.98255,0.08684 0.28279,0.05406 0.5547,0.160678 0.82607,0.260528 0.92428,0.340088 1.76245,0.850343 2.47817,1.563169 0.26886,0.267768 0.50132,0.573666 0.74347,0.868432 0.82941,1.009626 0.99532,1.204085 1.65212,2.431598 0.57844,1.081072 0.82788,1.779257 1.2391,2.952658 0.20169,0.575548 0.41432,1.148104 0.57823,1.73686 0.16696,0.599679 0.2885,1.212655 0.41304,1.823697 0.28513,1.398867 0.43307,2.386501 0.57824,3.821084 0.40415,3.993748 0.2858,8.00152 -0.1652,11.984318 -0.18849,1.664545 -0.4889,3.331966 -0.90867,4.950043 -0.30143,1.161884 -0.41553,1.481593 -0.90867,2.518443 -0.32377,0.680742 -0.71888,1.522087 -1.32171,1.997388 -0.55527,0.437814 -0.69862,0.372685 -1.4043,0.521062"
       id="path13082" />
  </g>
</svg>
